<svg version="1.1" xmlns="http://www.w3.org/2000/svg" xmlns:xlink="http://www.w3.org/1999/xlink" width="663.8312" height="662.28716" viewBox="0,0,663.8312,662.28716"><g transform="translate(17.4026,187.96537)"><g data-paper-data="{&quot;isPaintingLayer&quot;:true}" fill-rule="nonzero" stroke-linejoin="miter" stroke-miterlimit="10" stroke-dasharray="" stroke-dashoffset="0" style="mix-blend-mode: normal"><path d="M0.73597,469.32179h-7.93651v-657.28716h7.93651z" fill="#313131" stroke="none" stroke-width="0" stroke-linecap="butt"/><path d="M645.70706,-6.91919v7.93651h-657.28716v-7.93651z" fill="#313131" stroke="none" stroke-width="0" stroke-linecap="butt"/><path d="M646.4286,474.32179h-7.93651v-657.28716h7.93651z" fill="#313131" stroke="none" stroke-width="0" stroke-linecap="butt"/><path d="M639.88456,360.27417v7.93651h-657.28716v-7.93651z" fill="#313131" stroke="none" stroke-width="0" stroke-linecap="butt"/><path d="M166.05582,189c0,-28.71881 23.28119,-52 52,-52c28.71881,0 52,23.28119 52,52c0,28.71881 -23.28119,52 -52,52c-28.71881,0 -52,-23.28119 -52,-52z" fill="#313131" stroke="none" stroke-width="0" stroke-linecap="butt"/><path d="M371.05582,185c0,-28.71881 23.28119,-52 52,-52c28.71881,0 52,23.28119 52,52c0,28.71881 -23.28119,52 -52,52c-28.71881,0 -52,-23.28119 -52,-52z" fill="#313131" stroke="none" stroke-width="0" stroke-linecap="butt"/><path d="M270.05582,263c0,-28.71881 23.28119,-52 52,-52c28.71881,0 52,23.28119 52,52c0,28.71881 -23.28119,52 -52,52c-28.71881,0 -52,-23.28119 -52,-52z" fill="#313131" stroke="none" stroke-width="0" stroke-linecap="butt"/><path d="M369.05582,36c0,-28.71881 23.28119,-52 52,-52c28.71881,0 52,23.28119 52,52c0,28.71881 -23.28119,52 -52,52c-28.71881,0 -52,-23.28119 -52,-52z" fill="#313131" stroke="none" stroke-width="0" stroke-linecap="butt"/><path d="M166.05582,34c0,-28.71881 23.28119,-52 52,-52c28.71881,0 52,23.28119 52,52c0,28.71881 -23.28119,52 -52,52c-28.71881,0 -52,-23.28119 -52,-52z" fill="#313131" stroke="none" stroke-width="0" stroke-linecap="butt"/><path d="M244,176.41766l68.01301,57.08235" fill="none" stroke="#313131" stroke-width="50" stroke-linecap="round"/><path d="M324,238.5l68.01301,-57.08234" data-paper-data="{&quot;index&quot;:null}" fill="none" stroke="#313131" stroke-width="50" stroke-linecap="round"/></g></g></svg>