<svg version="1.1" xmlns="http://www.w3.org/2000/svg" xmlns:xlink="http://www.w3.org/1999/xlink" width="10" height="7.74097" viewBox="0,0,10,7.74097"><g transform="translate(-344,-176.12951)"><g data-paper-data="{&quot;isPaintingLayer&quot;:true}" fill="#5865f2" fill-rule="nonzero" stroke="none" stroke-width="1" stroke-linecap="butt" stroke-linejoin="miter" stroke-miterlimit="10" stroke-dasharray="" stroke-dashoffset="0" style="mix-blend-mode: normal"><path d="M353.9575,182.5731c-0.86597,0.6475 -1.70598,1.04033 -2.53185,1.29739c-0.2045,-0.28036 -0.3854,-0.5792 -0.54192,-0.8925c0.29809,-0.11328 0.58438,-0.25306 0.85495,-0.41613c-0.07079,-0.05302 -0.14078,-0.10846 -0.20921,-0.1655c-1.62577,0.76961 -3.41356,0.76961 -5.05898,0c-0.06764,0.05704 -0.13764,0.11247 -0.20921,0.1655c0.26977,0.16227 0.55528,0.30206 0.85338,0.41532c-0.15652,0.3141 -0.3382,0.61214 -0.54192,0.89251c-0.82507,-0.25707 -1.6643,-0.64991 -2.53027,-1.2966c-0.17697,-1.89668 0.17697,-3.82067 1.48262,-5.79367c0.64732,-0.30366 1.34026,-0.52458 2.06465,-0.64991c0.08966,0.16067 0.19585,0.37678 0.26742,0.54869c0.75508,-0.11568 1.51723,-0.11568 2.28645,0c0.07158,-0.17191 0.17541,-0.38802 0.26428,-0.54869c0.72362,0.12533 1.41576,0.34544 2.06308,0.6483c1.13183,1.69022 1.6942,3.59655 1.48655,5.79528zM348.23783,180.384c0.00865,-0.56234 -0.39641,-1.02345 -0.89901,-1.02345c-0.50259,0 -0.89901,0.46192 -0.89901,1.02345c0,0.56153 0.40507,1.02266 0.89901,1.02266c0.5026,0 0.89979,-0.46112 0.89901,-1.02266zM351.56015,180.384c0.00865,-0.56234 -0.39642,-1.02345 -0.89901,-1.02345c-0.5026,0 -0.89901,0.46192 -0.89901,1.02345c0,0.56153 0.40507,1.02266 0.89901,1.02266c0.50259,0 0.89901,-0.46112 0.89901,-1.02266z"/></g></g></svg>