<svg version="1.1" xmlns="http://www.w3.org/2000/svg" xmlns:xlink="http://www.w3.org/1999/xlink" width="676.93436" height="665.15801" viewBox="0,0,676.93436,665.15801"><g transform="translate(17.4026,187.96537)"><g data-paper-data="{&quot;isPaintingLayer&quot;:true}" fill="#313131" fill-rule="nonzero" stroke="none" stroke-width="0" stroke-linecap="butt" stroke-linejoin="miter" stroke-miterlimit="10" stroke-dasharray="" stroke-dashoffset="0" style="mix-blend-mode: normal"><path d="M0.73597,469.32179h-7.93651v-657.28716h7.93651z"/><path d="M645.70706,-6.91919v7.93651h-657.28716v-7.93651z"/><path d="M646.4286,474.32179h-7.93651v-657.28716h7.93651z"/><path d="M639.88456,360.27417v7.93651h-657.28716v-7.93651z"/><path d="M81.03754,324.65362l487.83775,0.1772l-2.77061,103.10582l-487.837,-0.1772z"/><path d="M562.09525,78.40548h97.43651v281.28716h-97.43651z"/><path d="M498.01303,149.5c0,-39.2122 31.78779,-71 71,-71c39.21221,0 71,31.7878 71,71c0,39.2122 -31.78779,71 -71,71c-39.21221,0 -71,-31.7878 -71,-71z"/><path d="M498.09525,147.90548h97.43651v281.28716h-97.43651z"/><path d="M178.44954,407.69264h-97.43651v-281.28716h97.43651z" data-paper-data="{&quot;index&quot;:null}"/><path d="M171.53176,268.5c-39.21221,0 -71,-31.7878 -71,-71c0,-39.2122 31.78779,-71 71,-71c39.21221,0 71,31.7878 71,71c0,39.2122 -31.78779,71 -71,71z" data-paper-data="{&quot;index&quot;:null}"/><path d="M242.44953,477.19264h-97.43651v-281.28716h97.43651z" data-paper-data="{&quot;index&quot;:null}"/></g></g></svg>