<svg version="1.1" xmlns="http://www.w3.org/2000/svg" xmlns:xlink="http://www.w3.org/1999/xlink" width="101.97351" height="69.13283" viewBox="0,0,101.97351,69.13283"><defs><linearGradient x1="319.33" y1="194.47942" x2="302.45187" y2="177.6013" gradientUnits="userSpaceOnUse" id="color-1"><stop offset="0" stop-color="#ffe34e"/><stop offset="1" stop-color="#ff9332"/></linearGradient><linearGradient x1="298.95629" y1="186.04036" x2="322.82558" y2="186.04036" gradientUnits="userSpaceOnUse" id="color-2"><stop offset="0" stop-color="#9d7222"/><stop offset="1" stop-color="#cb952c"/></linearGradient><linearGradient x1="331.26465" y1="182.54477" x2="314.38652" y2="165.66665" gradientUnits="userSpaceOnUse" id="color-3"><stop offset="0" stop-color="#ffe34e"/><stop offset="1" stop-color="#ff9332"/></linearGradient><linearGradient x1="310.89094" y1="174.10571" x2="334.76023" y2="174.10571" gradientUnits="userSpaceOnUse" id="color-4"><stop offset="0" stop-color="#9d7222"/><stop offset="1" stop-color="#cb952c"/></linearGradient><linearGradient x1="343.19929" y1="194.47942" x2="326.32116" y2="177.6013" gradientUnits="userSpaceOnUse" id="color-5"><stop offset="0" stop-color="#ffe34e"/><stop offset="1" stop-color="#ff9332"/></linearGradient><linearGradient x1="322.82558" y1="186.04036" x2="346.69487" y2="186.04036" gradientUnits="userSpaceOnUse" id="color-6"><stop offset="0" stop-color="#9d7222"/><stop offset="1" stop-color="#cb952c"/></linearGradient></defs><g transform="translate(-270.04439,-145.35978)"><g data-paper-data="{&quot;isPaintingLayer&quot;:true}" fill-rule="nonzero" stroke-linecap="butt" stroke-linejoin="miter" stroke-miterlimit="10" stroke-dasharray="" stroke-dashoffset="0" style="mix-blend-mode: normal"><path d="M314.20737,187.6213c3.57655,3.57655 2.26597,11.27874 -0.82616,14.75332c-8.91679,10.01965 -28.77708,13.59092 -39.33565,3.76053c-4.05676,-3.77699 -4.09123,-11.98785 -3.97003,-16.71367c0.29659,-11.56521 18.05865,-14.95059 27.09312,-13.95885c0.50988,0.05597 4.40384,0.37525 6.81581,0.79235c0.45396,0.02433 0.88873,0.12086 1.29303,0.27839c1.56266,0.60882 2.66996,2.12825 2.66996,3.90631c0,0.24191 -0.02049,0.47901 -0.05984,0.7097c0.15077,2.60154 4.34839,4.50059 6.31976,6.47195z" fill="#000000" stroke="none" stroke-width="0.5"/><path d="M317.65042,157.68185c3.57655,3.57655 2.26598,11.27873 -0.82615,14.75331c-8.91679,10.01965 -28.77706,13.59093 -39.33563,3.76053c-4.05676,-3.77699 -4.09123,-11.98783 -3.97005,-16.71367c0.29659,-11.56521 18.05865,-14.9506 27.09312,-13.95888c0.50988,0.05597 4.40384,0.37525 6.81582,0.79235c0.45396,0.02433 0.88873,0.12086 1.29303,0.27839c1.56266,0.60882 2.66996,2.12826 2.66996,3.90631c0,0.24191 -0.02048,0.47901 -0.05984,0.70969c0.15077,2.60154 4.34837,4.50059 6.31975,6.47197z" fill="#000000" stroke="none" stroke-width="0.5"/><path d="M329.48676,148.92005l0.6318,0.3159l0.61565,0.20522l0.20402,0.12983l1.31462,0.32865l0.20751,0.36316l0.02035,0.00451l1.49698,0.74849l0.51148,0.43842l0.04212,0.02527l0.69036,0.25889l0.49207,0.33936l0.55092,0.23197l0.57761,0.43321l0.09342,0.05945l0.82572,0.49544l0.08256,0.08256l0.10155,0.06462l0.00924,0.04617l0.70482,0.70484l0.26543,0.44238l0.3648,0.3648l0.18365,0.30609l0.00944,0.00946l0.37423,0.22455l0.44908,0.44908l0.11469,0.19115l0.74222,0.3711l0.51149,0.43843l0.57767,0.34659l1.64666,1.64666l0.15519,0.25864l0.23411,0.19021l0.4491,0.59878l0.11376,0.2702l0.03592,0.02919l0.27039,0.36052l0.23851,0.23849l0.30138,0.5023l0.2575,0.17168l0.02394,0.02633l0.64057,0.40765l0.27609,0.05522l0.12884,0.20247l0.20247,0.12884l0.05522,0.27609l0.20203,0.31748l1.05559,1.05561l0.26542,0.44238l0.3648,0.3648l0.44909,0.74849l0.04784,0.1572l0.10694,0.12475l0.29939,0.59878l0.02894,0.13015l0.34036,0.40844l0.30552,0.63287l0.39898,0.57853l0.44909,1.19758l0.00903,0.07909l0.04275,0.06715l0.09458,0.28372l0.22885,0.53401l0.08596,0.12894l0.05671,0.1588l0.12327,0.07044l0.22895,0.91581l0.3175,0.88902l-0.0635,0.127l0.04089,0.16357v0.48321l0.06831,0.34159l-0.01985,0.41693l0.10123,0.40494v18.86186l-0.0409,0.16358l0.0635,0.127l-0.31749,0.889l-0.00449,0.01799v0.74849l-0.10125,0.40493l0.01986,0.41695l-0.14969,0.74849l-0.23962,0.50586l-0.00651,0.02927l0.02812,0.06502l-0.09014,0.21405l-0.0529,0.23809l-0.20193,0.40384l-0.17888,0.71556l-0.18153,0.10374l-0.13278,0.31535l-0.3793,0.50573l-0.33855,0.50784l0.00075,0.03524l-0.07273,0.07274l-0.12373,0.18558l-0.6805,0.61863l-0.65031,0.65029l-0.19127,0.11476l-0.07612,0.0692l-0.03517,-0.00242l-0.00356,0.00213l-0.08429,0.0843l-0.35792,0.21475l-0.28079,0.30884l-1.34727,0.89819l-0.36512,0.1304l-0.30867,0.23458l-0.69423,0.29753l-1.02713,0.68476l-0.06443,0.023l-0.01094,0.05468l-0.4543,0.2891l-0.35044,0.40885l-0.31996,0.01777l-0.12327,0.07845l-0.02396,0.02633l-0.44909,0.29941l-0.08849,0.0316l-0.01271,0.00808l-0.14902,0.04967l-0.27691,0.0989l-0.06155,0.03916l-0.02889,0.02889l-0.28891,0.17336l-0.09289,0.05911l-0.01265,0.00422l-0.35402,0.21241l-0.2758,0.08393l-0.22951,0.17443l-0.69423,0.29753l-1.02713,0.68476l-0.0596,0.02129l-0.04393,0.04555l-1.19758,0.74849l-0.39526,0.12819l-0.35927,0.26945l-0.35107,0.14782l-0.28921,0.24791l-0.66481,0.33241l-0.232,0.15465l-0.09622,0.03438l-0.07227,0.07225l-0.74849,0.4491l-0.37732,0.11483l-0.83994,0.59995l-0.5308,0.2091l-0.47287,0.31919l-1.64666,0.59878l-0.05785,0.00601l-0.04907,0.03123l-0.36575,0.12192l-0.88031,0.58687l-0.61118,0.21828l-0.56214,0.32431l-1.04789,0.29941l-0.58421,0.01947l-0.56708,0.14179h-4.7903l-0.29264,-0.07316l-0.30004,0.03105l-1.04788,-0.1497l-0.35276,-0.14371l-0.3798,-0.02922l-0.74551,-0.24849l-3.17119,-0.79279l-0.21788,0.0264l-0.93869,-0.11733h-0.33788l-0.16357,-0.04088l-0.127,0.0635l-0.889,-0.31751l-0.50558,-0.1264l-0.48132,-0.06016l-0.38925,-0.15069l-0.41618,-0.032l-1.34729,-0.4491l-0.56834,-0.36168l-0.39217,-0.16512l-0.03155,-0.00789l-0.0029,0.00126l-0.0116,-0.0049l-0.48096,-0.12024l-0.73272,-0.39078l-0.76533,-0.32224l-0.03001,-0.02251l-0.44908,-0.11228l-0.07382,-0.12918l-0.01672,-0.00278l-0.21849,-0.095l-1.48735,-0.37182l-0.08211,-0.14368l-0.16523,-0.00917l-0.21026,-0.24531l-0.78105,-0.30769l-0.27137,-0.19382l-0.06665,-0.03157l-0.00702,-0.02103l-0.4353,-0.31093l-0.38855,-0.19427l-1.42021,-0.51644l-0.41778,-0.282l-0.22445,-0.08016l-0.14901,-0.04969l-0.0127,-0.00808l-0.08851,-0.03161l-0.19843,-0.13228l-0.2493,-0.0554l-0.54993,-0.27497l-0.02848,0.00448l-0.07145,-0.05443l-0.24831,-0.12415l-0.68288,-0.58531l-0.7154,-0.54508l-0.07259,-0.09072l-0.90717,-0.49483l-0.44167,-0.40681l-0.5149,-0.30892l-0.48362,-0.48364l-0.24303,-0.01349l-0.35044,-0.40886l-0.4543,-0.2891l-0.03498,-0.17489l-0.33371,-0.26697l-0.28303,-0.37147l-0.37147,-0.28303l-0.45379,-0.56723l-1.18316,-1.18314l-0.15517,-0.25866l-0.23411,-0.19021l-0.44911,-0.59878l-0.04619,-0.10974l-0.08811,-0.08011l-0.06921,-0.10381l-0.15566,-0.15566l-0.12142,-0.20235l-0.18771,-0.14302l-0.5988,-0.74849l-0.07726,-0.16859l-0.13722,-0.12475l-0.89817,-1.34727l-0.08908,-0.2494l-0.17235,-0.20108l-0.32679,-0.65361l-0.04087,-0.02335l-0.02918,-0.11678l-0.05223,-0.10445l-0.20889,-0.94001l-0.23354,-0.93418v-0.11677l-0.02612,-0.11751l0.02612,-0.03918v-12.00172l0.11194,-0.44774l-0.01215,-0.46137l0.1996,-0.8982v-0.88724l0.06424,-0.25691l-0.03187,-0.2629l0.11735,-0.93868v-1.71112l-0.02612,-0.03918l0.02612,-0.11751v-0.11677l0.23355,-0.93418l0.06584,-0.29632v-1.91315l0.14971,-0.59878v-2.72051l-0.02612,-0.03915l0.02612,-0.1175v-0.11677l0.23354,-0.93419l0.06584,-0.29632v-0.26647l0.10125,-0.40494l-0.01985,-0.41693l0.1497,-0.74849l0.23961,-0.50586l0.12143,-0.54641l0.44908,-0.89819l0.2479,-0.28923l0.14781,-0.35107l0.44909,-0.59878l0.22045,-0.17911l0.04942,-0.07765l0.01777,-0.31997l0.40884,-0.35043l0.28909,-0.4543l0.1624,-0.03248l0.13949,-0.23249l0.4491,-0.44908l0.08648,-0.0519l0.1384,-0.20759l0.30886,-0.28078l0.21476,-0.35793l1.49696,-1.49697l0.09755,-0.05854l0.0075,-0.05369l0.29553,-0.21345l0.19571,-0.30755l0.26128,-0.05225l0.01038,-0.01814l0.08556,-0.02139l0.90251,-0.65182l0.58664,-0.23465l0.4977,-0.24885l0.02337,-0.04087l0.11678,-0.02919l0.10443,-0.05222l0.8946,-0.19879l0.82572,-0.35389l0.58163,-0.09381l0.5494,-0.21268l1.19758,-0.14969l0.25039,0.03034l0.4172,-0.13907l0.77474,-0.48422l0.41363,-0.13415l0.86861,-0.62044l0.3093,-0.12184l0.25239,-0.21632l2.5506,-1.27529l0.61046,-0.3663l0.05525,-0.01681l0.59171,-0.45083l0.68288,-0.58532l0.24831,-0.12414l0.07145,-0.05445l0.02848,0.00448l0.54994,-0.27497l0.24931,-0.0554l0.0471,-0.0314l0.60648,-0.48517l0.16859,-0.07726l0.12475,-0.13723l0.44908,-0.29941l0.13891,-0.04962l0.10649,-0.10207l0.56061,-0.32035l0.50135,-0.50135l0.57767,-0.34659l0.51148,-0.43843l0.05484,-0.02742l0.02336,-0.04086l0.11678,-0.02919l0.10443,-0.05222l0.26892,-0.05976l0.19464,-0.11677l0.14855,0.04051l0.32792,-0.07287l0.93417,-0.23354h0.11678l0.11749,-0.0261l0.03918,0.0261h1.07383l0.50051,0.12514h0.51592l0.09829,0.02457h0.38228l0.59878,0.1497h0.38964l0.12282,-0.03349l0.05583,0.03349h1.07837c0.71429,0 1.38689,0.17871 1.97542,0.49385l0.11998,0.02999l0.03157,0.05526c0.21638,0.1277 0.42027,0.27427 0.60941,0.4375l0.78447,0.17432l0.10443,0.05221l0.00558,0.0014l0.23922,0.01841l0.44909,0.1497l0.20403,0.12984l0.08522,0.02131l0.12234,-0.00979l0.89819,0.1497l0.41696,0.18129l0.45051,0.06144l0.48441,0.19377l0.32286,0.08071l0.02102,0.01121l0.07382,-0.02013l0.56136,0.3368l0.26732,0.03818l0.62389,0.25417zM320.09625,205.78711l0.14498,0.07733l0.16385,0.01261l0.53969,0.1799l0.37896,0.05415h3.8224l0.45129,-0.30087h-1.87698l-0.33981,-0.08495l-0.34914,0.02792l-1.62676,-0.27112l-1.45132,-0.12095h-1.56114z" fill="#000000" stroke="none" stroke-width="0.5"/><path d="M304.40936,156.98573c1.09913,-1.92345 12.40499,0.29726 13.82797,0.31909c5.05238,0.07748 10.10595,0.00222 15.15894,0c3.08652,-0.00136 4.17005,-2.20224 7.33034,0.62843c2.28284,2.04475 2.32362,8.17123 2.33512,10.89752c0.01631,3.86485 1.47463,8.03451 0.5988,11.97578c-1.26939,5.71222 -7.62951,18.78439 -13.3227,21.18151c-7.89003,3.32212 -27.9474,2.81968 -33.00724,-5.61337c-1.55522,-2.59202 -0.59601,-7.55217 -0.88055,-10.70768c-0.77281,-8.5707 -6.03732,-23.58282 6.20058,-26.64229z" fill="#000000" stroke="none" stroke-width="0.5"/><path d="M371.11972,168.68602c0,0.85727 -0.2574,1.65443 -0.69914,2.31838l0.585,0.76782l-0.0192,0.12235l0.06797,0.10682l0.1497,0.44908l0.05167,0.67168l0.16339,0.65356v0.7826l0.21801,1.09006l-0.01985,0.41693l0.10123,0.40494v2.19802l0.09268,0.55606l-0.02793,0.34916l0.08495,0.3398v0.63291l0.06831,0.34159l-0.01984,0.41693l0.10123,0.40494v3.29334l-0.06421,0.25691l0.03186,0.26289l-0.11735,0.93869v0.18818l-0.16339,0.65356l-0.05166,0.67168l-0.08434,0.25301v0.36782l-0.08496,0.3398l0.02793,0.34916l-0.09269,0.55606v0.10226l-0.0409,0.16357l0.0635,0.127l-0.3175,0.889l-0.22895,0.9158l-0.12059,0.06891l-0.01972,0.05912l-0.00808,0.01271l-0.0316,0.08849l-0.04321,0.06484l-0.22588,0.90351l-0.14368,0.0821l-0.00919,0.16523l-1.6399,1.40564l-0.89819,0.44908l-0.21633,0.04808l-0.01155,0.02022l-0.11702,0.02925l-0.20403,0.12983l-0.44909,0.1497l-0.67168,0.05167l-0.65356,0.16339h-5.87232l-0.34158,0.06831l-0.41694,-0.01985l-0.40494,0.10123h-5.83819l-0.29264,-0.07316l-0.30004,0.03105l-0.75305,-0.10759h-1.34884l-0.40495,-0.10123l-0.41693,0.01984l-1.09006,-0.218h-0.48321l-0.14815,-0.03705l-0.15041,0.02639l-1.94666,-0.13905h-1.79659l-0.5005,-0.12512h-0.5159l-0.86788,-0.21697l-1.45769,-0.12147l-0.39073,-0.13302l-0.41253,-0.01375l-0.91242,-0.2607l-1.75205,-0.37545l-0.90724,-0.1008h-1.11516l-0.65357,-0.16339l-0.67168,-0.05167l-0.253,-0.08433h-0.66721l-0.5005,-0.12512h-0.51591l-0.09828,-0.02457h-6.51986l-1.40259,-0.35065l-0.08828,0.00914l-0.75305,-0.10759h-0.15125l-0.16357,-0.04091l-0.127,0.0635l-0.889,-0.3175l-0.5185,-0.12963h-0.06682l-0.59879,-0.1497l-0.45522,-0.24278l-0.02498,-0.00623l-0.00581,-0.01018l-0.06083,-0.03244l-0.59289,-0.18044l-0.74849,-0.44909l-0.07225,-0.07225l-0.09624,-0.03436l-0.44908,-0.29939l-0.0801,-0.0881l-0.10975,-0.04622l-0.59879,-0.44908l-0.37573,-0.46243l-0.46243,-0.37573l-0.27039,-0.36052l-0.0888,-0.0888l-0.01225,-0.02042l-0.07366,-0.02072l-0.48982,-0.9184l-0.53552,-0.89254l0.00946,-0.03465l-0.05089,-0.02908l-0.22895,-0.9158l-0.02302,-0.06444l-0.05683,-0.08929l-0.05552,-0.16655l-0.07535,-0.15069l-0.25123,-0.41871l-0.43842,-0.51149l-0.1771,-0.35423l-0.04087,-0.02335l-0.0292,-0.11677l-0.05222,-0.10446l-0.20065,-0.90291l-0.03848,-0.06415l-0.27823,-0.159l-0.13061,-0.52241l-0.27704,-0.46174l0.08432,-0.30917l-0.09413,-0.37646l-0.02503,-0.05282l-0.04725,-0.23629l-0.03413,-0.13649v-0.03413l-0.06831,-0.34158l0.01984,-0.41693l-0.10123,-0.40494v-6.28729l0.16339,-0.65356l0.0009,-0.01172l-0.0372,-0.07439l0.0547,-0.15317l0.03326,-0.43241l0.1497,-0.44908l0.12983,-0.20402l0.02925,-0.11703l0.07106,-0.0406l0.07037,-0.11059l0.18827,-0.52715l0.29939,-0.44908l0.31692,-0.28811l0.05448,-0.08561l0.0509,-0.01018l0.18654,-0.16958l0.55348,-0.60884l0.008,-0.00533l0.27455,-0.45756l0.48982,-0.91841l0.07365,-0.02072l0.01226,-0.02042l0.78302,-0.78303l0.01349,-0.24303l0.40884,-0.35044l0.28909,-0.4543l0.31425,-0.06284l0.4035,-0.34586l0.07315,-0.08048l0.09328,-0.06219l0.05778,-0.04952l0.06603,-0.03303l0.13522,-0.09015l0.50572,-0.3793l0.10975,-0.04621l0.0801,-0.08811l0.44908,-0.29939l0.15879,-0.05671l0.07044,-0.12328l0.9158,-0.22895l0.889,-0.3175l0.127,0.0635l0.16357,-0.04091h1.07383l0.03916,-0.02611l0.11749,0.02611h0.11677l0.59879,0.1497h0.1497l0.16357,0.04091l0.127,-0.0635l0.889,0.3175l0.32151,0.08038l0.23574,-0.01886l0.89819,0.14969l0.24643,0.10715l0.17586,-0.04796l0.55481,0.33289h1.92667l0.80208,0.20052l0.30917,-0.08432l0.30532,0.18319h0.37981l0.40494,0.10123l0.41693,-0.01985l0.34159,0.06831h1.53109l0.16357,0.0409l0.127,-0.0635l0.889,0.31749l0.01801,0.0045h2.84425l0.22893,0.05722l0.23386,-0.0316l1.11659,0.12407h17.43216l1.19758,-0.29939h0.45066l0.75305,-0.10759l0.30005,0.03105l0.29263,-0.07315h0.45422l1.66164,-0.35607l0.12529,0.00424l0.11557,-0.04855l1.85339,-0.28514l0.65652,-0.13131l0.11894,0.00567l0.11027,-0.04493l1.04788,-0.1497l0.30005,0.03105l0.29264,-0.07316h1.04788c0.71431,0 1.38687,0.17872 1.97542,0.49386l0.11997,0.02999l0.03157,0.05525c1.23519,0.72899 2.06383,2.07357 2.06383,3.61169zM349.07308,179.7479l0.17209,-0.10951l-0.52933,-0.02521h-0.58784l0.34403,0.08601l0.53392,0.08898z" fill="#000000" stroke="none" stroke-width="0.5"/><g><g><path d="M319.33,177.6013c4.66077,4.66077 4.66077,12.21736 0,16.87813c-4.66077,4.66077 -12.21736,4.66077 -16.87813,0c-4.66077,-4.66077 -4.66077,-12.21736 0,-16.87813c4.66077,-4.66077 12.21736,-4.66077 16.87813,0z" fill="url(#color-1)" stroke="url(#color-2)" stroke-width="2"/><path d="M308.04046,192.86605c-0.68115,-0.68115 -0.24127,-0.24123 -0.65874,-0.65874c-0.67136,-0.67136 -1.06842,-2.27182 0.04282,-3.45155c0.41469,-0.44032 2.23226,-2.23226 2.9196,-2.9196c0.86879,-0.86884 2.65743,-0.66566 3.31452,-0.00857c0.41718,0.41718 -0.01495,-0.015 0.67589,0.67589c0.91629,0.91629 0.6962,2.8496 0.00857,3.53718c-0.41114,0.41118 -2.17332,2.17337 -2.83397,2.83396c-0.89427,0.89427 -2.56804,0.89213 -3.46869,-0.00857z" fill="#be8b28" stroke="none" stroke-width="1"/><path d="M304.7588,189.5262c-0.6812,-0.6812 -0.24127,-0.24127 -0.65879,-0.65874c-0.67134,-0.67136 -1.0684,-2.27182 0.04282,-3.45159c0.41474,-0.44027 2.01398,-2.01398 2.70132,-2.70132c0.86884,-0.86879 2.65743,-0.66561 3.31452,-0.00852c0.41718,0.41718 -0.01495,-0.015 0.67594,0.67589c0.91629,0.91629 0.69615,2.8496 0.00852,3.53718c-0.41114,0.41114 -1.95499,1.95504 -2.61563,2.61568c-0.89427,0.89427 -2.56804,0.89208 -3.46869,-0.00857z" fill="#be8b28" stroke="none" stroke-width="1"/><path d="M306.83154,190.13876c-2.05359,-2.05359 -2.05359,-5.38311 0,-7.43669c2.05359,-2.05359 5.38315,-2.05359 7.43674,0c2.05359,2.05359 2.05359,5.38311 0,7.43669c-2.05359,2.05359 -5.38315,2.05359 -7.43674,0z" fill="#a67b29" stroke="none" stroke-width="1"/><path d="M308.81178,189.94094c-0.6812,-0.68115 -1.39825,-1.3982 -1.81572,-1.81567c-0.67136,-0.67136 -1.06842,-2.27182 0.04282,-3.45159c0.41474,-0.44027 1.16263,-1.16263 1.84997,-1.84997c0.86879,-0.86879 2.65743,-0.66566 3.31452,-0.00857c0.41718,0.41718 1.14197,1.14197 1.83287,1.83287c0.91629,0.91629 0.69615,2.8496 0.00857,3.53718c-0.41114,0.41114 -1.10373,1.10373 -1.76433,1.76433c-0.89427,0.89427 -2.56804,0.89208 -3.46869,-0.00857z" fill="#cb952c" stroke="none" stroke-width="1"/><path d="M308.78308,188.19283c-0.68115,-0.6812 0.42156,0.42156 0.00409,0.00404c-0.67136,-0.67136 -1.06842,-2.27177 0.04282,-3.45155c0.2858,-0.30348 3.57523,-3.59491 4.51446,-4.5337c0.42346,-0.42331 1.13199,-0.31045 1.45398,0.01154c0.38824,0.38824 1.35782,1.35777 2.03473,2.03469c0.4107,0.4107 0.43359,0.98741 0.02772,1.38461c-0.90036,0.88112 -4.15374,4.10357 -4.60911,4.55893c-0.89427,0.89427 -2.56804,0.89208 -3.46869,-0.00857z" fill="#9e7627" stroke="none" stroke-width="1"/></g><g><path d="M331.26465,165.66665c4.66077,4.66077 4.66077,12.21736 0,16.87813c-4.66077,4.66077 -12.21736,4.66077 -16.87813,0c-4.66077,-4.66077 -4.66077,-12.21736 0,-16.87813c4.66077,-4.66077 12.21736,-4.66077 16.87813,0z" fill="url(#color-3)" stroke="url(#color-4)" stroke-width="2"/><path d="M319.97511,180.9314c-0.68115,-0.68115 -0.24127,-0.24123 -0.65874,-0.65874c-0.67136,-0.67136 -1.06842,-2.27182 0.04282,-3.45155c0.41469,-0.44032 2.23226,-2.23226 2.9196,-2.9196c0.86879,-0.86884 2.65743,-0.66566 3.31452,-0.00857c0.41718,0.41718 -0.01495,-0.015 0.67589,0.67589c0.91629,0.91629 0.6962,2.8496 0.00857,3.53718c-0.41114,0.41118 -2.17332,2.17337 -2.83397,2.83396c-0.89427,0.89427 -2.56804,0.89213 -3.46869,-0.00857z" fill="#be8b28" stroke="none" stroke-width="1"/><path d="M316.69345,177.59155c-0.6812,-0.6812 -0.24127,-0.24127 -0.65879,-0.65874c-0.67134,-0.67136 -1.0684,-2.27182 0.04282,-3.45159c0.41474,-0.44027 2.01398,-2.01398 2.70132,-2.70132c0.86884,-0.86879 2.65743,-0.66561 3.31452,-0.00852c0.41718,0.41718 -0.01495,-0.015 0.67594,0.67589c0.91629,0.91629 0.69615,2.8496 0.00852,3.53718c-0.41114,0.41114 -1.95499,1.95504 -2.61563,2.61568c-0.89427,0.89427 -2.56804,0.89208 -3.46869,-0.00857z" fill="#be8b28" stroke="none" stroke-width="1"/><path d="M318.76619,178.20411c-2.05359,-2.05359 -2.05359,-5.38311 0,-7.43669c2.05359,-2.05359 5.38315,-2.05359 7.43674,0c2.05359,2.05359 2.05359,5.38311 0,7.43669c-2.05359,2.05359 -5.38315,2.05359 -7.43674,0z" fill="#a67b29" stroke="none" stroke-width="1"/><path d="M320.74643,178.00629c-0.6812,-0.68115 -1.39825,-1.3982 -1.81572,-1.81567c-0.67136,-0.67136 -1.06842,-2.27182 0.04282,-3.45159c0.41474,-0.44027 1.16263,-1.16263 1.84997,-1.84997c0.86879,-0.86879 2.65743,-0.66566 3.31452,-0.00857c0.41718,0.41718 1.14197,1.14197 1.83287,1.83287c0.91629,0.91629 0.69615,2.8496 0.00857,3.53718c-0.41114,0.41114 -1.10373,1.10373 -1.76433,1.76433c-0.89427,0.89427 -2.56804,0.89208 -3.46869,-0.00857z" fill="#cb952c" stroke="none" stroke-width="1"/><path d="M320.71773,176.25818c-0.68115,-0.6812 0.42156,0.42156 0.00409,0.00404c-0.67136,-0.67136 -1.06842,-2.27177 0.04282,-3.45155c0.2858,-0.30348 3.57523,-3.59491 4.51446,-4.5337c0.42346,-0.42331 1.13199,-0.31045 1.45398,0.01154c0.38824,0.38824 1.35782,1.35777 2.03473,2.03469c0.4107,0.4107 0.43359,0.98741 0.02772,1.38461c-0.90036,0.88112 -4.15374,4.10357 -4.60911,4.55893c-0.89427,0.89427 -2.56804,0.89208 -3.46869,-0.00857z" fill="#9e7627" stroke="none" stroke-width="1"/></g><g><path d="M343.19929,177.6013c4.66077,4.66077 4.66077,12.21736 0,16.87813c-4.66077,4.66077 -12.21736,4.66077 -16.87813,0c-4.66077,-4.66077 -4.66077,-12.21736 0,-16.87813c4.66077,-4.66077 12.21736,-4.66077 16.87813,0z" fill="url(#color-5)" stroke="url(#color-6)" stroke-width="2"/><path d="M331.90975,192.86605c-0.68115,-0.68115 -0.24127,-0.24123 -0.65874,-0.65874c-0.67136,-0.67136 -1.06842,-2.27182 0.04282,-3.45155c0.41469,-0.44032 2.23226,-2.23226 2.9196,-2.9196c0.86879,-0.86884 2.65743,-0.66566 3.31452,-0.00857c0.41718,0.41718 -0.01495,-0.015 0.67589,0.67589c0.91629,0.91629 0.6962,2.8496 0.00857,3.53718c-0.41114,0.41118 -2.17332,2.17337 -2.83397,2.83396c-0.89427,0.89427 -2.56804,0.89213 -3.46869,-0.00857z" fill="#be8b28" stroke="none" stroke-width="1"/><path d="M328.62809,189.5262c-0.6812,-0.6812 -0.24127,-0.24127 -0.65879,-0.65874c-0.67134,-0.67136 -1.0684,-2.27182 0.04282,-3.45159c0.41474,-0.44027 2.01398,-2.01398 2.70132,-2.70132c0.86884,-0.86879 2.65743,-0.66561 3.31452,-0.00852c0.41718,0.41718 -0.01495,-0.015 0.67594,0.67589c0.91629,0.91629 0.69615,2.8496 0.00852,3.53718c-0.41114,0.41114 -1.95499,1.95504 -2.61563,2.61568c-0.89427,0.89427 -2.56804,0.89208 -3.46869,-0.00857z" fill="#be8b28" stroke="none" stroke-width="1"/><path d="M330.70083,190.13876c-2.05359,-2.05359 -2.05359,-5.38311 0,-7.43669c2.05359,-2.05359 5.38315,-2.05359 7.43674,0c2.05359,2.05359 2.05359,5.38311 0,7.43669c-2.05359,2.05359 -5.38315,2.05359 -7.43674,0z" fill="#a67b29" stroke="none" stroke-width="1"/><path d="M332.68107,189.94094c-0.6812,-0.68115 -1.39825,-1.3982 -1.81572,-1.81567c-0.67136,-0.67136 -1.06842,-2.27182 0.04282,-3.45159c0.41474,-0.44027 1.16263,-1.16263 1.84997,-1.84997c0.86879,-0.86879 2.65743,-0.66566 3.31452,-0.00857c0.41718,0.41718 1.14197,1.14197 1.83287,1.83287c0.91629,0.91629 0.69615,2.8496 0.00857,3.53718c-0.41114,0.41114 -1.10373,1.10373 -1.76433,1.76433c-0.89427,0.89427 -2.56804,0.89208 -3.46869,-0.00857z" fill="#cb952c" stroke="none" stroke-width="1"/><path d="M332.65237,188.19283c-0.68115,-0.6812 0.42156,0.42156 0.00409,0.00404c-0.67136,-0.67136 -1.06842,-2.27177 0.04282,-3.45155c0.2858,-0.30348 3.57523,-3.59491 4.51446,-4.5337c0.42346,-0.42331 1.13199,-0.31045 1.45398,0.01154c0.38824,0.38824 1.35782,1.35777 2.03473,2.03469c0.4107,0.4107 0.43359,0.98741 0.02772,1.38461c-0.90036,0.88112 -4.15374,4.10357 -4.60911,4.55893c-0.89427,0.89427 -2.56804,0.89208 -3.46869,-0.00857z" fill="#9e7627" stroke="none" stroke-width="1"/></g></g></g></g></svg>