<svg version="1.1" xmlns="http://www.w3.org/2000/svg" xmlns:xlink="http://www.w3.org/1999/xlink" width="443.27863" height="29.0659" viewBox="0,0,443.27863,29.0659"><defs><linearGradient x1="109.64604" y1="4.61861" x2="109.77471" y2="26.0454" gradientUnits="userSpaceOnUse" id="color-1"><stop offset="0" stop-color="#bf0000"/><stop offset="1" stop-color="#400000"/></linearGradient><linearGradient x1="319.77257" y1="3.23911" x2="319.5105" y2="24.66468" gradientUnits="userSpaceOnUse" id="color-2"><stop offset="0" stop-color="#bf0000"/><stop offset="1" stop-color="#400000"/></linearGradient><linearGradient x1="528.71992" y1="0.7588" x2="528.54153" y2="22.18523" gradientUnits="userSpaceOnUse" id="color-3"><stop offset="0" stop-color="#bf0000"/><stop offset="1" stop-color="#400000"/></linearGradient></defs><g transform="translate(-97.52961,-0.17731)"><g data-paper-data="{&quot;isPaintingLayer&quot;:true}" fill-rule="nonzero" stroke="#000000" stroke-width="3" stroke-linecap="butt" stroke-linejoin="miter" stroke-miterlimit="10" stroke-dasharray="" stroke-dashoffset="0" style="mix-blend-mode: normal"><path d="M99.02961,23.08231c2.57581,-4.9762 7.57456,-14.84329 8.9608,-17.52137c0.66154,-1.27804 2.09845,-1.24663 2.82196,0.05183c1.47379,2.64494 6.90914,12.39957 9.68647,17.38399c1.00143,1.79721 -0.1094,2.98489 -1.72183,2.99455c-3.01363,0.0181 -13.01296,0.07815 -18.14631,0.10899c-1.7832,0.01072 -2.48282,-1.31459 -1.60109,-3.018z" fill="url(#color-1)"/><path d="M308.82122,21.50615c2.66612,-4.9284 7.84396,-14.7027 9.27881,-17.35506c0.68474,-1.26576 2.12083,-1.20816 2.82054,0.10327c1.42532,2.67138 6.68189,12.5235 9.36786,17.55773c0.96849,1.81517 -0.16381,2.9824 -1.77615,2.96266c-3.01346,-0.03685 -13.01222,-0.15915 -18.14528,-0.22192c-1.78309,-0.0218 -2.45844,-1.35964 -1.54579,-3.0467z" fill="url(#color-2)"/><path d="M517.84,19.06848c2.64686,-4.93878 7.78648,-14.73323 9.21096,-17.39117c0.67979,-1.26843 2.11609,-1.21643 2.82092,0.09226c1.43574,2.66579 6.73074,12.4973 9.43636,17.52101c0.97557,1.81138 -0.15216,2.98301 -1.76456,2.96958c-3.01358,-0.02508 -13.01275,-0.10833 -18.14601,-0.15105c-1.78317,-0.01483 -2.46373,-1.35003 -1.55768,-3.04064z" fill="url(#color-3)"/></g></g></svg>