<svg version="1.1" xmlns="http://www.w3.org/2000/svg" xmlns:xlink="http://www.w3.org/1999/xlink" width="34.95586" height="32.12918" viewBox="0,0,34.95586,32.12918"><defs><linearGradient x1="113.8942" y1="163.9354" x2="113.8942" y2="204.04652" gradientUnits="userSpaceOnUse" id="color-1"><stop offset="0" stop-color="#e6e6e6"/><stop offset="1" stop-color="#cccccc"/></linearGradient></defs><g transform="translate(-159.62696,-163.93541)"><g data-paper-data="{&quot;isPaintingLayer&quot;:true}" fill-rule="nonzero" stroke="none" stroke-linecap="butt" stroke-linejoin="miter" stroke-miterlimit="10" stroke-dasharray="" stroke-dashoffset="0" style="mix-blend-mode: normal"><path d="M159.62696,183.84787c0,-5.95362 0,-4.59518 0,-8.13253c0,-4.77455 6.10037,-11.77993 12.61256,-11.77993c18.02073,0 -22.83875,0 9.72318,0c7.85036,0 12.62012,5.89968 12.62012,12.53294c0,5.81881 0,4.22018 0,7.68072c0,4.81412 -4.64793,11.91552 -12.31891,11.91552c-0.34533,0 -0.69679,0 -1.05422,0c-33.10806,0 8.91335,0 -8.97016,0c-6.5122,0 -12.61256,-5.70807 -12.61256,-12.21673z" fill="url(#color-1)" stroke-width="0"/><path d="M186.84602,177.15315v5.69371c0,2.23467 -1.81155,4.04622 -4.04622,4.04622h-11.38983c-2.23467,0 -4.04622,-1.81155 -4.04622,-4.04622v-5.69371c0,-2.23467 1.81155,-4.04622 4.04622,-4.04622h11.38983c2.23467,0 4.04622,1.81155 4.04622,4.04622zM180.06799,179.89321l-5.32739,-2.69966c-0.14225,-0.0721 -0.31053,0.03127 -0.31053,0.19077v5.24051c0,0.15725 0.16397,0.26075 0.30593,0.19305l5.32739,-2.54084c0.16025,-0.07641 0.163,-0.30356 0.00461,-0.38381z" fill="#f61c0d" stroke-width="1"/></g></g></svg>