<svg version="1.1" xmlns="http://www.w3.org/2000/svg" xmlns:xlink="http://www.w3.org/1999/xlink" width="540.78374" height="119.00172" viewBox="0,0,540.78374,119.00172"><defs><linearGradient x1="468.33334" y1="202.53678" x2="468.33334" y2="223.96392" gradientUnits="userSpaceOnUse" id="color-1"><stop offset="0" stop-color="#bf0000"/><stop offset="1" stop-color="#400000"/></linearGradient><linearGradient x1="485.84363" y1="211.37012" x2="485.84363" y2="224.46392" gradientUnits="userSpaceOnUse" id="color-2"><stop offset="0" stop-color="#bf0000"/><stop offset="1" stop-color="#400000"/></linearGradient><linearGradient x1="450.84363" y1="211.37012" x2="450.84363" y2="224.46392" gradientUnits="userSpaceOnUse" id="color-3"><stop offset="0" stop-color="#bf0000"/><stop offset="1" stop-color="#400000"/></linearGradient><linearGradient x1="410.33334" y1="202.53678" x2="410.33334" y2="223.96392" gradientUnits="userSpaceOnUse" id="color-4"><stop offset="0" stop-color="#bf0000"/><stop offset="1" stop-color="#400000"/></linearGradient><linearGradient x1="427.84363" y1="211.37012" x2="427.84363" y2="224.46392" gradientUnits="userSpaceOnUse" id="color-5"><stop offset="0" stop-color="#bf0000"/><stop offset="1" stop-color="#400000"/></linearGradient><linearGradient x1="392.84363" y1="211.37012" x2="392.84363" y2="224.46392" gradientUnits="userSpaceOnUse" id="color-6"><stop offset="0" stop-color="#bf0000"/><stop offset="1" stop-color="#400000"/></linearGradient><linearGradient x1="517.88879" y1="125.03254" x2="538.19074" y2="131.88481" gradientUnits="userSpaceOnUse" id="color-7"><stop offset="0" stop-color="#bf0000"/><stop offset="1" stop-color="#400000"/></linearGradient><linearGradient x1="531.85795" y1="111.26661" x2="544.26416" y2="115.45393" gradientUnits="userSpaceOnUse" id="color-8"><stop offset="0" stop-color="#bf0000"/><stop offset="1" stop-color="#400000"/></linearGradient><linearGradient x1="520.66519" y1="144.42867" x2="533.0714" y2="148.61598" gradientUnits="userSpaceOnUse" id="color-9"><stop offset="0" stop-color="#bf0000"/><stop offset="1" stop-color="#400000"/></linearGradient><linearGradient x1="29.89678" y1="203.72564" x2="29.89678" y2="225.15278" gradientUnits="userSpaceOnUse" id="color-10"><stop offset="0" stop-color="#bf0000"/><stop offset="1" stop-color="#400000"/></linearGradient><linearGradient x1="47.40707" y1="212.55898" x2="47.40707" y2="225.65278" gradientUnits="userSpaceOnUse" id="color-11"><stop offset="0" stop-color="#bf0000"/><stop offset="1" stop-color="#400000"/></linearGradient><linearGradient x1="12.40707" y1="212.55898" x2="12.40707" y2="225.65278" gradientUnits="userSpaceOnUse" id="color-12"><stop offset="0" stop-color="#bf0000"/><stop offset="1" stop-color="#400000"/></linearGradient><linearGradient x1="83.39567" y1="203.72564" x2="83.39567" y2="225.15278" gradientUnits="userSpaceOnUse" id="color-13"><stop offset="0" stop-color="#bf0000"/><stop offset="1" stop-color="#400000"/></linearGradient><linearGradient x1="100.90596" y1="212.55898" x2="100.90596" y2="225.65278" gradientUnits="userSpaceOnUse" id="color-14"><stop offset="0" stop-color="#bf0000"/><stop offset="1" stop-color="#400000"/></linearGradient><linearGradient x1="65.90596" y1="212.55898" x2="65.90596" y2="225.65278" gradientUnits="userSpaceOnUse" id="color-15"><stop offset="0" stop-color="#bf0000"/><stop offset="1" stop-color="#400000"/></linearGradient></defs><g transform="translate(-4.85188,-107.65107)"><g data-paper-data="{&quot;isPaintingLayer&quot;:true}" fill-rule="nonzero" stroke="#000000" stroke-linecap="butt" stroke-linejoin="miter" stroke-miterlimit="10" stroke-dasharray="" stroke-dashoffset="0" style="mix-blend-mode: normal"><g><path d="M457.60623,220.93637c2.60565,-4.96064 7.66357,-14.79755 9.06587,-17.46724c0.6692,-1.27404 2.10589,-1.23399 2.8216,0.06879c1.45788,2.65376 6.83454,12.44084 9.58191,17.44185c0.99061,1.80319 -0.12733,2.98416 -1.73979,2.98416c-3.01367,0 -13.0132,0 -18.14663,0c-1.78323,0 -2.47488,-1.32948 -1.58294,-3.02755z" fill="url(#color-1)" stroke-width="3"/><path d="M479.28844,222.61383c1.59227,-3.03137 4.68309,-9.04256 5.54001,-10.67397c0.40894,-0.77855 1.28688,-0.75408 1.72424,0.04203c0.89089,1.62167 4.17649,7.60242 5.85536,10.65846c0.60534,1.1019 -0.07781,1.82358 -1.06316,1.82358c-1.84161,0 -7.95218,0 -11.08914,0c-1.0897,0 -1.51236,-0.81242 -0.96731,-1.85009z" fill="url(#color-2)" stroke-width="2"/><path d="M444.28844,222.61383c1.59227,-3.03137 4.68309,-9.04256 5.54001,-10.67397c0.40894,-0.77855 1.28688,-0.75408 1.72424,0.04203c0.89089,1.62167 4.17648,7.60242 5.85536,10.65846c0.60534,1.1019 -0.07781,1.82358 -1.06316,1.82358c-1.84161,0 -7.95217,0 -11.08914,0c-1.08971,0 -1.51236,-0.81242 -0.96731,-1.85009z" fill="url(#color-3)" stroke-width="2"/></g><g><path d="M399.60623,220.93637c2.60565,-4.96064 7.66357,-14.79755 9.06587,-17.46724c0.6692,-1.27404 2.10589,-1.23399 2.8216,0.06879c1.45788,2.65376 6.83454,12.44084 9.58191,17.44185c0.99061,1.80319 -0.12733,2.98416 -1.73979,2.98416c-3.01367,0 -13.0132,0 -18.14663,0c-1.78323,0 -2.47488,-1.32948 -1.58294,-3.02755z" fill="url(#color-4)" stroke-width="3"/><path d="M421.28844,222.61383c1.59227,-3.03137 4.68309,-9.04256 5.54001,-10.67397c0.40894,-0.77855 1.28688,-0.75408 1.72424,0.04203c0.89089,1.62167 4.17649,7.60242 5.85536,10.65846c0.60534,1.1019 -0.07781,1.82358 -1.06316,1.82358c-1.84161,0 -7.95218,0 -11.08914,0c-1.0897,0 -1.51236,-0.81242 -0.96731,-1.85009z" fill="url(#color-5)" stroke-width="2"/><path d="M386.28844,222.61383c1.59227,-3.03137 4.68309,-9.04256 5.54001,-10.67397c0.40894,-0.77855 1.28688,-0.75408 1.72424,0.04203c0.89089,1.62167 4.17648,7.60242 5.85536,10.65846c0.60534,1.1019 -0.07781,1.82358 -1.06316,1.82358c-1.84161,0 -7.95217,0 -11.08914,0c-1.08971,0 -1.51236,-0.81242 -0.96731,-1.85009z" fill="url(#color-6)" stroke-width="2"/></g><g><path d="M531.89173,141.08042c-3.86687,-4.0552 -11.56973,-11.99329 -13.65079,-14.1757c-0.99313,-1.04149 -0.49574,-2.38993 0.9675,-2.65143c2.98063,-0.53267 13.97318,-2.49715 19.59016,-3.50096c2.02529,-0.36194 2.78673,1.07496 2.27108,2.60274c-0.96375,2.85541 -4.16153,12.32985 -5.80317,17.1937c-0.57026,1.68959 -2.05112,1.91976 -3.37478,0.53163z" fill="url(#color-7)" stroke-width="3"/><path d="M540.41492,121.07324c-2.36298,-2.47807 -7.07009,-7.32891 -8.34179,-8.66255c-0.60689,-0.63644 -0.30294,-1.46045 0.59123,-1.62025c1.82141,-0.32551 8.53881,-1.52597 11.97126,-2.13937c1.23762,-0.22118 1.70294,0.65689 1.38783,1.59049c-0.58893,1.7449 -2.54305,7.53459 -3.54623,10.50682c-0.34847,1.03248 -1.2534,1.17314 -2.06228,0.32486z" fill="url(#color-8)" stroke-width="2"/><path d="M529.22216,154.23529c-2.36298,-2.47807 -7.07009,-7.32891 -8.34179,-8.66255c-0.60689,-0.63644 -0.30294,-1.46045 0.59123,-1.62025c1.82141,-0.32551 8.53881,-1.52597 11.97126,-2.13937c1.23762,-0.22118 1.70294,0.65689 1.38783,1.59049c-0.58893,1.7449 -2.54305,7.53458 -3.54623,10.50682c-0.34848,1.03248 -1.2534,1.17314 -2.06228,0.32486z" fill="url(#color-9)" stroke-width="2"/></g><g><path d="M19.16967,222.12523c2.60565,-4.96064 7.66357,-14.79755 9.06587,-17.46724c0.6692,-1.27404 2.10589,-1.23399 2.8216,0.06879c1.45788,2.65376 6.83454,12.44084 9.58191,17.44185c0.99061,1.80319 -0.12733,2.98416 -1.73979,2.98416c-3.01367,0 -13.0132,0 -18.14663,0c-1.78323,0 -2.47488,-1.32948 -1.58294,-3.02755z" fill="url(#color-10)" stroke-width="3"/><path d="M40.85188,223.80269c1.59227,-3.03137 4.68309,-9.04256 5.54001,-10.67397c0.40894,-0.77855 1.28688,-0.75408 1.72424,0.04203c0.89089,1.62167 4.17649,7.60242 5.85536,10.65846c0.60534,1.1019 -0.07781,1.82358 -1.06316,1.82358c-1.84161,0 -7.95218,0 -11.08914,0c-1.0897,0 -1.51236,-0.81242 -0.96731,-1.85009z" fill="url(#color-11)" stroke-width="2"/><path d="M5.85188,223.80269c1.59227,-3.03137 4.68309,-9.04256 5.54001,-10.67397c0.40894,-0.77855 1.28688,-0.75408 1.72424,0.04203c0.89089,1.62167 4.17648,7.60242 5.85536,10.65846c0.60534,1.1019 -0.07781,1.82358 -1.06316,1.82358c-1.84161,0 -7.95217,0 -11.08914,0c-1.08971,0 -1.51236,-0.81242 -0.96731,-1.85009z" fill="url(#color-12)" stroke-width="2"/></g><g><path d="M72.66856,222.12523c2.60565,-4.96064 7.66357,-14.79755 9.06587,-17.46724c0.6692,-1.27404 2.10589,-1.23399 2.8216,0.06879c1.45788,2.65376 6.83454,12.44084 9.58191,17.44185c0.99061,1.80319 -0.12733,2.98416 -1.73979,2.98416c-3.01367,0 -13.0132,0 -18.14663,0c-1.78323,0 -2.47488,-1.32948 -1.58294,-3.02755z" fill="url(#color-13)" stroke-width="3"/><path d="M94.35077,223.80269c1.59227,-3.03137 4.68309,-9.04256 5.54001,-10.67397c0.40894,-0.77855 1.28688,-0.75408 1.72424,0.04203c0.89089,1.62167 4.17649,7.60242 5.85536,10.65846c0.60534,1.1019 -0.07781,1.82358 -1.06316,1.82358c-1.84161,0 -7.95218,0 -11.08914,0c-1.0897,0 -1.51236,-0.81242 -0.96731,-1.85009z" fill="url(#color-14)" stroke-width="2"/><path d="M59.35077,223.80269c1.59227,-3.03137 4.68309,-9.04256 5.54001,-10.67397c0.40894,-0.77855 1.28688,-0.75408 1.72424,0.04203c0.89089,1.62167 4.17648,7.60242 5.85536,10.65846c0.60534,1.1019 -0.07781,1.82358 -1.06316,1.82358c-1.84161,0 -7.95217,0 -11.08914,0c-1.08971,0 -1.51236,-0.81242 -0.96731,-1.85009z" fill="url(#color-15)" stroke-width="2"/></g></g></g></svg>