<svg version="1.1" xmlns="http://www.w3.org/2000/svg" xmlns:xlink="http://www.w3.org/1999/xlink" width="140.08084" height="32.1791" viewBox="0,0,140.08084,32.1791"><defs><linearGradient x1="436.14821" y1="163.96036" x2="436.14821" y2="204.07148" gradientUnits="userSpaceOnUse" id="color-1"><stop offset="0" stop-color="#229be6"/><stop offset="1" stop-color="#2681ff"/></linearGradient></defs><g transform="translate(-249.95958,-163.91045)"><g data-paper-data="{&quot;isPaintingLayer&quot;:true}" fill-rule="nonzero" stroke="none" stroke-linecap="butt" stroke-linejoin="miter" stroke-miterlimit="10" stroke-dasharray="" stroke-dashoffset="0" style="mix-blend-mode: normal"><path d="M249.95958,175.7403c0,-4.77455 6.10037,-11.77993 12.61256,-11.77993c18.02073,0 110.25152,-0.11231 114.84816,0c7.84802,0.19175 12.62012,5.89968 12.62012,12.53294c0,5.81881 0,4.22018 0,7.68072c0,4.81412 -4.64793,11.91552 -12.31891,11.91552c-0.34533,0 -97.26585,0 -115.14936,0c-6.5122,0 -12.61256,-5.70807 -12.61256,-12.21673c0,0 -0.00001,-4.59517 -0.00001,-8.13252z" fill="url(#color-1)" stroke-width="0"/><text transform="translate(285.02857,183.57216) scale(0.29768,0.29768)" font-size="40" xml:space="preserve" fill="#ffffff" fill-rule="nonzero" stroke="none" stroke-width="1" stroke-linecap="butt" stroke-linejoin="miter" stroke-miterlimit="10" stroke-dasharray="" stroke-dashoffset="0" font-family="Sans Serif" font-weight="normal" text-anchor="start" style="mix-blend-mode: normal"><tspan x="0" dy="0">End Playtest</tspan></text></g></g></svg>