<svg version="1.1" xmlns="http://www.w3.org/2000/svg" xmlns:xlink="http://www.w3.org/1999/xlink" width="222.30497" height="32.12918" viewBox="0,0,222.30497,32.12918"><defs><linearGradient x1="350.46387" y1="163.9354" x2="350.46387" y2="204.04652" gradientUnits="userSpaceOnUse" id="color-1"><stop offset="0" stop-color="#229be6"/><stop offset="1" stop-color="#2681ff"/></linearGradient></defs><g transform="translate(-208.84752,-163.93541)"><g data-paper-data="{&quot;isPaintingLayer&quot;:true}" fill-rule="nonzero" stroke="none" stroke-linecap="butt" stroke-linejoin="miter" stroke-miterlimit="10" stroke-dasharray="" stroke-dashoffset="0" style="mix-blend-mode: normal"><path d="M208.84753,183.84787c0,-5.95362 0,-4.59518 0,-8.13253c0,-4.77455 6.10037,-11.77993 12.61256,-11.77993c18.02073,0 164.51036,0 197.07229,0c7.85036,0 12.62012,5.89968 12.62012,12.53294c0,5.81881 0,4.22018 0,7.68072c0,4.81412 -4.64793,11.91552 -12.31891,11.91552c-0.34533,0 -0.69679,0 -1.05422,0c-33.10806,0 -178.43576,0 -196.31927,0c-6.5122,0 -12.61256,-5.70807 -12.61256,-12.21673z" fill="url(#color-1)" stroke-width="0"/><text transform="translate(278.4677,183.57216) scale(0.29768,0.29768)" font-size="40" xml:space="preserve" fill="#ffffff" fill-rule="nonzero" stroke="none" stroke-width="1" stroke-linecap="butt" stroke-linejoin="miter" stroke-miterlimit="10" stroke-dasharray="" stroke-dashoffset="0" font-family="Sans Serif" font-weight="normal" text-anchor="start" style="mix-blend-mode: normal"><tspan x="0" dy="0">Game Settings</tspan></text></g></g></svg>