<svg version="1.1" xmlns="http://www.w3.org/2000/svg" xmlns:xlink="http://www.w3.org/1999/xlink" width="161.37726" height="32.12918" viewBox="0,0,161.37726,32.12918"><defs><linearGradient x1="320" y1="163.93541" x2="320" y2="204.04653" gradientUnits="userSpaceOnUse" id="color-1"><stop offset="0" stop-color="#229be6"/><stop offset="1" stop-color="#2681ff"/></linearGradient><linearGradient x1="256.99598" y1="179.08693" x2="256.99598" y2="191.24173" gradientUnits="userSpaceOnUse" id="color-2"><stop offset="0" stop-color="#420000"/><stop offset="1" stop-color="#300000"/></linearGradient><linearGradient x1="257.06325" y1="171.43455" x2="257.06325" y2="183.58935" gradientUnits="userSpaceOnUse" id="color-3"><stop offset="0" stop-color="#420000"/><stop offset="1" stop-color="#300000"/></linearGradient><linearGradient x1="261.26786" y1="173.92368" x2="261.26786" y2="186.07847" gradientUnits="userSpaceOnUse" id="color-4"><stop offset="0" stop-color="#420000"/><stop offset="1" stop-color="#300000"/></linearGradient><linearGradient x1="263.25501" y1="171.87027" x2="263.25501" y2="184.02508" gradientUnits="userSpaceOnUse" id="color-5"><stop offset="0" stop-color="#800000"/><stop offset="1" stop-color="#660000"/></linearGradient></defs><g transform="translate(-239.31137,-163.93541)"><g data-paper-data="{&quot;isPaintingLayer&quot;:true}" fill-rule="nonzero" stroke="none" stroke-linecap="butt" stroke-linejoin="miter" stroke-miterlimit="10" stroke-dasharray="" stroke-dashoffset="0" style="mix-blend-mode: normal"><path d="M239.31137,183.84787c0,-5.95362 0,-4.59518 0,-8.13253c0,-4.77455 6.10037,-11.77993 12.61256,-11.77993c18.02073,0 103.58265,0 136.14458,0c7.85036,0 12.62012,5.89968 12.62012,12.53294c0,5.81881 0,4.22018 0,7.68072c0,4.81412 -4.64793,11.91552 -12.31891,11.91552c-0.34533,0 -0.69678,0 -1.05422,0c-33.10805,0 -117.50805,0 -135.39156,0c-6.5122,0 -12.61256,-5.70807 -12.61256,-12.21673z" fill="url(#color-1)" stroke-width="0"/><text transform="translate(309.13468,183.57216) scale(0.29768,0.29768)" font-size="40" xml:space="preserve" fill="#ffffff" fill-rule="nonzero" stroke="none" stroke-width="1" stroke-linecap="butt" stroke-linejoin="miter" stroke-miterlimit="10" stroke-dasharray="" stroke-dashoffset="0" font-family="Sans Serif" font-weight="normal" text-anchor="start" style="mix-blend-mode: normal"><tspan x="0" dy="0">Red</tspan></text><g stroke-width="0"><path d="M250.91859,184.54899c0,-1.57446 0,-0.55767 0,-1.52265c0,-1.55174 1.39072,-3.86023 4.0384,-3.93942c0.9881,-0.02955 5.15957,0 6.74826,0c2.00813,0 3.84045,2.30187 3.84045,3.82064c0,0.96425 0,-0.0346 0,1.56224c0,2.11789 -2.48866,4.09779 -4.078,4.09779c-0.95031,0 -5.02336,0 -6.5503,0c-2.06702,0 -3.99881,-1.93686 -3.99881,-4.01861z" fill="url(#color-2)"/><path d="M250.98586,176.89662c0,-1.57446 0,-0.55766 0,-1.52264c0,-1.55174 1.39073,-3.86024 4.03841,-3.93942c0.9881,-0.02955 4.65501,0 6.2437,0c2.00813,0 3.84044,2.30188 3.84044,3.82065c0,0.96425 0,-0.0346 0,1.56224c0,2.11789 -2.48865,4.09779 -4.07799,4.09779c-0.95031,0 -4.5188,0 -6.04575,0c-2.06702,0 -3.99881,-1.93686 -3.99881,-4.01861z" fill="url(#color-3)"/><path d="M252.67339,180c0,-4.7466 3.84787,-8.59447 8.59447,-8.59447c4.7466,0 8.59447,3.84787 8.59447,8.59447c0,4.7466 -3.84787,8.59447 -8.59447,8.59447c-4.7466,0 -8.59447,-3.84787 -8.59447,-8.59447z" fill="#590000"/><path d="M255.19046,182.05987c0,-1.57446 0,-3.23179 0,-4.19677c0,-1.55174 1.39073,-3.86023 4.03841,-3.93942c0.9881,-0.02955 2.68727,0 4.27596,0c2.00813,0 3.84044,2.30187 3.84044,3.82064c0,0.96425 0,2.63953 0,4.23637c0,2.11789 -2.48865,4.09779 -4.07799,4.09779c-0.95031,0 -2.55105,0 -4.07799,0c-2.06702,0 -3.99882,-1.93686 -3.99882,-4.01861z" fill="url(#color-4)"/><path d="M257.17762,180.00646c0,-1.57446 0,0.97437 0,0.00939c0,-1.55174 1.39073,-3.86024 4.03841,-3.93942c0.68103,-0.02037 8.28637,-0.02273 10.4568,-0.02223c0.97862,0.00023 1.66703,0.94943 1.66703,1.69368c0,0.89736 0,3.1384 0,4.70295c0,0.94926 -0.64001,1.64222 -1.56811,1.63221c-2.05884,-0.02221 -9.54283,-0.05796 -10.59533,-0.05796c-2.06702,0 -3.99881,-1.93686 -3.99881,-4.01861z" fill="url(#color-5)"/></g></g></g></svg>