<svg version="1.1" xmlns="http://www.w3.org/2000/svg" xmlns:xlink="http://www.w3.org/1999/xlink" width="34.95586" height="32.12918" viewBox="0,0,34.95586,32.12918"><defs><linearGradient x1="-9.96895" y1="203.68541" x2="-9.96895" y2="243.79653" gradientUnits="userSpaceOnUse" id="color-1"><stop offset="0" stop-color="#e6e6e6"/><stop offset="1" stop-color="#cccccc"/></linearGradient><radialGradient cx="45.35299" cy="226.43626" r="23.6719" gradientUnits="userSpaceOnUse" id="color-2"><stop offset="0" stop-color="#fed576"/><stop offset="0.2634" stop-color="#f47133"/><stop offset="0.6091" stop-color="#bc3081"/><stop offset="1" stop-color="#4c63d2"/></radialGradient><radialGradient cx="49.19105" cy="223.18399" r="12.15584" gradientUnits="userSpaceOnUse" id="color-3"><stop offset="0" stop-color="#fed576"/><stop offset="0.2634" stop-color="#f47133"/><stop offset="0.6091" stop-color="#bc3081"/><stop offset="1" stop-color="#4c63d2"/></radialGradient></defs><g transform="translate(-35.76381,-203.68542)"><g stroke="none" stroke-miterlimit="10"><path d="M35.76381,223.59788c0,-5.95362 0,-4.59518 0,-8.13253c0,-4.77455 6.10037,-11.77993 12.61256,-11.77993c18.02073,0 -22.83875,0 9.72318,0c7.85036,0 12.62012,5.89968 12.62012,12.53294c0,5.81881 0,4.22018 0,7.68072c0,4.81412 -4.64793,11.91552 -12.31891,11.91552c-0.34533,0 -0.69679,0 -1.05422,0c-33.10806,0 8.91335,0 -8.97016,0c-6.5122,0 -12.61256,-5.70807 -12.61256,-12.21673z" fill="url(#color-1)" stroke-width="0"/><g stroke-width="1"><path d="M49.87057,211.61493c0.87191,-0.03993 1.15146,-0.04992 3.3745,-0.04992c2.22305,0 2.50259,0.00998 3.3745,0.04992c0.87191,0.03993 1.46761,0.17638 1.98676,0.37938c0.53912,0.20966 0.99505,0.4892 1.45097,0.94513c0.4526,0.4526 0.73214,0.91185 0.9418,1.44764c0.19967,0.51915 0.33945,1.11485 0.37938,1.98676c0.03993,0.87191 0.04992,1.15146 0.04992,3.3745c0,2.22305 -0.00998,2.50259 -0.04992,3.3745c-0.03993,0.87191 -0.17638,1.46761 -0.37938,1.98676c-0.20966,0.53912 -0.4892,0.99505 -0.94513,1.45097c-0.45592,0.45592 -0.91185,0.73547 -1.45097,0.94513c-0.51915,0.19967 -1.11485,0.33945 -1.98676,0.37938c-0.87191,0.03993 -1.15146,0.04992 -3.3745,0.04992c-2.22305,0 -2.50259,-0.00998 -3.3745,-0.04992c-0.87191,-0.03993 -1.46761,-0.17638 -1.98676,-0.37938c-0.53912,-0.20966 -0.99505,-0.4892 -1.45097,-0.94513c-0.45592,-0.45592 -0.73547,-0.91185 -0.94513,-1.45097c-0.19967,-0.51915 -0.33945,-1.11485 -0.37938,-1.98676c-0.03993,-0.87191 -0.04992,-1.15146 -0.04992,-3.3745c0,-2.22305 0.00998,-2.50259 0.04992,-3.3745c0.03993,-0.87191 0.17638,-1.46761 0.37938,-1.98676c0.20966,-0.53579 0.4892,-0.99505 0.94513,-1.44764c0.45592,-0.45592 0.91185,-0.73547 1.45097,-0.94513c0.51915,-0.203 1.11485,-0.34277 1.99009,-0.37938zM53.24174,213.03928c-2.18644,0 -2.44601,0.00666 -3.30794,0.04659c-0.7987,0.03661 -1.23133,0.16972 -1.52086,0.28287c-0.38271,0.14976 -0.6556,0.32613 -0.9418,0.61234c-0.2862,0.2862 -0.46258,0.55909 -0.61234,0.9418c-0.11315,0.28953 -0.24626,0.72216 -0.28287,1.52086c-0.03661,0.86193 -0.04659,1.12151 -0.04659,3.30795c0,2.18644 0.00666,2.44601 0.04659,3.30794c0.03661,0.7987 0.16972,1.23133 0.28287,1.52086c0.14976,0.38271 0.32613,0.6556 0.61234,0.9418c0.2862,0.2862 0.55909,0.46258 0.9418,0.61234c0.28953,0.11315 0.72216,0.24627 1.52086,0.28287c0.86193,0.03661 1.12151,0.04659 3.30794,0.04659c2.18644,0 2.44601,-0.00666 3.30794,-0.04659c0.7987,-0.03661 1.23133,-0.16972 1.52086,-0.28287c0.38271,-0.14976 0.6556,-0.32613 0.9418,-0.61234c0.2862,-0.2862 0.46258,-0.55909 0.61234,-0.9418c0.11315,-0.28953 0.24626,-0.72216 0.28287,-1.52086c0.03661,-0.86193 0.04659,-1.12151 0.04659,-3.30794c0,-2.18644 -0.00666,-2.44602 -0.04659,-3.30795c-0.03661,-0.7987 -0.16972,-1.23133 -0.28287,-1.52086c-0.14976,-0.38271 -0.32613,-0.6556 -0.61234,-0.9418c-0.2862,-0.2862 -0.55909,-0.46258 -0.9418,-0.61234c-0.28953,-0.11315 -0.72216,-0.24627 -1.52086,-0.28287c-0.86193,-0.03993 -1.12151,-0.04659 -3.30794,-0.04659z" fill="url(#color-2)"/><path d="M53.24174,215.54852c2.32288,0 4.20315,1.8836 4.20315,4.20315c0,2.31955 -1.8836,4.20315 -4.20315,4.20315c-2.31955,0 -4.20315,-1.88027 -4.20315,-4.20315c0,-2.32288 1.88027,-4.20315 4.20315,-4.20315zM53.24174,217.02279c-1.50754,0 -2.72889,1.22134 -2.72889,2.72889c0,1.50754 1.22134,2.72889 2.72889,2.72889c1.50754,0 2.72889,-1.22134 2.72889,-2.72889c0,-1.50754 -1.22134,-2.72889 -2.72889,-2.72889z" fill="url(#color-3)"/><path d="M56.63288,215.38213c0,-0.5422 0.43954,-0.98173 0.98173,-0.98173c0.5422,0 0.98173,0.43954 0.98173,0.98173c0,0.5422 -0.43954,0.98173 -0.98173,0.98173c-0.5422,0 -0.98173,-0.43954 -0.98173,-0.98173z" fill="#654c9f"/></g></g></g></svg>