<svg version="1.1" xmlns="http://www.w3.org/2000/svg" xmlns:xlink="http://www.w3.org/1999/xlink" width="125.71963" height="34.47684" viewBox="0,0,125.71963,34.47684"><defs><linearGradient x1="351.37891" y1="223.09996" x2="351.37891" y2="263.21108" gradientUnits="userSpaceOnUse" id="color-1"><stop offset="0" stop-color="#229be6"/><stop offset="1" stop-color="#2681ff"/></linearGradient><linearGradient x1="366.97241" y1="161.58257" x2="366.97241" y2="179.45757" gradientUnits="userSpaceOnUse" id="color-2"><stop offset="0" stop-color="#ffffff"/><stop offset="1" stop-color="#b3b3b3"/></linearGradient></defs><g transform="translate(-250.69028,-161.08257)"><g data-paper-data="{&quot;isPaintingLayer&quot;:true}" fill-rule="nonzero" stroke-linecap="butt" stroke-linejoin="miter" stroke-miterlimit="10" stroke-dasharray="" stroke-dashoffset="0" style="mix-blend-mode: normal"><path d="M306.74255,191.21289c0,-7.8019 0,-20.7657 0,-24.41123c0,-1.88649 1.2707,-3.04164 3.25333,-1.80684c5.99314,3.73257 18.49153,11.51665 22.06162,13.74013c1.86165,1.15945 1.4831,3.74891 -0.6233,4.91297c-3.51182,1.94074 -14.55496,8.04353 -20.61393,11.39191c-2.44451,1.35091 -4.07772,-0.24171 -4.07772,-3.82694z" fill="#ffffff" stroke="none" stroke-width="0"/><path d="M250.69028,183.34269c0,-5.95362 0,-3.58479 0,-7.12214c0,-4.77455 6.10037,-11.77993 12.61256,-11.77993c18.02073,0 60.82483,0 93.38676,0c7.85036,0 12.62012,5.89968 12.62012,12.53294c0,5.81881 0,3.20979 0,6.67033c0,4.81412 -4.64793,11.91552 -12.31891,11.91552c-0.34533,0 -0.69679,0 -1.05422,0c-33.10806,0 -74.75023,0 -92.63374,0c-6.5122,0 -12.61256,-5.70807 -12.61256,-12.21673z" fill="url(#color-1)" stroke="none" stroke-width="0"/><path d="M349.4677,184.2309c0,-2.94385 0,-7.8354 0,-9.21094c0,-0.71182 0.47947,-1.14769 1.22756,-0.68177c2.26135,1.40839 6.9773,4.34551 8.32438,5.18448c0.70245,0.43749 0.55961,1.41455 -0.23519,1.85378c-1.32509,0.73229 -5.49194,3.03501 -7.77813,4.29844c-0.92237,0.50973 -1.53862,-0.0912 -1.53862,-1.444z" fill="#ffffff" stroke="none" stroke-width="0"/><text transform="translate(308.89809,183.22642) scale(0.27964,0.27964)" font-size="40" xml:space="preserve" fill="#ffffff" fill-rule="nonzero" stroke="none" stroke-width="1" stroke-linecap="butt" stroke-linejoin="miter" stroke-miterlimit="10" stroke-dasharray="" stroke-dashoffset="0" font-family="Sans Serif" font-weight="normal" text-anchor="start" style="mix-blend-mode: normal"><tspan x="0" dy="0">Play</tspan></text><g><path d="M358.03491,172.52007c0,-4.93604 4.00146,-8.9375 8.9375,-8.9375c4.93604,0 8.9375,4.00146 8.9375,8.9375c0,4.93604 -4.00146,8.9375 -8.9375,8.9375c-4.93604,0 -8.9375,-4.00146 -8.9375,-8.9375z" fill-opacity="0.25098" fill="#000000" stroke="none" stroke-width="0"/><path d="M358.03491,170.52007c0,-4.93604 4.00146,-8.9375 8.9375,-8.9375c4.93604,0 8.9375,4.00146 8.9375,8.9375c0,4.93604 -4.00146,8.9375 -8.9375,8.9375c-4.93604,0 -8.9375,-4.00146 -8.9375,-8.9375z" fill="url(#color-2)" stroke="#000000" stroke-width="1"/><text transform="translate(369.61534,173.22632) rotate(-180) scale(0.20206,-0.20206)" font-size="40" xml:space="preserve" fill="#000000" fill-rule="nonzero" stroke="none" stroke-width="1" stroke-linecap="butt" stroke-linejoin="miter" stroke-miterlimit="10" stroke-dasharray="" stroke-dashoffset="0" font-family="Sans Serif" font-weight="normal" text-anchor="start" style="mix-blend-mode: normal"><tspan x="0" dy="0">A</tspan></text></g></g></g></svg>