<svg version="1.1" xmlns="http://www.w3.org/2000/svg" xmlns:xlink="http://www.w3.org/1999/xlink" width="24" height="24" viewBox="0,0,24,24"><defs><linearGradient x1="320" y1="168" x2="320" y2="192" gradientUnits="userSpaceOnUse" id="color-1"><stop offset="0" stop-color="#ffe300"/><stop offset="1" stop-color="#ffc400"/></linearGradient><linearGradient x1="320" y1="168" x2="320" y2="192" gradientUnits="userSpaceOnUse" id="color-2"><stop offset="0" stop-color="#009cff"/><stop offset="1" stop-color="#0074ff"/></linearGradient></defs><g transform="translate(-308,-168)"><g data-paper-data="{&quot;isPaintingLayer&quot;:true}" fill-rule="nonzero" stroke-linecap="butt" stroke-linejoin="miter" stroke-miterlimit="10" stroke-dasharray="" stroke-dashoffset="0" style="mix-blend-mode: normal"><g><path d="M308,180c0,-6.62742 5.37258,-12 12,-12c6.62742,0 12,5.37258 12,12c0,6.62742 -5.37258,12 -12,12c-6.62742,0 -12,-5.37258 -12,-12z" fill="url(#color-1)" stroke="url(#color-2)" stroke-width="0"/><path d="M320.64682,173.99593l1.51107,3.06183c0.10508,0.21295 0.30825,0.36051 0.54328,0.39461l3.37903,0.49102c0.59191,0.08608 0.82806,0.81325 0.39992,1.23049l-2.44505,2.38329c-0.16992,0.16572 -0.24761,0.40467 -0.20736,0.63858l0.5771,3.36533c0.10117,0.58939 -0.51757,1.03878 -1.04688,0.76071l-3.02215,-1.58877c-0.21016,-0.11039 -0.4614,-0.11039 -0.67156,0l-3.02215,1.58877c-0.52931,0.27835 -1.14805,-0.17131 -1.04688,-0.76071l0.5771,-3.36533c0.04024,-0.23391 -0.03745,-0.47286 -0.20736,-0.63858l-2.44505,-2.38329c-0.42814,-0.41752 -0.19199,-1.14469 0.39992,-1.23049l3.37903,-0.49102c0.23503,-0.03409 0.4382,-0.18165 0.54328,-0.39461l1.51107,-3.06183c0.26438,-0.5363 1.02899,-0.5363 1.29365,0z" fill="#ffffff" stroke="none" stroke-width="1"/></g></g></g></svg>