<svg version="1.1" xmlns="http://www.w3.org/2000/svg" xmlns:xlink="http://www.w3.org/1999/xlink" width="643.72564" height="256.81324" viewBox="0,0,643.72564,256.81324"><defs><linearGradient x1="307.96308" y1="374.25599" x2="308.10213" y2="395.68269" gradientUnits="userSpaceOnUse" id="color-1"><stop offset="0" stop-color="#bf0000"/><stop offset="1" stop-color="#400000"/></linearGradient><linearGradient x1="256.33333" y1="374.28643" x2="256.33333" y2="395.71357" gradientUnits="userSpaceOnUse" id="color-2"><stop offset="0" stop-color="#bf0000"/><stop offset="1" stop-color="#400000"/></linearGradient><linearGradient x1="273.84362" y1="383.11977" x2="273.84362" y2="396.21357" gradientUnits="userSpaceOnUse" id="color-3"><stop offset="0" stop-color="#bf0000"/><stop offset="1" stop-color="#400000"/></linearGradient><linearGradient x1="238.84362" y1="383.11977" x2="238.84362" y2="396.21357" gradientUnits="userSpaceOnUse" id="color-4"><stop offset="0" stop-color="#bf0000"/><stop offset="1" stop-color="#400000"/></linearGradient><linearGradient x1="87.945" y1="156.29595" x2="106.85878" y2="166.36529" gradientUnits="userSpaceOnUse" id="color-5"><stop offset="0" stop-color="#bf0000"/><stop offset="1" stop-color="#400000"/></linearGradient><linearGradient x1="555.68279" y1="156.29595" x2="536.76901" y2="166.3653" gradientUnits="userSpaceOnUse" id="color-6"><stop offset="0" stop-color="#bf0000"/><stop offset="1" stop-color="#400000"/></linearGradient><linearGradient x1="616.55495" y1="158.8239" x2="637.98204" y2="158.77209" gradientUnits="userSpaceOnUse" id="color-7"><stop offset="0" stop-color="#bf0000"/><stop offset="1" stop-color="#400000"/></linearGradient><linearGradient x1="22.20255" y1="158.82389" x2="0.77546" y2="158.77208" gradientUnits="userSpaceOnUse" id="color-8"><stop offset="0" stop-color="#bf0000"/><stop offset="1" stop-color="#400000"/></linearGradient></defs><g transform="translate(4.26572,-142.07897)"><g data-paper-data="{&quot;isPaintingLayer&quot;:true}" fill-rule="nonzero" stroke="#000000" stroke-linecap="butt" stroke-linejoin="miter" stroke-miterlimit="10" stroke-dasharray="" stroke-dashoffset="0" style="mix-blend-mode: normal"><path d="M297.3556,392.72481c2.5734,-4.97745 7.56738,-14.84696 8.95231,-17.52571c0.66092,-1.27836 2.09785,-1.24764 2.82198,0.05047c1.47506,2.64424 6.91513,12.39623 9.69489,17.37929c1.0023,1.79673 -0.10795,2.98493 -1.72038,2.99539c-3.01362,0.01956 -13.01292,0.08445 -18.14625,0.11777c-1.78319,0.01157 -2.48345,-1.31339 -1.60255,-3.01722z" fill="url(#color-1)" stroke-width="3"/><g><path d="M245.60622,392.68602c2.60565,-4.96064 7.66357,-14.79755 9.06587,-17.46724c0.6692,-1.27404 2.10589,-1.23399 2.8216,0.06879c1.45788,2.65376 6.83454,12.44084 9.58191,17.44185c0.99061,1.80319 -0.12733,2.98416 -1.73979,2.98416c-3.01367,0 -13.0132,0 -18.14663,0c-1.78323,0 -2.47488,-1.32948 -1.58294,-3.02755z" fill="url(#color-2)" stroke-width="3"/><path d="M267.28843,394.36348c1.59227,-3.03137 4.68309,-9.04256 5.54001,-10.67397c0.40894,-0.77855 1.28688,-0.75408 1.72424,0.04203c0.89089,1.62167 4.17649,7.60242 5.85536,10.65846c0.60534,1.1019 -0.07781,1.82358 -1.06316,1.82358c-1.84161,0 -7.95218,0 -11.08914,0c-1.0897,0 -1.51236,-0.81242 -0.96731,-1.85009z" fill="url(#color-3)" stroke-width="2"/><path d="M232.28843,394.36348c1.59227,-3.03137 4.68309,-9.04256 5.54001,-10.67397c0.40894,-0.77855 1.28688,-0.75408 1.72424,0.04203c0.89089,1.62167 4.17648,7.60242 5.85536,10.65846c0.60534,1.1019 -0.07781,1.82358 -1.06316,1.82358c-1.84161,0 -7.95217,0 -11.08914,0c-1.08971,0 -1.51236,-0.81242 -0.96731,-1.85009z" fill="url(#color-4)" stroke-width="2"/></g><path d="M99.14532,174.41138c-3.15429,-4.63118 -9.46044,-13.71851 -11.15801,-16.21089c-0.81012,-1.18942 -0.09962,-2.43878 1.38668,-2.4583c3.02758,-0.03977 14.19334,-0.18648 19.8988,-0.26145c2.05721,-0.02704 2.5743,1.51475 1.81654,2.93807c-1.41623,2.66018 -6.11534,11.48677 -8.52771,16.01807c-0.838,1.57406 -2.33656,1.55981 -3.4163,-0.02549z" fill="url(#color-5)" stroke-width="3"/><path d="M544.48248,174.41138c-1.07975,1.5853 -2.5783,1.59955 -3.4163,0.02549c-2.41237,-4.53129 -7.11148,-13.35788 -8.52771,-16.01807c-0.75775,-1.42333 -0.24067,-2.96511 1.81654,-2.93807c5.70547,0.07496 16.87123,0.22168 19.8988,0.26146c1.4863,0.01952 2.1968,1.26888 1.38668,2.4583c-1.69758,2.49239 -8.00372,11.57971 -11.15801,16.2109z" data-paper-data="{&quot;index&quot;:null}" fill="url(#color-6)" stroke-width="3"/><path d="M634.92855,148.05233c1.69592,-0.89604 3.02706,-0.20761 3.03137,1.57561c0.01241,5.13342 0.03658,15.1329 0.04386,18.14658c0.0039,1.61246 -1.17437,2.73325 -2.97995,1.74699c-5.00763,-2.73526 -14.80768,-8.08826 -17.46495,-9.53971c-1.30452,-0.71254 -1.34803,-2.14914 -0.0756,-2.82142c2.66632,-1.40874 12.49094,-6.49043 17.44527,-9.10806z" data-paper-data="{&quot;index&quot;:null}" fill="url(#color-7)" stroke-width="3"/><path d="M3.82895,148.05232c4.95433,2.61764 14.77896,7.69933 17.44527,9.10806c1.27242,0.67228 1.22891,2.10888 -0.0756,2.82142c-2.65727,1.45145 -12.45732,6.80445 -17.46495,9.53971c-1.80559,0.98626 -2.98385,-0.13453 -2.97995,-1.74699c0.00728,-3.01368 0.03146,-13.01317 0.04387,-18.14658c0.00431,-1.78322 1.33545,-2.47165 3.03137,-1.57561z" data-paper-data="{&quot;index&quot;:null}" fill="url(#color-8)" stroke-width="3"/></g></g></svg>