<svg version="1.1" xmlns="http://www.w3.org/2000/svg" xmlns:xlink="http://www.w3.org/1999/xlink" width="89.96263" height="68.96726" viewBox="0,0,89.96263,68.96726"><g transform="translate(-277.01978,-145.5164)"><g data-paper-data="{&quot;isPaintingLayer&quot;:true}" fill-rule="nonzero" stroke="none" stroke-width="0" stroke-linecap="butt" stroke-linejoin="miter" stroke-miterlimit="10" stroke-dasharray="" stroke-dashoffset="0" style="mix-blend-mode: normal"><g><path d="M277.01979,198.25198c0,-6.31721 0,-2.23751 0,-6.10931c0,-6.22606 5.58001,-15.48844 16.20331,-15.80616c3.96455,-0.11857 20.70177,0 27.07608,0c8.05721,0 15.40902,9.23582 15.40902,15.32959c0,3.86885 0,-0.13884 0,6.26818c0,8.49762 -9.98525,16.44159 -16.36215,16.44159c-3.81291,0 -20.15524,0 -26.28181,0c-8.2935,0 -16.04444,-7.77126 -16.04444,-16.12388z" fill="#424242"/><path d="M277.28971,167.54831c0,-6.31721 0,-2.23751 0,-6.10931c0,-6.22606 5.58001,-15.48844 16.20331,-15.80616c3.96455,-0.11857 18.67735,0 25.05165,0c8.05721,0 15.40902,9.23582 15.40902,15.32959c0,3.86885 0,-0.13884 0,6.26818c0,8.49762 -9.98525,16.44159 -16.36215,16.44159c-3.81291,0 -18.13081,0 -24.25738,0c-8.2935,0 -16.04445,-7.77126 -16.04445,-16.12388z" fill="#424242"/><path d="M284.06055,180.00004c-0.49987,-34.34957 24.90339,-34.48363 34.48364,-34.48363c19.04478,0 34.48363,15.43886 34.48363,34.48363c0,19.04477 -15.43885,34.48363 -34.48363,34.48363c-6.02187,0 -33.98562,-0.26094 -34.48364,-34.48363z" fill="#595959"/><path d="M302.13293,180.02595c0,-6.31721 0,3.90944 0,0.03766c0,-6.22606 5.58001,-15.48843 16.20331,-15.80615c2.7325,-0.08173 33.24743,-0.09119 41.95586,-0.08919c1.51117,0.00035 6.69031,0.04644 6.69031,0.04644c0,0 -0.00164,4.91224 -0.00164,6.74913c0,3.60047 0,12.59219 0,18.86966c0,1.7057 -0.03562,6.64177 -0.03562,6.64177c0,0 -4.19998,-0.07066 -6.2561,-0.09284c-8.2607,-0.08914 -38.28872,-0.23257 -42.51165,-0.23257c-8.2935,0 -16.04445,-7.77126 -16.04445,-16.12388z" fill="#808080"/></g></g></g></svg>