<svg version="1.1" xmlns="http://www.w3.org/2000/svg" xmlns:xlink="http://www.w3.org/1999/xlink" width="104.0358" height="69.24226" viewBox="0,0,104.0358,69.24226"><defs><linearGradient x1="294.64342" y1="170.90889" x2="294.64342" y2="214.33334" gradientUnits="userSpaceOnUse" id="color-1"><stop offset="0" stop-color="#424242"/><stop offset="1" stop-color="#363636"/></linearGradient><linearGradient x1="294.64342" y1="145.37888" x2="294.64342" y2="188.80334" gradientUnits="userSpaceOnUse" id="color-2"><stop offset="0" stop-color="#424242"/><stop offset="1" stop-color="#363636"/></linearGradient><linearGradient x1="322.8256" y1="155.64739" x2="322.8256" y2="204.50731" gradientUnits="userSpaceOnUse" id="color-3"><stop offset="0" stop-color="#424242"/><stop offset="1" stop-color="#333333"/></linearGradient><linearGradient x1="339.30377" y1="164.07269" x2="339.30377" y2="196.52717" gradientUnits="userSpaceOnUse" id="color-4"><stop offset="0" stop-color="#808080"/><stop offset="1" stop-color="#666666"/></linearGradient><linearGradient x1="339.30377" y1="164.07269" x2="339.30377" y2="196.52717" gradientUnits="userSpaceOnUse" id="color-5"><stop offset="0" stop-color="#808080"/><stop offset="1" stop-color="#666666"/></linearGradient></defs><g transform="translate(-267.9821,-145.37888)"><g data-paper-data="{&quot;isPaintingLayer&quot;:true}" fill-rule="nonzero" stroke="none" stroke-width="0" stroke-linecap="butt" stroke-linejoin="miter" stroke-miterlimit="10" stroke-dasharray="" stroke-dashoffset="0" style="mix-blend-mode: normal"><path d="M267.9821,191.02464l53.32266,-20.11574v43.42444z" fill="url(#color-1)"/><path d="M267.9821,165.49462l53.32266,-20.11574v43.42444z" fill="url(#color-2)"/><path d="M288.27747,180.07304c0,-19.08038 15.46773,-34.5481 34.54811,-34.5481c19.08038,0 34.5481,15.46773 34.5481,34.5481c0,19.08038 -15.46772,34.5481 -34.5481,34.5481c-19.08038,0 -34.54811,-15.46772 -34.54811,-34.5481z" fill="#595959"/><path d="M298.39562,188.3533c0,-6.32901 0,-12.99117 0,-16.8702c0,-6.2377 5.59044,-15.51739 16.23361,-15.83571c3.97197,-0.1188 10.80228,0 17.1885,0c8.07228,0 15.43783,9.25309 15.43783,15.35825c0,3.87608 0,10.61038 0,17.02936c0,8.51351 -10.00392,16.47233 -16.39274,16.47233c-3.82004,0 -10.25472,0 -16.39275,0c-8.30901,0 -16.07444,-7.78579 -16.07444,-16.15403z" fill="url(#color-3)"/><path d="M306.58964,178.87193l65.42826,-14.79926v32.4545z" fill="url(#color-4)"/><path d="M306.58964,196.52717v-32.4545l65.42826,14.79926z" data-paper-data="{&quot;index&quot;:null}" fill="url(#color-5)"/></g></g></svg>