<svg version="1.1" xmlns="http://www.w3.org/2000/svg" xmlns:xlink="http://www.w3.org/1999/xlink" width="98.61944" height="90.78853" viewBox="0,0,98.61944,90.78853"><defs><linearGradient x1="351.37891" y1="193.26508" x2="351.37891" y2="233.3762" gradientUnits="userSpaceOnUse" id="color-1"><stop offset="0" stop-color="#229be6"/><stop offset="1" stop-color="#2681ff"/></linearGradient></defs><g transform="translate(-270.69028,-134.60574)"><g data-paper-data="{&quot;isPaintingLayer&quot;:true}" fill-rule="nonzero" stroke-miterlimit="10" stroke-dasharray="" stroke-dashoffset="0" style="mix-blend-mode: normal"><path d="M270.69028,213.17755c0,-5.95362 0,-63.25453 0,-66.79188c0,-4.77455 6.10037,-11.77993 12.61256,-11.77993c18.02073,0 40.82483,0 73.38676,0c7.85036,0 12.62012,5.89968 12.62012,12.53294c0,5.81881 0,62.87953 0,66.34007c0,4.81412 -4.64793,11.91552 -12.31891,11.91552c-0.34533,0 -0.69679,0 -1.05422,0c-33.10806,0 -54.75023,0 -72.63374,0c-6.5122,0 -12.61256,-5.70807 -12.61256,-12.21673z" fill="url(#color-1)" stroke="none" stroke-width="0" stroke-linecap="butt" stroke-linejoin="miter"/><text transform="translate(281.1217,215.2521) scale(0.25943,0.25943)" font-size="40" xml:space="preserve" fill="#ffffff" fill-rule="nonzero" stroke="none" stroke-width="1" stroke-linecap="butt" stroke-linejoin="miter" stroke-miterlimit="10" stroke-dasharray="" stroke-dashoffset="0" font-family="Sans Serif" font-weight="normal" text-anchor="start" style="mix-blend-mode: normal"><tspan x="0" dy="0">Level Challenge</tspan></text><g fill="#ffffff" stroke="none" stroke-width="0" stroke-linecap="butt" stroke-linejoin="miter"><path d="M292.77743,193.51437c-1.09044,-2.26584 -0.38622,-0.80254 -1.05455,-2.19127c-1.0747,-2.23314 -0.67209,-6.51852 3.0834,-8.4662c1.40153,-0.72687 7.42523,-3.57339 9.71154,-4.67368c2.88993,-1.39078 7.12107,0.65286 8.17294,2.83856c0.66781,1.38766 -0.02397,-0.0498 1.08197,2.24825c1.4668,3.0479 -0.74344,7.62078 -3.03068,8.72152c-1.36761,0.65816 -7.2292,3.47905 -9.42665,4.53658c-2.97469,1.43157 -7.09618,-0.01788 -8.53796,-3.01377z"/><path d="M287.57439,182.4551c-1.09044,-2.26584 -0.38622,-0.80254 -1.05455,-2.19127c-1.0747,-2.23314 -0.6721,-6.51852 3.08339,-8.46619c1.40153,-0.72687 6.69912,-3.22395 8.98543,-4.32424c2.88993,-1.39078 7.12107,0.65287 8.17294,2.83857c0.66781,1.38766 -0.02397,-0.04981 1.08197,2.24825c1.4668,3.0479 -0.74344,7.62078 -3.03068,8.72152c-1.36761,0.65816 -6.5031,3.12962 -8.70054,4.18714c-2.97469,1.43157 -7.09618,-0.01789 -8.53796,-3.01378z"/><path d="M292.15226,185.7525c-3.28737,-6.8309 -0.41476,-15.0334 6.41613,-18.32077c6.8309,-3.28737 15.0334,-0.41477 18.32077,6.41613c3.28737,6.8309 0.41477,15.0334 -6.41613,18.32077c-6.8309,3.28737 -15.0334,0.41477 -18.32078,-6.41613z"/><path d="M297.20124,186.97363c-1.09044,-2.26584 -2.23827,-4.65094 -2.90659,-6.03966c-1.0747,-2.23314 -0.67209,-6.51852 3.0834,-8.4662c1.40153,-0.72687 3.86729,-1.86113 6.15359,-2.96142c2.88993,-1.39078 7.12107,0.65286 8.17294,2.83856c0.66781,1.38766 1.82807,3.79858 2.93401,6.09664c1.4668,3.0479 -0.74344,7.62077 -3.03068,8.72151c-1.36761,0.65816 -3.67125,1.7668 -5.86871,2.82432c-2.97469,1.43157 -7.09618,-0.01788 -8.53796,-3.01377z"/><path d="M298.63885,182.64228c-1.09044,-2.26584 0.67482,1.40222 0.00651,0.01352c-1.0747,-2.23314 -0.67209,-6.51852 3.0834,-8.4662c0.96598,-0.50098 11.90931,-5.77166 15.03317,-7.27412c1.4085,-0.67744 3.05662,0.21179 3.57207,1.28286c0.62149,1.2914 2.17358,4.51652 3.25715,6.7681c0.65743,1.36608 0.21632,2.80662 -1.12626,3.43498c-2.9783,1.39393 -13.7734,6.5257 -15.28806,7.25464c-2.97469,1.43157 -7.09618,-0.01788 -8.53796,-3.01377z"/></g><path d="M335.24614,181.43559v-6.25053M345.45529,166.85101c-0.96521,4.75497 -5.16923,8.33404 -10.20915,8.33404M325.03694,166.85101c0.96529,4.75497 5.16918,8.33404 10.2092,8.33404M325.03694,166.85101h-0.20835h-0.52088c-1.45221,0 -2.17832,0.00003 -2.78212,-0.12007c-2.4794,-0.49319 -4.4177,-2.4315 -4.91108,-4.91103c-0.12002,-0.6038 -0.11999,-1.3299 -0.11999,-2.78206c0,-0.48406 0,-0.72608 0.04002,-0.92735c0.16438,-0.82651 0.81048,-1.47261 1.63702,-1.63702c0.20125,-0.04004 0.44337,-0.04004 0.92735,-0.04004h5.72965M345.45531,166.85101h0.2084h0.52088c1.45216,0 2.17824,0.00003 2.78204,-0.12007c2.47953,-0.49319 4.41781,-2.4315 4.91103,-4.91103c0.12007,-0.6038 0.12007,-1.3299 0.12007,-2.78206c0,-0.48406 0,-0.72608 -0.04002,-0.92735c-0.16441,-0.82651 -0.81051,-1.47261 -1.63702,-1.63702c-0.20127,-0.04004 -0.44329,-0.04004 -0.92735,-0.04004h-5.72965M338.94749,181.64852c2.15693,0.57793 3.84177,2.26288 4.41973,4.41973c0.21298,0.79487 0.21298,1.76372 0.21298,3.70138h-16.66811c0,-1.93768 0,-2.90651 0.21293,-3.70138c0.57796,-2.15685 2.2629,-3.84177 4.41976,-4.41973c0.79485,-0.21293 1.76367,-0.21293 3.70135,-0.21293c1.93768,0 2.90651,0 3.70135,0.21293zM325.03694,166.85099c-0.13667,-0.67319 -0.20835,-1.36997 -0.20835,-2.08351v-9.22697c0,-1.11075 0,-1.66613 0.20627,-2.09457c0.20481,-0.42526 0.54791,-0.76841 0.97317,-0.9732c0.42857,-0.20632 0.98387,-0.20632 2.09457,-0.20632h14.28701c1.11075,0 1.66613,-0.00003 2.09457,0.20632c0.42526,0.20479 0.76841,0.54794 0.9732,0.9732c0.20632,0.42844 0.20632,0.98379 0.20632,2.09457v9.22697c0,0.71354 -0.07173,1.4103 -0.2084,2.08351" fill="none" stroke="#ffffff" stroke-width="4.5" stroke-linecap="round" stroke-linejoin="round"/></g></g></svg>