<svg version="1.1" xmlns="http://www.w3.org/2000/svg" xmlns:xlink="http://www.w3.org/1999/xlink" width="663.83118" height="662.28716" viewBox="0,0,663.83118,662.28716"><g transform="translate(17.40261,187.96537)"><g data-paper-data="{&quot;isPaintingLayer&quot;:true}" fill-rule="nonzero" stroke="none" stroke-width="0" stroke-linecap="butt" stroke-linejoin="miter" stroke-miterlimit="10" stroke-dasharray="" stroke-dashoffset="0" style="mix-blend-mode: normal"><path d="M0.73593,469.32179h-7.93651v-657.28716h7.93651z" fill="#313131"/><path d="M645.70706,-6.91919v7.93651h-657.28716v-7.93651z" fill="#313131"/><path d="M646.42857,474.32179h-7.93651v-657.28716h7.93651z" fill="#313131"/><path d="M639.88455,360.27417v7.93651h-657.28716v-7.93651z" fill="#313131"/><path d="M402.14358,68.09668l11.7,11.90477h-196.48716v-11.90477z" fill="#313131"/><path d="M479.42454,0h165.24077v162.2776h-165.24077z" fill="#313131"/><path d="M-4.5873,1.01732h157.9317v237.03175h-157.9317z" fill="#313131"/><path d="M231.58206,132.90954l8.41794,8.41794l-85.76297,85.76297l-8.41794,-8.41794z" fill="#313131"/><path d="M488.00477,153.85966l-8.41794,8.41794l-85.76297,-85.76297l8.41794,-8.41794z" fill="#313131"/><path d="M491.90476,232.09669v11.90476h-496.49206v-11.90476z" fill="#313131"/><path d="M638.49206,315.09668v11.90476h-496.49206v-11.90476z" fill="#313131"/></g></g></svg>