<svg version="1.1" xmlns="http://www.w3.org/2000/svg" xmlns:xlink="http://www.w3.org/1999/xlink" width="422.08477" height="61.3548" viewBox="0,0,422.08477,61.3548"><defs><linearGradient x1="531.04239" y1="160.14917" x2="108.95762" y2="160.14917" gradientUnits="userSpaceOnUse" id="color-1"><stop offset="0" stop-color="#001228"/><stop offset="1" stop-color="#6fa49c"/></linearGradient></defs><g transform="translate(-108.95762,-99.73852)"><g data-paper-data="{&quot;isPaintingLayer&quot;:true}" fill-rule="nonzero" stroke-linecap="butt" stroke-linejoin="miter" stroke-miterlimit="10" stroke-dasharray="" stroke-dashoffset="0" style="mix-blend-mode: normal"><path d="M108.95762,161.09333c0,0 0,-25.32814 0,-45.05504c0,-7.79017 6.64757,-16.29976 15.07618,-16.29976c38.3815,0 322.11177,0 391.65483,0c9.80634,0 15.35376,8.41588 15.35376,16.1435c0,19.6777 0,45.2113 0,45.2113z" data-paper-data="{&quot;index&quot;:null}" fill="url(#color-1)" stroke="#000000" stroke-width="0"/><text transform="translate(125.71999,128.63905) scale(0.4085,0.4085)" font-size="40" xml:space="preserve" fill="#ffffff" fill-rule="nonzero" stroke="none" stroke-width="1" stroke-linecap="butt" stroke-linejoin="miter" stroke-miterlimit="10" stroke-dasharray="" stroke-dashoffset="0" font-family="Sans Serif" font-weight="normal" text-anchor="start" style="mix-blend-mode: normal"><tspan x="0" dy="0">Obsticle Jumper</tspan></text><text transform="translate(125.71985,143.27948) scale(0.30161,0.30161)" font-size="40" xml:space="preserve" fill="#ffffff" fill-rule="nonzero" stroke="none" stroke-width="1" stroke-linecap="butt" stroke-linejoin="miter" stroke-miterlimit="10" stroke-dasharray="" stroke-dashoffset="0" font-family="Sans Serif" font-weight="normal" text-anchor="start" style="mix-blend-mode: normal"><tspan x="0" dy="0">PC and Fire Edition</tspan></text><g fill-opacity="0.50196" fill="#ffffff" stroke="none" stroke-width="1"><path d="M503.91412,153.72277v-3.95887h1.33572v3.95887zM504.59,149.44196c-0.22532,0 -0.39965,-0.05633 -0.52301,-0.16899c-0.11803,-0.11264 -0.17705,-0.26284 -0.17705,-0.45061c0,-0.17702 0.059,-0.32723 0.17701,-0.45061c0.12338,-0.12338 0.29771,-0.18507 0.52301,-0.18507c0.22532,0 0.39699,0.06169 0.51503,0.18507c0.12338,0.12338 0.18507,0.27358 0.18507,0.45061c0,0.18777 -0.06169,0.33797 -0.18507,0.45061c-0.11801,0.11266 -0.28966,0.16899 -0.51495,0.16899zM507.24287,153.80335c-0.38628,0 -0.67867,-0.10194 -0.87718,-0.30583c-0.19309,-0.20918 -0.28963,-0.49885 -0.28963,-0.86902v-1.87487h-0.53106v-0.98981h0.53106v-0.9656h1.33572v0.96568h0.86912v0.98962h-0.8692v1.68178c0,0.12341 0.02415,0.21192 0.07245,0.26554c0.05364,0.0483 0.1341,0.07245 0.24136,0.07245c0.14487,0 0.30312,-0.06438 0.47477,-0.19313l0.30582,0.87711c-0.15553,0.10744 -0.33256,0.19327 -0.53106,0.25748c-0.19851,0.05909 -0.44255,0.08864 -0.73213,0.08864zM510.52826,153.80335c-0.61157,0 -1.09437,-0.17434 -1.44842,-0.52301c-0.34867,-0.34873 -0.52301,-0.85569 -0.52301,-1.52089c0,-0.4828 0.09923,-0.88782 0.29769,-1.21506c0.20388,-0.33793 0.4588,-0.56593 0.76475,-0.68399c0.32181,-0.12338 0.61958,-0.18507 0.89329,-0.18507c0.3433,0 0.63032,0.06974 0.86106,0.20921c0.23074,0.13412 0.39971,0.28165 0.50689,0.44259c0.11281,0.16091 0.19327,0.28697 0.24136,0.3782l-0.92514,0.59546c-0.0857,-0.17702 -0.17958,-0.31651 -0.28165,-0.41845c-0.10181,-0.10192 -0.22511,-0.15288 -0.3699,-0.15288c-0.20388,0 -0.36479,0.08045 -0.48272,0.24136c-0.11793,0.16096 -0.17689,0.40506 -0.17689,0.7323c0,0.35405 0.06971,0.61421 0.20913,0.78049c0.13942,0.16633 0.33793,0.2495 0.59553,0.2495c0.20388,0 0.37285,-0.0376 0.50689,-0.11281c0.13942,-0.07521 0.27087,-0.17178 0.39435,-0.28971l0.4265,0.99768c-0.12878,0.10719 -0.31923,0.2145 -0.57135,0.32194c-0.25213,0.10181 -0.5579,0.15272 -0.91731,0.15272zM512.47179,153.72277v-5.37519h1.34378v1.63351c0.11263,-0.08048 0.24942,-0.15021 0.41035,-0.20921c0.16091,-0.06439 0.35404,-0.09658 0.57941,-0.09658c0.47205,0 0.82341,0.13417 1.05407,0.40253c0.23604,0.26835 0.35406,0.64657 0.35406,1.13467v2.5107h-1.34378v-2.34992c0,-0.22512 -0.04285,-0.38871 -0.12855,-0.49078c-0.0857,-0.10719 -0.19838,-0.16078 -0.33805,-0.16078c-0.11793,0 -0.22793,0.02686 -0.33,0.08058c-0.10181,0.05372 -0.18764,0.11013 -0.25747,0.16922v2.75206h-1.34378zM517.24523,153.80335c-0.21463,0 -0.38362,-0.06169 -0.50697,-0.18507c-0.12338,-0.12338 -0.18507,-0.28163 -0.18507,-0.47474c0,-0.19314 0.06169,-0.35407 0.18507,-0.4828c0.12338,-0.12875 0.29234,-0.19313 0.50689,-0.19313c0.20388,0 0.36751,0.06438 0.49089,0.19313c0.12356,0.12875 0.18534,0.28968 0.18534,0.4828c0,0.19314 -0.06165,0.35139 -0.18495,0.47474c-0.11793,0.12338 -0.28152,0.18507 -0.49077,0.18507zM518.2333,153.72277v-3.95887h1.33572v3.95887zM518.90903,149.44272c-0.22537,0 -0.39973,-0.05633 -0.52308,-0.16899c-0.11801,-0.11266 -0.17701,-0.26286 -0.17701,-0.45061c0,-0.17702 0.059,-0.32723 0.17701,-0.45061c0.12338,-0.12338 0.29771,-0.18507 0.52301,-0.18507c0.22532,0 0.39699,0.06169 0.51503,0.18507c0.12338,0.12338 0.18507,0.27358 0.18507,0.45061c0,0.18777 -0.06169,0.33797 -0.18507,0.45061c-0.11801,0.11266 -0.28966,0.16899 -0.51495,0.16899zM521.92773,153.80335c-0.31117,0 -0.58745,-0.05096 -0.82883,-0.15288c-0.24141,-0.10729 -0.44794,-0.25213 -0.61959,-0.43453c-0.16628,-0.18777 -0.29503,-0.40772 -0.38625,-0.65985c-0.08582,-0.2575 -0.12874,-0.53647 -0.12874,-0.8369c0,-0.44522 0.09657,-0.83414 0.28971,-1.16675c0.19846,-0.32724 0.44521,-0.55523 0.74027,-0.68399c0.3004,-0.12875 0.61153,-0.19313 0.93339,-0.19313c0.46123,0 0.842,0.10729 1.14233,0.32187c0.30569,0.21458 0.52032,0.4828 0.64388,0.80467c0.1233,0.32187 0.18495,0.62764 0.18495,0.91733c0,0.3004 -0.04566,0.57937 -0.13699,0.8369c-0.0857,0.25211 -0.2145,0.47204 -0.3864,0.65981c-0.16628,0.1824 -0.37285,0.32732 -0.6197,0.43476c-0.24136,0.10207 -0.51763,0.15311 -0.82883,0.15311zM521.92773,152.77336c0.22529,0 0.38888,-0.09388 0.49077,-0.28165c0.10194,-0.19314 0.15291,-0.45062 0.15291,-0.77243c0,-0.3058 -0.05364,-0.5499 -0.16093,-0.7323c-0.10719,-0.1824 -0.26809,-0.27359 -0.48272,-0.27359c-0.20925,0 -0.36747,0.0912 -0.47466,0.27359c-0.10719,0.1824 -0.16078,0.42648 -0.16078,0.73226c0,0.32187 0.05103,0.57934 0.1531,0.77243c0.10744,0.18777 0.26835,0.28165 0.48272,0.28165z"/><path d="M495.27588,147.08851c0.32731,-0.02859 1.94775,-0.04712 3.1357,-0.0472c1.18837,-0.00015 1.98612,0.00679 3.13612,0.0472c0.3699,0.21972 1.09897,1.05743 1.10626,1.27711v0.36369c0,0.46104 -0.43091,0.86614 -0.82192,0.86614c-0.46967,0 -0.86106,-0.38936 -0.86106,-0.85137c0,0.46204 -0.37796,0.85137 -0.84763,0.85137c-0.46967,0 -0.83535,-0.38936 -0.83535,-0.85137c0,0.46204 -0.40214,0.85137 -0.87181,0.85137h-0.00844c-0.46967,0 -0.87142,-0.38936 -0.87142,-0.85137c0,0.46204 -0.36584,0.85137 -0.83558,0.85137c-0.46979,0 -0.84775,-0.38936 -0.84775,-0.85137c-0.00008,0.46204 -0.39147,0.85137 -0.86114,0.85137c-0.39116,0 -0.82208,-0.40513 -0.82208,-0.86614v-0.36369c0.00698,-0.21968 0.73612,-1.05739 1.10618,-1.27711zM497.53145,149.37926c0.04466,0.07832 0.09946,0.14981 0.16385,0.21274c0.17732,0.17344 0.42178,0.28089 0.68985,0.28089c0.00936,0 0.01869,-0.00038 0.02801,-0.00077h0.00031c0.00921,0.00038 0.01865,0.00077 0.02801,0.00077c0.26822,0 0.51265,-0.10744 0.68992,-0.28089c0.06431,-0.06289 0.11907,-0.13453 0.16369,-0.21281c0.0449,0.07855 0.10092,0.14977 0.16538,0.21285c0.17728,0.17344 0.42044,0.28089 0.68839,0.28089c0.26795,0 0.51238,-0.10744 0.68965,-0.28096c0.06427,-0.06289 0.11304,-0.13031 0.15778,-0.20859l0.00019,0.00023c0.04463,0.07843 0.10698,0.14566 0.17125,0.20875c0.17732,0.1734 0.4219,0.28073 0.68973,0.28073c0.03235,0 0.066,-0.00894 0.09324,-0.01815c0.0378,0.39324 0.05372,0.76902 0.05948,1.04307v0.00154c0.00073,0.13921 0.00138,0.25364 0.00203,0.4125c-0.00729,0.82512 0.08173,2.67428 -0.36376,3.12872c-0.69031,0.16078 -1.96064,0.23407 -3.23512,0.23445h-0.00012c-1.27456,-0.00038 -2.54481,-0.07367 -3.23512,-0.23484c-0.4455,-0.45433 -0.35647,-2.30349 -0.36376,-3.12888c0.00073,-0.15886 0.0013,-0.27321 0.00207,-0.4125v-0.00153c0.00556,-0.27436 0.0216,-0.65003 0.05928,-1.04334c0.02724,0.00921 0.06063,0.01803 0.09286,0.01803c0.26783,0 0.51226,-0.10733 0.68954,-0.28077c0.06408,-0.06301 0.12663,-0.13024 0.17114,-0.20875v-0.00015c0.0449,0.07836 0.09363,0.14566 0.15771,0.20859c0.17728,0.17352 0.42174,0.28096 0.68977,0.28096c0.26799,0 0.51111,-0.10744 0.68839,-0.28089c0.0645,-0.06305 0.12056,-0.1343 0.16531,-0.21281zM496.8228,150.29501c-0.13238,0 -0.66268,0 -1.0322,1.03759l-0.39676,1.42361c-0.2942,1.05869 0.09413,1.08478 0.57838,1.08555c0.71824,-0.02686 1.11577,-0.54834 1.11577,-1.06982c0.39745,0.06523 0.86122,0.09785 1.32498,0.09785h0.00019c0.46372,0 0.92764,-0.03262 1.32517,-0.09785c0,0.52148 0.39753,1.04334 1.11585,1.06982c0.48425,-0.00077 0.8725,-0.02686 0.57838,-1.08594l-0.39703,-1.42361c-0.36952,-1.03759 -0.89951,-1.03759 -1.0322,-1.03759v0.00038h-0.00077c-0.2805,0.00077 -0.52953,0 -0.83842,0.33691c-0.24328,-0.02533 -0.49691,-0.03837 -0.75132,-0.03799h-0.00038c-0.2544,-0.00042 -0.50804,0.01236 -0.75132,0.0378c-0.30851,-0.33702 -0.55792,-0.33641 -0.83842,-0.33702h-0.00077l0.00008,-0.00031zM498.41231,151.10992l0.00008,-0.00008v0.00023c0,0 0.756,0.69435 0.89176,0.94108l-0.49461,-0.01972v0.4313c0,0.02018 -0.1985,0.01201 -0.39715,0.0028h-0.00027c-0.19861,0.00917 -0.39715,0.01738 -0.39715,-0.00284v-0.4313l-0.49461,0.0198c0.13576,-0.24673 0.89111,-0.94047 0.89176,-0.94112v-0.00027z"/></g></g></g></svg>