<svg version="1.1" xmlns="http://www.w3.org/2000/svg" xmlns:xlink="http://www.w3.org/1999/xlink" width="56.01258" height="56.01258" viewBox="0,0,56.01258,56.01258"><defs><linearGradient x1="314.88633" y1="178.907" x2="314.88633" y2="193.45696" gradientUnits="userSpaceOnUse" id="color-1"><stop offset="0" stop-color="#424242"/><stop offset="1" stop-color="#363636"/></linearGradient><linearGradient x1="314.96686" y1="169.74669" x2="314.96686" y2="184.29664" gradientUnits="userSpaceOnUse" id="color-2"><stop offset="0" stop-color="#424242"/><stop offset="1" stop-color="#363636"/></linearGradient><linearGradient x1="320" y1="172.72631" x2="320" y2="187.27626" gradientUnits="userSpaceOnUse" id="color-3"><stop offset="0" stop-color="#424242"/><stop offset="1" stop-color="#333333"/></linearGradient><linearGradient x1="322.37873" y1="170.26828" x2="322.37873" y2="184.81824" gradientUnits="userSpaceOnUse" id="color-4"><stop offset="0" stop-color="#808080"/><stop offset="1" stop-color="#666666"/></linearGradient></defs><g transform="translate(-291.99371,-151.99371)"><g data-paper-data="{&quot;isPaintingLayer&quot;:true}" fill-rule="nonzero" stroke="none" stroke-width="0" stroke-linecap="butt" stroke-linejoin="miter" stroke-miterlimit="10" stroke-dasharray="" stroke-dashoffset="0" style="mix-blend-mode: normal"><path d="M291.99371,208.00629v-56.01258h56.01258v56.01258z" fill="none"/><path d="M307.61136,185.44539c0,-1.88471 0,-0.66756 0,-1.82269c0,-1.85752 1.66477,-4.62091 4.83419,-4.7157c1.18281,-0.03537 6.17629,0 8.07804,0c2.40383,0 4.59721,2.75547 4.59721,4.57352c0,1.15425 0,-0.04142 0,1.87009c0,2.53523 -2.97905,4.90528 -4.88158,4.90528c-1.13756,0 -6.01323,0 -7.84107,0c-2.47433,0 -4.78679,-2.31853 -4.78679,-4.8105z" fill="url(#color-1)"/><path d="M307.69189,176.28508c0,-1.88471 0,-0.66755 0,-1.82269c0,-1.85752 1.66477,-4.62091 4.83419,-4.7157c1.18281,-0.03537 5.57231,0 7.47406,0c2.40383,0 4.59722,2.75547 4.59722,4.57352c0,1.15425 0,-0.04142 0,1.87008c0,2.53523 -2.97906,4.90528 -4.88158,4.90528c-1.13756,0 -5.40925,0 -7.23709,0c-2.47433,0 -4.78679,-2.31853 -4.78679,-4.8105z" fill="url(#color-2)"/><path d="M309.71195,180c0,-5.68193 4.60612,-10.28805 10.28805,-10.28805c5.68193,0 10.28805,4.60612 10.28805,10.28805c0,5.68193 -4.60612,10.28805 -10.28805,10.28805c-5.68193,0 -10.28805,-4.60612 -10.28805,-10.28805z" fill="#595959"/><path d="M312.72502,182.46577c0,-1.88471 0,-3.86863 0,-5.02376c0,-1.85752 1.66477,-4.62091 4.83419,-4.7157c1.18281,-0.03537 3.21681,0 5.11855,0c2.40384,0 4.59722,2.75547 4.59722,4.57352c0,1.15425 0,3.15965 0,5.07115c0,2.53523 -2.97905,4.90528 -4.88158,4.90528c-1.13756,0 -3.05374,0 -4.88158,0c-2.47433,0 -4.78679,-2.31853 -4.78679,-4.8105z" fill="url(#color-3)"/><path d="M315.10376,180.00773c0,-1.88471 0,1.16636 0,0.01123c0,-1.85752 1.66477,-4.62091 4.8342,-4.7157c0.81523,-0.02438 9.91923,-0.02721 12.51735,-0.02661c1.17146,0.00027 1.99553,1.13652 1.99553,2.02743c0,1.07419 0,3.75682 0,5.62968c0,1.13632 -0.76613,1.96584 -1.87711,1.95385c-2.46454,-0.02659 -11.42328,-0.06939 -12.68318,-0.06939c-2.47433,0 -4.78679,-2.31853 -4.78679,-4.8105z" fill="url(#color-4)"/></g></g></svg>