<svg version="1.1" xmlns="http://www.w3.org/2000/svg" xmlns:xlink="http://www.w3.org/1999/xlink" width="14.12537" height="14.88445" viewBox="0,0,14.12537,14.88445"><g transform="translate(-312.9373,-172.00764)"><g data-paper-data="{&quot;isPaintingLayer&quot;:true}" fill="#ffffff" fill-rule="nonzero" stroke="none" stroke-width="0" stroke-linecap="butt" stroke-linejoin="miter" stroke-miterlimit="10" stroke-dasharray="" stroke-dashoffset="0" style="mix-blend-mode: normal"><path d="M312.93731,184.89901c0,-2.29255 0,-5.88435 0,-7.00053c0,-0.65668 0.66135,-1.79883 1.21696,-2.15962c1.20731,-0.78397 5.74607,-3.73121 5.74607,-3.73121c0,0 4.69091,3.11258 5.929,3.9341c0.56468,0.37468 1.23333,1.50265 1.23333,2.13623c0,1.10571 0,4.50204 0,6.7441c0,1.08044 -0.98786,2.07002 -2.03348,2.07002c-2.95154,0 -8.50748,0 -10.2059,0c-0.90289,0 -1.88599,-0.82907 -1.88599,-1.99309z"/></g></g></svg>