<svg version="1.1" xmlns="http://www.w3.org/2000/svg" xmlns:xlink="http://www.w3.org/1999/xlink" width="294.62782" height="263.31307" viewBox="0,0,294.62782,263.31307"><defs><linearGradient x1="281.84886" y1="167.35937" x2="281.75525" y2="183.54478" gradientUnits="userSpaceOnUse" id="color-1"><stop offset="0" stop-color="#424242"/><stop offset="1" stop-color="#363636"/></linearGradient><linearGradient x1="281.81822" y1="157.1689" x2="281.72461" y2="173.35431" gradientUnits="userSpaceOnUse" id="color-2"><stop offset="0" stop-color="#424242"/><stop offset="1" stop-color="#363636"/></linearGradient><linearGradient x1="276.20016" y1="160.45106" x2="276.10655" y2="176.63646" gradientUnits="userSpaceOnUse" id="color-3"><stop offset="0" stop-color="#424242"/><stop offset="1" stop-color="#333333"/></linearGradient><linearGradient x1="273.56989" y1="157.70142" x2="273.47627" y2="173.88684" gradientUnits="userSpaceOnUse" id="color-4"><stop offset="0" stop-color="#808080"/><stop offset="1" stop-color="#666666"/></linearGradient><linearGradient x1="270.06451" y1="280.20159" x2="270.06451" y2="294.84063" gradientUnits="userSpaceOnUse" id="color-5"><stop offset="0" stop-color="#00ff9b" stop-opacity="0"/><stop offset="1" stop-color="#00ff9b"/></linearGradient><linearGradient x1="269.83378" y1="287.52111" x2="269.83378" y2="312.11614" gradientUnits="userSpaceOnUse" id="color-6"><stop offset="0" stop-color="#00ffb5"/><stop offset="1" stop-color="#00ff61"/></linearGradient></defs><g transform="translate(-189.14515,-48.76493)"><g data-paper-data="{&quot;isPaintingLayer&quot;:true}" fill-rule="nonzero" stroke-linecap="butt" stroke-linejoin="miter" stroke-miterlimit="10" stroke-dasharray="" stroke-dashoffset="0" style="mix-blend-mode: normal"><path d="M189.1764,299.01835c0,-5.95362 0,-234.93614 0,-238.47349c0,-4.77455 6.10037,-11.77993 12.61256,-11.77993c18.02073,0 103.58265,0 136.14458,0c7.85036,0 12.62012,5.89968 12.62012,12.53294c0,5.81881 0,234.56114 0,238.02168c0,4.81412 -4.64793,11.91552 -12.31891,11.91552c-0.34533,0 -0.69679,0 -1.05422,0c-33.10806,0 -117.50805,0 -135.39156,0c-6.5122,0 -12.61256,-5.70807 -12.61256,-12.21673z" fill="#e6e6e6" stroke="none" stroke-width="0"/><text transform="translate(368.15247,82.904) scale(0.57331,0.57331)" font-size="40" xml:space="preserve" fill="#000000" fill-rule="nonzero" stroke="none" stroke-width="1" stroke-linecap="butt" stroke-linejoin="miter" stroke-miterlimit="10" stroke-dasharray="" stroke-dashoffset="0" font-family="Sans Serif" font-weight="normal" text-anchor="start" style="mix-blend-mode: normal"><tspan x="0" dy="0">Free-Move</tspan></text><text transform="translate(368.15239,103.0101) scale(0.37099,0.37099)" font-size="40" xml:space="preserve" fill="#000000" fill-rule="nonzero" stroke="none" stroke-width="1" stroke-linecap="butt" stroke-linejoin="miter" stroke-miterlimit="10" stroke-dasharray="" stroke-dashoffset="0" font-family="Sans Serif" font-weight="normal" text-anchor="start" style="mix-blend-mode: normal"><tspan x="0" dy="0">Easy</tspan></text><text transform="translate(367.474,135.31699) scale(0.47686,0.47686)" font-size="40" xml:space="preserve" fill="#000000" fill-rule="nonzero" stroke="none" stroke-width="1" stroke-linecap="butt" stroke-linejoin="miter" stroke-miterlimit="10" stroke-dasharray="" stroke-dashoffset="0" font-family="Sans Serif" font-weight="normal" text-anchor="start" style="mix-blend-mode: normal"><tspan x="0" dy="0">Complete</tspan></text><g data-paper-data="{&quot;index&quot;:null}" stroke="none" stroke-width="0"><path d="M289.89948,174.67952c-0.01602,2.77208 -2.60334,5.33632 -5.35579,5.32041c-2.0333,-0.01175 -7.45698,-0.04313 -8.72242,-0.05044c-2.11638,-0.01225 -5.41504,-2.66786 -5.39873,-5.48806c0.0123,-2.12636 0.00459,-0.79629 0.01202,-2.08029c0.01169,-2.0224 2.46935,-5.0735 5.14338,-5.05802c2.1155,0.01224 7.6705,0.00501 8.98603,0.05197c3.52506,0.12583 5.35918,3.21055 5.34722,5.27686c-0.00743,1.28498 0.00041,-0.06899 -0.01172,2.02756z" fill="url(#color-1)"/><path d="M289.86883,164.48904c-0.01602,2.77208 -2.60334,5.33633 -5.35579,5.32041c-2.0333,-0.01175 -6.78512,-0.03924 -8.05055,-0.04656c-2.11638,-0.01225 -5.41504,-2.66786 -5.39872,-5.48806c0.0123,-2.12636 0.00459,-0.79629 0.01202,-2.08029c0.01169,-2.0224 2.46935,-5.0735 5.14339,-5.05802c2.11552,0.01224 6.99864,0.00112 8.31416,0.04808c3.52506,0.12583 5.35918,3.21055 5.34722,5.27686c-0.00743,1.28498 0.00041,-0.06899 -0.01172,2.02756z" fill="url(#color-2)"/><path d="M276.08718,179.98678c-6.32059,-0.03655 -11.41481,-5.19004 -11.37825,-11.51064c0.03655,-6.32059 5.19004,-11.41482 11.51063,-11.37826c6.32059,0.03655 11.41482,5.19004 11.37826,11.51064c-0.03655,6.32059 -5.19005,11.41482 -11.51064,11.37826z" fill="#595959"/><path d="M284.2302,171.33209c-0.01602,2.77208 -2.60334,5.33632 -5.35579,5.32041c-2.03329,-0.01176 -4.16485,-0.02409 -5.43028,-0.03141c-2.11638,-0.01225 -5.41503,-2.66786 -5.39872,-5.48806c0.01231,-2.12636 0.0252,-4.35717 0.03263,-5.64117c0.01169,-2.0224 2.46935,-5.0735 5.14338,-5.05802c2.1155,0.01224 4.37837,-0.01403 5.69389,0.03293c3.52506,0.12583 5.35917,3.21055 5.34722,5.27686c-0.00743,1.28496 -0.02019,3.49189 -0.03232,5.58844z" fill="url(#color-3)"/><path d="M281.5999,168.58243c-0.01602,2.77208 -2.60334,5.33633 -5.35579,5.32041c-1.40151,-0.0081 -11.3675,-0.01814 -14.10924,-0.00442c-1.23593,0.00619 -2.08284,-0.9215 -2.07553,-2.18554c0.01205,-2.08337 0.02931,-5.06755 0.03623,-6.26247c0.00574,-0.99105 0.92975,-2.24971 2.23289,-2.24248c2.89016,0.01605 13.01745,0.07777 13.92417,0.11014c3.52506,0.12583 5.35917,3.21055 5.34722,5.27686c-0.00743,1.28498 0.0122,-2.10905 0.00007,-0.0125z" fill="url(#color-4)"/></g><path d="M189.62132,294.84063v-14.63904h160.88638v14.63904z" fill="url(#color-5)" stroke="#000000" stroke-width="0"/><path d="M189.16964,299.98126c-0.00828,-3.88316 -0.02449,-11.49344 -0.02449,-11.49344l161.32691,-0.96671c0,0 0.0576,8.33471 0.02634,12.35926c-0.04245,5.46349 -3.24615,11.161 -13.27178,11.35782c-19.32181,0.37932 -106.5022,0.72693 -137.25272,0.83975c-6.74782,0.02476 -10.79574,-8.10662 -10.80425,-12.09667z" fill="url(#color-6)" stroke="none" stroke-width="0"/><path d="M239.91314,292.06421c0,-2.87716 0,-7.65793 0,-9.00232c0,-0.6957 0.4686,-1.12168 1.19976,-0.66632c2.21014,1.37649 6.81926,4.24708 8.13583,5.06705c0.68653,0.42758 0.54693,1.38252 -0.22986,1.8118c-1.29508,0.7157 -5.36754,2.96627 -7.60196,4.20108c-0.90148,0.49818 -1.50377,-0.08913 -1.50377,-1.41129z" fill="#000000" stroke="none" stroke-width="0"/><text transform="translate(206.90137,292.38104) scale(0.37099,0.37099)" font-size="40" xml:space="preserve" fill="#000000" fill-rule="nonzero" stroke="none" stroke-width="1" stroke-linecap="butt" stroke-linejoin="miter" stroke-miterlimit="10" stroke-dasharray="" stroke-dashoffset="0" font-family="Sans Serif" font-weight="normal" text-anchor="start" style="mix-blend-mode: normal"><tspan x="0" dy="0">Play</tspan></text><path d="M189.1764,145.99561v-16.96178h111.94774v16.96178z" fill="#313131" stroke="none" stroke-width="0"/><path d="M238.60742,208.6124v-16.96178h111.94774v16.96178z" fill="#313131" stroke="none" stroke-width="0"/></g></g></svg>