<svg version="1.1" xmlns="http://www.w3.org/2000/svg" xmlns:xlink="http://www.w3.org/1999/xlink" width="505" height="505" viewBox="0,0,505,505"><defs><linearGradient x1="493.24116" y1="353.24116" x2="146.75884" y2="6.75884" gradientUnits="userSpaceOnUse" id="color-1"><stop offset="0" stop-color="#ffe34e"/><stop offset="1" stop-color="#ff9332"/></linearGradient><linearGradient x1="75" y1="180" x2="565" y2="180" gradientUnits="userSpaceOnUse" id="color-2"><stop offset="0" stop-color="#9d7222"/><stop offset="1" stop-color="#cb952c"/></linearGradient></defs><g transform="translate(-67.5,72.5)"><g data-paper-data="{&quot;isPaintingLayer&quot;:true}" fill-rule="nonzero" stroke-linecap="butt" stroke-linejoin="miter" stroke-miterlimit="10" stroke-dasharray="" stroke-dashoffset="0" style="mix-blend-mode: normal"><path d="M493.24116,6.75884c95.67845,95.67845 95.67845,250.80387 0,346.48232c-95.67845,95.67845 -250.80387,95.67845 -346.48232,0c-95.67845,-95.67845 -95.67845,-250.80387 0,-346.48232c95.67845,-95.67845 250.80387,-95.67845 346.48232,0z" fill="url(#color-1)" stroke="url(#color-2)" stroke-width="15"/><path d="M261.484,320.121c-13.983,-13.983 -4.953,-4.952 -13.523,-13.523c-13.782,-13.782 -21.933,-46.637 0.879,-70.855c8.513,-9.039 45.825,-45.825 59.935,-59.935c17.835,-17.836 54.553,-13.665 68.042,-0.176c8.564,8.564 -0.307,-0.308 13.875,13.875c18.81,18.81 14.292,58.498 0.176,72.613c-8.44,8.441 -44.615,44.616 -58.177,58.177c-18.358,18.358 -52.718,18.314 -71.207,-0.176z" fill="#be8b28" stroke="none" stroke-width="1"/><path d="M194.117,251.559c-13.984,-13.984 -4.953,-4.953 -13.524,-13.523c-13.7815,-13.782 -21.9327,-46.637 0.879,-70.856c8.514,-9.038 41.344,-41.344 55.454,-55.454c17.836,-17.835 54.553,-13.664 68.042,-0.175c8.564,8.564 -0.307,-0.308 13.876,13.875c18.81,18.81 14.291,58.498 0.175,72.613c-8.44,8.44 -40.133,40.134 -53.695,53.696c-18.358,18.358 -52.718,18.313 -71.207,-0.176z" fill="#be8b28" stroke="none" stroke-width="1"/><path d="M236.667,264.134c-42.157,-42.157 -42.157,-110.507 0,-152.664c42.157,-42.157 110.508,-42.157 152.665,0c42.157,42.157 42.157,110.507 0,152.664c-42.157,42.157 -110.508,42.157 -152.665,0z" fill="#a67b29" stroke="none" stroke-width="1"/><path d="M277.318,260.073c-13.984,-13.983 -28.704,-28.703 -37.274,-37.273c-13.782,-13.782 -21.933,-46.637 0.879,-70.856c8.514,-9.038 23.867,-23.867 37.977,-37.977c17.835,-17.835 54.553,-13.665 68.042,-0.176c8.564,8.564 23.443,23.443 37.626,37.626c18.81,18.81 14.291,58.498 0.176,72.613c-8.44,8.44 -22.658,22.658 -36.219,36.219c-18.358,18.358 -52.718,18.313 -71.207,-0.176z" fill="#cb952c" stroke="none" stroke-width="1"/><path d="M276.729,224.187c-13.983,-13.984 8.654,8.654 0.084,0.083c-13.782,-13.782 -21.933,-46.636 0.879,-70.855c5.867,-6.23 73.394,-73.798 92.675,-93.07c8.693,-8.69 23.238,-6.373 29.848,0.237c7.97,7.97 27.874,27.873 41.77,41.769c8.431,8.431 8.901,20.27 0.569,28.424c-18.483,18.088 -85.27,84.24 -94.618,93.588c-18.358,18.358 -52.718,18.313 -71.207,-0.176z" fill="#9e7627" stroke="none" stroke-width="1"/></g></g></svg>