<svg version="1.1" xmlns="http://www.w3.org/2000/svg" xmlns:xlink="http://www.w3.org/1999/xlink" width="1039.93736" height="662.28716" viewBox="0,0,1039.93736,662.28716"><g transform="translate(175.97255,187.96537)"><g data-paper-data="{&quot;isPaintingLayer&quot;:true}" fill-rule="nonzero" stroke="none" stroke-linecap="butt" stroke-linejoin="miter" stroke-miterlimit="10" stroke-dasharray="" stroke-dashoffset="0" style="mix-blend-mode: normal"><path d="M0.73598,469.32179h-7.93651v-657.28716h7.93651z" fill="#313131" stroke-width="0"/><path d="M645.70706,-6.91919v7.93651h-657.28716v-7.93651z" fill="#313131" stroke-width="0"/><path d="M646.4286,474.32179h-7.93651v-657.28716h7.93651z" fill="#313131" stroke-width="0"/><path d="M639.88456,360.27417v7.93651h-657.28716v-7.93651z" fill="#313131" stroke-width="0"/><text transform="translate(56.15632,-22.33001) rotate(90) scale(17.40364,18.57031) skewX(0)" font-size="40" xml:space="preserve" fill="#313131" fill-rule="nonzero" stroke="none" stroke-width="1" stroke-linecap="butt" stroke-linejoin="miter" stroke-miterlimit="10" stroke-dasharray="" stroke-dashoffset="0" font-family="Sans Serif" font-weight="normal" text-anchor="start" style="mix-blend-mode: normal"><tspan x="0" dy="0">C</tspan></text><path d="M204.81922,273.2v-26h227v26z" fill="#313131" stroke-width="0"/><path d="M121.41922,344.2v-26h83.4v26z" fill="#313131" stroke-width="0"/><path d="M438.3,346.2v-26h83.4v26z" fill="#313131" stroke-width="0"/><path d="M-7.98699,373v-385h658v385c0,0 -50.37574,0 -121,0c-55.10898,0 185.71936,-310.57497 -200,-315c-384.28769,-4.4086 -168.7627,315 -213,315c-55.78494,0 -124,0 -124,0z" fill="#313131" stroke-width="0"/></g></g></svg>