<svg version="1.1" xmlns="http://www.w3.org/2000/svg" xmlns:xlink="http://www.w3.org/1999/xlink" width="658.4127" height="374" viewBox="0,0,658.4127,374"><defs><linearGradient x1="320" y1="-7" x2="320" y2="367" gradientUnits="userSpaceOnUse" id="color-1"><stop offset="0" stop-color="#ffffff"/><stop offset="1" stop-color="#d9d9d9"/></linearGradient><linearGradient x1="224.87891" y1="167.76508" x2="224.87891" y2="207.8762" gradientUnits="userSpaceOnUse" id="color-2"><stop offset="0" stop-color="#e6e6e6"/><stop offset="1" stop-color="#d4d4d4"/></linearGradient><linearGradient x1="355.19966" y1="180.83539" x2="355.19966" y2="199.81283" gradientUnits="userSpaceOnUse" id="color-3"><stop offset="0" stop-color="#7f7f7f"/><stop offset="1" stop-color="#1a1a1a"/></linearGradient><linearGradient x1="251.94806" y1="197.63446" x2="237.61245" y2="183.29885" gradientUnits="userSpaceOnUse" id="color-4"><stop offset="0" stop-color="#ffe34e"/><stop offset="1" stop-color="#ff9332"/></linearGradient><linearGradient x1="234.64345" y1="190.46665" x2="254.91706" y2="190.46665" gradientUnits="userSpaceOnUse" id="color-5"><stop offset="0" stop-color="#9d7222"/><stop offset="1" stop-color="#cb952c"/></linearGradient></defs><g transform="translate(9.20635,7)"><g data-paper-data="{&quot;isPaintingLayer&quot;:true}" fill-rule="nonzero" stroke-linecap="butt" stroke-linejoin="miter" stroke-miterlimit="10" stroke-dasharray="" stroke-dashoffset="0" style="mix-blend-mode: normal"><path d="M-9.20635,367v-374h658.4127v374z" fill="url(#color-1)" stroke="#000000" stroke-width="0"/><text transform="translate(265.52002,83.76875) scale(0.5,0.5)" font-size="40" xml:space="preserve" fill="#000000" fill-rule="nonzero" stroke="#000000" stroke-width="1" stroke-linecap="butt" stroke-linejoin="miter" stroke-miterlimit="10" stroke-dasharray="" stroke-dashoffset="0" font-family="Sans Serif" font-weight="normal" text-anchor="start" style="mix-blend-mode: normal"><tspan x="0" dy="0">Top Players</tspan></text><path d="M144.19028,120.88567c0,-4.77455 6.10037,-11.77993 12.61256,-11.77993c18.02073,0 293.82483,0 326.38676,0c7.85036,0 12.62012,5.89968 12.62012,12.53294c0,5.81881 0,165.87953 0,169.34007c0,4.81412 -4.64793,11.91552 -12.31891,11.91552c-0.34533,0 -308.80445,0 -326.68796,0c-6.5122,0 -12.61256,-5.70807 -12.61256,-12.21673c0,0 -0.00001,-166.25452 -0.00001,-169.79187z" fill="url(#color-2)" stroke="none" stroke-width="0"/><text transform="translate(254.30461,138.31324) scale(0.39537,0.39537)" font-size="40" xml:space="preserve" fill="#000000" fill-rule="nonzero" stroke="#000000" stroke-width="0" stroke-linecap="butt" stroke-linejoin="miter" stroke-miterlimit="10" stroke-dasharray="" stroke-dashoffset="0" font-family="Sans Serif" font-weight="normal" text-anchor="start" style="mix-blend-mode: normal"><tspan x="0" dy="0">#1 Ranked Player</tspan></text><path d="M345.71093,199.81283l1.57169,-3.25283l-2.86786,-3.07467l5.63975,-1.22272l-4.18292,-2.69298l2.94403,-1.84459l-2.92166,-2.51628l-0.183,-4.37337l2.20504,2.60383l1.71243,-2.60383l2.69767,2.41617l1.66551,-2.41617l-1.19914,3.63815l2.11399,1.80408l-0.08641,-2.56924l1.98764,2.96171l3.20967,0.83637l1.63565,-4.96435l3.03541,-1.70673l-2.04083,6.00522l1.92058,2.96257l-3.51072,-0.08515l1.09551,3.19474l-1.93042,2.68437l4.46587,4.21568l-6.24093,-0.62919l-1.45326,-1.38818l-2.91197,2.3025l-1.4411,-3.15913l-2.80283,-1.74641l-0.73642,3.31515z" fill="url(#color-3)" stroke="#4a4a4a" stroke-width="0"/><g><path d="M251.94806,183.29885c3.95867,3.95867 3.95867,10.37694 0,14.33561c-3.95867,3.95867 -10.37694,3.95867 -14.33561,0c-3.95867,-3.95867 -3.95867,-10.37694 0,-14.33561c3.95867,-3.95867 10.37694,-3.95867 14.33561,0z" fill="url(#color-4)" stroke="url(#color-5)" stroke-width="1.5"/><path d="M242.35917,196.26412c-0.57854,-0.57854 -0.20493,-0.20489 -0.55951,-0.55951c-0.57022,-0.57022 -0.90748,-1.92959 0.03637,-2.93161c0.35222,-0.37399 1.89599,-1.896 2.47979,-2.4798c0.73791,-0.73796 2.25712,-0.56538 2.81522,-0.00728c0.35433,0.35433 -0.01269,-0.01274 0.57408,0.57407c0.77826,0.77826 0.59132,2.42033 0.00727,3.00434c-0.34921,0.34924 -1.84593,1.84598 -2.40706,2.40706c-0.75956,0.75956 -2.18119,0.75774 -2.94617,-0.00728z" fill="#be8b28" stroke="none" stroke-width="1"/><path d="M239.57188,193.42739c-0.57859,-0.57859 -0.20493,-0.20493 -0.55955,-0.55951c-0.57021,-0.57022 -0.90745,-1.92959 0.03637,-2.93164c0.35226,-0.37395 1.71059,-1.7106 2.29439,-2.2944c0.73796,-0.73791 2.25712,-0.56534 2.81522,-0.00724c0.35433,0.35433 -0.0127,-0.01274 0.57412,0.57407c0.77826,0.77826 0.59128,2.42033 0.00724,3.00434c-0.34921,0.34921 -1.66049,1.66054 -2.22161,2.22166c-0.75956,0.75956 -2.1812,0.7577 -2.94617,-0.00728z" fill="#be8b28" stroke="none" stroke-width="1"/><path d="M241.33237,193.94767c-1.74424,-1.74424 -1.74424,-4.5722 0,-6.31643c1.74424,-1.74424 4.57223,-1.74424 6.31647,0c1.74424,1.74424 1.74424,4.5722 0,6.31643c-1.74424,1.74424 -4.57223,1.74424 -6.31647,0z" fill="#a67b29" stroke="none" stroke-width="1"/><path d="M243.0143,193.77965c-0.57859,-0.57854 -1.18762,-1.18758 -1.5422,-1.54216c-0.57022,-0.57022 -0.90748,-1.9296 0.03637,-2.93165c0.35226,-0.37395 0.98749,-0.98749 1.57129,-1.57129c0.73791,-0.73791 2.25712,-0.56539 2.81522,-0.00728c0.35433,0.35433 0.96994,0.96994 1.55677,1.55677c0.77826,0.77826 0.59128,2.42034 0.00728,3.00434c-0.34921,0.34921 -0.93747,0.93747 -1.49855,1.49855c-0.75956,0.75956 -2.1812,0.75769 -2.94617,-0.00728z" fill="#cb952c" stroke="none" stroke-width="1"/><path d="M242.98993,192.29488c-0.57854,-0.57859 0.35805,0.35806 0.00347,0.00343c-0.57022,-0.57022 -0.90748,-1.92955 0.03637,-2.93161c0.24275,-0.25777 3.03666,-3.05337 3.83441,-3.85074c0.35967,-0.35954 0.96147,-0.26369 1.23495,0.0098c0.32976,0.32976 1.15328,1.15323 1.72822,1.72818c0.34883,0.34883 0.36828,0.83867 0.02355,1.17604c-0.76473,0.74839 -3.52802,3.48541 -3.91479,3.87217c-0.75956,0.75956 -2.18119,0.75769 -2.94617,-0.00728z" fill="#9e7627" stroke="none" stroke-width="1"/></g></g></g></svg>