<svg version="1.1" xmlns="http://www.w3.org/2000/svg" xmlns:xlink="http://www.w3.org/1999/xlink" width="137.05134" height="137.05134" viewBox="0,0,137.05134,137.05134"><g transform="translate(-251.47433,-111.47433)"><g data-paper-data="{&quot;isPaintingLayer&quot;:true}" fill-rule="nonzero" stroke-linejoin="null" stroke-miterlimit="10" stroke-dashoffset="0" style="mix-blend-mode: normal"><g><path d="M355.14802,232.90801c-29.22029,19.41171 -68.64432,11.46029 -88.05603,-17.75999c-19.41171,-29.22029 -11.4603,-68.64431 17.75999,-88.05603c29.22029,-19.41171 68.64432,-11.4603 88.05603,17.75999c19.41171,29.22029 11.4603,68.64432 -17.75999,88.05603z" fill="#ff0000" stroke="#1a2938" stroke-width="10" stroke-linecap="null" stroke-dasharray="NaN"/><path d="M291.09904,161.98826c0,-2.72113 2.20591,-4.92704 4.92704,-4.92704c2.72113,0 4.92704,2.20591 4.92704,4.92704c0,2.72113 -2.20591,4.92704 -4.92704,4.92704c-2.72113,0 -4.92704,-2.20591 -4.92704,-4.92704z" fill="#000000" stroke="#1a2938" stroke-width="1" stroke-linecap="null" stroke-dasharray="NaN"/><path d="M339.14698,162.03886c0,-2.72113 2.20591,-4.92704 4.92704,-4.92704c2.72113,0 4.92704,2.20591 4.92704,4.92704c0,2.72113 -2.20591,4.92704 -4.92704,4.92704c-2.72113,0 -4.92704,-2.20591 -4.92704,-4.92704z" fill="#000000" stroke="#1a2938" stroke-width="1" stroke-linecap="null" stroke-dasharray="NaN"/><path d="M290.61039,151.03202l2.52666,-4.68912l14.48236,7.80359l-2.52666,4.68912z" fill="#000000" stroke="#1a2938" stroke-width="1" stroke-linecap="null" stroke-dasharray="NaN"/><path d="M334.04916,158.95219l-2.26775,-4.81967l14.88555,-7.00394l2.26775,4.81967z" fill="#000000" stroke="#1a2938" stroke-width="1" stroke-linecap="round" stroke-dasharray="NaN"/><path d="M291.95395,182.66583c0,-3.6772 12.40079,-6.65816 27.69794,-6.65816c15.29715,0 27.69794,2.98096 27.69794,6.65816c0,3.6772 -12.40079,6.65816 -27.69794,6.65816c-15.29715,0 -27.69794,-2.98096 -27.69794,-6.65816z" fill="#000000" stroke="#1a2938" stroke-width="0" stroke-linecap="null" stroke-dasharray="NaN"/><path d="M288.09488,186.19732c0,-2.86822 13.87577,-5.19336 30.9924,-5.19336c17.11663,0 30.9924,2.32515 30.9924,5.19336c0,2.86822 -13.87577,5.19336 -30.9924,5.19336c-17.11663,0 -30.9924,-2.32515 -30.9924,-5.19336z" fill="#ff0000" stroke="#1a2938" stroke-width="0" stroke-linecap="null" stroke-dasharray="NaN"/></g></g></g></svg>