<svg version="1.1" xmlns="http://www.w3.org/2000/svg" xmlns:xlink="http://www.w3.org/1999/xlink" width="60.11082" height="40.03807" viewBox="0,0,60.11082,40.03807"><defs><linearGradient x1="305.34923" y1="174.70505" x2="305.34923" y2="199.79523" gradientUnits="userSpaceOnUse" id="color-1"><stop offset="0" stop-color="#420000"/><stop offset="1" stop-color="#300000"/></linearGradient><linearGradient x1="305.34923" y1="159.92346" x2="305.34923" y2="185.01368" gradientUnits="userSpaceOnUse" id="color-2"><stop offset="0" stop-color="#420000"/><stop offset="1" stop-color="#300000"/></linearGradient><linearGradient x1="321.6326" y1="165.88709" x2="321.6326" y2="194.11785" gradientUnits="userSpaceOnUse" id="color-3"><stop offset="0" stop-color="#420000"/><stop offset="1" stop-color="#300000"/></linearGradient><linearGradient x1="331.15352" y1="170.75517" x2="331.15352" y2="189.50704" gradientUnits="userSpaceOnUse" id="color-4"><stop offset="0" stop-color="#800000"/><stop offset="1" stop-color="#660000"/></linearGradient><linearGradient x1="331.15352" y1="170.75517" x2="331.15352" y2="189.50704" gradientUnits="userSpaceOnUse" id="color-5"><stop offset="0" stop-color="#800000"/><stop offset="1" stop-color="#660000"/></linearGradient></defs><g transform="translate(-289.94459,-159.92347)"><g data-paper-data="{&quot;isPaintingLayer&quot;:true}" fill-rule="nonzero" stroke="none" stroke-width="0" stroke-linecap="butt" stroke-linejoin="miter" stroke-miterlimit="10" stroke-dasharray="" stroke-dashoffset="0" style="mix-blend-mode: normal"><path d="M289.94459,186.32773l30.80929,-11.62267v25.0902z" fill="url(#color-1)"/><path d="M289.94459,171.54614l30.80929,-11.62267v25.0902z" fill="url(#color-2)"/><path d="M301.67105,180c0,-11.02445 8.93709,-19.96154 19.96154,-19.96154c11.02445,0 19.96154,8.93709 19.96154,19.96154c0,11.02445 -8.93709,19.96154 -19.96154,19.96154c-11.02445,0 -19.96154,-8.93709 -19.96154,-19.96154z" fill="#590000"/><path d="M307.51721,184.78426c0,-3.65684 0,-7.50617 0,-9.74743c0,-3.60408 3.2301,-8.96579 9.37961,-9.14971c2.29496,-0.06864 6.24145,0 9.93134,0c4.66408,0 8.91982,5.34634 8.91982,8.87384c0,2.23956 0,6.13057 0,9.83939c0,4.91902 -5.78016,9.51754 -9.47156,9.51754c-2.20718,0 -5.92507,0 -9.47156,0c-4.80086,0 -9.28765,-4.49855 -9.28765,-9.33363z" fill="url(#color-3)"/><path d="M312.25163,179.30602l37.80378,-8.55086v18.75188z" fill="url(#color-4)"/><path d="M312.25163,189.50704v-18.75188l37.80378,8.55086z" data-paper-data="{&quot;index&quot;:null}" fill="url(#color-5)"/></g></g></svg>