<svg version="1.1" xmlns="http://www.w3.org/2000/svg" xmlns:xlink="http://www.w3.org/1999/xlink" width="102.54954" height="86.74662" viewBox="0,0,102.54954,86.74662"><defs><linearGradient x1="320" y1="131.07704" x2="320" y2="195.26914" gradientUnits="userSpaceOnUse" id="color-1"><stop offset="0" stop-color="#5d2800"/><stop offset="1" stop-color="#331601"/></linearGradient><linearGradient x1="320" y1="135.69243" x2="320" y2="199.88454" gradientUnits="userSpaceOnUse" id="color-2"><stop offset="0" stop-color="#401c00"/><stop offset="1" stop-color="#261001"/></linearGradient><linearGradient x1="320" y1="147.90397" x2="320" y2="212.09609" gradientUnits="userSpaceOnUse" id="color-3"><stop offset="0" stop-color="#5d2800"/><stop offset="1" stop-color="#331601"/></linearGradient><linearGradient x1="320.5899" y1="127.34946" x2="320.5899" y2="138.55464" gradientUnits="userSpaceOnUse" id="color-4"><stop offset="0" stop-color="#ffac00"/><stop offset="1" stop-color="#ff9b25"/></linearGradient></defs><g transform="translate(-268.72523,-126.34946)"><g data-paper-data="{&quot;isPaintingLayer&quot;:true}" fill-rule="nonzero" stroke="#000000" stroke-width="2" stroke-linecap="butt" stroke-linejoin="miter" stroke-miterlimit="10" stroke-dasharray="" stroke-dashoffset="0" style="mix-blend-mode: normal"><path d="M269.72523,187.02127c0,-10.00017 0,-42.43063 0,-47.97081c0,-3.67478 4.19745,-7.97343 8.11687,-7.97343c7.57016,0 70.69567,0 84.31772,0c4.9074,0 8.11495,4.44645 8.11495,8.20944c0,5.65045 0,38.32633 0,48.20684c0,4.59976 -3.18032,7.77584 -8.05595,7.77584c-13.70904,0 -77.22696,0 -84.73074,0c-3.77462,0 -7.76285,-3.39275 -7.76285,-8.24787z" fill="url(#color-1)"/><path d="M269.72523,191.63668c0,-10.00017 0,-42.43063 0,-47.97081c0,-3.67478 4.19745,-7.97343 8.11687,-7.97343c7.57016,0 70.69567,0 84.31772,0c4.9074,0 8.11495,4.44645 8.11495,8.20944c0,5.65045 0,38.32633 0,48.20684c0,4.59976 -3.18032,7.77584 -8.05595,7.77584c-13.70904,0 -77.22696,0 -84.73074,0c-3.77462,0 -7.76285,-3.39275 -7.76285,-8.24787z" fill="url(#color-2)"/><path d="M269.72523,203.84822c0,-6.54757 0,-34.45397 0,-34.45397l100.54954,0.19231c0,0 0,28.14421 0,34.73369c0,4.59976 -3.18032,7.77584 -8.05595,7.77584c-13.70904,0 -77.22696,0 -84.73074,0c-3.77462,0 -7.76285,-3.39275 -7.76285,-8.24787z" fill="url(#color-3)"/><path d="M314.47488,135.58243c0,-1.1288 0,-3.54463 0,-5.45097c0,-1.57271 2.55291,-2.782 4.1698,-2.782c0.93113,0 2.47372,0 3.9615,0c2.10418,0 4.09873,1.25199 4.09873,2.86024c0,1.88297 0,4.23497 0,5.34664c0,1.24584 -0.63895,2.99829 -4.17641,2.99829c-1.50898,0 -3.06878,0 -4.00034,0c-3.21693,0 -4.05329,-1.73444 -4.05329,-2.97221z" fill="url(#color-4)"/></g></g></svg>