<svg version="1.1" xmlns="http://www.w3.org/2000/svg" xmlns:xlink="http://www.w3.org/1999/xlink" width="35.37726" height="32.27733" viewBox="0,0,35.37726,32.27733"><defs><linearGradient x1="383" y1="164.00949" x2="383" y2="204.12061" gradientUnits="userSpaceOnUse" id="color-1"><stop offset="0" stop-color="#e6e6e6"/><stop offset="1" stop-color="#cccccc"/></linearGradient></defs><g transform="translate(-302.31137,-163.86134)"><g stroke-miterlimit="10"><path d="M302.31137,183.92196c0,-5.95362 0,-4.59518 0,-8.13253c0,-4.77455 6.10037,-11.77993 12.61256,-11.77993c18.02073,0 -0.41735,-0.33334 10.14458,0c7.84645,0.24764 12.62012,5.89968 12.62012,12.53294c0,5.81881 0,4.22018 0,7.68072c0,4.81412 -4.64793,11.91552 -12.31891,11.91552c-0.34533,0 7.43773,0 -10.44578,0c-6.5122,0 -12.61256,-5.70807 -12.61256,-12.21673z" fill="url(#color-1)" stroke="none" stroke-width="0" stroke-linecap="butt"/><g fill="none" stroke="#000000" stroke-width="4" stroke-linecap="round"><path d="M316.95,184.35l-3.7,-3.7"/><path d="M317.25,184.75l9.5,-9.5"/></g></g></g></svg>