<svg version="1.1" xmlns="http://www.w3.org/2000/svg" xmlns:xlink="http://www.w3.org/1999/xlink" width="261.70236" height="52.67226" viewBox="0,0,261.70236,52.67226"><defs><linearGradient x1="257.00061" y1="163.66604" x2="257.00061" y2="196.33394" gradientUnits="userSpaceOnUse" id="color-1"><stop offset="0" stop-color="#ff3874"/><stop offset="1" stop-color="#ff8585"/></linearGradient></defs><g transform="translate(-189.14882,-143.6617)"><g data-paper-data="{&quot;isPaintingLayer&quot;:true}" fill-rule="nonzero" stroke-linecap="butt" stroke-linejoin="miter" stroke-miterlimit="10" stroke-dasharray="" stroke-dashoffset="0" style="mix-blend-mode: normal"><path d="M189.14882,193.04907c0,-6.76177 0,-21.92796 0,-25.80647c0,-1.76538 1.34994,-3.57656 3.19208,-3.57656c10.69704,0 235.74651,0 255.20255,0c2.13154,0 3.30773,1.78996 3.30773,3.53984c0,3.84034 0,18.85389 0,25.6963c0,2.10113 -1.35247,3.43178 -3.19755,3.43178c-10.7124,0 -235.88598,0 -255.23928,0c-2.10486,0 -3.26553,-1.26891 -3.26553,-3.28487z" fill-opacity="0.74902" fill="#ffffff" stroke="url(#color-1)" stroke-width="0"/><text transform="translate(190.5,158.32424) scale(0.33707,0.33707)" font-size="40" xml:space="preserve" fill="#000000" fill-rule="nonzero" stroke="none" stroke-width="1" stroke-linecap="butt" stroke-linejoin="miter" stroke-miterlimit="10" stroke-dasharray="" stroke-dashoffset="0" font-family="Sans Serif" font-weight="normal" text-anchor="start" style="mix-blend-mode: normal"><tspan x="0" dy="0">Username:</tspan></text></g></g></svg>