<svg version="1.1" xmlns="http://www.w3.org/2000/svg" xmlns:xlink="http://www.w3.org/1999/xlink" width="91.36042" height="70.04008" viewBox="0,0,91.36042,70.04008"><defs><linearGradient x1="299.08349" y1="176.27951" x2="299.08349" y2="225.8069" gradientUnits="userSpaceOnUse" id="color-1"><stop offset="0" stop-color="#424242"/><stop offset="1" stop-color="#313131"/></linearGradient><linearGradient x1="299.35762" y1="145.09819" x2="299.35762" y2="194.62558" gradientUnits="userSpaceOnUse" id="color-2"><stop offset="0" stop-color="#424242"/><stop offset="1" stop-color="#313131"/></linearGradient><linearGradient x1="316.49018" y1="155.24072" x2="316.49018" y2="204.76811" gradientUnits="userSpaceOnUse" id="color-3"><stop offset="0" stop-color="#424242"/><stop offset="1" stop-color="#313131"/></linearGradient><linearGradient x1="324.58725" y1="146.8737" x2="324.58725" y2="196.40109" gradientUnits="userSpaceOnUse" id="color-4"><stop offset="0" stop-color="#808080"/><stop offset="1" stop-color="#666666"/></linearGradient></defs><g transform="translate(-274.31979,-144.97996)"><g data-paper-data="{&quot;isPaintingLayer&quot;:true}" fill-rule="nonzero" stroke="none" stroke-width="0" stroke-linecap="butt" stroke-linejoin="miter" stroke-miterlimit="10" stroke-dasharray="" stroke-dashoffset="0" style="mix-blend-mode: normal"><g><path d="M274.31979,198.53592c0,-6.41549 0,-2.27236 0,-6.20434c0,-6.32293 5.66683,-15.72934 16.45535,-16.05203c4.02623,-0.12044 21.0238,0 27.49724,0c8.18255,0 15.64871,9.37949 15.64871,15.56804c0,3.92904 0,-0.141 0,6.36569c0,8.62983 -10.14056,16.69732 -16.61665,16.69732c-3.87222,0 -20.46877,0 -26.69064,0c-8.4225,0 -16.294,-7.89212 -16.294,-16.37471z" fill="url(#color-1)"/><path d="M274.59392,167.3546c0,-6.41549 0,-2.27232 0,-6.20435c0,-6.32293 5.66684,-15.72937 16.45539,-16.05202c4.02623,-0.12044 18.96787,0 25.44135,0c8.18255,0 15.64874,9.37949 15.64874,15.56807c0,3.92904 0,-0.141 0,6.36569c0,8.62983 -10.1406,16.69736 -16.61669,16.69736c-3.87222,0 -18.41284,0 -24.63471,0c-8.4225,0 -16.29404,-7.89213 -16.29404,-16.37472z" fill="url(#color-2)"/><path d="M281.47012,180.00002c0,-19.34106 15.67901,-35.02006 35.02002,-35.02006c19.34101,0 35.02006,15.67905 35.02006,35.02006c0,19.34106 -15.67906,35.02002 -35.02006,35.02002c-19.34101,0 -35.02001,-15.67901 -35.02001,-35.02002z" fill="#595959"/><path d="M291.72648,188.39343c0,-6.41549 0,-13.16866 0,-17.10068c0,-6.32293 5.6668,-15.72933 16.45535,-16.05202c4.02623,-0.12044 10.94982,0 17.42329,0c8.18255,0 15.64875,9.37949 15.64875,15.56803c0,3.92904 0,10.7553 0,17.26199c0,8.62983 -10.1406,16.69736 -16.61669,16.69736c-3.87222,0 -10.39478,0 -16.61665,0c-8.4225,0 -16.29405,-7.89213 -16.29405,-16.37471z" fill="url(#color-3)"/><path d="M299.82364,180.02638c0,-6.41549 0,3.97027 0,0.03824c0,-6.32293 5.66679,-15.72938 16.45534,-16.05203c2.77501,-0.08301 33.76461,-0.09264 42.60853,-0.09059c3.98759,0.00093 6.7927,3.86868 6.7927,6.9013c0,3.65648 0,12.78807 0,19.16318c0,3.86795 -2.60787,6.6916 -6.38959,6.65082c-8.38922,-0.09054 -38.88434,-0.23621 -43.17294,-0.23621c-8.4225,0 -16.294,-7.89213 -16.294,-16.37472z" fill="url(#color-4)"/></g></g></g></svg>