<svg version="1.1" xmlns="http://www.w3.org/2000/svg" xmlns:xlink="http://www.w3.org/1999/xlink" width="98.61944" height="90.78853" viewBox="0,0,98.61944,90.78853"><defs><linearGradient x1="351.37891" y1="193.26508" x2="351.37891" y2="233.3762" gradientUnits="userSpaceOnUse" id="color-1"><stop offset="0" stop-color="#229be6"/><stop offset="1" stop-color="#2681ff"/></linearGradient></defs><g transform="translate(-270.69028,-134.60574)"><g data-paper-data="{&quot;isPaintingLayer&quot;:true}" fill-rule="nonzero" stroke-linejoin="miter" stroke-miterlimit="10" stroke-dasharray="" stroke-dashoffset="0" style="mix-blend-mode: normal"><path d="M270.69028,213.17755c0,-5.95362 0,-63.25453 0,-66.79188c0,-4.77455 6.10037,-11.77993 12.61256,-11.77993c18.02073,0 40.82483,0 73.38676,0c7.85036,0 12.62012,5.89968 12.62012,12.53294c0,5.81881 0,62.87953 0,66.34007c0,4.81412 -4.64793,11.91552 -12.31891,11.91552c-0.34533,0 -0.69679,0 -1.05422,0c-33.10806,0 -54.75023,0 -72.63374,0c-6.5122,0 -12.61256,-5.70807 -12.61256,-12.21673z" fill="url(#color-1)" stroke="none" stroke-width="0" stroke-linecap="butt"/><text transform="translate(273.97195,215.4512) scale(0.25943,0.25943)" font-size="40" xml:space="preserve" fill="#ffffff" fill-rule="nonzero" stroke="none" stroke-width="1" stroke-linecap="butt" stroke-linejoin="miter" stroke-miterlimit="10" stroke-dasharray="" stroke-dashoffset="0" font-family="Sans Serif" font-weight="normal" text-anchor="start" style="mix-blend-mode: normal"><tspan x="0" dy="0">Tank Ball Physics +</tspan></text><g fill="#ffffff" stroke="none" stroke-width="0" stroke-linecap="butt"><path d="M298.97893,183.205c0,-2.95225 0,-1.04566 0,-2.8551c0,-2.90965 2.60773,-7.23828 7.57237,-7.38676c1.85278,-0.05541 9.67465,0 12.65358,0c3.76542,0 7.20117,4.31621 7.20117,7.16405c0,1.80804 0,-0.06489 0,2.92934c0,3.97123 -4.66644,7.68371 -7.64659,7.68371c-1.78191,0 -9.41923,0 -12.28239,0c-3.87584,0 -7.49812,-3.63178 -7.49812,-7.53525z"/><path d="M299.10507,168.85612c0,-2.95225 0,-1.04566 0,-2.8551c0,-2.90965 2.60773,-7.23828 7.57237,-7.38676c1.85278,-0.05541 8.72857,0 11.70749,0c3.76542,0 7.20117,4.31621 7.20117,7.16405c0,1.80804 0,-0.06489 0,2.92934c0,3.97123 -4.66644,7.68371 -7.64659,7.68371c-1.78191,0 -8.47316,0 -11.3363,0c-3.87584,0 -7.49812,-3.63178 -7.49812,-7.53525z"/><path d="M302.26932,174.67524c0,-8.90027 7.21511,-16.11538 16.11538,-16.11538c8.90027,0 16.11538,7.21511 16.11538,16.11538c0,8.90027 -7.21511,16.11538 -16.11538,16.11538c-8.90027,0 -16.11538,-7.21511 -16.11538,-16.11538z"/><path d="M306.98906,178.53767c0,-2.95225 0,-6.0599 0,-7.86932c0,-2.90965 2.60773,-7.23828 7.57237,-7.38676c1.85278,-0.05541 5.03886,0 8.01778,0c3.76542,0 7.20117,4.31621 7.20117,7.16405c0,1.80804 0,4.94933 0,7.94356c0,3.97123 -4.66644,7.68371 -7.64659,7.68371c-1.78191,0 -4.78343,0 -7.64659,0c-3.87584,0 -7.49812,-3.63178 -7.49812,-7.53525z"/><path d="M310.71515,174.68736c0,-2.95225 0,1.82701 0,0.01761c0,-2.90965 2.60773,-7.23828 7.57237,-7.38676c1.27699,-0.03819 15.53767,-0.04263 19.60742,-0.04169c1.83499,0.00043 3.12584,1.78026 3.12584,3.17581c0,1.68262 0,5.88476 0,8.81844c0,1.77993 -1.20008,3.07932 -2.94033,3.06054c-3.8605,-0.04165 -17.89363,-0.10869 -19.86715,-0.10869c-3.87584,0 -7.49812,-3.63178 -7.49812,-7.53525z"/></g><g fill="none" stroke="#ffffff" stroke-width="3" stroke-linecap="round"><path d="M337.06269,154.97609v7.16751"/><path d="M333.47893,158.55986h7.16751"/></g></g></g></svg>