<svg version="1.1" xmlns="http://www.w3.org/2000/svg" xmlns:xlink="http://www.w3.org/1999/xlink" width="133.00806" height="145.62025" viewBox="0,0,133.00806,145.62025"><defs><linearGradient x1="54.11656" y1="126.38722" x2="33.03068" y2="122.57828" gradientUnits="userSpaceOnUse" id="color-1"><stop offset="0" stop-color="#bf0000"/><stop offset="1" stop-color="#400000"/></linearGradient><linearGradient x1="42.31124" y1="142.0484" x2="29.42598" y2="139.72082" gradientUnits="userSpaceOnUse" id="color-2"><stop offset="0" stop-color="#bf0000"/><stop offset="1" stop-color="#400000"/></linearGradient><linearGradient x1="48.53291" y1="107.60582" x2="35.64765" y2="105.27824" gradientUnits="userSpaceOnUse" id="color-3"><stop offset="0" stop-color="#bf0000"/><stop offset="1" stop-color="#400000"/></linearGradient><linearGradient x1="135.56657" y1="220.22266" x2="137.1507" y2="241.59117" gradientUnits="userSpaceOnUse" id="color-4"><stop offset="0" stop-color="#bf0000"/><stop offset="1" stop-color="#400000"/></linearGradient><linearGradient x1="153.682" y1="227.73727" x2="154.65004" y2="240.79524" gradientUnits="userSpaceOnUse" id="color-5"><stop offset="0" stop-color="#bf0000"/><stop offset="1" stop-color="#400000"/></linearGradient><linearGradient x1="118.77778" y1="230.32487" x2="119.74582" y2="243.38283" gradientUnits="userSpaceOnUse" id="color-6"><stop offset="0" stop-color="#bf0000"/><stop offset="1" stop-color="#400000"/></linearGradient></defs><g transform="translate(-29.0536,-98.15633)"><g data-paper-data="{&quot;isPaintingLayer&quot;:true}" fill-rule="nonzero" stroke="#000000" stroke-linecap="butt" stroke-linejoin="miter" stroke-miterlimit="10" stroke-dasharray="" stroke-dashoffset="0" style="mix-blend-mode: normal"><path d="M37.91688,112.5602c4.41845,3.44596 13.19958,10.17196 15.57748,12.0265c1.13479,0.88502 0.83999,2.29171 -0.56927,2.76443c-2.87065,0.96292 -13.45762,4.51418 -18.86736,6.3288c-1.95056,0.65429 -2.914,-0.65577 -2.62736,-2.24255c0.53572,-2.96567 2.31325,-12.80595 3.22578,-17.85762c0.31699,-1.75483 1.74825,-2.19913 3.26072,-1.01955z" fill="url(#color-1)" stroke-width="3"/><path d="M32.41187,133.5989c2.70005,2.10577 8.06607,6.21593 9.51917,7.3492c0.69346,0.54082 0.51331,1.40043 -0.34787,1.68931c-1.75421,0.58843 -8.22376,2.75855 -11.52957,3.86743c-1.19196,0.39982 -1.78071,-0.40073 -1.60555,-1.37039c0.32737,-1.81228 1.4136,-7.82553 1.97123,-10.91253c0.19371,-1.07234 1.06832,-1.34386 1.99258,-0.62303z" fill="url(#color-2)" stroke-width="2"/><path d="M38.63354,99.15633c2.70005,2.10577 8.06607,6.21593 9.51917,7.3492c0.69346,0.54082 0.51331,1.40043 -0.34787,1.68931c-1.75421,0.58843 -8.22376,2.75854 -11.52957,3.86743c-1.19196,0.39982 -1.78071,-0.40073 -1.60555,-1.37039c0.32737,-1.81228 1.41359,-7.82552 1.97123,-10.91253c0.19371,-1.07235 1.06832,-1.34386 1.99258,-0.62303z" fill="url(#color-3)" stroke-width="2"/><path d="M126.22911,239.36497c2.23177,-5.1397 6.5486,-15.32363 7.74969,-18.08969c0.57318,-1.32003 2.0089,-1.3863 2.81896,-0.14c1.65008,2.53872 7.7356,11.90151 10.84518,16.68572c1.12121,1.72502 0.09364,2.98541 -1.51441,3.10461c-3.00542,0.2228 -12.97759,0.96208 -18.09697,1.3416c-1.77835,0.13184 -2.5664,-1.14288 -1.80244,-2.90224z" fill="url(#color-4)" stroke-width="3"/><path d="M147.976,239.43484c1.3638,-3.1408 4.00175,-9.36404 4.73571,-11.05434c0.35026,-0.80666 1.22761,-0.84715 1.72263,-0.08556c1.00834,1.55137 4.72711,7.27284 6.62732,10.1964c0.68515,1.05413 0.05723,1.82435 -0.92543,1.89719c-1.83657,0.13615 -7.93042,0.58791 -11.05879,0.81983c-1.08671,0.08056 -1.56829,-0.69838 -1.10144,-1.77352z" fill="url(#color-5)" stroke-width="2"/><path d="M113.07179,242.02243c1.3638,-3.1408 4.00175,-9.36404 4.73571,-11.05434c0.35026,-0.80666 1.22761,-0.84715 1.72263,-0.08556c1.00834,1.55137 4.7271,7.27284 6.62732,10.1964c0.68515,1.05413 0.05723,1.82435 -0.92543,1.89719c-1.83657,0.13615 -7.93041,0.58792 -11.05879,0.81983c-1.08672,0.08056 -1.56829,-0.69838 -1.10144,-1.77352z" fill="url(#color-6)" stroke-width="2"/></g></g></svg>