<svg version="1.1" xmlns="http://www.w3.org/2000/svg" xmlns:xlink="http://www.w3.org/1999/xlink" width="829.64245" height="829.64245" viewBox="0,0,829.64245,829.64245"><defs><radialGradient cx="320.00001" cy="180" r="414.82123" gradientUnits="userSpaceOnUse" id="color-1"><stop offset="0" stop-color="#000000" stop-opacity="0.50196"/><stop offset="1" stop-color="#000000" stop-opacity="0"/></radialGradient><linearGradient x1="407.72223" y1="34.20299" x2="407.72223" y2="319.48863" gradientUnits="userSpaceOnUse" id="color-2"><stop offset="0" stop-color="#d9d9d9" stop-opacity="0.90196"/><stop offset="1" stop-color="#bfbfbf" stop-opacity="0.90196"/></linearGradient><linearGradient x1="362.77779" y1="280.04652" x2="362.77779" y2="320.15763" gradientUnits="userSpaceOnUse" id="color-3"><stop offset="0" stop-color="#e6e6e6"/><stop offset="1" stop-color="#cccccc"/></linearGradient><linearGradient x1="362.77779" y1="243.37985" x2="362.77779" y2="283.49096" gradientUnits="userSpaceOnUse" id="color-4"><stop offset="0" stop-color="#e6e6e6"/><stop offset="1" stop-color="#cccccc"/></linearGradient><linearGradient x1="363.33345" y1="206.71318" x2="363.33345" y2="246.8243" gradientUnits="userSpaceOnUse" id="color-5"><stop offset="0" stop-color="#e6e6e6"/><stop offset="1" stop-color="#cccccc"/></linearGradient><linearGradient x1="350.33671" y1="226.21536" x2="343.46155" y2="219.34021" gradientUnits="userSpaceOnUse" id="color-6"><stop offset="0" stop-color="#ffe34e"/><stop offset="1" stop-color="#ff9332"/></linearGradient><linearGradient x1="342.03766" y1="222.77778" x2="351.7606" y2="222.77778" gradientUnits="userSpaceOnUse" id="color-7"><stop offset="0" stop-color="#9d7222"/><stop offset="1" stop-color="#cb952c"/></linearGradient></defs><g transform="translate(94.82123,234.82121)"><g data-paper-data="{&quot;isPaintingLayer&quot;:true}" fill-rule="nonzero" stroke-linecap="butt" stroke-linejoin="miter" stroke-miterlimit="10" stroke-dasharray="" stroke-dashoffset="0" style="mix-blend-mode: normal"><path d="M-94.82123,594.82123v-829.64244h829.64245v829.64245z" fill="url(#color-1)" stroke="#000000" stroke-width="0"/><path d="M172.22222,38.62354c0,-2.58344 4.54887,-12.12948 12.10429,-12.1121c69.2649,0.15932 247.11379,0.96925 270.80843,0.96925c4.20177,0 12.64286,1.39235 12.64286,11.2381c0,10.15682 0,265.07685 0,283.83333c0,7.24057 -6.24341,12.04762 -12.47619,12.04762c-14.66633,0 -246.88364,0 -272.05556,0c-6.8111,0 -11.02381,-4.65942 -11.02381,-11.71429c0,0 -0.00002,-274.06369 -0.00002,-284.26191z" fill="url(#color-2)" stroke="none" stroke-width="0"/><text transform="translate(263.01725,68.29632) scale(0.63889,0.63889)" font-size="40" xml:space="preserve" fill="#000000" fill-rule="nonzero" stroke="#000000" stroke-width="1" stroke-linecap="butt" stroke-linejoin="miter" stroke-miterlimit="10" stroke-dasharray="" stroke-dashoffset="0" font-family="Sans Serif" font-weight="normal" text-anchor="start" style="mix-blend-mode: normal"><tspan x="0" dy="0">You Died!</tspan></text><text transform="translate(267.9378,85.7053) scale(0.27679,0.27679)" font-size="40" xml:space="preserve" fill="#000000" fill-rule="nonzero" stroke="#000000" stroke-width="0" stroke-linecap="butt" stroke-linejoin="miter" stroke-miterlimit="10" stroke-dasharray="" stroke-dashoffset="0" font-family="Sans Serif" font-weight="normal" text-anchor="start" style="mix-blend-mode: normal"><tspan x="0" dy="0">You ran out of balls!</tspan></text><path d="M196.5336,291.82646c0,-4.77455 6.10037,-11.77993 12.61256,-11.77993c18.02073,0 189.13821,0 221.70014,0c7.85036,0 12.62012,5.89968 12.62012,12.53294c0,5.81881 0,4.22018 0,7.68072c0,4.81412 -4.64793,11.91552 -12.31891,11.91552c-0.34533,0 -0.69679,0 -1.05422,0c-33.10806,0 -203.06361,0 -220.94712,0c-6.5122,0 -12.61256,-5.70807 -12.61256,-12.21673c0,0 -0.00001,-4.59517 -0.00001,-8.13252z" fill="url(#color-3)" stroke="none" stroke-width="0"/><text transform="translate(266.50097,299.68327) scale(0.29768,0.29768)" font-size="40" xml:space="preserve" fill="#000000" fill-rule="nonzero" stroke="none" stroke-width="1" stroke-linecap="butt" stroke-linejoin="miter" stroke-miterlimit="10" stroke-dasharray="" stroke-dashoffset="0" font-family="Sans Serif" font-weight="normal" text-anchor="start" style="mix-blend-mode: normal"><tspan x="0" dy="0">Quit to Main Menu</tspan></text><path d="M196.5336,255.15979c0,-4.77455 6.10037,-11.77993 12.61256,-11.77993c18.02073,0 189.13821,0 221.70014,0c7.85036,0 12.62012,5.89968 12.62012,12.53294c0,5.81881 0,4.22018 0,7.68072c0,4.81412 -4.64793,11.91552 -12.31891,11.91552c-0.34533,0 -0.69679,0 -1.05422,0c-33.10806,0 -203.0636,0 -220.94711,0c-6.5122,0 -12.61256,-5.70807 -12.61256,-12.21673c0,0 -0.00001,-4.59517 -0.00001,-8.13252z" fill="url(#color-4)" stroke="none" stroke-width="0"/><text transform="translate(299.43627,263.0166) scale(0.29768,0.29768)" font-size="40" xml:space="preserve" fill="#000000" fill-rule="nonzero" stroke="none" stroke-width="1" stroke-linecap="butt" stroke-linejoin="miter" stroke-miterlimit="10" stroke-dasharray="" stroke-dashoffset="0" font-family="Sans Serif" font-weight="normal" text-anchor="start" style="mix-blend-mode: normal"><tspan x="0" dy="0">Restart</tspan></text><path d="M197.08925,218.49312c0,-4.77455 6.10037,-11.77993 12.61256,-11.77993c18.02073,0 189.13821,0 221.70014,0c7.85036,0 12.62012,5.89968 12.62012,12.53294c0,5.81881 0,4.22018 0,7.68072c0,4.81412 -4.64793,11.91552 -12.31891,11.91552c-0.34533,0 -0.69679,0 -1.05422,0c-33.10806,0 -203.0636,0 -220.94711,0c-6.5122,0 -12.61256,-5.70807 -12.61256,-12.21673c0,0 -0.00001,-4.59517 -0.00001,-8.13252z" fill="url(#color-5)" stroke="none" stroke-width="0"/><text transform="translate(270.98602,226.34995) scale(0.29768,0.29768)" font-size="40" xml:space="preserve" fill="#000000" fill-rule="nonzero" stroke="none" stroke-width="1" stroke-linecap="butt" stroke-linejoin="miter" stroke-miterlimit="10" stroke-dasharray="" stroke-dashoffset="0" font-family="Sans Serif" font-weight="normal" text-anchor="start" style="mix-blend-mode: normal"><tspan x="0" dy="0">Retry Level (    10)</tspan></text><g><path d="M350.33671,219.34021c1.89852,1.89852 1.89852,4.97663 0,6.87516c-1.89852,1.89852 -4.97663,1.89852 -6.87516,0c-1.89852,-1.89852 -1.89852,-4.97663 0,-6.87516c1.89852,-1.89852 4.97663,-1.89852 6.87516,0z" fill="url(#color-6)" stroke="url(#color-7)" stroke-width="0.5"/><path d="M345.73801,225.55817c-0.27746,-0.27746 -0.09828,-0.09826 -0.26833,-0.26833c-0.27347,-0.27347 -0.43521,-0.92541 0.01744,-1.40596c0.16892,-0.17936 0.90929,-0.90929 1.18927,-1.18927c0.35389,-0.35391 1.08248,-0.27115 1.35014,-0.00349c0.16993,0.16993 -0.00609,-0.00611 0.27532,0.27532c0.37324,0.37324 0.28359,1.16076 0.00349,1.44084c-0.16747,0.16749 -0.88528,0.8853 -1.15439,1.15439c-0.36427,0.36427 -1.04607,0.3634 -1.41294,-0.00349z" fill="#be8b28" stroke="none" stroke-width="1"/><path d="M344.40126,224.19771c-0.27748,-0.27748 -0.09828,-0.09828 -0.26835,-0.26833c-0.27346,-0.27347 -0.4352,-0.92541 0.01744,-1.40597c0.16894,-0.17934 0.82038,-0.82038 1.10036,-1.10036c0.35391,-0.35389 1.08248,-0.27113 1.35014,-0.00347c0.16993,0.16993 -0.00609,-0.00611 0.27534,0.27532c0.37324,0.37324 0.28357,1.16076 0.00347,1.44084c-0.16747,0.16747 -0.79635,0.79637 -1.06545,1.06547c-0.36427,0.36427 -1.04607,0.36338 -1.41294,-0.00349z" fill="#be8b28" stroke="none" stroke-width="1"/><path d="M345.24557,224.44723c-0.83651,-0.83651 -0.83651,-2.19276 0,-3.02927c0.83651,-0.83651 2.19278,-0.83651 3.02929,0c0.83651,0.83651 0.83651,2.19276 0,3.02927c-0.83651,0.83651 -2.19278,0.83651 -3.02929,0z" fill="#a67b29" stroke="none" stroke-width="1"/><path d="M346.0522,224.36665c-0.27748,-0.27746 -0.56956,-0.56954 -0.73962,-0.7396c-0.27347,-0.27347 -0.43521,-0.92541 0.01744,-1.40597c0.16894,-0.17934 0.47359,-0.47359 0.75357,-0.75357c0.35389,-0.35389 1.08248,-0.27115 1.35014,-0.00349c0.16993,0.16993 0.46517,0.46517 0.7466,0.7466c0.37324,0.37324 0.28357,1.16076 0.00349,1.44084c-0.16747,0.16747 -0.44959,0.44959 -0.71868,0.71868c-0.36427,0.36427 -1.04607,0.36338 -1.41294,-0.00349z" fill="#cb952c" stroke="none" stroke-width="1"/><path d="M346.04051,223.65457c-0.27746,-0.27748 0.17172,0.17172 0.00167,0.00165c-0.27347,-0.27347 -0.43521,-0.92539 0.01744,-1.40596c0.11642,-0.12362 1.45634,-1.46436 1.83893,-1.84676c0.17249,-0.17243 0.46111,-0.12646 0.59227,0.0047c0.15815,0.15815 0.5531,0.55308 0.82883,0.82881c0.1673,0.1673 0.17662,0.40221 0.01129,0.56401c-0.36675,0.35892 -1.69199,1.67155 -1.87748,1.85704c-0.36427,0.36427 -1.04607,0.36338 -1.41294,-0.00349z" fill="#9e7627" stroke="none" stroke-width="1"/></g></g></g></svg>