<svg version="1.1" xmlns="http://www.w3.org/2000/svg" xmlns:xlink="http://www.w3.org/1999/xlink" width="35.37726" height="32.27733" viewBox="0,0,35.37726,32.27733"><defs><linearGradient x1="320" y1="163.86134" x2="320" y2="196.13867" gradientUnits="userSpaceOnUse" id="color-1"><stop offset="0" stop-color="#229be6"/><stop offset="1" stop-color="#2681ff"/></linearGradient></defs><g transform="translate(-302.31137,-163.86134)"><g stroke="none" stroke-miterlimit="10"><path d="M302.31137,183.92195c0,-5.95362 0,-4.59518 0,-8.13253c0,-4.77455 6.10037,-11.77993 12.61256,-11.77993c18.02073,0 -0.41735,-0.33334 10.14458,0c7.84645,0.24764 12.62012,5.89968 12.62012,12.53294c0,5.81881 0,4.22018 0,7.68072c0,4.81412 -4.64793,11.91552 -12.31891,11.91552c-0.34533,0 7.43773,0 -10.44578,0c-6.5122,0 -12.61256,-5.70807 -12.61256,-12.21673z" fill="url(#color-1)" stroke-width="0"/><path d="M316.67444,178.05116c-0.52556,0 -0.95016,-0.4246 -0.95016,-0.95016c0,-2.09926 1.70139,-3.80065 3.80065,-3.80362h0.95016c2.09926,0 3.80065,1.70139 3.80065,3.80065v0.1069c0,1.29459 -0.65918,2.49714 -1.74592,3.19788l-1.25303,0.80467c-0.20191,0.13064 -0.32662,0.35631 -0.32662,0.59979v0.04157c0,0.52556 -0.4246,0.95016 -0.95016,0.95016c-0.52556,0 -0.95016,-0.4246 -0.95016,-0.95016v-0.04157c0,-0.8878 0.45132,-1.71623 1.19957,-2.19725l1.25302,-0.80467c0.54338,-0.34741 0.87296,-0.95016 0.87296,-1.59745v-0.1069c0,-1.04815 -0.85218,-1.90032 -1.90032,-1.90032h-0.95016c-1.04814,0 -1.90032,0.85217 -1.90032,1.90032c0,0.52556 -0.4246,0.95016 -0.95016,0.95016zM318.8123,185.41491c0,-0.65595 0.53175,-1.1877 1.1877,-1.1877c0.65595,0 1.1877,0.53175 1.1877,1.1877c0,0.65595 -0.53175,1.1877 -1.1877,1.1877c-0.65595,0 -1.1877,-0.53176 -1.1877,-1.1877z" fill="#ffffff" stroke-width="1"/></g></g></svg>