<svg version="1.1" xmlns="http://www.w3.org/2000/svg" xmlns:xlink="http://www.w3.org/1999/xlink" width="145.14901" height="100.67901" viewBox="0,0,145.14901,100.67901"><g transform="translate(-247.42549,-129.66049)"><g data-paper-data="{&quot;isPaintingLayer&quot;:true}" fill="#000000" fill-rule="nonzero" stroke="none" stroke-width="1" stroke-linecap="butt" stroke-linejoin="miter" stroke-miterlimit="10" stroke-dasharray="" stroke-dashoffset="0" style="mix-blend-mode: normal"><path d="M378.45254,230.3327h-116.46829c-1.89705,0.05896 -3.78653,-0.26569 -5.55539,-0.95358c-1.76893,-0.68789 -3.38107,-1.72519 -4.73997,-3.05001c-1.35897,-1.32483 -2.43688,-2.91025 -3.16939,-4.66164c-0.73244,-1.75066 -1.10448,-3.63163 -1.09378,-5.52933v-40.25435c0.09499,-3.79759 1.67066,-7.40811 4.39064,-10.05995c2.72004,-2.65184 6.369,-4.13608 10.1679,-4.13462h20.8915c0.4302,0 0.85611,-0.08444 1.25356,-0.24895c0.39738,-0.16524 0.7585,-0.40618 1.0627,-0.71046c0.30413,-0.30427 0.54544,-0.66533 0.71009,-1.06277c0.16458,-0.3973 0.24931,-0.82321 0.24931,-1.25342v-14.55854c0.0923,-3.73557 1.61738,-7.29266 4.25968,-9.93489c2.64223,-2.64223 6.19932,-4.16738 9.93489,-4.25968h40.47273c3.86092,0 7.56389,1.53389 10.29434,4.26412c2.73045,2.73024 4.2642,6.43327 4.2642,10.29441v32.53826c0,0.86914 0.34504,1.70189 0.95941,2.31626c0.61437,0.61437 1.44785,0.95941 2.31626,0.95941h19.79961c3.78522,0.11356 7.37681,1.69753 10.01336,4.4156c2.63655,2.71808 4.10987,6.35626 4.10842,10.14293v21.54663c0.00946,1.86058 -0.34868,3.70515 -1.05404,5.42669c-0.70536,1.72155 -1.74411,3.28732 -3.05656,4.60632c-1.31172,1.319 -2.8724,2.36576 -4.59031,3.07986c-1.71791,0.7141 -3.56029,1.0817 -5.42087,1.0817zM261.98425,172.6081c-0.85611,0.01893 -1.67066,0.3727 -2.26931,0.98488c-0.59865,0.61219 -0.93378,1.43474 -0.93357,2.29079v40.25435c-0.00022,0.85604 0.33492,1.6786 0.93357,2.29079c0.59865,0.61219 1.4132,0.96596 2.26931,0.98488h116.46829c0.85604,-0.01893 1.67059,-0.3727 2.26968,-0.98488c0.59836,-0.61219 0.9332,-1.43474 0.9332,-2.29079v-22.27456c0,-0.85604 -0.33485,-1.6786 -0.9332,-2.29079c-0.59908,-0.61219 -1.41363,-0.96596 -2.26968,-0.98488h-20.16357c-3.79905,0.00146 -7.44815,-1.48279 -10.16768,-4.13462c-2.72026,-2.65184 -4.29622,-6.26235 -4.39085,-10.05995v-32.53826c0,-0.86871 -0.34504,-1.70189 -0.95941,-2.31619c-0.61437,-0.61437 -1.44785,-0.95948 -2.31626,-0.95948h-40.10877c-0.86878,0 -1.70197,0.34511 -2.31626,0.95948c-0.6143,0.6143 -0.95941,1.44748 -0.95941,2.31619v14.55854c0.00116,3.79898 -1.48257,7.44807 -4.13462,10.16761c-2.65206,2.72026 -6.26221,4.29622 -10.05995,4.39085z"/></g></g></svg>