<svg version="1.1" xmlns="http://www.w3.org/2000/svg" xmlns:xlink="http://www.w3.org/1999/xlink" width="98.61944" height="90.78853" viewBox="0,0,98.61944,90.78853"><defs><linearGradient x1="351.37892" y1="193.26508" x2="351.37892" y2="233.3762" gradientUnits="userSpaceOnUse" id="color-1"><stop offset="0" stop-color="#e6e6e6"/><stop offset="1" stop-color="#cccccc"/></linearGradient></defs><g transform="translate(-270.69028,-134.60574)"><g data-paper-data="{&quot;isPaintingLayer&quot;:true}" fill-rule="nonzero" stroke-linecap="butt" stroke-linejoin="miter" stroke-miterlimit="10" stroke-dasharray="" stroke-dashoffset="0" style="mix-blend-mode: normal"><path d="M270.69028,213.17755c0,-5.95362 0,-63.25453 0,-66.79188c0,-4.77455 6.10037,-11.77993 12.61256,-11.77993c18.02073,0 40.82483,0 73.38676,0c7.85036,0 12.62012,5.89968 12.62012,12.53294c0,5.81881 0,62.87953 0,66.34007c0,4.81412 -4.64793,11.91552 -12.31891,11.91552c-0.34533,0 -0.69679,0 -1.05422,0c-33.10806,0 -54.75023,0 -72.63374,0c-6.5122,0 -12.61256,-5.70807 -12.61256,-12.21673z" fill="url(#color-1)" stroke="none" stroke-width="0"/><path d="M315.15347,180c0,-2.67667 2.16987,-4.84654 4.84654,-4.84654c2.67667,0 4.84654,2.16987 4.84654,4.84654c0,2.67667 -2.16987,4.84654 -4.84654,4.84654c-2.67667,0 -4.84654,-2.16987 -4.84654,-4.84654z" fill="#000000" stroke="#000000" stroke-width="1.5"/><path d="M330.6909,180c0,-2.67667 2.16986,-4.84653 4.84653,-4.84653c2.67667,0 4.84654,2.16986 4.84654,4.84653c0,2.67667 -2.16987,4.84653 -4.84654,4.84653c-2.67667,0 -4.84653,-2.16986 -4.84653,-4.84653z" fill="#000000" stroke="#000000" stroke-width="1.5"/><path d="M299.75859,180c0,-2.67667 2.16987,-4.84653 4.84654,-4.84653c2.67667,0 4.84653,2.16986 4.84653,4.84653c0,2.67667 -2.16986,4.84653 -4.84653,4.84653c-2.67667,0 -4.84654,-2.16986 -4.84654,-4.84653z" fill="#000000" stroke="#000000" stroke-width="1.5"/></g></g></svg>