<svg version="1.1" xmlns="http://www.w3.org/2000/svg" xmlns:xlink="http://www.w3.org/1999/xlink" width="744.8899" height="662.28716" viewBox="0,0,744.8899,662.28716"><g transform="translate(87.76365,187.96537)"><g data-paper-data="{&quot;isPaintingLayer&quot;:true}" fill="#313131" fill-rule="nonzero" stroke="none" stroke-width="0" stroke-linecap="butt" stroke-linejoin="miter" stroke-miterlimit="10" stroke-dasharray="" stroke-dashoffset="0" style="mix-blend-mode: normal"><path d="M0.73597,469.32179h-7.93651v-657.28716h7.93651z"/><path d="M645.70706,-6.91919v7.93651h-657.28716v-7.93651z"/><path d="M646.4286,474.32179h-7.93651v-657.28716h7.93651z"/><path d="M639.88456,360.27417v7.93651h-657.28716v-7.93651z"/><path d="M-87.76365,181c0,-45.28735 36.71265,-82 82,-82c45.28735,0 82,36.71265 82,82c0,45.28735 -36.71265,82 -82,82c-45.28735,0 -82,-36.71265 -82,-82z"/><path d="M-21.70475,-93.79452h97.43651v281.28716h-97.43651z"/><path d="M136.63361,431.60274c-45.28735,0 -82,-36.71265 -82,-82c0,-45.28735 36.71265,-82 82,-82c45.28735,0 82,36.71265 82,82c0,45.28735 -36.71265,82 -82,82z"/><path d="M135.83909,364.54384v-97.43651h521.28716v97.43651z"/><path d="M392.05582,203c0,-28.71881 23.28119,-52 52,-52c28.71881,0 52,23.28119 52,52c0,28.71881 -23.28119,52 -52,52c-28.71881,0 -52,-23.28119 -52,-52z"/><path d="M84.63361,174c0,-28.71881 23.2812,-52 52,-52c28.7188,0 52,23.28119 52,52c0,28.71881 -23.2812,52 -52,52c-28.7188,0 -52,-23.28119 -52,-52z"/></g></g></svg>