<svg version="1.1" xmlns="http://www.w3.org/2000/svg" xmlns:xlink="http://www.w3.org/1999/xlink" width="49.88128" height="23.44361" viewBox="0,0,49.88128,23.44361"><defs><linearGradient x1="327.00727" y1="102.66039" x2="326.97212" y2="81.23328" gradientUnits="userSpaceOnUse" id="color-1"><stop offset="0" stop-color="#bf0000"/><stop offset="1" stop-color="#400000"/></linearGradient><linearGradient x1="344.50305" y1="93.79835" x2="344.48157" y2="80.70456" gradientUnits="userSpaceOnUse" id="color-2"><stop offset="0" stop-color="#bf0000"/><stop offset="1" stop-color="#400000"/></linearGradient><linearGradient x1="309.50308" y1="93.85576" x2="309.48161" y2="80.76197" gradientUnits="userSpaceOnUse" id="color-3"><stop offset="0" stop-color="#bf0000"/><stop offset="1" stop-color="#400000"/></linearGradient></defs><g transform="translate(-302.04492,-79.71373)"><g data-paper-data="{&quot;isPaintingLayer&quot;:true}" fill-rule="nonzero" stroke="#000000" stroke-linecap="butt" stroke-linejoin="miter" stroke-miterlimit="10" stroke-dasharray="" stroke-dashoffset="0" style="mix-blend-mode: normal"><path d="M316.25,84.27842c-0.89472,-1.69661 -0.20525,-3.02723 1.57798,-3.03015c5.13341,-0.00843 15.13295,-0.02482 18.14661,-0.02977c1.61248,-0.00265 2.73234,1.17648 1.74469,2.9813c-2.73916,5.00551 -8.09976,14.8014 -9.55328,17.45754c-0.71357,1.30397 -2.1502,1.34637 -2.82149,0.07343c-1.40669,-2.6674 -6.48074,-12.49599 -9.09452,-17.45235z" fill="url(#color-1)" stroke-width="3"/><path d="M337.92941,82.56541c-0.54677,-1.03678 -0.12542,-1.84989 0.96427,-1.85168c3.13696,-0.00516 9.24753,-0.01518 11.08913,-0.0182c0.98537,-0.00163 1.66968,0.71893 1.06615,1.82183c-1.67385,3.0588 -4.94964,9.04491 -5.83787,10.66805c-0.43605,0.79684 -1.31396,0.82275 -1.72417,0.04487c-0.85959,-1.63001 -3.96028,-7.63611 -5.5575,-10.66487z" fill="url(#color-2)" stroke-width="2"/><path d="M302.92946,82.6228c-0.54677,-1.03678 -0.12543,-1.84988 0.96427,-1.85167c3.13696,-0.00516 9.24753,-0.01518 11.08913,-0.0182c0.98537,-0.00162 1.66968,0.71893 1.06615,1.82183c-1.67386,3.05878 -4.94963,9.04491 -5.83786,10.66805c-0.43605,0.79683 -1.31397,0.82275 -1.72418,0.04487c-0.85959,-1.63001 -3.96028,-7.63612 -5.5575,-10.66488z" fill="url(#color-3)" stroke-width="2"/></g></g></svg>