<svg version="1.1" xmlns="http://www.w3.org/2000/svg" xmlns:xlink="http://www.w3.org/1999/xlink" width="118.61944" height="31.11879" viewBox="0,0,118.61944,31.11879"><defs><linearGradient x1="351.37891" y1="223.09996" x2="351.37891" y2="263.21108" gradientUnits="userSpaceOnUse" id="color-1"><stop offset="0" stop-color="#e6e6e6"/><stop offset="1" stop-color="#cccccc"/></linearGradient><linearGradient x1="351.37891" y1="223.09996" x2="351.37891" y2="263.21108" gradientUnits="userSpaceOnUse" id="color-2"><stop offset="0" stop-color="#e6e6e6"/><stop offset="1" stop-color="#cccccc"/></linearGradient></defs><g transform="translate(-250.69028,-164.44063)"><g data-paper-data="{&quot;isPaintingLayer&quot;:true}" fill-rule="nonzero" stroke-linejoin="miter" stroke-miterlimit="10" stroke-dasharray="" stroke-dashoffset="0" style="mix-blend-mode: normal"><path d="M250.69028,183.3427c0,-5.95362 0,-3.58479 0,-7.12214c0,-4.77455 6.10037,-11.77993 12.61256,-11.77993c18.02073,0 60.82483,0 93.38676,0c7.85036,0 12.62012,5.89968 12.62012,12.53294c0,5.81881 0,3.20979 0,6.67033c0,4.81412 -4.64793,11.91552 -12.31891,11.91552c-0.34533,0 -0.69679,0 -1.05422,0c-33.10806,0 -74.75023,0 -92.63374,0c-6.5122,0 -12.61256,-5.70807 -12.61256,-12.21673z" fill="url(#color-1)" stroke="none" stroke-width="0" stroke-linecap="butt"/><path d="M250.69028,183.3427c0,-5.95362 0,-3.58479 0,-7.12214c0,-4.77455 6.10037,-11.77993 12.61256,-11.77993c18.02073,0 60.82483,0 93.38676,0c7.85036,0 12.62012,5.89968 12.62012,12.53294c0,5.81881 0,3.20979 0,6.67033c0,4.81412 -4.64793,11.91552 -12.31891,11.91552c-0.34533,0 -0.69679,0 -1.05422,0c-33.10806,0 -74.75023,0 -92.63374,0c-6.5122,0 -12.61256,-5.70807 -12.61256,-12.21673z" fill="url(#color-2)" stroke="none" stroke-width="0" stroke-linecap="butt"/><g fill="none" stroke="#000000" stroke-width="1.5" stroke-linecap="round"><g data-paper-data="{&quot;index&quot;:null}"><path d="M360.33392,183.29422l-2.68764,-6.57919" data-paper-data="{&quot;index&quot;:null}"/><path d="M353.8598,176.6974h3.75132"/><path d="M355.27385,180.07475h3.75132"/><path d="M355.26205,180.08048l-1.46058,-3.24858" data-paper-data="{&quot;index&quot;:null}"/><path d="M360.25223,183.30018h-3.75132"/></g><g data-paper-data="{&quot;index&quot;:null}"><path d="M348.62432,176.65065h3.75132"/><path d="M348.65949,176.7384l2.68764,6.57919"/><path d="M355.12192,183.35861h-3.75132"/></g></g></g></g></svg>