<svg version="1.1" xmlns="http://www.w3.org/2000/svg" xmlns:xlink="http://www.w3.org/1999/xlink" width="229.25001" height="35" viewBox="0,0,229.25001,35"><g transform="translate(-204.08333,-162.5)"><g data-paper-data="{&quot;isPaintingLayer&quot;:true}" fill-rule="nonzero" stroke="none" stroke-linecap="butt" stroke-linejoin="miter" stroke-miterlimit="10" stroke-dasharray="" stroke-dashoffset="0" style="mix-blend-mode: normal"><path d="M204.08333,180c0,-9.66498 7.83502,-17.5 17.5,-17.5c9.66498,0 17.5,7.83502 17.5,17.5c0,9.66498 -7.83502,17.5 -17.5,17.5c-9.66498,0 -17.5,-7.83502 -17.5,-17.5z" fill="#404040" stroke-width="0"/><path d="M398.33334,180c0,-9.66499 7.83501,-17.5 17.5,-17.5c9.66499,0 17.5,7.83501 17.5,17.5c0,9.66499 -7.83501,17.5 -17.5,17.5c-9.66499,0 -17.5,-7.83501 -17.5,-17.5z" fill="#404040" stroke-width="0"/><path d="M221.58333,197.5v-35h194.25v35z" fill="#404040" stroke-width="0"/><text transform="translate(215.38102,183.06516) scale(0.25543,0.25543)" font-size="40" xml:space="preserve" fill="#ffffff" fill-rule="nonzero" stroke="none" stroke-width="1" stroke-linecap="butt" stroke-linejoin="miter" stroke-miterlimit="10" stroke-dasharray="" stroke-dashoffset="0" font-family="Sans Serif" font-weight="normal" text-anchor="start" style="mix-blend-mode: normal"><tspan x="0" dy="0">Turning Autosave Off Is NOT Recommened</tspan></text></g></g></svg>