<svg version="1.1" xmlns="http://www.w3.org/2000/svg" xmlns:xlink="http://www.w3.org/1999/xlink" width="406.28372" height="386.0219" viewBox="0,0,406.28372,386.0219"><defs><linearGradient x1="332.98781" y1="-13.01095" x2="332.98781" y2="367.29714" gradientUnits="userSpaceOnUse" id="color-1"><stop offset="0" stop-color="#7f7f7f"/><stop offset="1" stop-color="#1a1a1a"/></linearGradient></defs><g transform="translate(-116.85814,13.01095)"><g data-paper-data="{&quot;isPaintingLayer&quot;:true}" fill="url(#color-1)" fill-rule="nonzero" stroke="#4a4a4a" stroke-width="0" stroke-linecap="butt" stroke-linejoin="miter" stroke-miterlimit="10" stroke-dasharray="" stroke-dashoffset="0" style="mix-blend-mode: normal"><path d="M142.83377,367.29714l31.49647,-65.18671l-57.4721,-61.61634l113.02072,-24.50333l-83.82579,-53.96721l58.99827,-36.96563l-58.55017,-50.42636l-3.6674,-87.64251l44.18908,52.18072l34.31705,-52.18072l54.0611,48.41995l33.37686,-48.41995l-24.03069,72.90855l42.36445,36.15385l-1.73177,-51.48758l39.83229,59.35275l64.32183,16.76095l32.77831,-99.48565l60.82959,-34.20287l-40.8984,120.34472l38.48852,59.36984l-70.35482,-1.70632l21.95412,64.02255l-38.68573,53.79481l89.49631,84.48249l-125.0683,-12.60919l-29.12335,-27.81911l-58.3558,46.14211l-28.87968,-63.30919l-56.16869,-34.99821l-14.75788,66.43576z"/></g></g></svg>