<svg version="1.1" xmlns="http://www.w3.org/2000/svg" xmlns:xlink="http://www.w3.org/1999/xlink" width="37.73832" height="37.77381" viewBox="0,0,37.73832,37.77381"><defs><linearGradient x1="339.14141" y1="181.99664" x2="339.14141" y2="216.26618" gradientUnits="userSpaceOnUse" id="color-1"><stop offset="0" stop-color="#ffffff"/><stop offset="1" stop-color="#cccccc"/></linearGradient><linearGradient x1="339.14141" y1="181.99664" x2="339.14141" y2="216.26618" gradientUnits="userSpaceOnUse" id="color-2"><stop offset="0" stop-color="#4d4d4d"/><stop offset="1" stop-color="#1a1a1a"/></linearGradient></defs><g transform="translate(-320.27224,-180.24239)"><g data-paper-data="{&quot;isPaintingLayer&quot;:true}" fill="url(#color-1)" fill-rule="nonzero" stroke="url(#color-2)" stroke-width="3.5" stroke-linecap="butt" stroke-linejoin="miter" stroke-miterlimit="10" stroke-dasharray="" stroke-dashoffset="0" style="mix-blend-mode: normal"><path d="M322.02224,199.14703c0,-5.18913 0.05696,-17.15038 0.05696,-17.15038c0,0 12.79666,0.03123 17.0622,0.03123c9.45466,0 17.11916,7.66449 17.11916,17.11916c0,2.56795 -0.56541,5.00383 -1.57853,7.18996c-0.65145,1.40571 -1.48802,2.70815 -2.4784,3.87603c-1.98078,2.33578 -4.57685,4.1333 -7.53787,5.14224c-1.73316,0.59055 -3.59134,0.91093 -5.52436,0.91093c-9.45466,0 -17.11916,-7.66449 -17.11916,-17.11916z"/></g></g></svg>