<svg version="1.1" xmlns="http://www.w3.org/2000/svg" xmlns:xlink="http://www.w3.org/1999/xlink" width="239.14282" height="85.60274" viewBox="0,0,239.14282,85.60274"><defs><linearGradient x1="171.24134" y1="253.47102" x2="173.5062" y2="274.77814" gradientUnits="userSpaceOnUse" id="color-1"><stop offset="0" stop-color="#bf0000"/><stop offset="1" stop-color="#400000"/></linearGradient><linearGradient x1="69.61948" y1="263.80481" x2="72.55612" y2="285.02976" gradientUnits="userSpaceOnUse" id="color-2"><stop offset="0" stop-color="#bf0000"/><stop offset="1" stop-color="#400000"/></linearGradient><linearGradient x1="88.17517" y1="270.15496" x2="89.96971" y2="283.12521" gradientUnits="userSpaceOnUse" id="color-3"><stop offset="0" stop-color="#bf0000"/><stop offset="1" stop-color="#400000"/></linearGradient><linearGradient x1="53.50543" y1="274.95181" x2="55.29997" y2="287.92205" gradientUnits="userSpaceOnUse" id="color-4"><stop offset="0" stop-color="#bf0000"/><stop offset="1" stop-color="#400000"/></linearGradient><linearGradient x1="258.05953" y1="313.16015" x2="262.38361" y2="334.14645" gradientUnits="userSpaceOnUse" id="color-5"><stop offset="0" stop-color="#bf0000"/><stop offset="1" stop-color="#400000"/></linearGradient><linearGradient x1="276.99216" y1="318.27809" x2="279.63455" y2="331.10251" gradientUnits="userSpaceOnUse" id="color-6"><stop offset="0" stop-color="#bf0000"/><stop offset="1" stop-color="#400000"/></linearGradient><linearGradient x1="242.71225" y1="325.34126" x2="245.35464" y2="338.16566" gradientUnits="userSpaceOnUse" id="color-7"><stop offset="0" stop-color="#bf0000"/><stop offset="1" stop-color="#400000"/></linearGradient></defs><g transform="translate(-47.55308,-253.07375)"><g data-paper-data="{&quot;isPaintingLayer&quot;:true}" fill-rule="nonzero" stroke="#000000" stroke-linecap="butt" stroke-linejoin="miter" stroke-miterlimit="10" stroke-dasharray="" stroke-dashoffset="0" style="mix-blend-mode: normal"><path d="M162.51917,272.90141c2.06671,-5.20827 6.05653,-15.52469 7.16877,-18.32766c0.53079,-1.33764 1.96367,-1.44968 2.81306,-0.22985c1.73021,2.48479 8.11126,11.64873 11.37184,16.33132c1.17567,1.68839 0.18882,2.98091 -1.41461,3.15134c-2.9968,0.31855 -12.94029,1.37551 -18.04497,1.91812c-1.77324,0.18849 -2.60154,-1.06043 -1.89408,-2.84328z" fill="url(#color-1)" stroke-width="3"/><g><path d="M61.5153,283.50096c1.90119,-5.27094 5.56322,-15.70822 6.5864,-18.54492c0.48828,-1.35373 1.9169,-1.51096 2.8044,-0.31856c1.80782,2.42891 8.47509,11.38675 11.88194,15.96404c1.22839,1.65041 0.28286,2.97345 -1.31439,3.19444c-2.98523,0.41303 -12.89041,1.7835 -17.9754,2.48704c-1.7664,0.2444 -2.63373,-0.97775 -1.98294,-2.78204z" fill="url(#color-2)" stroke-width="3"/><path d="M83.22281,282.19098c1.16178,-3.22099 3.39959,-9.59906 4.02483,-11.33252c0.29837,-0.82725 1.17139,-0.92333 1.71373,-0.19467c1.10474,1.48427 5.17901,6.95828 7.26087,9.7554c0.75064,1.00854 0.17286,1.81704 -0.8032,1.95208c-1.82423,0.2524 -7.87714,1.08986 -10.9845,1.51979c-1.07941,0.14934 -1.60944,-0.59748 -1.21174,-1.70006z" fill="url(#color-3)" stroke-width="2"/><path d="M48.55308,286.98782c1.16178,-3.22099 3.39959,-9.59906 4.02483,-11.33252c0.29837,-0.82725 1.17139,-0.92333 1.71373,-0.19467c1.10474,1.48427 5.179,6.95829 7.26087,9.7554c0.75064,1.00854 0.17286,1.81704 -0.8032,1.95208c-1.82423,0.2524 -7.87713,1.08987 -10.9845,1.51979c-1.07942,0.14935 -1.60944,-0.59748 -1.21174,-1.70006z" fill="url(#color-4)" stroke-width="2"/></g><g><path d="M251.26623,333.34597c1.55096,-5.38441 4.5197,-16.03964 5.35439,-18.9374c0.39833,-1.38287 1.81354,-1.63358 2.77743,-0.50203c1.96342,2.30495 9.20453,10.80564 12.90461,15.14933c1.33412,1.56618 0.47751,2.94846 -1.10178,3.27386c-2.95166,0.60817 -12.74547,2.62613 -17.77328,3.66207c-1.74654,0.35987 -2.69225,-0.80269 -2.16135,-2.64582z" fill="url(#color-5)" stroke-width="3"/><path d="M272.84087,330.61334c0.94776,-3.29033 2.76191,-9.80158 3.27197,-11.57236c0.2434,-0.84506 1.10823,-0.99826 1.69725,-0.30679c1.19982,1.40852 5.62476,6.60317 7.88581,9.25754c0.81525,0.95707 0.29181,1.80177 -0.67328,2.00061c-1.80372,0.37165 -7.78857,1.60478 -10.86099,2.23783c-1.06727,0.2199 -1.6452,-0.4905 -1.32076,-1.61682z" fill="url(#color-6)" stroke-width="2"/><path d="M238.56096,337.67649c0.94776,-3.29033 2.76191,-9.80158 3.27197,-11.57236c0.2434,-0.84506 1.10823,-0.99826 1.69725,-0.30679c1.19982,1.40852 5.62475,6.60318 7.88581,9.25754c0.81525,0.95707 0.29181,1.80177 -0.67328,2.00061c-1.80372,0.37165 -7.78856,1.60479 -10.86099,2.23783c-1.06728,0.21991 -1.6452,-0.4905 -1.32076,-1.61682z" fill="url(#color-7)" stroke-width="2"/></g></g></g></svg>