<svg version="1.1" xmlns="http://www.w3.org/2000/svg" xmlns:xlink="http://www.w3.org/1999/xlink" width="696.49785" height="662.28716" viewBox="0,0,696.49785,662.28716"><g transform="translate(17.4026,187.96537)"><g data-paper-data="{&quot;isPaintingLayer&quot;:true}" fill="#313131" fill-rule="nonzero" stroke="none" stroke-width="0" stroke-linecap="butt" stroke-linejoin="miter" stroke-miterlimit="10" stroke-dasharray="" stroke-dashoffset="0" style="mix-blend-mode: normal"><path d="M0.73597,469.32179h-7.93651v-657.28716h7.93651z"/><path d="M645.70706,-6.91919v7.93651h-657.28716v-7.93651z"/><path d="M646.4286,474.32179h-7.93651v-657.28716h7.93651z"/><path d="M639.88456,360.27417v7.93651h-657.28716v-7.93651z"/><path d="M80.88589,324.65362l461.12715,0.1772l-2.61891,103.10582l-461.12644,-0.1772z"/><path d="M464.09526,116.40548h215v281.28716h-215z"/><path d="M400.01304,187.5c0,-39.2122 31.78779,-71 71,-71c39.21221,0 71,31.7878 71,71c0,39.2122 -31.78779,71 -71,71c-39.21221,0 -71,-31.7878 -71,-71z"/><path d="M400.09526,185.90548h97.43651v281.28716h-97.43651z"/><path d="M178.44955,395.69264h-97.43651v-281.28716h97.43651z" data-paper-data="{&quot;index&quot;:null}"/><path d="M171.53176,256.5c-39.21221,0 -71,-31.7878 -71,-71c0,-39.2122 31.78779,-71 71,-71c39.21221,0 71,31.7878 71,71c0,39.2122 -31.78779,71 -71,71z" data-paper-data="{&quot;index&quot;:null}"/><path d="M242.44953,465.19264h-97.43651v-281.28716h97.43651z" data-paper-data="{&quot;index&quot;:null}"/></g></g></svg>