<svg version="1.1" xmlns="http://www.w3.org/2000/svg" xmlns:xlink="http://www.w3.org/1999/xlink" width="161.37726" height="32.12918" viewBox="0,0,161.37726,32.12918"><defs><linearGradient x1="320" y1="163.9354" x2="320" y2="204.04652" gradientUnits="userSpaceOnUse" id="color-1"><stop offset="0" stop-color="#e6e6e6"/><stop offset="1" stop-color="#cccccc"/></linearGradient><linearGradient x1="256.77568" y1="179.0821" x2="256.77568" y2="191.30161" gradientUnits="userSpaceOnUse" id="color-2"><stop offset="0" stop-color="#000742"/><stop offset="1" stop-color="#000530"/></linearGradient><linearGradient x1="256.84331" y1="171.38897" x2="256.84331" y2="183.60848" gradientUnits="userSpaceOnUse" id="color-3"><stop offset="0" stop-color="#000742"/><stop offset="1" stop-color="#000530"/></linearGradient><linearGradient x1="261.0703" y1="173.89135" x2="261.0703" y2="186.11086" gradientUnits="userSpaceOnUse" id="color-4"><stop offset="0" stop-color="#000742"/><stop offset="1" stop-color="#000530"/></linearGradient><linearGradient x1="263.06803" y1="171.82701" x2="263.06803" y2="184.04654" gradientUnits="userSpaceOnUse" id="color-5"><stop offset="0" stop-color="#000d80"/><stop offset="1" stop-color="#000a66"/></linearGradient></defs><g transform="translate(-239.31137,-163.93541)"><g data-paper-data="{&quot;isPaintingLayer&quot;:true}" fill-rule="nonzero" stroke="none" stroke-linecap="butt" stroke-linejoin="miter" stroke-miterlimit="10" stroke-dasharray="" stroke-dashoffset="0" style="mix-blend-mode: normal"><path d="M239.31137,183.84787c0,-5.95362 0,-4.59518 0,-8.13253c0,-4.77455 6.10037,-11.77993 12.61256,-11.77993c18.02073,0 103.58265,0 136.14458,0c7.85036,0 12.62012,5.89968 12.62012,12.53294c0,5.81881 0,4.22018 0,7.68072c0,4.81412 -4.64793,11.91552 -12.31891,11.91552c-0.34533,0 -0.69679,0 -1.05422,0c-33.10806,0 -117.50805,0 -135.39156,0c-6.5122,0 -12.61256,-5.70807 -12.61256,-12.21673z" fill="url(#color-1)" stroke-width="0"/><text transform="translate(307.31884,183.57216) scale(0.29768,0.29768)" font-size="40" xml:space="preserve" fill="#000000" fill-rule="nonzero" stroke="none" stroke-width="1" stroke-linecap="butt" stroke-linejoin="miter" stroke-miterlimit="10" stroke-dasharray="" stroke-dashoffset="0" font-family="Sans Serif" font-weight="normal" text-anchor="start" style="mix-blend-mode: normal"><tspan x="0" dy="0">Blue</tspan></text><g stroke-width="0"><path d="M250.66593,184.57324c0,-1.58284 0,-0.56063 0,-1.53075c0,-1.56 1.39813,-3.88079 4.05991,-3.9604c0.99336,-0.02971 5.18704,0 6.78419,0c2.01882,0 3.86089,2.31413 3.86089,3.84099c0,0.96938 0,-0.03479 0,1.57056c0,2.12917 -2.50191,4.11961 -4.09971,4.11961c-0.95536,0 -5.0501,0 -6.58518,0c-2.07802,0 -4.0201,-1.94717 -4.0201,-4.04z" fill="url(#color-2)"/><path d="M250.73356,176.88013c0,-1.58284 0,-0.56063 0,-1.53075c0,-1.56 1.39813,-3.88079 4.05991,-3.9604c0.99336,-0.02971 4.6798,0 6.27695,0c2.01882,0 3.86089,2.31413 3.86089,3.84099c0,0.96938 0,-0.03479 0,1.57056c0,2.12917 -2.50191,4.11961 -4.09971,4.11961c-0.95536,0 -4.54286,0 -6.07794,0c-2.07802,0 -4.0201,-1.94717 -4.0201,-4.04z" fill="url(#color-3)"/><path d="M252.43007,180.00003c0,-4.77187 3.86836,-8.64023 8.64023,-8.64023c4.77187,0 8.64023,3.86836 8.64023,8.64023c0,4.77187 -3.86836,8.64023 -8.64023,8.64023c-4.77187,0 -8.64023,-3.86836 -8.64023,-8.64023z" fill="#000959"/><path d="M254.96054,182.07086c0,-1.58284 0,-3.249 0,-4.21912c0,-1.56 1.39813,-3.88079 4.05991,-3.9604c0.99336,-0.02971 2.70157,0 4.29872,0c2.01882,0 3.86089,2.31413 3.86089,3.84099c0,0.96938 0,2.65358 0,4.25892c0,2.12917 -2.50191,4.11961 -4.09971,4.11961c-0.95536,0 -2.56463,0 -4.09971,0c-2.07802,0 -4.0201,-1.94717 -4.0201,-4.04z" fill="url(#color-4)"/><path d="M256.95829,180.00652c0,-1.58284 0,0.97955 0,0.00944c0,-1.56 1.39813,-3.88079 4.05991,-3.9604c0.68466,-0.02048 8.33049,-0.02285 10.51247,-0.02235c0.98383,0.00023 1.67591,0.95449 1.67591,1.7027c0,0.90213 0,3.1551 0,4.72799c0,0.95431 -0.64342,1.65097 -1.57646,1.6409c-2.0698,-0.02233 -9.59363,-0.05827 -10.65173,-0.05827c-2.07802,0 -4.0201,-1.94717 -4.0201,-4.04z" fill="url(#color-5)"/></g></g></g></svg>