<svg version="1.1" xmlns="http://www.w3.org/2000/svg" xmlns:xlink="http://www.w3.org/1999/xlink" width="266.98011" height="263.31307" viewBox="0,0,266.98011,263.31307"><defs><linearGradient x1="238.72025" y1="95.60292" x2="245.44211" y2="110.32681" gradientUnits="userSpaceOnUse" id="color-1"><stop offset="0" stop-color="#424242"/><stop offset="1" stop-color="#363636"/></linearGradient><linearGradient x1="234.56982" y1="86.2959" x2="241.29168" y2="101.01979" gradientUnits="userSpaceOnUse" id="color-2"><stop offset="0" stop-color="#424242"/><stop offset="1" stop-color="#363636"/></linearGradient><linearGradient x1="241.03967" y1="86.98591" x2="247.76152" y2="101.70979" gradientUnits="userSpaceOnUse" id="color-3"><stop offset="0" stop-color="#424242"/><stop offset="1" stop-color="#333333"/></linearGradient><linearGradient x1="242.31125" y1="83.39956" x2="249.03311" y2="98.12344" gradientUnits="userSpaceOnUse" id="color-4"><stop offset="0" stop-color="#808080"/><stop offset="1" stop-color="#666666"/></linearGradient><linearGradient x1="270.06451" y1="280.20159" x2="270.06451" y2="294.84063" gradientUnits="userSpaceOnUse" id="color-5"><stop offset="0" stop-color="#00ff9b" stop-opacity="0"/><stop offset="1" stop-color="#00ff9b"/></linearGradient><linearGradient x1="269.83378" y1="287.52111" x2="269.83378" y2="312.11614" gradientUnits="userSpaceOnUse" id="color-6"><stop offset="0" stop-color="#00ffb5"/><stop offset="1" stop-color="#00ff61"/></linearGradient></defs><g transform="translate(-189.14515,-48.76493)"><g data-paper-data="{&quot;isPaintingLayer&quot;:true}" fill-rule="nonzero" stroke-linecap="butt" stroke-linejoin="miter" stroke-miterlimit="10" stroke-dasharray="" stroke-dashoffset="0" style="mix-blend-mode: normal"><path d="M189.1764,299.01835c0,-5.95362 0,-234.93614 0,-238.47349c0,-4.77455 6.10037,-11.77993 12.61256,-11.77993c18.02073,0 103.58265,0 136.14458,0c7.85036,0 12.62012,5.89968 12.62012,12.53294c0,5.81881 0,234.56114 0,238.02168c0,4.81412 -4.64793,11.91552 -12.31891,11.91552c-0.34533,0 -0.69679,0 -1.05422,0c-33.10806,0 -117.50805,0 -135.39156,0c-6.5122,0 -12.61256,-5.70807 -12.61256,-12.21673z" fill="#e6e6e6" stroke="none" stroke-width="0"/><text transform="translate(368.15247,82.904) scale(0.57331,0.57331)" font-size="40" xml:space="preserve" fill="#000000" fill-rule="nonzero" stroke="none" stroke-width="1" stroke-linecap="butt" stroke-linejoin="miter" stroke-miterlimit="10" stroke-dasharray="" stroke-dashoffset="0" font-family="Sans Serif" font-weight="normal" text-anchor="start" style="mix-blend-mode: normal"><tspan x="0" dy="0">Normal</tspan></text><text transform="translate(368.15239,103.0101) scale(0.37099,0.37099)" font-size="40" xml:space="preserve" fill="#000000" fill-rule="nonzero" stroke="none" stroke-width="1" stroke-linecap="butt" stroke-linejoin="miter" stroke-miterlimit="10" stroke-dasharray="" stroke-dashoffset="0" font-family="Sans Serif" font-weight="normal" text-anchor="start" style="mix-blend-mode: normal"><tspan x="0" dy="0">Easy</tspan></text><path d="M189.16756,145.60311v-16.96178h111.94774v16.96178z" fill="#313131" stroke="none" stroke-width="0"/><path d="M238.60742,208.6124v-16.96178h111.94774v16.96178z" fill="#313131" stroke="none" stroke-width="0"/><g stroke="none" stroke-width="0"><path d="M234.37896,105.5804c-0.87071,-1.90724 -0.3084,-0.67553 -0.84205,-1.84448c-0.85815,-1.87972 -0.45012,-5.44525 2.71339,-7.00539c1.1806,-0.58224 6.25012,-2.85335 8.1746,-3.73193c2.43257,-1.11054 5.92516,0.66456 6.76507,2.50435c0.53325,1.16805 -0.01914,-0.04192 0.86395,1.89244c1.17124,2.56554 -0.7485,6.34019 -2.67377,7.21913c-1.15116,0.52554 -6.08511,2.77802 -7.9348,3.62245c-2.50391,1.1431 -5.91514,-0.13481 -7.06639,-2.65657z" fill="url(#color-1)"/><path d="M230.22853,96.27338c-0.87071,-1.90724 -0.3084,-0.67553 -0.84205,-1.84448c-0.85815,-1.87972 -0.45012,-5.44525 2.71339,-7.00539c1.1806,-0.58224 5.63892,-2.57432 7.5634,-3.4529c2.43257,-1.11054 5.92516,0.66456 6.76507,2.50435c0.53325,1.16805 -0.01914,-0.04192 0.86395,1.89244c1.17124,2.56554 -0.7485,6.34019 -2.67377,7.21913c-1.15116,0.52554 -5.47391,2.49899 -7.3236,3.34343c-2.50391,1.1431 -5.91514,-0.13481 -7.06639,-2.65657z" fill="url(#color-2)"/><path d="M233.98897,99.09947c-2.62497,-5.74985 -0.09174,-12.53899 5.65811,-15.16395c5.74985,-2.62497 12.53899,-0.09174 15.16395,5.65811c2.62497,5.74985 0.09174,12.53899 -5.65811,15.16395c-5.74985,2.62497 -12.53899,0.09174 -15.16395,-5.65811z" fill="#595959"/><path d="M238.17721,100.20273c-0.87071,-1.90724 -1.78725,-3.91488 -2.3209,-5.08381c-0.85815,-1.87972 -0.45012,-5.44525 2.71339,-7.00539c1.1806,-0.58224 3.25526,-1.48611 5.17973,-2.36469c2.43257,-1.11054 5.92516,0.66456 6.76507,2.50435c0.53325,1.16805 1.45971,3.19743 2.3428,5.13178c1.17124,2.56554 -0.7485,6.34019 -2.67377,7.21913c-1.15116,0.52554 -3.09025,1.41078 -4.93993,2.25522c-2.50391,1.1431 -5.91514,-0.13481 -7.06639,-2.65657z" fill="url(#color-3)"/><path d="M239.44881,96.61636c-0.87071,-1.90724 0.53884,1.18031 0.00519,0.01137c-0.85815,-1.87972 -0.45012,-5.44525 2.71339,-7.00539c0.81371,-0.4013 10.02523,-4.61007 12.65469,-5.80976c1.18559,-0.54092 2.54444,0.2282 2.95603,1.12976c0.49626,1.08702 1.7356,3.80173 2.60083,5.69698c0.52496,1.1499 0.1329,2.34327 -0.9969,2.8444c-2.50629,1.11167 -11.59189,5.20717 -12.86684,5.78922c-2.50391,1.1431 -5.91514,-0.13481 -7.06639,-2.65657z" fill="url(#color-4)"/></g><path d="M293.6485,83.87677c0,-3.16035 2.56197,-5.72232 5.72232,-5.72232c3.16035,0 5.72232,2.56197 5.72232,5.72232c0,3.16035 -2.56197,5.72232 -5.72232,5.72232c-3.16035,0 -5.72232,-2.56197 -5.72232,-5.72232z" fill="#595959" stroke="none" stroke-width="0"/><path d="M239.41911,166.05687c0,-3.16035 2.56197,-5.72232 5.72232,-5.72232c3.16035,0 5.72232,2.56197 5.72232,5.72232c0,3.16035 -2.56197,5.72232 -5.72232,5.72232c-3.16035,0 -5.72232,-2.56197 -5.72232,-5.72232z" fill="#595959" stroke="none" stroke-width="0"/><path d="M189.62132,294.84063v-14.63904h160.88638v14.63904z" fill="url(#color-5)" stroke="#000000" stroke-width="0"/><path d="M189.16964,299.98126c-0.00828,-3.88316 -0.02449,-11.49344 -0.02449,-11.49344l161.32691,-0.96671c0,0 0.0576,8.33471 0.02634,12.35926c-0.04245,5.46349 -3.24615,11.161 -13.27178,11.35782c-19.32181,0.37932 -106.5022,0.72693 -137.25272,0.83975c-6.74782,0.02476 -10.79574,-8.10662 -10.80425,-12.09667z" fill="url(#color-6)" stroke="none" stroke-width="0"/><text transform="translate(367.474,135.31699) scale(0.47686,0.47686)" font-size="40" xml:space="preserve" fill="#000000" fill-rule="nonzero" stroke="none" stroke-width="1" stroke-linecap="butt" stroke-linejoin="miter" stroke-miterlimit="10" stroke-dasharray="" stroke-dashoffset="0" font-family="Sans Serif" font-weight="normal" text-anchor="start" style="mix-blend-mode: normal"><tspan x="0" dy="0">Complete</tspan></text><path d="M239.91314,292.06421c0,-2.87717 0,-7.65793 0,-9.00232c0,-0.6957 0.46861,-1.12169 1.19976,-0.66632c2.21014,1.37649 6.81926,4.24708 8.13583,5.06705c0.68653,0.42758 0.54693,1.38251 -0.22986,1.81179c-1.29508,0.7157 -5.36754,2.96627 -7.60196,4.20108c-0.90148,0.49819 -1.50377,-0.08914 -1.50377,-1.41129z" fill="#000000" stroke="none" stroke-width="0"/><text transform="translate(206.90137,292.38103) scale(0.37099,0.37099)" font-size="40" xml:space="preserve" fill="#000000" fill-rule="nonzero" stroke="none" stroke-width="1" stroke-linecap="butt" stroke-linejoin="miter" stroke-miterlimit="10" stroke-dasharray="" stroke-dashoffset="0" font-family="Sans Serif" font-weight="normal" text-anchor="start" style="mix-blend-mode: normal"><tspan x="0" dy="0">Play</tspan></text></g></g></svg>