<svg version="1.1" xmlns="http://www.w3.org/2000/svg" xmlns:xlink="http://www.w3.org/1999/xlink" width="161.37726" height="32.12918" viewBox="0,0,161.37726,32.12918"><defs><linearGradient x1="320" y1="163.93541" x2="320" y2="204.04653" gradientUnits="userSpaceOnUse" id="color-1"><stop offset="0" stop-color="#229be6"/><stop offset="1" stop-color="#2681ff"/></linearGradient><linearGradient x1="343.83832" y1="183.43757" x2="336.96316" y2="176.56242" gradientUnits="userSpaceOnUse" id="color-2"><stop offset="0" stop-color="#ffe34e"/><stop offset="1" stop-color="#ff9332"/></linearGradient><linearGradient x1="335.53927" y1="179.99999" x2="345.26221" y2="179.99999" gradientUnits="userSpaceOnUse" id="color-3"><stop offset="0" stop-color="#9d7222"/><stop offset="1" stop-color="#cb952c"/></linearGradient></defs><g transform="translate(-239.31137,-163.93541)"><g data-paper-data="{&quot;isPaintingLayer&quot;:true}" fill-rule="nonzero" stroke-linecap="butt" stroke-linejoin="miter" stroke-miterlimit="10" stroke-dasharray="" stroke-dashoffset="0" style="mix-blend-mode: normal"><path d="M239.31137,183.84787c0,-5.95362 0,-4.59518 0,-8.13253c0,-4.77455 6.10037,-11.77993 12.61256,-11.77993c18.02073,0 103.58265,0 136.14458,0c7.85036,0 12.62012,5.89968 12.62012,12.53294c0,5.81881 0,4.22018 0,7.68072c0,4.81412 -4.64793,11.91552 -12.31891,11.91552c-0.34533,0 -0.69678,0 -1.05422,0c-33.10805,0 -117.50805,0 -135.39156,0c-6.5122,0 -12.61256,-5.70807 -12.61256,-12.21673z" fill="url(#color-1)" stroke="none" stroke-width="0"/><text transform="translate(275.78263,183.57216) scale(0.29768,0.29768)" font-size="40" xml:space="preserve" fill="#ffffff" fill-rule="nonzero" stroke="none" stroke-width="1" stroke-linecap="butt" stroke-linejoin="miter" stroke-miterlimit="10" stroke-dasharray="" stroke-dashoffset="0" font-family="Sans Serif" font-weight="normal" text-anchor="start" style="mix-blend-mode: normal"><tspan x="0" dy="0">Continue (    10)</tspan></text><g><path d="M343.83832,176.56242c1.89852,1.89852 1.89852,4.97663 0,6.87516c-1.89852,1.89852 -4.97663,1.89852 -6.87516,0c-1.89852,-1.89852 -1.89852,-4.97663 0,-6.87516c1.89852,-1.89852 4.97663,-1.89852 6.87516,0z" fill="url(#color-2)" stroke="url(#color-3)" stroke-width="0.5"/><path d="M339.23962,182.78038c-0.27746,-0.27746 -0.09828,-0.09826 -0.26833,-0.26833c-0.27347,-0.27347 -0.43521,-0.92541 0.01744,-1.40596c0.16892,-0.17936 0.90929,-0.90929 1.18927,-1.18927c0.35389,-0.35391 1.08248,-0.27115 1.35014,-0.00349c0.16993,0.16993 -0.00609,-0.00611 0.27532,0.27532c0.37324,0.37324 0.28359,1.16076 0.00349,1.44084c-0.16747,0.16749 -0.88528,0.8853 -1.15439,1.15439c-0.36427,0.36427 -1.04607,0.3634 -1.41294,-0.00349z" fill="#be8b28" stroke="none" stroke-width="1"/><path d="M337.90287,181.41992c-0.27748,-0.27748 -0.09828,-0.09828 -0.26835,-0.26833c-0.27346,-0.27347 -0.4352,-0.92541 0.01744,-1.40597c0.16894,-0.17934 0.82038,-0.82038 1.10036,-1.10036c0.35391,-0.35389 1.08248,-0.27113 1.35014,-0.00347c0.16993,0.16993 -0.00609,-0.00611 0.27534,0.27532c0.37324,0.37324 0.28357,1.16076 0.00347,1.44084c-0.16747,0.16747 -0.79635,0.79637 -1.06545,1.06547c-0.36427,0.36427 -1.04607,0.36338 -1.41294,-0.00349z" fill="#be8b28" stroke="none" stroke-width="1"/><path d="M338.74718,181.66944c-0.83651,-0.83651 -0.83651,-2.19276 0,-3.02927c0.83651,-0.83651 2.19278,-0.83651 3.02929,0c0.83651,0.83651 0.83651,2.19276 0,3.02927c-0.83651,0.83651 -2.19278,0.83651 -3.02929,0z" fill="#a67b29" stroke="none" stroke-width="1"/><path d="M339.55381,181.58886c-0.27748,-0.27746 -0.56956,-0.56954 -0.73962,-0.7396c-0.27347,-0.27347 -0.43521,-0.92541 0.01744,-1.40597c0.16894,-0.17934 0.47359,-0.47359 0.75357,-0.75357c0.35389,-0.35389 1.08248,-0.27115 1.35014,-0.00349c0.16993,0.16993 0.46517,0.46517 0.7466,0.7466c0.37324,0.37324 0.28357,1.16076 0.00349,1.44084c-0.16747,0.16747 -0.44959,0.44959 -0.71868,0.71868c-0.36427,0.36427 -1.04607,0.36338 -1.41294,-0.00349z" fill="#cb952c" stroke="none" stroke-width="1"/><path d="M339.54212,180.87678c-0.27746,-0.27748 0.17172,0.17172 0.00167,0.00165c-0.27347,-0.27347 -0.43521,-0.92539 0.01744,-1.40596c0.11642,-0.12362 1.45634,-1.46436 1.83893,-1.84676c0.17249,-0.17243 0.46111,-0.12646 0.59227,0.0047c0.15815,0.15815 0.5531,0.55308 0.82883,0.82881c0.1673,0.1673 0.17662,0.40221 0.01129,0.56401c-0.36675,0.35892 -1.69199,1.67155 -1.87748,1.85704c-0.36427,0.36427 -1.04607,0.36338 -1.41294,-0.00349z" fill="#9e7627" stroke="none" stroke-width="1"/></g></g></g></svg>