<svg version="1.1" xmlns="http://www.w3.org/2000/svg" xmlns:xlink="http://www.w3.org/1999/xlink" width="34.95586" height="32.12918" viewBox="0,0,34.95586,32.12918"><defs><linearGradient x1="154.43474" y1="163.9354" x2="154.43474" y2="204.04652" gradientUnits="userSpaceOnUse" id="color-1"><stop offset="0" stop-color="#e6e6e6"/><stop offset="1" stop-color="#cccccc"/></linearGradient></defs><g transform="translate(-200.1675,-163.93541)"><g data-paper-data="{&quot;isPaintingLayer&quot;:true}" fill-rule="nonzero" stroke-linecap="butt" stroke-linejoin="miter" stroke-miterlimit="10" stroke-dasharray="" stroke-dashoffset="0" style="mix-blend-mode: normal"><path d="M200.1675,183.84787c0,-5.95362 0,-4.59518 0,-8.13253c0,-4.77455 6.10037,-11.77993 12.61256,-11.77993c18.02073,0 -22.83875,0 9.72318,0c7.85036,0 12.62012,5.89968 12.62012,12.53294c0,5.81881 0,4.22018 0,7.68072c0,4.81412 -4.64793,11.91552 -12.31891,11.91552c-0.34533,0 -0.69679,0 -1.05422,0c-33.10806,0 8.91335,0 -8.97016,0c-6.5122,0 -12.61256,-5.70807 -12.61256,-12.21673z" fill="url(#color-1)" stroke="none" stroke-width="0"/><path d="M214.80143,173.34513l3.59937,4.81271l4.45477,-4.81271h1.24346l-5.14264,5.55571l5.79926,7.75404h-4.23154l-3.90828,-5.22562l-4.83714,5.22562h-1.24346l5.52502,-5.96863l-5.49035,-7.34111zM220.98278,185.7388h1.94398l-8.58429,-11.47774h-1.94398z" fill="#000000" stroke="#000000" stroke-width="0.5"/></g></g></svg>