<svg version="1.1" xmlns="http://www.w3.org/2000/svg" xmlns:xlink="http://www.w3.org/1999/xlink" width="31.84784" height="43.46488" viewBox="0,0,31.84784,43.46488"><defs><linearGradient x1="293.69577" y1="43.02848" x2="275.26134" y2="53.95065" gradientUnits="userSpaceOnUse" id="color-1"><stop offset="0" stop-color="#bf0000"/><stop offset="1" stop-color="#400000"/></linearGradient><linearGradient x1="295.0218" y1="62.59579" x2="283.75679" y2="69.27017" gradientUnits="userSpaceOnUse" id="color-2"><stop offset="0" stop-color="#bf0000"/><stop offset="1" stop-color="#400000"/></linearGradient><linearGradient x1="277.18105" y1="32.48419" x2="265.91604" y2="39.15857" gradientUnits="userSpaceOnUse" id="color-3"><stop offset="0" stop-color="#bf0000"/><stop offset="1" stop-color="#400000"/></linearGradient></defs><g transform="translate(-263.16632,-31.52331)"><g data-paper-data="{&quot;isPaintingLayer&quot;:true}" fill-rule="nonzero" stroke="#000000" stroke-linecap="butt" stroke-linejoin="miter" stroke-miterlimit="10" stroke-dasharray="" stroke-dashoffset="0" style="mix-blend-mode: normal"><path d="M272.39804,43.17853c5.59598,-0.2869 16.63718,-0.94962 19.64882,-1.10401c1.43721,-0.07368 2.13509,1.18276 1.37908,2.46258c-1.53998,2.60697 -7.21943,12.2215 -10.12153,17.13434c-1.0464,1.7714 -2.63227,1.41159 -3.4542,0.02433c-1.53617,-2.59275 -6.6333,-11.19567 -9.24998,-15.61212c-0.90898,-1.53416 -0.11774,-2.8069 1.79782,-2.90511z" fill="url(#color-1)" stroke-width="3"/><path d="M282.00707,62.68747c3.41961,-0.17533 10.16673,-0.58031 12.00709,-0.67467c0.87826,-0.04504 1.30473,0.72277 0.84274,1.50485c-0.94106,1.59309 -4.41169,7.46838 -6.18512,10.47054c-0.63944,1.08247 -1.60854,0.86262 -2.11081,0.01487c-0.93873,-1.58439 -4.05351,-6.84151 -5.65252,-9.54034c-0.55545,-0.93749 -0.07196,-1.71526 1.09862,-1.77526z" fill="url(#color-2)" stroke-width="2"/><path d="M264.16632,32.57589c3.41961,-0.17533 10.16673,-0.58031 12.00709,-0.67467c0.87826,-0.04504 1.30473,0.72277 0.84274,1.50485c-0.94106,1.59309 -4.41171,7.46838 -6.18512,10.47054c-0.63944,1.08247 -1.60854,0.86262 -2.11081,0.01487c-0.93873,-1.58439 -4.05351,-6.8415 -5.65252,-9.54034c-0.55546,-0.93751 -0.07196,-1.71526 1.09862,-1.77526z" fill="url(#color-3)" stroke-width="2"/></g></g></svg>