<svg version="1.1" xmlns="http://www.w3.org/2000/svg" xmlns:xlink="http://www.w3.org/1999/xlink" width="118.61944" height="31.11879" viewBox="0,0,118.61944,31.11879"><defs><linearGradient x1="351.37891" y1="223.09994" x2="351.37891" y2="263.21106" gradientUnits="userSpaceOnUse" id="color-1"><stop offset="0" stop-color="#e6e6e6"/><stop offset="1" stop-color="#cccccc"/></linearGradient></defs><g transform="translate(-250.69028,-164.44061)"><g data-paper-data="{&quot;isPaintingLayer&quot;:true}" fill-rule="nonzero" stroke="none" stroke-linecap="butt" stroke-linejoin="miter" stroke-miterlimit="10" stroke-dasharray="" stroke-dashoffset="0" style="mix-blend-mode: normal"><path d="M250.69028,183.34268c0,-5.95362 0,-3.58479 0,-7.12214c0,-4.77455 6.10037,-11.77993 12.61256,-11.77993c18.02073,0 60.82483,0 93.38676,0c7.85036,0 12.62012,5.89968 12.62012,12.53294c0,5.81881 0,3.20979 0,6.67033c0,4.81412 -4.64793,11.91552 -12.31891,11.91552c-0.34533,0 -0.69679,0 -1.05422,0c-33.10806,0 -74.75023,0 -92.63374,0c-6.5122,0 -12.61256,-5.70807 -12.61256,-12.21673z" fill="url(#color-1)" stroke-width="0"/><g stroke-width="0"><path d="M346.83286,183.09899c0,-1.07259 0,-0.3799 0,-1.0373c0,-1.05711 0.94742,-2.62976 2.75114,-2.68371c0.67314,-0.02013 3.51493,0 4.59721,0c1.36803,0 2.61628,1.56814 2.61628,2.60279c0,0.65689 0,-0.02358 0,1.06427c0,1.4428 -1.69538,2.79159 -2.77811,2.79159c-0.64739,0 -3.42213,0 -4.46236,0c-1.40814,0 -2.72417,-1.31947 -2.72417,-2.73766z" fill="#000000"/><path d="M346.87869,177.88585c0,-1.07259 0,-0.3799 0,-1.0373c0,-1.05711 0.94742,-2.62976 2.75114,-2.68371c0.67314,-0.02013 3.17121,0 4.25349,0c1.36803,0 2.61628,1.56814 2.61628,2.60279c0,0.65689 0,-0.02358 0,1.06427c0,1.4428 -1.69538,2.79159 -2.77811,2.79159c-0.64739,0 -3.07841,0 -4.11863,0c-1.40814,0 -2.72417,-1.31947 -2.72417,-2.73766z" fill="#000000"/><path d="M348.02831,180.00001c0,-3.23359 2.62135,-5.85493 5.85493,-5.85493c3.23359,0 5.85493,2.62135 5.85493,5.85493c0,3.23359 -2.62135,5.85493 -5.85493,5.85493c-3.23359,0 -5.85493,-2.62135 -5.85493,-5.85493z" fill="#262626"/><path d="M349.74305,181.40328c0,-1.07259 0,-2.20164 0,-2.85903c0,-1.05711 0.94742,-2.62976 2.75114,-2.68371c0.67314,-0.02013 1.83068,0 2.91297,0c1.36803,0 2.61628,1.56814 2.61628,2.60279c0,0.65689 0,1.79816 0,2.886c0,1.4428 -1.69538,2.79159 -2.77811,2.79159c-0.64739,0 -1.73788,0 -2.77811,0c-1.40814,0 -2.72417,-1.31947 -2.72417,-2.73766z" fill="#404040"/><path d="M351.09679,180.00441c0,-1.07259 0,0.66378 0,0.0064c0,-1.05711 0.94742,-2.62976 2.75114,-2.68371c0.46395,-0.01387 5.64504,-0.01549 7.12364,-0.01515c0.66668,0.00016 1.13566,0.64679 1.13566,1.15381c0,0.61132 0,2.13801 0,3.20386c0,0.64667 -0.43601,1.11876 -1.06826,1.11193c-1.40257,-0.01513 -6.50099,-0.03949 -7.218,-0.03949c-1.40814,0 -2.72417,-1.31947 -2.72417,-2.73766z" fill="#333333"/></g><text transform="translate(304.73185,183.2263) scale(0.27964,0.27964)" font-size="40" xml:space="preserve" fill="#000000" fill-rule="nonzero" stroke="none" stroke-width="1" stroke-linecap="butt" stroke-linejoin="miter" stroke-miterlimit="10" stroke-dasharray="" stroke-dashoffset="0" font-family="Sans Serif" font-weight="normal" text-anchor="start" style="mix-blend-mode: normal"><tspan x="0" dy="0">Tanks</tspan></text></g></g></svg>