<svg version="1.1" xmlns="http://www.w3.org/2000/svg" xmlns:xlink="http://www.w3.org/1999/xlink" width="60.11082" height="40.00747" viewBox="0,0,60.11082,40.00747"><defs><linearGradient x1="305.34923" y1="174.74725" x2="305.34923" y2="199.83745" gradientUnits="userSpaceOnUse" id="color-1"><stop offset="0" stop-color="#424242"/><stop offset="1" stop-color="#363636"/></linearGradient><linearGradient x1="305.34923" y1="159.99627" x2="305.34923" y2="185.08648" gradientUnits="userSpaceOnUse" id="color-2"><stop offset="0" stop-color="#424242"/><stop offset="1" stop-color="#363636"/></linearGradient><linearGradient x1="321.6326" y1="165.92931" x2="321.6326" y2="194.16007" gradientUnits="userSpaceOnUse" id="color-3"><stop offset="0" stop-color="#424242"/><stop offset="1" stop-color="#333333"/></linearGradient><linearGradient x1="331.15352" y1="170.79736" x2="331.15352" y2="189.54923" gradientUnits="userSpaceOnUse" id="color-4"><stop offset="0" stop-color="#808080"/><stop offset="1" stop-color="#666666"/></linearGradient><linearGradient x1="331.15352" y1="170.79736" x2="331.15352" y2="189.54923" gradientUnits="userSpaceOnUse" id="color-5"><stop offset="0" stop-color="#808080"/><stop offset="1" stop-color="#666666"/></linearGradient></defs><g transform="translate(-289.94459,-159.99626)"><g data-paper-data="{&quot;isPaintingLayer&quot;:true}" fill-rule="nonzero" stroke="none" stroke-width="0" stroke-linecap="butt" stroke-linejoin="miter" stroke-miterlimit="10" stroke-dasharray="" stroke-dashoffset="0" style="mix-blend-mode: normal"><g><path d="M289.94459,186.36992l30.80929,-11.62267v25.0902z" fill="url(#color-1)"/><path d="M289.94459,171.61894l30.80929,-11.62267v25.0902z" fill="url(#color-2)"/><path d="M301.67105,180.0422c0,-11.02445 8.93709,-19.96154 19.96154,-19.96154c11.02445,0 19.96154,8.93709 19.96154,19.96154c0,11.02445 -8.93709,19.96154 -19.96154,19.96154c-11.02445,0 -19.96154,-8.93709 -19.96154,-19.96154z" fill="#595959"/><path d="M307.51721,184.82645c0,-3.65684 0,-7.50617 0,-9.74743c0,-3.60408 3.2301,-8.96579 9.37961,-9.14971c2.29496,-0.06864 6.24145,0 9.93134,0c4.66408,0 8.91982,5.34634 8.91982,8.87384c0,2.23956 0,6.13057 0,9.83939c0,4.91902 -5.78016,9.51754 -9.47156,9.51754c-2.20718,0 -5.92507,0 -9.47156,0c-4.80086,0 -9.28765,-4.49855 -9.28765,-9.33363z" fill="url(#color-3)"/><path d="M312.25163,179.34821l37.80378,-8.55086v18.75188z" fill="url(#color-4)"/><path d="M312.25163,189.54923v-18.75188l37.80378,8.55086z" data-paper-data="{&quot;index&quot;:null}" fill="url(#color-5)"/></g></g></g></svg>