<svg version="1.1" xmlns="http://www.w3.org/2000/svg" xmlns:xlink="http://www.w3.org/1999/xlink" width="25.94076" height="49.34851" viewBox="0,0,25.94076,49.34851"><defs><linearGradient x1="54.11656" y1="126.38722" x2="33.03068" y2="122.57828" gradientUnits="userSpaceOnUse" id="color-1"><stop offset="0" stop-color="#bf0000"/><stop offset="1" stop-color="#400000"/></linearGradient><linearGradient x1="42.31124" y1="142.0484" x2="29.42598" y2="139.72082" gradientUnits="userSpaceOnUse" id="color-2"><stop offset="0" stop-color="#bf0000"/><stop offset="1" stop-color="#400000"/></linearGradient><linearGradient x1="48.53291" y1="107.60582" x2="35.64765" y2="105.27824" gradientUnits="userSpaceOnUse" id="color-3"><stop offset="0" stop-color="#bf0000"/><stop offset="1" stop-color="#400000"/></linearGradient></defs><g transform="translate(-29.0536,-98.15633)"><g data-paper-data="{&quot;isPaintingLayer&quot;:true}" fill-rule="nonzero" stroke="#000000" stroke-linecap="butt" stroke-linejoin="miter" stroke-miterlimit="10" stroke-dasharray="" stroke-dashoffset="0" style="mix-blend-mode: normal"><path d="M37.91688,112.5602c4.41845,3.44596 13.19958,10.17196 15.57748,12.0265c1.13479,0.88502 0.83999,2.29171 -0.56927,2.76443c-2.87065,0.96292 -13.45762,4.51418 -18.86736,6.3288c-1.95056,0.65429 -2.914,-0.65577 -2.62736,-2.24255c0.53572,-2.96567 2.31325,-12.80595 3.22578,-17.85762c0.31699,-1.75483 1.74825,-2.19913 3.26072,-1.01955z" fill="url(#color-1)" stroke-width="3"/><path d="M32.41187,133.5989c2.70005,2.10577 8.06607,6.21593 9.51917,7.3492c0.69346,0.54082 0.51331,1.40043 -0.34787,1.68931c-1.75421,0.58843 -8.22376,2.75855 -11.52957,3.86743c-1.19196,0.39982 -1.78071,-0.40073 -1.60555,-1.37039c0.32737,-1.81228 1.4136,-7.82553 1.97123,-10.91253c0.19371,-1.07234 1.06832,-1.34386 1.99258,-0.62303z" fill="url(#color-2)" stroke-width="2"/><path d="M38.63354,99.15633c2.70005,2.10577 8.06607,6.21593 9.51917,7.3492c0.69346,0.54082 0.51331,1.40043 -0.34787,1.68931c-1.75421,0.58843 -8.22376,2.75854 -11.52957,3.86743c-1.19196,0.39982 -1.78071,-0.40073 -1.60555,-1.37039c0.32737,-1.81228 1.41359,-7.82552 1.97123,-10.91253c0.19371,-1.07235 1.06832,-1.34386 1.99258,-0.62303z" fill="url(#color-3)" stroke-width="2"/></g></g></svg>