<svg version="1.1" xmlns="http://www.w3.org/2000/svg" xmlns:xlink="http://www.w3.org/1999/xlink" width="34.95586" height="32.12918" viewBox="0,0,34.95586,32.12918"><defs><linearGradient x1="256.78932" y1="163.9354" x2="256.78932" y2="204.04652" gradientUnits="userSpaceOnUse" id="color-1"><stop offset="0" stop-color="#229be6"/><stop offset="1" stop-color="#2681ff"/></linearGradient></defs><g transform="translate(-302.52208,-163.93541)"><g data-paper-data="{&quot;isPaintingLayer&quot;:true}" stroke="none" stroke-linecap="butt" stroke-linejoin="miter" stroke-miterlimit="10" stroke-dasharray="" stroke-dashoffset="0" style="mix-blend-mode: normal"><path d="M302.52208,183.84787c0,-5.95362 0,-4.59518 0,-8.13253c0,-4.77455 6.10037,-11.77993 12.61256,-11.77993c18.02073,0 -22.83875,0 9.72318,0c7.85036,0 12.62012,5.89968 12.62012,12.53294c0,5.81881 0,4.22018 0,7.68072c0,4.81412 -4.64793,11.91552 -12.31891,11.91552c-0.34533,0 -0.69679,0 -1.05422,0c-33.10806,0 8.91335,0 -8.97016,0c-6.5122,0 -12.61256,-5.70807 -12.61256,-12.21673z" fill="url(#color-1)" fill-rule="nonzero" stroke-width="0"/><path d="M328.3608,178.44506c0.32302,0.12341 0.53622,0.43355 0.53574,0.77934v1.5512c0.00047,0.34579 -0.21272,0.65592 -0.53574,0.77934l-1.56786,0.59894c-0.21413,0.08299 -0.38486,0.25015 -0.47237,0.46247c-0.08751,0.21232 -0.08414,0.45123 0.00932,0.661l0.68253,1.5288c0.14256,0.31617 0.07386,0.68761 -0.17235,0.93187l-1.09561,1.09733c-0.24514,0.24453 -0.61548,0.31303 -0.93187,0.17236l-1.53512,-0.68138c-0.20949,-0.09405 -0.44851,-0.09746 -0.6606,-0.00942c-0.21209,0.08804 -0.37842,0.25973 -0.45971,0.47449l-0.59894,1.56412c-0.12382,0.3237 -0.43448,0.53748 -0.78106,0.53746h-1.54919c-0.34657,0.00001 -0.65724,-0.21376 -0.78106,-0.53746l-0.59894,-1.56412c-0.08129,-0.21476 -0.24763,-0.38645 -0.45971,-0.47449c-0.21209,-0.08804 -0.45111,-0.08464 -0.6606,0.00942l-1.5308,0.68253c-0.31639,0.14067 -0.68673,0.07217 -0.93187,-0.17236l-1.0956,-1.09733c-0.24521,-0.24479 -0.31379,-0.61557 -0.17236,-0.93187l0.68511,-1.52965c0.09353,-0.21001 0.0967,-0.44921 0.00877,-0.66163c-0.08793,-0.21241 -0.25924,-0.37939 -0.47384,-0.46185l-1.56413,-0.59894c-0.32369,-0.12285 -0.53767,-0.43311 -0.53746,-0.77933v-1.5512c-0.0002,-0.34623 0.21377,-0.65649 0.53746,-0.77934l1.56413,-0.60066c0.21427,-0.08191 0.38545,-0.2483 0.4734,-0.46017c0.08795,-0.21186 0.08494,-0.45057 -0.00833,-0.66014l-0.68454,-1.5308c-0.14144,-0.3163 -0.07286,-0.68708 0.17236,-0.93187l1.09561,-1.09418c0.24471,-0.24536 0.61559,-0.31396 0.93187,-0.17236l1.53195,0.68454c0.20963,0.09284 0.44815,0.09563 0.6599,0.00773c0.21175,-0.0879 0.37816,-0.2588 0.46041,-0.4728l0.59894,-1.56614c0.12382,-0.3237 0.43448,-0.53748 0.78105,-0.53746h1.54919c0.34668,-0.00014 0.6575,0.21366 0.78135,0.53746l0.60008,1.56614c0.08225,0.214 0.24867,0.38491 0.46042,0.4728c0.21175,0.0879 0.45027,0.08511 0.6599,-0.00773l1.53052,-0.68569c0.31628,-0.1416 0.68716,-0.073 0.93187,0.17236l1.09446,1.09647c0.24621,0.24426 0.31491,0.6157 0.17235,0.93187l-0.68253,1.53081c-0.09319,0.20934 -0.09641,0.44775 -0.00887,0.65952c0.08753,0.21177 0.25813,0.37834 0.47193,0.46079l1.56786,0.60066M320.77887,183.88661c1.56907,-0.31414 2.79558,-1.54054 3.10987,-3.10958c0.34177,-1.71181 -0.4771,-3.4456 -2.01626,-4.26905c-1.53917,-0.82345 -3.4359,-0.54251 -4.67028,0.69176c-1.23438,1.23426 -1.5155,3.13099 -0.69219,4.67023c0.82331,1.53924 2.55703,2.35826 4.26887,2.01665" fill="#ffffff" fill-rule="evenodd" stroke-width="1"/></g></g></svg>