<svg version="1.1" xmlns="http://www.w3.org/2000/svg" xmlns:xlink="http://www.w3.org/1999/xlink" width="34.95586" height="32.12918" viewBox="0,0,34.95586,32.12918"><defs><linearGradient x1="72.89423" y1="163.9354" x2="72.89423" y2="204.04652" gradientUnits="userSpaceOnUse" id="color-1"><stop offset="0" stop-color="#229be6"/><stop offset="1" stop-color="#2681ff"/></linearGradient></defs><g transform="translate(-118.62699,-163.93541)"><g stroke="none" stroke-miterlimit="10"><path d="M118.62699,183.84787c0,-5.95362 0,-4.59518 0,-8.13253c0,-4.77455 6.10037,-11.77993 12.61256,-11.77993c18.02073,0 -22.83875,0 9.72318,0c7.85036,0 12.62012,5.89968 12.62012,12.53294c0,5.81881 0,4.22018 0,7.68072c0,4.81412 -4.64793,11.91552 -12.31891,11.91552c-0.34533,0 -0.69679,0 -1.05422,0c-33.10806,0 8.91335,0 -8.97016,0c-6.5122,0 -12.61256,-5.70807 -12.61256,-12.21673z" fill="url(#color-1)" stroke-width="0"/><path d="M131.12384,172.55613c1.07192,0 2.06444,0.19188 2.97755,0.57566c0.89989,0.37052 1.68064,0.89326 2.34233,1.56817c0.66169,0.66169 1.17781,1.44907 1.54833,2.36219c0.37052,0.89989 0.5558,1.87915 0.5558,2.93785c0,1.03222 -0.17865,2.00489 -0.53595,2.918c-0.3573,0.89989 -0.8602,1.68728 -1.50863,2.36219c-0.64843,0.66169 -1.42922,1.19102 -2.34234,1.58802c-0.91312,0.38378 -1.92548,0.57566 -3.0371,0.57566c-0.76754,0 -1.48878,-0.09925 -2.16369,-0.29775c-0.68813,-0.19851 -1.31012,-0.47641 -1.86593,-0.83371c-0.56903,-0.37052 -1.07855,-0.80723 -1.52848,-1.31012c-0.44993,-0.50289 -0.82708,-1.05207 -1.13147,-1.64758l3.1959,-1.70713c0.30438,0.68813 0.74768,1.2572 1.32997,1.70713c0.58229,0.4367 1.31012,0.65506 2.18354,0.65506c0.58229,0 1.11162,-0.10588 1.58803,-0.3176c0.46319,-0.21173 0.86678,-0.49626 1.21087,-0.85357c0.34409,-0.37052 0.60873,-0.79401 0.79402,-1.27042c0.18528,-0.48963 0.27791,-1.01236 0.27791,-1.56817c0,-0.55581 -0.09262,-1.07854 -0.27791,-1.56817c-0.19851,-0.50289 -0.46978,-0.93296 -0.81387,-1.29027c-0.34409,-0.37052 -0.75431,-0.66169 -1.23072,-0.87342c-0.47641,-0.21173 -1.00573,-0.3176 -1.58802,-0.3176c-0.79402,0 -1.47556,0.19187 -2.04459,0.57566c-0.56903,0.37052 -1.019,0.88005 -1.34982,1.52848l-3.0371,-1.92548c0.31761,-0.52933 0.70139,-1.01237 1.15132,-1.44907c0.44993,-0.44993 0.95282,-0.82708 1.50862,-1.13147c0.55581,-0.3176 1.15132,-0.56244 1.78653,-0.73447c0.63521,-0.17202 1.30349,-0.25805 2.00489,-0.25805zM144.78087,172.75463c0.76754,0 1.44907,0.1191 2.04458,0.3573c0.60873,0.22499 1.11162,0.54259 1.50863,0.95282c0.39701,0.41022 0.67491,0.89989 0.83371,1.46892c0.1588,0.55581 0.17865,1.15795 0.05955,1.80638c-0.10588,0.60873 -0.33083,1.13147 -0.67491,1.56817c-0.33083,0.4367 -0.74768,0.80065 -1.25057,1.09177c0.47641,0.3573 0.82049,0.82049 1.03222,1.38952c0.21173,0.55581 0.24483,1.25057 0.09925,2.08428c-0.22499,1.2175 -0.83372,2.15047 -1.82623,2.7989c-0.9793,0.64843 -2.296,0.97267 -3.95021,0.97267h-6.29255l0.2598,-1.48183c1.4565,-1.50648 2.35759,-3.58862 2.35759,-5.88868c0,-1.23012 -0.25778,-2.39792 -0.72037,-3.44868l0.64383,-3.67156zM140.27484,184.20827h2.48129c0.70139,0 1.22409,-0.1191 1.56818,-0.3573c0.34409,-0.2382 0.55581,-0.56244 0.63521,-0.97267c0.0794,-0.4367 -0.01985,-0.79402 -0.29775,-1.07192c-0.27791,-0.27791 -0.79401,-0.41685 -1.54833,-0.41685h-2.34234zM141.30706,178.35243h2.58054c0.66169,0 1.13147,-0.11911 1.40938,-0.35731c0.29112,-0.2382 0.46978,-0.51611 0.53596,-0.83371c0.09262,-0.42348 0.01322,-0.76094 -0.2382,-1.01237c-0.2382,-0.25143 -0.66828,-0.37715 -1.29027,-0.37715h-2.54085z" fill="#ffffff" stroke-width="1"/></g></g></svg>