<svg version="1.1" xmlns="http://www.w3.org/2000/svg" xmlns:xlink="http://www.w3.org/1999/xlink" width="669.57868" height="662.28716" viewBox="0,0,669.57868,662.28716"><g transform="translate(17.4026,187.96537)"><g data-paper-data="{&quot;isPaintingLayer&quot;:true}" fill="#313131" fill-rule="nonzero" stroke="none" stroke-width="0" stroke-linecap="butt" stroke-linejoin="miter" stroke-miterlimit="10" stroke-dasharray="" stroke-dashoffset="0" style="mix-blend-mode: normal"><path d="M639.50529,383.57127c-27.19227,7.70956 -151.37399,-15.79476 -151.37399,-15.79476l-6.54645,-23.08991l156.82522,-44.46311l6.54645,23.08991c0,0 19.42516,53.20491 -5.45123,60.25786z" data-paper-data="{&quot;index&quot;:null}"/><path d="M0.73598,469.32179h-7.93651v-657.28716h7.93651z"/><path d="M645.70706,-6.91919v7.93651h-657.28716v-7.93651z"/><path d="M646.4286,474.32179h-7.93651v-657.28716h7.93651z"/><path d="M639.88456,360.27417v7.93651h-657.28716v-7.93651z"/><path d="M158.00651,262v-10l163.00649,-25l160.9805,31v9l-160.98049,-16z"/><path d="M-5.18259,323.3134l6.54646,-23.08991l156.82522,44.46311l-6.54645,23.08991c0,0 -124.18173,23.50431 -151.37399,15.79476c-24.87639,-7.05296 -5.45123,-60.25786 -5.45123,-60.25786z" data-paper-data="{&quot;index&quot;:null}"/></g></g></svg>