<svg version="1.1" xmlns="http://www.w3.org/2000/svg" xmlns:xlink="http://www.w3.org/1999/xlink" width="34.95586" height="32.12918" viewBox="0,0,34.95586,32.12918"><defs><linearGradient x1="256.7953" y1="163.9374" x2="256.7953" y2="204.04852" gradientUnits="userSpaceOnUse" id="color-1"><stop offset="0" stop-color="#e6e6e6"/><stop offset="1" stop-color="#cccccc"/></linearGradient></defs><g transform="translate(-302.52806,-163.93741)"><g data-paper-data="{&quot;isPaintingLayer&quot;:true}" fill-rule="nonzero" stroke-miterlimit="10" stroke-dasharray="" stroke-dashoffset="0" style="mix-blend-mode: normal"><path d="M302.52806,183.84987c0,-5.95362 0,-4.59518 0,-8.13253c0,-4.77455 6.10037,-11.77993 12.61256,-11.77993c18.02073,0 -22.83875,0 9.72318,0c7.85036,0 12.62012,5.89968 12.62012,12.53294c0,5.81881 0,4.22018 0,7.68072c0,4.81412 -4.64793,11.91552 -12.31891,11.91552c-0.34533,0 -0.69679,0 -1.05422,0c-33.10806,0 8.91335,0 -8.97016,0c-6.5122,0 -12.61256,-5.70807 -12.61256,-12.21673z" fill="url(#color-1)" stroke="none" stroke-width="0" stroke-linecap="butt" stroke-linejoin="miter"/><path d="M320.00001,181.60161v2.4024M320.00001,181.60161c1.9371,0 3.55292,-1.37562 3.9239,-3.2032M320.00001,181.60161c-1.93714,0 -3.55291,-1.37562 -3.92392,-3.2032M315.996,174.3944h-2.2022c-0.18602,0 -0.27908,0 -0.35643,0.01539c-0.31768,0.06319 -0.56601,0.31152 -0.62919,0.62919c-0.01538,0.07736 -0.01538,0.17038 -0.01538,0.35643c0,0.55814 -0.00001,0.83722 0.04612,1.06929c0.18963,0.95301 0.93462,1.698 1.88758,1.88756c0.23207,0.04616 0.51115,0.04615 1.06931,0.04615h0.2002h0.08008M324.00401,174.3944h2.2022c0.18605,0 0.27907,0 0.35643,0.01539c0.31767,0.06319 0.566,0.31152 0.62919,0.62919c0.01538,0.07736 0.01538,0.17038 0.01538,0.35643c0,0.55814 0,0.83722 -0.04615,1.06929c-0.18957,0.95301 -0.93455,1.698 -1.88756,1.88756c-0.23207,0.04616 -0.51114,0.04615 -1.06928,0.04615h-0.2002h-0.0801M320.00001,184.00401c-0.74475,0 -1.11712,0 -1.42262,0.08184c-0.82899,0.22214 -1.4766,0.86974 -1.69874,1.69873c-0.08184,0.30551 -0.08184,0.67788 -0.08184,1.42263h6.40641c0,-0.74474 0,-1.11712 -0.08186,-1.42263c-0.22214,-0.82899 -0.86971,-1.4766 -1.69873,-1.69873c-0.3055,-0.08184 -0.67787,-0.08184 -1.42262,-0.08184zM323.92391,178.3984c0.05253,-0.25875 0.0801,-0.52655 0.0801,-0.8008v-3.5464c0,-0.42693 0,-0.64038 -0.0793,-0.80505c-0.07871,-0.16345 -0.2106,-0.29534 -0.37405,-0.37405c-0.16467,-0.07931 -0.37813,-0.0793 -0.80505,-0.0793h-5.49123c-0.4269,0 -0.64033,0 -0.80505,0.0793c-0.16345,0.07871 -0.29532,0.2106 -0.37404,0.37405c-0.07928,0.16467 -0.07928,0.37813 -0.07928,0.80505v3.5464c0,0.27425 0.02755,0.54206 0.08008,0.8008" fill="none" stroke="#000000" stroke-width="2" stroke-linecap="round" stroke-linejoin="round"/></g></g></svg>