<svg version="1.1" xmlns="http://www.w3.org/2000/svg" xmlns:xlink="http://www.w3.org/1999/xlink" width="161.37726" height="32.12918" viewBox="0,0,161.37726,32.12918"><defs><linearGradient x1="320" y1="163.9354" x2="320" y2="204.04652" gradientUnits="userSpaceOnUse" id="color-1"><stop offset="0" stop-color="#e6e6e6"/><stop offset="1" stop-color="#cccccc"/></linearGradient><linearGradient x1="256.83561" y1="179.33287" x2="256.83561" y2="191.62383" gradientUnits="userSpaceOnUse" id="color-2"><stop offset="0" stop-color="#424242"/><stop offset="1" stop-color="#313131"/></linearGradient><linearGradient x1="256.90364" y1="171.59476" x2="256.90364" y2="183.88572" gradientUnits="userSpaceOnUse" id="color-3"><stop offset="0" stop-color="#424242"/><stop offset="1" stop-color="#313131"/></linearGradient><linearGradient x1="261.15534" y1="174.11178" x2="261.15534" y2="186.40274" gradientUnits="userSpaceOnUse" id="color-4"><stop offset="0" stop-color="#424242"/><stop offset="1" stop-color="#313131"/></linearGradient><linearGradient x1="263.16475" y1="172.03538" x2="263.16475" y2="184.32634" gradientUnits="userSpaceOnUse" id="color-5"><stop offset="0" stop-color="#808080"/><stop offset="1" stop-color="#666666"/></linearGradient></defs><g transform="translate(-239.31137,-163.93541)"><g data-paper-data="{&quot;isPaintingLayer&quot;:true}" fill-rule="nonzero" stroke="none" stroke-linecap="butt" stroke-linejoin="miter" stroke-miterlimit="10" stroke-dasharray="" stroke-dashoffset="0" style="mix-blend-mode: normal"><path d="M239.31137,183.84787c0,-5.95362 0,-4.59518 0,-8.13253c0,-4.77455 6.10037,-11.77993 12.61256,-11.77993c18.02073,0 103.58265,0 136.14458,0c7.85036,0 12.62012,5.89968 12.62012,12.53294c0,5.81881 0,4.22018 0,7.68072c0,4.81412 -4.64793,11.91552 -12.31891,11.91552c-0.34533,0 -0.69679,0 -1.05422,0c-33.10806,0 -117.50805,0 -135.39156,0c-6.5122,0 -12.61256,-5.70807 -12.61256,-12.21673z" fill="url(#color-1)" stroke-width="0"/><text transform="translate(299.03738,183.57216) scale(0.29768,0.29768)" font-size="40" xml:space="preserve" fill="#000000" fill-rule="nonzero" stroke="none" stroke-width="1" stroke-linecap="butt" stroke-linejoin="miter" stroke-miterlimit="10" stroke-dasharray="" stroke-dashoffset="0" font-family="Sans Serif" font-weight="normal" text-anchor="start" style="mix-blend-mode: normal"><tspan x="0" dy="0">Default</tspan></text><g stroke-width="0"><path d="M250.69013,184.85613c0,-1.5921 0,-0.56392 0,-1.5397c0,-1.56913 1.40631,-3.90347 4.08364,-3.98355c0.99917,-0.02989 5.21737,0 6.82385,0c2.03062,0 3.88346,2.32766 3.88346,3.86344c0,0.97505 0,-0.03499 0,1.57974c0,2.14162 -2.51653,4.14369 -4.12367,4.14369c-0.96095,0 -5.07963,0 -6.62368,0c-2.09017,0 -4.0436,-1.95855 -4.0436,-4.06363z" fill="url(#color-2)"/><path d="M250.75816,177.11802c0,-1.5921 0,-0.56391 0,-1.5397c0,-1.56913 1.40631,-3.90348 4.08365,-3.98355c0.99917,-0.02989 4.70716,0 6.31365,0c2.03062,0 3.88347,2.32766 3.88347,3.86345c0,0.97505 0,-0.03499 0,1.57974c0,2.14162 -2.51654,4.1437 -4.12368,4.1437c-0.96095,0 -4.56942,0 -6.11347,0c-2.09017,0 -4.04361,-1.95855 -4.04361,-4.06363z" fill="url(#color-3)"/><path d="M252.46459,180.25617c0,-4.79977 3.89098,-8.69075 8.69074,-8.69075c4.79976,0 8.69075,3.89099 8.69075,8.69075c0,4.79977 -3.89099,8.69074 -8.69075,8.69074c-4.79976,0 -8.69074,-3.89098 -8.69074,-8.69074z" fill="#595959"/><path d="M255.00986,182.33912c0,-1.5921 0,-3.268 0,-4.24379c0,-1.56913 1.4063,-3.90347 4.08364,-3.98355c0.99917,-0.02989 2.71736,0 4.32385,0c2.03062,0 3.88347,2.32766 3.88347,3.86344c0,0.97505 0,2.66909 0,4.28382c0,2.14162 -2.51654,4.1437 -4.12368,4.1437c-0.96095,0 -2.57962,0 -4.12367,0c-2.09017,0 -4.04361,-1.95855 -4.04361,-4.06363z" fill="url(#color-4)"/><path d="M257.01929,180.26271c0,-1.5921 0,0.98528 0,0.00949c0,-1.56913 1.4063,-3.90348 4.08364,-3.98355c0.68866,-0.0206 8.37919,-0.02299 10.57394,-0.02248c0.98958,0.00023 1.68571,0.96007 1.68571,1.71266c0,0.90741 0,3.17355 0,4.75563c0,0.95989 -0.64718,1.66062 -1.58567,1.6505c-2.08191,-0.02247 -9.64973,-0.05862 -10.71401,-0.05862c-2.09017,0 -4.0436,-1.95855 -4.0436,-4.06363z" fill="url(#color-5)"/></g></g></g></svg>