<svg version="1.1" xmlns="http://www.w3.org/2000/svg" xmlns:xlink="http://www.w3.org/1999/xlink" width="209.00001" height="80.50691" viewBox="0,0,209.00001,80.50691"><defs><linearGradient x1="398" y1="-32.64281" x2="398" y2="252.64289" gradientUnits="userSpaceOnUse" id="color-1"><stop offset="0" stop-color="#d9d9d9" stop-opacity="0.90196"/><stop offset="1" stop-color="#bfbfbf" stop-opacity="0.90196"/></linearGradient><linearGradient x1="448.90133" y1="79.19614" x2="437.4049" y2="67.6997" gradientUnits="userSpaceOnUse" id="color-2"><stop offset="0" stop-color="#ffe34e"/><stop offset="1" stop-color="#ff9332"/></linearGradient><linearGradient x1="435.0239" y1="73.44792" x2="451.28233" y2="73.44792" gradientUnits="userSpaceOnUse" id="color-3"><stop offset="0" stop-color="#9d7222"/><stop offset="1" stop-color="#cb952c"/></linearGradient></defs><g transform="translate(-424.5,-7.85717)"><g data-paper-data="{&quot;isPaintingLayer&quot;:true}" fill-rule="nonzero" stroke-linecap="butt" stroke-linejoin="miter" stroke-miterlimit="10" stroke-dasharray="" stroke-dashoffset="0" style="mix-blend-mode: normal"><path d="M424.5,19.00003c0,-5.37311 5.81137,-11.14285 11.71429,-11.14285c14.10987,0 158.3636,0 184.64286,0c7.7585,0 12.64286,5.82639 12.64286,11.2381c0,10.15682 0,38.46471 0,57.22119c0,7.24057 -6.24341,12.04762 -12.47619,12.04762c-14.66633,0 -160.32809,0 -185.5,0c-6.8111,0 -11.02381,-4.65942 -11.02381,-11.71429c0,0 -0.00001,-47.45154 -0.00001,-57.64976z" fill="url(#color-1)" stroke="none" stroke-width="0"/><g stroke-width="1"><path d="M448.90133,67.6997c3.17466,3.17466 3.17466,8.32179 0,11.49645c-3.17466,3.17466 -8.32178,3.17466 -11.49644,0c-3.17466,-3.17466 -3.17466,-8.32179 0,-11.49645c3.17466,-3.17466 8.32178,-3.17466 11.49644,0z" fill="url(#color-2)" stroke="url(#color-3)"/><path d="M441.21153,78.0972c-0.46396,-0.46396 -0.16435,-0.16431 -0.4487,-0.44869c-0.45729,-0.45729 -0.72774,-1.54744 0.02917,-2.35101c0.28247,-0.29992 1.52049,-1.52049 1.98867,-1.98867c0.59177,-0.5918 1.81009,-0.45341 2.25766,-0.00584c0.28416,0.28416 -0.01018,-0.01022 0.46038,0.46037c0.62412,0.62412 0.47421,1.94099 0.00583,2.40933c-0.28004,0.28008 -1.48034,1.48039 -1.93034,1.93034c-0.60913,0.60913 -1.74921,0.60766 -2.36268,-0.00584z" fill="#be8b28" stroke="none"/><path d="M438.97626,75.82228c-0.464,-0.464 -0.16435,-0.16434 -0.44873,-0.44869c-0.45728,-0.45729 -0.72773,-1.54744 0.02917,-2.35103c0.2825,-0.29988 1.37181,-1.37181 1.83999,-1.83999c0.59181,-0.59177 1.81009,-0.45338 2.25766,-0.0058c0.28416,0.28416 -0.01018,-0.01022 0.46042,0.46038c0.62412,0.62412 0.47418,1.94099 0.0058,2.40933c-0.28004,0.28005 -1.33163,1.33166 -1.78162,1.78166c-0.60913,0.60913 -1.74921,0.60763 -2.36268,-0.00584z" fill="#be8b28" stroke="none"/><path d="M440.38808,76.23952c-1.39879,-1.39879 -1.39879,-3.66667 0,-5.06546c1.39879,-1.39879 3.6667,-1.39879 5.06549,0c1.39879,1.39879 1.39879,3.66667 0,5.06546c-1.39879,1.39879 -3.6667,1.39879 -5.06549,0z" fill="#a67b29" stroke="none"/><path d="M441.73691,76.10478c-0.464,-0.46396 -0.95241,-0.95238 -1.23677,-1.23673c-0.45729,-0.45729 -0.72775,-1.54744 0.02917,-2.35103c0.2825,-0.29988 0.79192,-0.79192 1.2601,-1.2601c0.59177,-0.59177 1.81009,-0.45341 2.25766,-0.00583c0.28416,0.28416 0.77785,0.77784 1.24845,1.24845c0.62412,0.62412 0.47418,1.94099 0.00584,2.40933c-0.28004,0.28005 -0.7518,0.75179 -1.20177,1.20176c-0.60913,0.60913 -1.74921,0.60764 -2.36268,-0.00583z" fill="#cb952c" stroke="none"/><path d="M441.71737,74.91406c-0.46396,-0.464 0.28714,0.28714 0.00279,0.00275c-0.45729,-0.45729 -0.72775,-1.5474 0.02916,-2.351c0.19467,-0.20672 2.43525,-2.44866 3.075,-3.08811c0.28843,-0.28833 0.77105,-0.21146 0.99037,0.00786c0.26445,0.26445 0.92487,0.92484 1.38594,1.38592c0.27974,0.27974 0.29534,0.67257 0.01888,0.94312c-0.61327,0.60017 -2.8293,2.79512 -3.13947,3.10529c-0.60913,0.60913 -1.7492,0.60763 -2.36268,-0.00584z" fill="#9e7627" stroke="none"/></g><text transform="translate(456.09373,76.29031) scale(0.23687,0.23687)" font-size="40" xml:space="preserve" fill-opacity="0.90196" fill="#000000" fill-rule="nonzero" stroke="#000000" stroke-width="0" stroke-linecap="butt" stroke-linejoin="miter" stroke-miterlimit="10" stroke-dasharray="" stroke-dashoffset="0" font-family="Sans Serif" font-weight="normal" text-anchor="start" style="mix-blend-mode: normal"><tspan x="0" dy="0">+10</tspan></text><text transform="translate(432.66667,26.48221) scale(0.34324,0.34324)" font-size="40" xml:space="preserve" fill-opacity="0.90196" fill="#000000" fill-rule="nonzero" stroke="#000000" stroke-width="2" stroke-linecap="butt" stroke-linejoin="miter" stroke-miterlimit="10" stroke-dasharray="" stroke-dashoffset="0" font-family="Sans Serif" font-weight="normal" text-anchor="start" style="mix-blend-mode: normal"><tspan x="0" dy="0">Acheivement Earned</tspan></text><text transform="translate(432.66668,41.25154) scale(0.19807,0.19807)" font-size="40" xml:space="preserve" fill-opacity="0.90196" fill="#000000" fill-rule="nonzero" stroke="#000000" stroke-width="0" stroke-linecap="butt" stroke-linejoin="miter" stroke-miterlimit="10" stroke-dasharray="" stroke-dashoffset="0" font-family="Sans Serif" font-weight="normal" text-anchor="start" style="mix-blend-mode: normal"><tspan x="0" dy="0">Damn That Was Hard.</tspan></text><text transform="translate(433.66668,57.14857) scale(0.27583,0.27583)" font-size="40" xml:space="preserve" fill-opacity="0.90196" fill="#000000" fill-rule="nonzero" stroke="#000000" stroke-width="0" stroke-linecap="butt" stroke-linejoin="miter" stroke-miterlimit="10" stroke-dasharray="" stroke-dashoffset="0" font-family="Sans Serif" font-weight="normal" text-anchor="start" style="mix-blend-mode: normal"><tspan x="0" dy="0">Complete Hard Mode</tspan></text></g></g></svg>