<svg version="1.1" xmlns="http://www.w3.org/2000/svg" xmlns:xlink="http://www.w3.org/1999/xlink" width="323.6482" height="227.35259" viewBox="0,0,323.6482,227.35259"><defs><linearGradient x1="181.60913" y1="201.32321" x2="455.67595" y2="201.32321" gradientUnits="userSpaceOnUse" id="color-1"><stop offset="0" stop-color="#bf7900"/><stop offset="1" stop-color="#ff9500"/></linearGradient><linearGradient x1="159.10289" y1="185.87801" x2="482.7511" y2="185.87801" gradientUnits="userSpaceOnUse" id="color-2"><stop offset="0" stop-color="#ffa000"/><stop offset="1" stop-color="#ff9500"/></linearGradient></defs><g transform="translate(-159.10289,-72.20171)"><g data-paper-data="{&quot;isPaintingLayer&quot;:true}" fill-rule="nonzero" stroke-width="0" stroke-linecap="butt" stroke-linejoin="miter" stroke-miterlimit="10" stroke-dasharray="" stroke-dashoffset="0" style="mix-blend-mode: normal"><g><path d="M181.60913,246.74422l3.37802,-73.37762l229.8375,-69.40324l44.69527,22.04311l-191.95712,172.67658z" fill="url(#color-1)" stroke="none"/><path d="M272.47734,219.67889l0.05699,0.0297l0.0152,0.00794zM482.7504,184.9296l-215.34007,114.62331l7.38862,-75.33336l115.31752,-63.29875l65.71923,-35.5974c0,0 -27.66765,14.24872 -47.59563,24.51154c-33.64769,17.32841 -135.6909,69.88021 -135.6909,69.88021l-86.55498,-45.76856l83.1924,47.50546l-1.77592,78.10224l-108.30777,-57.63044l26.87024,-71.78532l183.72541,-97.93683l88.6628,48.19719l24.38975,64.53139zM276.12831,197.17179l143.12199,-75.39104l-144.45169,64.09829l-47.17833,-14.58867l48.50803,25.88108z" fill="url(#color-2)" stroke="#000000"/></g></g></g></svg>