<svg version="1.1" xmlns="http://www.w3.org/2000/svg" xmlns:xlink="http://www.w3.org/1999/xlink" width="110.83196" height="75.1384" viewBox="0,0,110.83196,75.1384"><g transform="translate(-265.61517,-142.357)"><g data-paper-data="{&quot;isPaintingLayer&quot;:true}" fill-rule="nonzero" stroke="none" stroke-width="0.5" stroke-linecap="butt" stroke-linejoin="miter" stroke-miterlimit="10" stroke-dasharray="" stroke-dashoffset="0" style="mix-blend-mode: normal"><path d="M313.61459,188.28977c3.88725,3.88725 2.46282,12.25852 -0.89792,16.03493c-9.69139,10.89006 -31.27695,14.77157 -42.75274,4.0872c-4.40918,-4.1051 -4.44664,-13.02923 -4.31491,-18.16558c0.32236,-12.56989 19.62741,-16.24936 29.4467,-15.17146c0.55418,0.06083 4.78639,0.40784 7.4079,0.86117c0.4934,0.02644 0.96594,0.13136 1.40535,0.30257c1.69841,0.66171 2.90191,2.31313 2.90191,4.24566c0,0.26292 -0.02228,0.52062 -0.06504,0.77135c0.16386,2.82754 4.72614,4.89155 6.86875,7.03417z" fill="#3e3e3e"/><path d="M317.35674,155.74948c3.88725,3.88725 2.46282,12.25852 -0.89792,16.03493c-9.69139,10.89006 -31.27693,14.77157 -42.75272,4.0872c-4.40918,-4.1051 -4.44664,-13.02921 -4.31493,-18.16558c0.32236,-12.56989 19.62741,-16.24936 29.4467,-15.17148c0.55418,0.06083 4.78639,0.40784 7.4079,0.86117c0.4934,0.02644 0.96594,0.13136 1.40535,0.30257c1.69841,0.66171 2.90191,2.31315 2.90191,4.24566c0,0.26292 -0.02226,0.52062 -0.06504,0.77133c0.16386,2.82754 4.72612,4.89155 6.86875,7.03419z" fill="#3e3e3e"/><path d="M330.2213,146.22655l0.68669,0.34334l0.66912,0.22304l0.22175,0.14111l1.42882,0.35721l0.22554,0.3947l0.02212,0.0049l1.62703,0.81351l0.55591,0.47651l0.04579,0.02747l0.75033,0.28138l0.53481,0.36883l0.59878,0.25212l0.62778,0.47084l0.10154,0.06462l0.89745,0.53847l0.08973,0.08973l0.11037,0.07024l0.01004,0.05018l0.76605,0.76607l0.28849,0.48081l0.39649,0.39649l0.19961,0.33269l0.01026,0.01028l0.40675,0.24405l0.4881,0.4881l0.12466,0.20776l0.8067,0.40334l0.55593,0.47651l0.62786,0.3767l1.78971,1.78971l0.16867,0.28111l0.25445,0.20674l0.48811,0.6508l0.12364,0.29368l0.03904,0.03172l0.29388,0.39184l0.25923,0.25921l0.32757,0.54594l0.27987,0.18658l0.02602,0.02862l0.69622,0.44306l0.30007,0.06001l0.14003,0.22005l0.22005,0.14003l0.06001,0.30007l0.21958,0.34506l1.14729,1.14731l0.28849,0.48081l0.39649,0.39649l0.4881,0.81351l0.052,0.17086l0.11624,0.13559l0.3254,0.6508l0.03145,0.14146l0.36993,0.44391l0.33207,0.68785l0.43364,0.62879l0.4881,1.30161l0.00982,0.08596l0.04646,0.07299l0.10279,0.30836l0.24873,0.5804l0.09343,0.14014l0.06164,0.17259l0.13399,0.07656l0.24884,0.99536l0.34507,0.96625l-0.06901,0.13803l0.04444,0.17778v0.52519l0.07424,0.37126l-0.02157,0.45315l0.11003,0.44013v20.50039l-0.04446,0.17778l0.06901,0.13803l-0.34507,0.96623l-0.00488,0.01955v0.81351l-0.11004,0.44011l0.02159,0.45317l-0.1627,0.81351l-0.26043,0.54981l-0.00707,0.03181l0.03055,0.07067l-0.09797,0.23264l-0.0575,0.25877l-0.21947,0.43892l-0.19442,0.77773l-0.1973,0.11274l-0.14432,0.34274l-0.41225,0.54966l-0.36796,0.55196l0.00082,0.0383l-0.07905,0.07905l-0.13448,0.20171l-0.73962,0.67237l-0.7068,0.70678l-0.20788,0.12473l-0.08273,0.07521l-0.03822,-0.00262l-0.00386,0.00231l-0.09161,0.09163l-0.38902,0.23341l-0.30517,0.33567l-1.46431,0.97621l-0.39684,0.14173l-0.33549,0.25496l-0.75454,0.32338l-1.11636,0.74424l-0.07002,0.025l-0.0119,0.05943l-0.49376,0.31421l-0.38088,0.44437l-0.34775,0.01931l-0.13399,0.08527l-0.02604,0.02862l-0.4881,0.32542l-0.09618,0.03434l-0.01381,0.00878l-0.16197,0.05398l-0.30097,0.10749l-0.0669,0.04256l-0.03139,0.03139l-0.31401,0.18842l-0.10095,0.06424l-0.01376,0.00459l-0.38477,0.23086l-0.29976,0.09122l-0.24944,0.18959l-0.75454,0.32338l-1.11636,0.74424l-0.06477,0.02314l-0.04775,0.0495l-1.30161,0.81351l-0.42959,0.13932l-0.39048,0.29286l-0.38157,0.16066l-0.31434,0.26945l-0.72256,0.36129l-0.25216,0.16809l-0.10458,0.03737l-0.07854,0.07853l-0.81351,0.48811l-0.4101,0.1248l-0.9129,0.65207l-0.57692,0.22727l-0.51395,0.34691l-1.78971,0.6508l-0.06288,0.00654l-0.05333,0.03394l-0.39753,0.13251l-0.95679,0.63786l-0.66428,0.23723l-0.61097,0.35249l-1.13891,0.32542l-0.63496,0.02117l-0.61634,0.1541h-5.20644l-0.31806,-0.07951l-0.32611,0.03374l-1.13891,-0.1627l-0.38341,-0.15619l-0.4128,-0.03176l-0.81027,-0.27008l-3.44667,-0.86167l-0.23682,0.0287l-1.02023,-0.12752h-0.36723l-0.17778,-0.04444l-0.13803,0.06901l-0.96623,-0.34509l-0.5495,-0.13737l-0.52313,-0.06539l-0.42307,-0.16377l-0.45233,-0.03478l-1.46433,-0.48811l-0.61771,-0.3931l-0.42624,-0.17946l-0.03429,-0.00858l-0.00315,0.00137l-0.01261,-0.00532l-0.52275,-0.13069l-0.79637,-0.42473l-0.83182,-0.35023l-0.03261,-0.02447l-0.4881,-0.12203l-0.08024,-0.1404l-0.01816,-0.00302l-0.23747,-0.10325l-1.61655,-0.40412l-0.08924,-0.15616l-0.17959,-0.00997l-0.22853,-0.26662l-0.84889,-0.33442l-0.29494,-0.21065l-0.07244,-0.03431l-0.00763,-0.02287l-0.47312,-0.33793l-0.42231,-0.21114l-1.54358,-0.5613l-0.45406,-0.3065l-0.24396,-0.08712l-0.16195,-0.054l-0.01381,-0.00878l-0.0962,-0.03436l-0.21566,-0.14377l-0.27096,-0.06021l-0.5977,-0.29885l-0.03095,0.00486l-0.07765,-0.05916l-0.26988,-0.13493l-0.7422,-0.63617l-0.77755,-0.59242l-0.07889,-0.0986l-0.98598,-0.53782l-0.48004,-0.44215l-0.55963,-0.33576l-0.52563,-0.52565l-0.26414,-0.01467l-0.38088,-0.44437l-0.49376,-0.31421l-0.03802,-0.19008l-0.36269,-0.29016l-0.30762,-0.40374l-0.40374,-0.30762l-0.49322,-0.61651l-1.28594,-1.28592l-0.16866,-0.28112l-0.25445,-0.20674l-0.48811,-0.6508l-0.05021,-0.11926l-0.09576,-0.08707l-0.07523,-0.11283l-0.16919,-0.16919l-0.13196,-0.21993l-0.20402,-0.15545l-0.65081,-0.81351l-0.08397,-0.18323l-0.14914,-0.13559l-0.97619,-1.46431l-0.09682,-0.27107l-0.18731,-0.21854l-0.35519,-0.71039l-0.04442,-0.02538l-0.03172,-0.12692l-0.05677,-0.11352l-0.22703,-1.02167l-0.25383,-1.01533v-0.12692l-0.02839,-0.12772l0.02839,-0.04258v-13.04432l0.12167,-0.48664l-0.01321,-0.50145l0.21694,-0.97623v-0.96431l0.06982,-0.27923l-0.03464,-0.28573l0.12754,-1.02023v-1.85976l-0.02839,-0.04258l0.02839,-0.12772v-0.12692l0.25383,-1.01533l0.07157,-0.32206v-2.07934l0.16272,-0.6508v-2.95684l-0.02839,-0.04256l0.02839,-0.1277v-0.12692l0.25383,-1.01535l0.07157,-0.32206v-0.28962l0.11004,-0.44013l-0.02157,-0.45315l0.1627,-0.81351l0.26043,-0.54981l0.13198,-0.59388l0.4881,-0.97621l0.26943,-0.31436l0.16066,-0.38157l0.4881,-0.6508l0.2396,-0.19467l0.05371,-0.08439l0.01931,-0.34777l0.44435,-0.38088l0.31421,-0.49376l0.17651,-0.03531l0.1516,-0.25268l0.48811,-0.4881l0.09399,-0.05641l0.15042,-0.22563l0.33569,-0.30517l0.23341,-0.38902l1.62701,-1.62701l0.10602,-0.06362l0.00814,-0.05836l0.32121,-0.23199l0.21271,-0.33427l0.28399,-0.05679l0.01128,-0.01971l0.09299,-0.02325l0.98091,-0.70844l0.6376,-0.25503l0.54093,-0.27047l0.0254,-0.04442l0.12692,-0.03172l0.11351,-0.05675l0.97231,-0.21606l0.89745,-0.38463l0.63216,-0.10196l0.59712,-0.23115l1.30161,-0.1627l0.27214,0.03298l0.45344,-0.15115l0.84204,-0.52628l0.44956,-0.14581l0.94407,-0.67434l0.33617,-0.13242l0.27431,-0.23512l2.77217,-1.38607l0.66349,-0.39811l0.06005,-0.01827l0.64311,-0.48999l0.7422,-0.63617l0.26988,-0.13493l0.07765,-0.05918l0.03095,0.00486l0.5977,-0.29885l0.27098,-0.06021l0.0512,-0.03412l0.65916,-0.52732l0.18323,-0.08397l0.13559,-0.14914l0.4881,-0.32542l0.15098,-0.05393l0.11575,-0.11094l0.60931,-0.34817l0.5449,-0.5449l0.62786,-0.3767l0.55591,-0.47651l0.0596,-0.02981l0.0254,-0.04442l0.12692,-0.03172l0.11351,-0.05675l0.29228,-0.06495l0.21155,-0.12692l0.16146,0.04404l0.35641,-0.0792l1.01533,-0.25383h0.12692l0.1277,-0.02837l0.04258,0.02837h1.16711l0.54399,0.13601h0.56074l0.10682,0.02671h0.41549l0.6508,0.1627h0.42349l0.13349,-0.0364l0.06067,0.0364h1.17205c0.77635,0 1.50736,0.19424 2.14702,0.53676l0.1304,0.03259l0.03431,0.06005c0.23518,0.1388 0.45678,0.29811 0.66235,0.47551l0.85261,0.18946l0.11351,0.05675l0.00607,0.00151l0.26001,0.02l0.4881,0.1627l0.22175,0.14113l0.09263,0.02316l0.13296,-0.01064l0.97621,0.1627l0.45319,0.19704l0.48965,0.06677l0.52648,0.2106l0.3509,0.08773l0.02285,0.01219l0.08024,-0.02188l0.61013,0.36606l0.29054,0.0415l0.67809,0.27624zM320.01503,208.03364l0.15758,0.08405l0.17808,0.0137l0.58657,0.19553l0.41189,0.05885h4.15445l0.4905,-0.327h-2.04004l-0.36932,-0.09234l-0.37947,0.03035l-1.76808,-0.29468l-1.5774,-0.13145h-1.69675z" fill="#3a3a3a"/><path d="M302.96542,154.99288c1.19461,-2.09054 13.48262,0.32308 15.02921,0.34681c5.49128,0.08421 10.98385,0.0024 16.47579,0c3.35464,-0.00148 4.5323,-2.39355 7.96713,0.68303c2.48115,2.22238 2.52548,8.88107 2.53798,11.84419c0.01773,4.20058 1.60272,8.73247 0.65081,13.01611c-1.37966,6.20845 -8.29229,20.4162 -14.48004,23.02155c-8.57544,3.61071 -30.3752,3.06462 -35.87458,-6.10101c-1.69032,-2.81719 -0.64779,-8.20822 -0.95704,-11.63786c-0.83995,-9.31523 -6.56178,-25.63146 6.73923,-28.95671z" fill="#424242"/><path d="M375.47091,167.70958c0,0.93174 -0.27976,1.79814 -0.75988,2.51977l0.63582,0.83452l-0.02086,0.13298l0.07388,0.11609l0.1627,0.4881l0.05615,0.73003l0.17758,0.71034v0.85059l0.23694,1.18475l-0.02157,0.45315l0.11003,0.44013v2.38896l0.10073,0.60437l-0.03035,0.37949l0.09234,0.36932v0.68789l0.07424,0.37126l-0.02157,0.45315l0.11003,0.44013v3.57943l-0.0698,0.27923l0.03464,0.28573l-0.12754,1.02023v0.20453l-0.17758,0.71034l-0.05615,0.73003l-0.09166,0.27498v0.39977l-0.09234,0.36932l0.03035,0.37949l-0.10073,0.60437v0.11114l-0.04446,0.17778l0.06901,0.13803l-0.34507,0.96623l-0.24884,0.99536l-0.13107,0.0749l-0.02143,0.06426l-0.00878,0.01381l-0.03434,0.09618l-0.04697,0.07047l-0.24551,0.98201l-0.15616,0.08924l-0.00998,0.17959l-1.78236,1.52775l-0.97621,0.4881l-0.23512,0.05225l-0.01255,0.02197l-0.12719,0.03179l-0.22175,0.14111l-0.4881,0.1627l-0.73003,0.05615l-0.71034,0.17758h-6.38244l-0.37126,0.07424l-0.45315,-0.02157l-0.44013,0.11003h-6.34535l-0.31806,-0.07951l-0.32611,0.03374l-0.81847,-0.11693h-1.46602l-0.44013,-0.11003l-0.45315,0.02157l-1.18475,-0.23694h-0.52519l-0.16102,-0.04026l-0.16348,0.02868l-2.11576,-0.15113h-1.95266l-0.54398,-0.13599h-0.56072l-0.94327,-0.23581l-1.58432,-0.13202l-0.42468,-0.14457l-0.44836,-0.01494l-0.99168,-0.28335l-1.90425,-0.40806l-0.98605,-0.10955h-1.21204l-0.71034,-0.17758l-0.73003,-0.05615l-0.27498,-0.09166h-0.72517l-0.54398,-0.13599h-0.56072l-0.10682,-0.02671h-7.08624l-1.52443,-0.38111l-0.09594,0.00993l-0.81847,-0.11693h-0.16439l-0.17778,-0.04446l-0.13803,0.06901l-0.96623,-0.34507l-0.56354,-0.14089h-0.07262l-0.65081,-0.1627l-0.49477,-0.26387l-0.02715,-0.00678l-0.00632,-0.01106l-0.06612,-0.03525l-0.6444,-0.19611l-0.81351,-0.4881l-0.07853,-0.07853l-0.1046,-0.03735l-0.4881,-0.3254l-0.08705,-0.09576l-0.11928,-0.05023l-0.65081,-0.4881l-0.40837,-0.5026l-0.5026,-0.40837l-0.29388,-0.39184l-0.09651,-0.09651l-0.01332,-0.02219l-0.08006,-0.02252l-0.53237,-0.99818l-0.58204,-0.97007l0.01028,-0.03766l-0.05531,-0.03161l-0.24884,-0.99536l-0.02502,-0.07004l-0.06176,-0.09705l-0.06034,-0.18101l-0.0819,-0.16377l-0.27305,-0.45508l-0.47651,-0.55593l-0.19249,-0.38499l-0.04442,-0.02538l-0.03174,-0.12692l-0.05675,-0.11352l-0.21809,-0.98135l-0.04183,-0.06973l-0.30241,-0.17281l-0.14195,-0.56779l-0.30111,-0.50185l0.09164,-0.33602l-0.1023,-0.40917l-0.0272,-0.05741l-0.05136,-0.25682l-0.03709,-0.14834v-0.03709l-0.07424,-0.37126l0.02157,-0.45315l-0.11003,-0.44013v-6.83346l0.17758,-0.71034l0.00098,-0.01274l-0.04043,-0.08086l0.05945,-0.16647l0.03615,-0.46997l0.1627,-0.4881l0.14111,-0.22175l0.03179,-0.12719l0.07723,-0.04413l0.07648,-0.12019l0.20462,-0.57294l0.3254,-0.4881l0.34446,-0.31314l0.05921,-0.09305l0.05531,-0.01106l0.20275,-0.18431l0.60157,-0.66173l0.00869,-0.00579l0.2984,-0.49732l0.53237,-0.99818l0.08006,-0.02252l0.01332,-0.02219l0.85104,-0.85104l0.01467,-0.26414l0.44435,-0.38088l0.31421,-0.49376l0.34154,-0.0683l0.43856,-0.3759l0.07951,-0.08747l0.10139,-0.06759l0.0628,-0.05382l0.07177,-0.03589l0.14696,-0.09798l0.54966,-0.41225l0.11928,-0.05023l0.08705,-0.09576l0.4881,-0.3254l0.17259,-0.06164l0.07656,-0.13399l0.99536,-0.24884l0.96623,-0.34507l0.13803,0.06901l0.17778,-0.04446h1.16711l0.04256,-0.02839l0.1277,0.02839h0.12692l0.65081,0.1627h0.1627l0.17778,0.04446l0.13803,-0.06901l0.96623,0.34507l0.34945,0.08736l0.25622,-0.0205l0.97621,0.1627l0.26784,0.11646l0.19114,-0.05213l0.60301,0.3618h2.09404l0.87176,0.21794l0.33602,-0.09164l0.33185,0.1991h0.4128l0.44013,0.11003l0.45315,-0.02157l0.37126,0.07424h1.6641l0.17778,0.04446l0.13803,-0.06901l0.96623,0.34507l0.01957,0.00488h3.09133l0.24882,0.0622l0.25418,-0.03434l1.21359,0.13484h18.9465l1.30161,-0.3254h0.48981l0.81847,-0.11693l0.32611,0.03374l0.31806,-0.07951h0.49367l1.80599,-0.387l0.13617,0.00461l0.1256,-0.05276l2.01439,-0.30991l0.71356,-0.14271l0.12927,0.00616l0.11985,-0.04883l1.13891,-0.1627l0.32611,0.03374l0.31806,-0.07951h1.13891c0.77636,0 1.50734,0.19424 2.14702,0.53676l0.1304,0.03259l0.03431,0.06005c1.34249,0.79232 2.24311,2.2537 2.24311,3.92543zM351.50908,179.73241l0.18704,-0.11903l-0.57531,-0.0274h-0.6389l0.37392,0.09348l0.5803,0.09671z" fill="#707070"/></g></g></svg>