<svg version="1.1" xmlns="http://www.w3.org/2000/svg" xmlns:xlink="http://www.w3.org/1999/xlink" width="251.42405" height="88.04302" viewBox="0,0,251.42405,88.04302"><defs><linearGradient x1="468.33334" y1="202.53678" x2="468.33334" y2="223.96392" gradientUnits="userSpaceOnUse" id="color-1"><stop offset="0" stop-color="#bf0000"/><stop offset="1" stop-color="#400000"/></linearGradient><linearGradient x1="485.84363" y1="211.37012" x2="485.84363" y2="224.46392" gradientUnits="userSpaceOnUse" id="color-2"><stop offset="0" stop-color="#bf0000"/><stop offset="1" stop-color="#400000"/></linearGradient><linearGradient x1="450.84363" y1="211.37012" x2="450.84363" y2="224.46392" gradientUnits="userSpaceOnUse" id="color-3"><stop offset="0" stop-color="#bf0000"/><stop offset="1" stop-color="#400000"/></linearGradient><linearGradient x1="410.33334" y1="202.53678" x2="410.33334" y2="223.96392" gradientUnits="userSpaceOnUse" id="color-4"><stop offset="0" stop-color="#bf0000"/><stop offset="1" stop-color="#400000"/></linearGradient><linearGradient x1="427.84363" y1="211.37012" x2="427.84363" y2="224.46392" gradientUnits="userSpaceOnUse" id="color-5"><stop offset="0" stop-color="#bf0000"/><stop offset="1" stop-color="#400000"/></linearGradient><linearGradient x1="392.84363" y1="211.37012" x2="392.84363" y2="224.46392" gradientUnits="userSpaceOnUse" id="color-6"><stop offset="0" stop-color="#bf0000"/><stop offset="1" stop-color="#400000"/></linearGradient><linearGradient x1="454.84975" y1="175.96458" x2="474.48877" y2="167.39536" gradientUnits="userSpaceOnUse" id="color-7"><stop offset="0" stop-color="#bf0000"/><stop offset="1" stop-color="#400000"/></linearGradient><linearGradient x1="455.94316" y1="156.38289" x2="467.94427" y2="151.14637" gradientUnits="userSpaceOnUse" id="color-8"><stop offset="0" stop-color="#bf0000"/><stop offset="1" stop-color="#400000"/></linearGradient><linearGradient x1="469.9405" y1="188.46208" x2="481.9416" y2="183.22556" gradientUnits="userSpaceOnUse" id="color-9"><stop offset="0" stop-color="#bf0000"/><stop offset="1" stop-color="#400000"/></linearGradient><linearGradient x1="611.13965" y1="159.87707" x2="632.40832" y2="162.47825" gradientUnits="userSpaceOnUse" id="color-10"><stop offset="0" stop-color="#bf0000"/><stop offset="1" stop-color="#400000"/></linearGradient><linearGradient x1="622.03334" y1="143.56862" x2="635.0303" y2="145.15816" gradientUnits="userSpaceOnUse" id="color-11"><stop offset="0" stop-color="#bf0000"/><stop offset="1" stop-color="#400000"/></linearGradient><linearGradient x1="617.78448" y1="178.30977" x2="630.78144" y2="179.8993" gradientUnits="userSpaceOnUse" id="color-12"><stop offset="0" stop-color="#bf0000"/><stop offset="1" stop-color="#400000"/></linearGradient></defs><g transform="translate(-385.28844,-137.42091)"><g data-paper-data="{&quot;isPaintingLayer&quot;:true}" fill-rule="nonzero" stroke="#000000" stroke-linecap="butt" stroke-linejoin="miter" stroke-miterlimit="10" stroke-dasharray="" stroke-dashoffset="0" style="mix-blend-mode: normal"><g><path d="M457.60623,220.93637c2.60565,-4.96064 7.66357,-14.79755 9.06587,-17.46724c0.6692,-1.27404 2.10589,-1.23399 2.8216,0.06879c1.45788,2.65376 6.83454,12.44084 9.58191,17.44185c0.99061,1.80319 -0.12733,2.98416 -1.73979,2.98416c-3.01367,0 -13.0132,0 -18.14663,0c-1.78323,0 -2.47488,-1.32948 -1.58294,-3.02755z" fill="url(#color-1)" stroke-width="3"/><path d="M479.28844,222.61383c1.59227,-3.03137 4.68309,-9.04256 5.54001,-10.67397c0.40894,-0.77855 1.28688,-0.75408 1.72424,0.04203c0.89089,1.62167 4.17649,7.60242 5.85536,10.65846c0.60534,1.1019 -0.07781,1.82358 -1.06316,1.82358c-1.84161,0 -7.95218,0 -11.08914,0c-1.0897,0 -1.51236,-0.81242 -0.96731,-1.85009z" fill="url(#color-2)" stroke-width="2"/><path d="M444.28844,222.61383c1.59227,-3.03137 4.68309,-9.04256 5.54001,-10.67397c0.40894,-0.77855 1.28688,-0.75408 1.72424,0.04203c0.89089,1.62167 4.17648,7.60242 5.85536,10.65846c0.60534,1.1019 -0.07781,1.82358 -1.06316,1.82358c-1.84161,0 -7.95217,0 -11.08914,0c-1.08971,0 -1.51236,-0.81242 -0.96731,-1.85009z" fill="url(#color-3)" stroke-width="2"/></g><g><path d="M399.60623,220.93637c2.60565,-4.96064 7.66357,-14.79755 9.06587,-17.46724c0.6692,-1.27404 2.10589,-1.23399 2.8216,0.06879c1.45788,2.65376 6.83454,12.44084 9.58191,17.44185c0.99061,1.80319 -0.12733,2.98416 -1.73979,2.98416c-3.01367,0 -13.0132,0 -18.14663,0c-1.78323,0 -2.47488,-1.32948 -1.58294,-3.02755z" fill="url(#color-4)" stroke-width="3"/><path d="M421.28844,222.61383c1.59227,-3.03137 4.68309,-9.04256 5.54001,-10.67397c0.40894,-0.77855 1.28688,-0.75408 1.72424,0.04203c0.89089,1.62167 4.17649,7.60242 5.85536,10.65846c0.60534,1.1019 -0.07781,1.82358 -1.06316,1.82358c-1.84161,0 -7.95218,0 -11.08914,0c-1.0897,0 -1.51236,-0.81242 -0.96731,-1.85009z" fill="url(#color-5)" stroke-width="2"/><path d="M386.28844,222.61383c1.59227,-3.03137 4.68309,-9.04256 5.54001,-10.67397c0.40894,-0.77855 1.28688,-0.75408 1.72424,0.04203c0.89089,1.62167 4.17648,7.60242 5.85536,10.65846c0.60534,1.1019 -0.07781,1.82358 -1.06316,1.82358c-1.84161,0 -7.95217,0 -11.08914,0c-1.08971,0 -1.51236,-0.81242 -0.96731,-1.85009z" fill="url(#color-6)" stroke-width="2"/></g><g><path d="M476.00391,178.43806c-5.58873,-0.40433 -16.62751,-1.10614 -19.63523,-1.32374c-1.43535,-0.10384 -1.97321,-1.43665 -1.06538,-2.61364c1.84926,-2.39752 8.66934,-11.23958 12.15426,-15.7577c1.25654,-1.62908 2.78605,-1.07673 3.43091,0.40116c1.20524,2.76217 5.20429,11.92723 7.25727,16.63226c0.71316,1.63442 -0.22877,2.80004 -2.14184,2.66163z" fill="url(#color-7)" stroke-width="3"/><path d="M468.87015,157.89441c-3.41518,-0.24708 -10.16082,-0.67594 -11.99879,-0.80891c-0.87712,-0.06345 -1.2058,-0.87791 -0.65104,-1.59716c1.13005,-1.46509 5.29771,-6.86834 7.4273,-9.62929c0.76785,-0.9955 1.70252,-0.65798 2.09658,0.24514c0.7365,1.68792 3.18027,7.28856 4.43481,10.16373c0.4358,0.99876 -0.13979,1.71106 -1.30885,1.62648z" fill="url(#color-8)" stroke-width="2"/><path d="M482.86748,189.9736c-3.41518,-0.24708 -10.16082,-0.67594 -11.99879,-0.80891c-0.87712,-0.06345 -1.2058,-0.87791 -0.65104,-1.59716c1.13005,-1.46509 5.29771,-6.86834 7.4273,-9.62929c0.76785,-0.9955 1.70252,-0.65798 2.09658,0.24514c0.7365,1.68792 3.18026,7.28855 4.43481,10.16373c0.4358,0.99877 -0.13979,1.71106 -1.30885,1.62648z" fill="url(#color-9)" stroke-width="2"/></g><g><path d="M628.10092,172.75849c-4.60764,-3.18858 -13.75778,-9.40326 -16.23749,-11.11928c-1.18338,-0.81891 -0.96921,-2.24012 0.41081,-2.79238c2.81112,-1.12494 13.17851,-5.27372 18.47606,-7.39367c1.91011,-0.76438 2.94663,0.48865 2.75089,2.08919c-0.36585,2.99138 -1.57975,12.91696 -2.20293,18.01242c-0.21648,1.77004 -1.62009,2.29518 -3.19732,1.2037z" fill="url(#color-10)" stroke-width="3"/><path d="M632.39811,151.44027c-2.81566,-1.94849 -8.40717,-5.74618 -9.92249,-6.79481c-0.72315,-0.50043 -0.59228,-1.36891 0.25103,-1.70639c1.71783,-0.68744 8.0532,-3.22269 11.29045,-4.51816c1.16724,-0.4671 1.80065,0.29861 1.68103,1.27667c-0.22356,1.82799 -0.96536,7.89336 -1.34618,11.00712c-0.13229,1.08164 -0.99,1.40255 -1.95384,0.73557z" fill="url(#color-11)" stroke-width="2"/><path d="M628.14926,186.18142c-2.81566,-1.94849 -8.40717,-5.74618 -9.92249,-6.79481c-0.72315,-0.50043 -0.59228,-1.36891 0.25103,-1.70639c1.71783,-0.68744 8.0532,-3.22269 11.29045,-4.51816c1.16724,-0.4671 1.80065,0.29861 1.68103,1.27667c-0.22356,1.82799 -0.96537,7.89336 -1.34618,11.00713c-0.13229,1.08165 -0.99,1.40255 -1.95383,0.73556z" fill="url(#color-12)" stroke-width="2"/></g></g></g></svg>