<svg version="1.1" xmlns="http://www.w3.org/2000/svg" xmlns:xlink="http://www.w3.org/1999/xlink" width="34.58084" height="32.1791" viewBox="0,0,34.58084,32.1791"><defs><linearGradient x1="383.39821" y1="163.93541" x2="383.39821" y2="204.04653" gradientUnits="userSpaceOnUse" id="color-1"><stop offset="0" stop-color="#229be6"/><stop offset="1" stop-color="#2681ff"/></linearGradient></defs><g transform="translate(-302.70958,-163.8855)"><g data-paper-data="{&quot;isPaintingLayer&quot;:true}" fill-rule="nonzero" stroke-linejoin="miter" stroke-miterlimit="10" stroke-dasharray="" stroke-dashoffset="0" style="mix-blend-mode: normal"><path d="M302.70958,183.84788c0,-5.95362 0,-4.59518 0,-8.13253c0,-4.77455 6.10037,-11.77993 12.61256,-11.77993c18.02073,0 4.75151,-0.11231 9.34816,0c7.84802,0.19175 12.62012,5.89968 12.62012,12.53294c0,5.81881 0,4.22018 0,7.68072c0,4.81412 -4.64793,11.91552 -12.31891,11.91552c-0.34533,0 8.23415,0 -9.64936,0c-6.5122,0 -12.61256,-5.70807 -12.61256,-12.21673z" fill="url(#color-1)" stroke="none" stroke-width="0" stroke-linecap="butt"/><path d="M313.1875,174.125h13.625" fill="none" stroke="#ffffff" stroke-width="3" stroke-linecap="round"/><path d="M313.1875,180.125h13.625" fill="none" stroke="#ffffff" stroke-width="3" stroke-linecap="round"/><path d="M313.1875,185.875h13.625" fill="none" stroke="#ffffff" stroke-width="3" stroke-linecap="round"/></g></g></svg>