<svg version="1.1" xmlns="http://www.w3.org/2000/svg" xmlns:xlink="http://www.w3.org/1999/xlink" width="98.61944" height="90.78853" viewBox="0,0,98.61944,90.78853"><defs><linearGradient x1="351.37893" y1="193.26508" x2="351.37893" y2="233.3762" gradientUnits="userSpaceOnUse" id="color-1"><stop offset="0" stop-color="#e6e6e6"/><stop offset="1" stop-color="#cccccc"/></linearGradient></defs><g transform="translate(-270.6903,-134.60574)"><g data-paper-data="{&quot;isPaintingLayer&quot;:true}" fill-rule="nonzero" stroke-linecap="butt" stroke-linejoin="miter" stroke-miterlimit="10" stroke-dasharray="" stroke-dashoffset="0" style="mix-blend-mode: normal"><path d="M270.6903,213.17755c0,-5.95362 0,-63.25453 0,-66.79188c0,-4.77455 6.10037,-11.77993 12.61256,-11.77993c18.02073,0 40.82483,0 73.38676,0c7.85036,0 12.62012,5.89968 12.62012,12.53294c0,5.81881 0,62.87953 0,66.34007c0,4.81412 -4.64793,11.91552 -12.31891,11.91552c-0.34533,0 -0.69679,0 -1.05422,0c-33.10806,0 -54.75023,0 -72.63374,0c-6.5122,0 -12.61256,-5.70807 -12.61256,-12.21673z" fill="url(#color-1)" stroke="none" stroke-width="0"/><text transform="translate(290.73099,215.2521) scale(0.25943,0.25943)" font-size="40" xml:space="preserve" fill="#000000" fill-rule="nonzero" stroke="none" stroke-width="1" stroke-linecap="butt" stroke-linejoin="miter" stroke-miterlimit="10" stroke-dasharray="" stroke-dashoffset="0" font-family="Sans Serif" font-weight="normal" text-anchor="start" style="mix-blend-mode: normal"><tspan x="0" dy="0">Online Chat</tspan></text><g fill="#000000" stroke="#000000" stroke-width="2"><path d="M301.41137,154.34647c-1.71104,0 -3.09811,1.38707 -3.09811,3.09811v24.78485c0,1.71104 1.38707,3.09811 3.09811,3.09811h7.74526c1.9503,0 3.78679,0.91824 4.95697,2.47848l5.8864,7.8475l5.8864,-7.8475c1.17018,-1.56024 3.00667,-2.47848 4.95697,-2.47848h7.74526c1.71104,0 3.09811,-1.38707 3.09811,-3.09811v-24.78485c0,-1.71104 -1.38707,-3.09811 -3.09811,-3.09811zM338.58863,151.24836c3.42207,0 6.19621,2.77414 6.19621,6.19621v24.78485c0,3.42207 -2.77414,6.19621 -6.19621,6.19621h-7.74526c-0.97515,0 -1.89339,0.45912 -2.47848,1.23924l-5.8864,7.8475c-0.58509,0.78012 -1.50333,1.23924 -2.47848,1.23924c-0.97515,0 -1.89339,-0.45912 -2.47848,-1.23924l-5.8864,-7.8475c-0.58509,-0.78012 -1.50333,-1.23924 -2.47848,-1.23924h-7.74526c-3.42207,0 -6.19621,-2.77414 -6.19621,-6.19621v-24.78485c0,-3.42207 2.77414,-6.19621 6.19621,-6.19621z"/><path d="M310.70568,169.837c0,1.71104 -1.38707,3.09811 -3.09811,3.09811c-1.71104,0 -3.09811,-1.38707 -3.09811,-3.09811c0,-1.71104 1.38707,-3.09811 3.09811,-3.09811c1.71104,0 3.09811,1.38707 3.09811,3.09811zM323.09811,169.837c0,1.71104 -1.38707,3.09811 -3.09811,3.09811c-1.71104,0 -3.09811,-1.38707 -3.09811,-3.09811c0,-1.71104 1.38707,-3.09811 3.09811,-3.09811c1.71104,0 3.09811,1.38707 3.09811,3.09811zM335.49053,169.837c0,1.71104 -1.38707,3.09811 -3.09811,3.09811c-1.71104,0 -3.09811,-1.38707 -3.09811,-3.09811c0,-1.71104 1.38707,-3.09811 3.09811,-3.09811c1.71104,0 3.09811,1.38707 3.09811,3.09811z"/></g></g></g></svg>