<svg version="1.1" xmlns="http://www.w3.org/2000/svg" xmlns:xlink="http://www.w3.org/1999/xlink" width="37.73832" height="45.33642" viewBox="0,0,37.73832,45.33642"><defs><linearGradient x1="344.55081" y1="173.1041" x2="343.04344" y2="181.86063" gradientUnits="userSpaceOnUse" id="color-1"><stop offset="0" stop-color="#bfac00"/><stop offset="1" stop-color="#bf8000"/></linearGradient><linearGradient x1="330.78407" y1="172.50123" x2="330.78407" y2="181.38655" gradientUnits="userSpaceOnUse" id="color-2"><stop offset="0" stop-color="#bfac00"/><stop offset="1" stop-color="#bf8000"/></linearGradient><linearGradient x1="338.78877" y1="181.81809" x2="338.78877" y2="216.08763" gradientUnits="userSpaceOnUse" id="color-3"><stop offset="0" stop-color="#ffffff"/><stop offset="1" stop-color="#cccccc"/></linearGradient><linearGradient x1="338.78877" y1="181.81809" x2="338.78877" y2="216.08763" gradientUnits="userSpaceOnUse" id="color-4"><stop offset="0" stop-color="#ffe600"/><stop offset="1" stop-color="#ffa800"/></linearGradient></defs><g transform="translate(-319.91958,-172.50122)"><g stroke-miterlimit="10"><path d="M338.66517,181.10694c0,0 4.38236,-8.26162 5.83289,-8.01192c1.46812,0.25272 2.92364,9.51929 2.92364,9.51929z" fill="url(#color-1)" stroke="none" stroke-width="0"/><path d="M326.34139,181.38655c0,0 2.91729,-8.88532 4.38915,-8.88532c1.4897,0 4.49617,8.88532 4.49617,8.88532z" fill="url(#color-2)" stroke="none" stroke-width="0"/><path d="M321.66959,198.96848c0,-5.18913 0.05696,-17.15038 0.05696,-17.15038c0,0 12.79666,0.03123 17.0622,0.03123c9.45466,0 17.11916,7.66449 17.11916,17.11916c0,2.56795 -0.56541,5.00383 -1.57853,7.18996c-0.65145,1.40571 -1.48802,2.70815 -2.4784,3.87603c-1.98078,2.33578 -4.57685,4.1333 -7.53787,5.14224c-1.73316,0.59055 -3.59134,0.91093 -5.52436,0.91093c-9.45466,0 -17.11916,-7.66449 -17.11916,-17.11916z" fill="url(#color-3)" stroke="url(#color-4)" stroke-width="3.5"/></g></g></svg>