<svg version="1.1" xmlns="http://www.w3.org/2000/svg" xmlns:xlink="http://www.w3.org/1999/xlink" width="406.91231" height="299.95814" viewBox="0,0,406.91231,299.95814"><defs><linearGradient x1="520.11325" y1="61.93337" x2="508.01168" y2="44.25077" gradientUnits="userSpaceOnUse" id="color-1"><stop offset="0" stop-color="#bf0000"/><stop offset="1" stop-color="#400000"/></linearGradient><linearGradient x1="500.67413" y1="64.53315" x2="493.27904" y2="53.72757" gradientUnits="userSpaceOnUse" id="color-2"><stop offset="0" stop-color="#bf0000"/><stop offset="1" stop-color="#400000"/></linearGradient><linearGradient x1="529.55765" y1="44.76592" x2="522.16256" y2="33.96035" gradientUnits="userSpaceOnUse" id="color-3"><stop offset="0" stop-color="#bf0000"/><stop offset="1" stop-color="#400000"/></linearGradient><linearGradient x1="149.0074" y1="307.72689" x2="149.21836" y2="329.153" gradientUnits="userSpaceOnUse" id="color-4"><stop offset="0" stop-color="#bf0000"/><stop offset="1" stop-color="#400000"/></linearGradient><linearGradient x1="166.60381" y1="316.3874" x2="166.73273" y2="329.48057" gradientUnits="userSpaceOnUse" id="color-5"><stop offset="0" stop-color="#bf0000"/><stop offset="1" stop-color="#400000"/></linearGradient><linearGradient x1="131.6055" y1="316.73201" x2="131.73442" y2="329.82517" gradientUnits="userSpaceOnUse" id="color-6"><stop offset="0" stop-color="#bf0000"/><stop offset="1" stop-color="#400000"/></linearGradient></defs><g transform="translate(-124.16133,-30.7849)"><g data-paper-data="{&quot;isPaintingLayer&quot;:true}" fill-rule="nonzero" stroke="#000000" stroke-linecap="butt" stroke-linejoin="miter" stroke-miterlimit="10" stroke-dasharray="" stroke-dashoffset="0" style="mix-blend-mode: normal"><path d="M518.57405,40.6908c0.65137,5.56534 2.03301,16.53978 2.38355,19.53493c0.16729,1.42934 -1.04095,2.2077 -2.36736,1.5368c-2.70188,-1.36662 -12.66646,-6.40672 -17.75817,-8.98212c-1.83589,-0.9286 -1.58031,-2.53457 -0.24963,-3.44525c2.48701,-1.70205 10.73906,-7.34957 14.97539,-10.24881c1.47159,-1.00713 2.79324,-0.30061 3.01621,1.60446z" fill="url(#color-1)" stroke-width="3"/><path d="M499.73357,51.55212c0.39805,3.40089 1.24235,10.10721 1.45657,11.93749c0.10224,0.87345 -0.63611,1.3491 -1.44666,0.93912c-1.65109,-0.83512 -7.74029,-3.91505 -10.85175,-5.48885c-1.12188,-0.56746 -0.96572,-1.54884 -0.15255,-2.10534c1.51977,-1.0401 6.56248,-4.49121 9.15124,-6.26289c0.89926,-0.61543 1.70691,-0.18371 1.84315,0.98046z" fill="url(#color-2)" stroke-width="2"/><path d="M528.61707,31.7849c0.39805,3.40089 1.24235,10.10721 1.45657,11.93749c0.10224,0.87345 -0.63611,1.3491 -1.44666,0.93912c-1.65109,-0.83512 -7.74029,-3.91507 -10.85175,-5.48885c-1.12188,-0.56746 -0.96572,-1.54884 -0.15255,-2.10534c1.51977,-1.0401 6.56247,-4.49121 9.15124,-6.26289c0.89927,-0.61544 1.70691,-0.18371 1.84315,0.98046z" fill="url(#color-3)" stroke-width="2"/><path d="M138.46196,326.23121c2.55668,-4.98605 7.51751,-14.87228 8.89346,-17.55565c0.65663,-1.28057 2.09364,-1.25466 2.82214,0.04101c1.48393,2.63928 6.95669,12.37295 9.75317,17.34667c1.00831,1.79335 -0.09794,2.98527 -1.71033,3.00114c-3.01352,0.02967 -13.01257,0.12812 -18.14575,0.17866c-1.78314,0.01756 -2.48785,-1.30506 -1.61267,-3.01182z" fill="url(#color-4)" stroke-width="3"/><path d="M160.15963,327.6951c1.56235,-3.04691 4.59384,-9.08823 5.43465,-10.728c0.40125,-0.78255 1.27939,-0.76671 1.72457,0.02505c0.90681,1.61282 4.25113,7.56093 5.96001,10.6003c0.61616,1.09589 -0.05984,1.82427 -1.04515,1.83396c-1.84152,0.01813 -7.9518,0.07829 -11.0886,0.10918c-1.08964,0.01073 -1.52029,-0.79748 -0.98548,-1.84048z" fill="url(#color-5)" stroke-width="2"/><path d="M125.16133,328.0397c1.56235,-3.04691 4.59384,-9.08823 5.43465,-10.728c0.40125,-0.78255 1.27939,-0.76671 1.72457,0.02505c0.90681,1.61282 4.25112,7.56093 5.96001,10.6003c0.61616,1.09589 -0.05984,1.82427 -1.04515,1.83396c-1.84152,0.01813 -7.95179,0.0783 -11.0886,0.10918c-1.08965,0.01073 -1.52029,-0.79748 -0.98548,-1.84048z" fill="url(#color-6)" stroke-width="2"/></g></g></svg>