<svg version="1.1" xmlns="http://www.w3.org/2000/svg" xmlns:xlink="http://www.w3.org/1999/xlink" width="161.58186" height="182.66815" viewBox="0,0,161.58186,182.66815"><defs><linearGradient x1="335.49758" y1="54.25602" x2="335.49758" y2="210.89738" gradientUnits="userSpaceOnUse" id="color-1"><stop offset="0" stop-color="#e6e6e6"/><stop offset="1" stop-color="#cccccc"/></linearGradient><linearGradient x1="318.73109" y1="163.98559" x2="321.89938" y2="203.97139" gradientUnits="userSpaceOnUse" id="color-2"><stop offset="0" stop-color="#e6e6e6"/><stop offset="1" stop-color="#cccccc"/></linearGradient></defs><g transform="translate(-239.20681,-18.75852)"><g data-paper-data="{&quot;isPaintingLayer&quot;:true}" fill-rule="nonzero" stroke-linecap="butt" stroke-linejoin="miter" stroke-miterlimit="10" stroke-dasharray="" stroke-dashoffset="0" style="mix-blend-mode: normal"><path d="M316.54518,53.96948l6.91533,0.3502l-0.01077,125.40117l-6.91026,0.27916z" fill="url(#color-1)" stroke="none" stroke-width="0"/><path d="M239.86741,190.20927c-0.47026,-5.93502 -0.36296,-4.58082 -0.64237,-8.10712c-0.37713,-4.75963 5.15084,-12.22498 11.64268,-12.73936c17.96443,-1.42342 103.25901,-8.18177 135.71921,-10.75376c7.82583,-0.62008 13.04669,4.88441 13.57064,11.49695c0.45962,5.80063 0.33334,4.20699 0.60668,7.65672c0.38026,4.79908 -3.69223,12.24542 -11.33924,12.85133c-0.34425,0.02728 -0.69461,0.05504 -1.05093,0.08327c-33.00462,2.61513 -117.14091,9.2817 -134.96854,10.69428c-6.49185,0.51438 -13.02402,-4.694 -13.53813,-11.18232z" fill="url(#color-2)" stroke="none" stroke-width="0"/><text transform="translate(304.7411,185.58262) rotate(-4.53039) scale(0.37789,0.37789)" font-size="40" xml:space="preserve" fill="#000000" fill-rule="nonzero" stroke="#000000" stroke-width="1" stroke-linecap="butt" stroke-linejoin="miter" stroke-miterlimit="10" stroke-dasharray="" stroke-dashoffset="0" font-family="Handwriting" font-weight="normal" text-anchor="start" style="mix-blend-mode: normal"><tspan x="0" dy="0">Shop</tspan></text><path d="M242.875,179.00852v-160.25h150.75v160.25z" fill-opacity="0.00784" fill="#e6e6e6" stroke="#000000" stroke-width="0"/></g></g></svg>