<svg version="1.1" xmlns="http://www.w3.org/2000/svg" xmlns:xlink="http://www.w3.org/1999/xlink" width="34.95586" height="32.12918" viewBox="0,0,34.95586,32.12918"><defs><linearGradient x1="256.78932" y1="163.9354" x2="256.78932" y2="204.04652" gradientUnits="userSpaceOnUse" id="color-1"><stop offset="0" stop-color="#229be6"/><stop offset="1" stop-color="#2681ff"/></linearGradient></defs><g transform="translate(-302.52208,-163.93541)"><g data-paper-data="{&quot;isPaintingLayer&quot;:true}" fill-rule="nonzero" stroke-linecap="butt" stroke-linejoin="miter" stroke-miterlimit="10" stroke-dasharray="" stroke-dashoffset="0" style="mix-blend-mode: normal"><path d="M302.52208,183.84787c0,-5.95362 0,-4.59518 0,-8.13253c0,-4.77455 6.10037,-11.77993 12.61256,-11.77993c18.02073,0 -22.83875,0 9.72318,0c7.85036,0 12.62012,5.89968 12.62012,12.53294c0,5.81881 0,4.22018 0,7.68072c0,4.81412 -4.64793,11.91552 -12.31891,11.91552c-0.34533,0 -0.69679,0 -1.05422,0c-33.10806,0 8.91335,0 -8.97016,0c-6.5122,0 -12.61256,-5.70807 -12.61256,-12.21673z" fill="url(#color-1)" stroke="none" stroke-width="0"/><path d="M322.87348,183.71281v1.09593c-0.00128,1.20571 -0.97839,2.18283 -2.1841,2.18411h-5.48899c-1.20571,-0.00128 -2.18282,-0.9784 -2.1841,-2.18411v-9.61349c0.00128,-1.20571 0.97839,-2.18283 2.1841,-2.18411h5.48744c1.20632,0.00043 2.18437,0.97779 2.18566,2.18411v1.09206c0,0.30156 -0.24446,0.54602 -0.54602,0.54602c-0.30156,0 -0.54602,-0.24446 -0.54602,-0.54602v-1.09206c-0.00086,-0.60277 -0.48928,-1.0912 -1.09206,-1.09205h-5.48899c-0.60277,0.00086 -1.0912,0.48928 -1.09206,1.09205v9.61349c0.00383,0.60064 0.4914,1.08578 1.09206,1.08662h5.48744c0.60066,-0.00084 1.08822,-0.48598 1.09206,-1.08662v-1.09593c0,-0.30156 0.24447,-0.54603 0.54603,-0.54603c0.30156,0 0.54602,0.24447 0.54602,0.54603zM326.59904,179.06207l-1.2271,-1.22245c-0.21326,-0.21326 -0.55903,-0.21326 -0.77228,0c-0.21326,0.21326 -0.21326,0.55902 0,0.77228l0.8693,0.87007h-6.55388c-0.30156,0 -0.54602,0.24447 -0.54602,0.54603c0,0.30156 0.24446,0.54603 0.54602,0.54603h6.5562l-0.86929,0.87007c-0.21326,0.21326 -0.21326,0.55902 0,0.77228c0.21326,0.21326 0.55902,0.21326 0.77227,0l1.22245,-1.22245c0.532,-0.53347 0.532,-1.39684 0,-1.93031zM326.59904,179.06207" fill="#ffffff" stroke="#ffffff" stroke-width="0.5"/></g></g></svg>