<svg version="1.1" xmlns="http://www.w3.org/2000/svg" xmlns:xlink="http://www.w3.org/1999/xlink" width="24" height="24" viewBox="0,0,24,24"><defs><linearGradient x1="320" y1="168" x2="320" y2="192" gradientUnits="userSpaceOnUse" id="color-1"><stop offset="0" stop-color="#f1f1f1"/><stop offset="1" stop-color="#b0b0b0"/></linearGradient><linearGradient x1="320" y1="168" x2="320" y2="192" gradientUnits="userSpaceOnUse" id="color-2"><stop offset="0" stop-color="#009cff"/><stop offset="1" stop-color="#0074ff"/></linearGradient><linearGradient x1="315.26742" y1="177.98258" x2="315.26742" y2="182.01742" gradientUnits="userSpaceOnUse" id="color-3"><stop offset="0" stop-color="#808080"/><stop offset="1" stop-color="#595959"/></linearGradient><linearGradient x1="315.26742" y1="177.98258" x2="315.26742" y2="182.01742" gradientUnits="userSpaceOnUse" id="color-4"><stop offset="0" stop-color="#009cff"/><stop offset="1" stop-color="#0074ff"/></linearGradient><linearGradient x1="319.96966" y1="177.98259" x2="319.96966" y2="182.01741" gradientUnits="userSpaceOnUse" id="color-5"><stop offset="0" stop-color="#808080"/><stop offset="1" stop-color="#595959"/></linearGradient><linearGradient x1="319.96966" y1="177.98259" x2="319.96966" y2="182.01741" gradientUnits="userSpaceOnUse" id="color-6"><stop offset="0" stop-color="#009cff"/><stop offset="1" stop-color="#0074ff"/></linearGradient><linearGradient x1="324.73258" y1="177.98259" x2="324.73258" y2="182.01741" gradientUnits="userSpaceOnUse" id="color-7"><stop offset="0" stop-color="#808080"/><stop offset="1" stop-color="#595959"/></linearGradient><linearGradient x1="324.73258" y1="177.98259" x2="324.73258" y2="182.01741" gradientUnits="userSpaceOnUse" id="color-8"><stop offset="0" stop-color="#009cff"/><stop offset="1" stop-color="#0074ff"/></linearGradient></defs><g transform="translate(-308,-168)"><g data-paper-data="{&quot;isPaintingLayer&quot;:true}" fill-rule="nonzero" stroke-width="0" stroke-linecap="butt" stroke-linejoin="miter" stroke-miterlimit="10" stroke-dasharray="" stroke-dashoffset="0" style="mix-blend-mode: normal"><path d="M308,180c0,-6.62742 5.37258,-12 12,-12c6.62742,0 12,5.37258 12,12c0,6.62742 -5.37258,12 -12,12c-6.62742,0 -12,-5.37258 -12,-12z" fill="url(#color-1)" stroke="url(#color-2)"/><path d="M313.25,180c0,-1.11419 0.90323,-2.01742 2.01742,-2.01742c1.11419,0 2.01742,0.90323 2.01742,2.01742c0,1.11419 -0.90323,2.01742 -2.01742,2.01742c-1.11419,0 -2.01742,-0.90323 -2.01742,-2.01742z" fill="url(#color-3)" stroke="url(#color-4)"/><path d="M317.95225,180c0,-1.11419 0.90323,-2.01741 2.01741,-2.01741c1.11419,0 2.01742,0.90323 2.01742,2.01741c0,1.11419 -0.90323,2.01741 -2.01742,2.01741c-1.11419,0 -2.01741,-0.90323 -2.01741,-2.01741z" fill="url(#color-5)" stroke="url(#color-6)"/><path d="M322.71517,180c0,-1.11419 0.90323,-2.01741 2.01741,-2.01741c1.11419,0 2.01742,0.90323 2.01742,2.01741c0,1.11419 -0.90323,2.01741 -2.01742,2.01741c-1.11419,0 -2.01741,-0.90323 -2.01741,-2.01741z" fill="url(#color-7)" stroke="url(#color-8)"/></g></g></svg>