<svg version="1.1" xmlns="http://www.w3.org/2000/svg" xmlns:xlink="http://www.w3.org/1999/xlink" width="134.44643" height="32.12918" viewBox="0,0,134.44643,32.12918"><defs><linearGradient x1="154.43476" y1="124.02469" x2="154.43476" y2="164.13581" gradientUnits="userSpaceOnUse" id="color-1"><stop offset="0" stop-color="#e6e6e6"/><stop offset="1" stop-color="#cccccc"/></linearGradient></defs><g transform="translate(-100.67694,-124.0247)"><g data-paper-data="{&quot;isPaintingLayer&quot;:true}" fill-rule="nonzero" stroke-linecap="butt" stroke-linejoin="miter" stroke-miterlimit="10" stroke-dasharray="" stroke-dashoffset="0" style="mix-blend-mode: normal"><path d="M200.16752,143.93716c0,-5.95362 0,-4.59518 0,-8.13253c0,-4.77455 6.10037,-11.77993 12.61256,-11.77993c18.02073,0 -22.83875,0 9.72318,0c7.85036,0 12.62012,5.89968 12.62012,12.53294c0,5.81881 0,4.22018 0,7.68072c0,4.81412 -4.64793,11.91552 -12.31891,11.91552c-0.34533,0 -0.69679,0 -1.05422,0c-33.10806,0 8.91335,0 -8.97016,0c-6.5122,0 -12.61256,-5.70807 -12.61256,-12.21673z" fill="url(#color-1)" stroke="none" stroke-width="0"/><path d="M223.12408,140.11671c0.01342,-0.31049 0.26905,-0.55531 0.57983,-0.55531c0.31079,0 0.56641,0.24482 0.57983,0.55531c-0.00031,2.69636 -1.63177,5.1246 -4.12799,6.14404c-2.49622,1.01944 -5.3611,0.42749 -7.24887,-1.4978v1.33724c0,0.32053 -0.25984,0.58038 -0.58037,0.58038c-0.32053,0 -0.58038,-0.25984 -0.58038,-0.58038v-2.97983c0.00297,-0.31841 0.26194,-0.57497 0.58038,-0.57496h3.01231c0.21313,-0.00921 0.41414,0.09924 0.52345,0.28244c0.10931,0.1832 0.10931,0.41159 0,0.59479c-0.10931,0.1832 -0.31032,0.29165 -0.52345,0.28244h-1.84074c1.49696,1.73065 3.9118,2.34872 6.05614,1.55006c2.14433,-0.79867 3.56649,-2.84585 3.5666,-5.13409zM222.5502,134.03037c-0.00921,-0.21313 0.09924,-0.41414 0.28244,-0.52345c0.1832,-0.10931 0.41159,-0.10931 0.59479,0c0.1832,0.10931 0.29165,0.31032 0.28244,0.52345v3.00798c-0.00058,0.31801 -0.25697,0.57633 -0.57496,0.57929h-2.98416c-0.21313,0.00921 -0.41414,-0.09924 -0.52345,-0.28244c-0.10931,-0.1832 -0.10931,-0.41159 0,-0.59479c0.10931,-0.1832 0.31032,-0.29165 0.52345,-0.28244h1.57654c-1.51557,-1.69193 -3.91796,-2.27323 -6.03937,-1.46133c-2.12141,0.8119 -3.52185,2.8486 -3.52056,5.12007c0.00921,0.21313 -0.09924,0.41414 -0.28244,0.52345c-0.1832,0.10931 -0.41159,0.10931 -0.59479,0c-0.1832,-0.10931 -0.29165,-0.31032 -0.28244,-0.52345c0.00126,-2.35122 1.24611,-4.52637 3.27271,-5.71848c2.0266,-1.1921 4.53259,-1.2233 6.58824,-0.08201c0.62823,0.34969 1.19602,0.79829 1.68157,1.32858z" fill="#000000" stroke="#000000" stroke-width="0"/><text transform="translate(100.80976,143.15404) scale(0.26563,0.26563)" font-size="40" xml:space="preserve" fill="#000000" fill-rule="nonzero" stroke="none" stroke-width="1" stroke-linecap="butt" stroke-linejoin="miter" stroke-miterlimit="10" stroke-dasharray="" stroke-dashoffset="0" font-family="Sans Serif" font-weight="normal" text-anchor="start" style="mix-blend-mode: normal"><tspan x="0" dy="0">Updates Available</tspan></text></g></g></svg>