<svg version="1.1" xmlns="http://www.w3.org/2000/svg" xmlns:xlink="http://www.w3.org/1999/xlink" width="35.86161" height="32.38533" viewBox="0,0,35.86161,32.38533"><defs><linearGradient x1="382.75784" y1="164.06348" x2="382.75784" y2="204.17461" gradientUnits="userSpaceOnUse" id="color-1"><stop offset="0" stop-color="#229be6"/><stop offset="1" stop-color="#2681ff"/></linearGradient></defs><g transform="translate(-302.06919,-163.80734)"><g data-paper-data="{&quot;isPaintingLayer&quot;:true}" fill-rule="nonzero" stroke="none" stroke-linecap="butt" stroke-linejoin="miter" stroke-miterlimit="10" stroke-dasharray="" stroke-dashoffset="0" style="mix-blend-mode: normal"><text transform="translate(304.69926,183.57217) scale(0.29768,0.29768)" font-size="40" xml:space="preserve" fill="#ffffff" fill-rule="nonzero" stroke="none" stroke-width="1" stroke-linecap="butt" stroke-linejoin="miter" stroke-miterlimit="10" stroke-dasharray="" stroke-dashoffset="0" font-family="Sans Serif" font-weight="normal" text-anchor="start" style="mix-blend-mode: normal"><tspan x="0" dy="0">Close</tspan></text><path d="M302.06919,183.97596c0,-5.95362 0,-4.59518 0,-8.13253c0,-4.77455 6.10037,-11.77993 12.61256,-11.77993c18.02073,0 -21.933,-0.25615 10.62893,-0.25615c7.85036,0 12.62012,5.89968 12.62012,12.53294c0,5.81881 0,4.22018 0,7.68072c0,4.81412 -4.64793,11.91552 -12.31891,11.91552c-0.34533,0 -0.69679,0 -1.05422,0c-33.10806,0 8.0076,0.25615 -9.87591,0.25615c-6.5122,0 -12.61256,-5.70807 -12.61256,-12.21673z" fill="url(#color-1)" stroke-width="0"/><path d="M320.00831,171.96229c0.00554,0.00554 0.21051,0.62044 0.45564,1.36691c0.24513,0.74647 0.59412,1.80869 0.77555,2.36127c0.18142,0.55258 0.43348,1.31566 0.55812,1.69651l0.22713,0.69245l3.26284,0.00416c2.00534,0.00138 3.26423,0.00831 3.26423,0.01523c0,0.00692 -1.1841,0.8628 -2.63133,1.90148c-1.44723,1.03868 -2.63133,1.89317 -2.63133,1.90148c0,0.01662 0.0554,0.18696 0.25621,0.79632c0.13711,0.41824 0.41547,1.26581 1.12316,3.42073c0.18004,0.54427 0.3947,1.19794 0.47918,1.45138c0.0831,0.25483 0.14957,0.46394 0.1468,0.46671c-0.00416,0.00415 -0.84341,-0.59551 -4.23228,-3.03018l-1.0553,-0.75893l-0.0457,0.03185c-0.02355,0.01662 -1.19102,0.85449 -2.59255,1.85994c-2.97478,2.13553 -2.63825,1.89455 -2.64794,1.88624c-0.00416,-0.00415 0.03324,-0.13156 0.0831,-0.28252c0.04985,-0.15096 0.25067,-0.76032 0.44594,-1.35444c0.39331,-1.19518 0.61075,-1.85577 0.86972,-2.64517c0.65783,-1.99427 0.60936,-1.83777 0.58166,-1.86409c-0.01385,-0.01246 -0.96528,-0.69799 -2.11614,-1.5234c-1.14947,-0.82402 -2.32664,-1.66743 -2.61332,-1.87378c-0.28806,-0.20635 -0.5235,-0.37947 -0.5235,-0.38639c0,-0.00554 1.46938,-0.00969 3.26561,-0.00969h3.26562l0.34346,-1.04283c0.18835,-0.57197 0.50134,-1.52479 0.69661,-2.11476c0.19389,-0.58997 0.42655,-1.29766 0.51657,-1.57187c0.09141,-0.27421 0.23128,-0.70215 0.31438,-0.95144c0.08171,-0.25067 0.15234,-0.45009 0.15788,-0.44317z" fill="#ffffff" stroke-width="1"/></g></g></svg>