<svg version="1.1" xmlns="http://www.w3.org/2000/svg" xmlns:xlink="http://www.w3.org/1999/xlink" width="236.3175" height="24.69106" viewBox="0,0,236.3175,24.69106"><defs><linearGradient x1="226.77907" y1="331.44157" x2="205.3535" y2="331.1795" gradientUnits="userSpaceOnUse" id="color-1"><stop offset="0" stop-color="#bf0000"/><stop offset="1" stop-color="#400000"/></linearGradient><linearGradient x1="417.24696" y1="333.44157" x2="438.67253" y2="333.1795" gradientUnits="userSpaceOnUse" id="color-2"><stop offset="0" stop-color="#bf0000"/><stop offset="1" stop-color="#400000"/></linearGradient></defs><g transform="translate(-203.74319,-318.99022)"><g data-paper-data="{&quot;isPaintingLayer&quot;:true}" fill-rule="nonzero" stroke="#000000" stroke-width="3" stroke-linecap="butt" stroke-linejoin="miter" stroke-miterlimit="10" stroke-dasharray="" stroke-dashoffset="0" style="mix-blend-mode: normal"><path d="M208.51203,320.49022c4.9284,2.66612 14.7027,7.84396 17.35506,9.27881c1.26576,0.68474 1.20816,2.12083 -0.10327,2.82054c-2.67138,1.42532 -12.5235,6.68189 -17.55773,9.36786c-1.81517,0.96849 -2.9824,-0.16381 -2.96266,-1.77615c0.03685,-3.01346 0.15915,-13.01222 0.22192,-18.14528c0.0218,-1.78309 1.35964,-2.45844 3.0467,-1.54579z" fill="url(#color-1)"/><path d="M435.51398,322.49021c1.68706,-0.91265 3.0249,-0.2373 3.0467,1.54579c0.06277,5.13306 0.18507,15.13182 0.22192,18.14528c0.01974,1.61234 -1.14749,2.74464 -2.96266,1.77615c-5.03423,-2.68597 -14.88635,-7.94254 -17.55773,-9.36786c-1.31143,-0.69971 -1.36903,-2.1358 -0.10327,-2.82054c2.65236,-1.43485 12.42666,-6.61269 17.35506,-9.27881z" data-paper-data="{&quot;index&quot;:null}" fill="url(#color-2)"/></g></g></svg>