<svg version="1.1" xmlns="http://www.w3.org/2000/svg" xmlns:xlink="http://www.w3.org/1999/xlink" width="360.50016" height="58.34394" viewBox="0,0,360.50016,58.34394"><g transform="translate(-140.2605,-148.88326)"><g fill="#ff0000" stroke-miterlimit="10"><text transform="translate(141.76939,193.64714) scale(1.00593,1.00593)" font-size="40" xml:space="preserve" fill="#ff0000" stroke="#ff0000" stroke-width="3" font-family="Sans Serif" font-weight="normal" text-anchor="start"><tspan x="0" dy="0">Tank Ball Phys cs 2</tspan></text><path d="M420.27736,166.83562l0.14018,-2.68835c0.00413,-0.08955 -0.03256,-0.17614 -0.09976,-0.23547c-0.0672,-0.05933 -0.15767,-0.085 -0.24602,-0.06981l-2.67589,0.47038l0.36135,-0.99684c0.03006,-0.08132 0.00501,-0.17276 -0.0623,-0.2274l-2.93132,-2.37372l0.6604,-0.3084c0.09229,-0.04361 0.13768,-0.14909 0.10591,-0.24609l-0.57941,-1.78185l1.68839,0.35824c0.09431,0.01966 0.18941,-0.02984 0.2274,-0.11837l0.32709,-0.76943l1.31769,1.41426c0.06189,0.06528 0.15942,0.0819 0.23944,0.04081c0.08002,-0.04109 0.12333,-0.13004 0.10634,-0.21837l-0.63548,-3.2771l1.01864,0.58876c0.04834,0.02833 0.10626,0.03537 0.15998,0.01943c0.05372,-0.01594 0.09843,-0.05342 0.1235,-0.10354l1.03422,-2.03106l1.03422,2.03106c0.02507,0.05011 0.06978,0.0876 0.1235,0.10354c0.05372,0.01594 0.11164,0.0089 0.15998,-0.01943l1.01864,-0.58876l-0.63548,3.2771c-0.01699,0.08833 0.02632,0.17728 0.10634,0.21837c0.08002,0.04109 0.17755,0.02447 0.23944,-0.04081l1.31769,-1.41426l0.32709,0.76943c0.03799,0.08853 0.13309,0.13804 0.2274,0.11837l1.68839,-0.35824l-0.57941,1.78185c-0.03177,0.097 0.01363,0.20248 0.10591,0.24609l0.6604,0.3084l-2.93133,2.37372c-0.06731,0.05465 -0.09236,0.14608 -0.0623,0.2274l0.36135,0.99684l-2.67589,-0.47038c-0.08835,-0.01519 -0.17882,0.01048 -0.24602,0.06981c-0.0672,0.05933 -0.10389,0.14592 -0.09976,0.23547l0.14018,2.68835z" stroke="none" stroke-width="1"/><path d="M416.91065,195.18879v-25.06736h7.29412v25.06736z" stroke="none" stroke-width="0"/></g></g></svg>