<svg version="1.1" xmlns="http://www.w3.org/2000/svg" xmlns:xlink="http://www.w3.org/1999/xlink" width="709.94819" height="662.28716" viewBox="0,0,709.94819,662.28716"><g transform="translate(17.40261,187.96537)"><g data-paper-data="{&quot;isPaintingLayer&quot;:true}" fill="#313131" fill-rule="nonzero" stroke="none" stroke-width="0" stroke-linecap="butt" stroke-linejoin="miter" stroke-miterlimit="10" stroke-dasharray="" stroke-dashoffset="0" style="mix-blend-mode: normal"><path d="M0.73594,469.32179h-7.93651v-657.28716h7.93651z"/><path d="M645.70706,-6.91919v7.93651h-657.28716v-7.93651z"/><path d="M646.42858,474.32179h-7.93651v-657.28716h7.93651z"/><path d="M639.88456,360.27417v7.93651h-657.28716v-7.93651z"/><path d="M-6.37937,236.73191l-0.38392,-12.53736l518.28558,-1.8362l0.38392,12.53734z"/><path d="M427.24311,127.96101l6.7161,-10.58701l83.94062,51.75526l-6.71609,10.58699z"/><path d="M628.99096,265.52276l-12.52699,0.51511l-5.31199,-98.47039l12.52697,-0.51511z"/><path d="M619.96632,176.59279l-8.36898,-9.33547l72.57929,-66.75987l8.36896,9.33545z"/><path d="M471.73964,67.4799l-6.91133,-10.46061l81.575,-55.40896l6.91132,10.46059z"/><path d="M55.33884,32.65362l12.53643,0.25612l-0.0712,149.0269l-12.53641,-0.25612z"/><path d="M-6.28241,365.23191l-0.48089,-12.53736l649.18861,-1.8362l0.48089,12.53734z"/><path d="M9.83884,250.15362l12.53643,0.15318l-0.0712,89.12983l-12.53641,-0.15318z"/><path d="M123.62063,351.04513l-0.38392,-12.53736l518.28558,-1.8362l0.38392,12.53734z"/></g></g></svg>