<svg version="1.1" xmlns="http://www.w3.org/2000/svg" xmlns:xlink="http://www.w3.org/1999/xlink" width="161.37726" height="32.12918" viewBox="0,0,161.37726,32.12918"><defs><linearGradient x1="320" y1="163.93541" x2="320" y2="204.04653" gradientUnits="userSpaceOnUse" id="color-1"><stop offset="0" stop-color="#229be6"/><stop offset="1" stop-color="#2681ff"/></linearGradient><linearGradient x1="257.06441" y1="179.09343" x2="257.06441" y2="191.1621" gradientUnits="userSpaceOnUse" id="color-2"><stop offset="0" stop-color="#004213"/><stop offset="1" stop-color="#00300e"/></linearGradient><linearGradient x1="257.13121" y1="171.49528" x2="257.13121" y2="183.56394" gradientUnits="userSpaceOnUse" id="color-3"><stop offset="0" stop-color="#004213"/><stop offset="1" stop-color="#00300e"/></linearGradient><linearGradient x1="261.30602" y1="173.96676" x2="261.30602" y2="186.03542" gradientUnits="userSpaceOnUse" id="color-4"><stop offset="0" stop-color="#004213"/><stop offset="1" stop-color="#00300e"/></linearGradient><linearGradient x1="263.27909" y1="171.92791" x2="263.27909" y2="183.99659" gradientUnits="userSpaceOnUse" id="color-5"><stop offset="0" stop-color="#008024"/><stop offset="1" stop-color="#00661d"/></linearGradient></defs><g transform="translate(-239.31137,-163.93541)"><g data-paper-data="{&quot;isPaintingLayer&quot;:true}" fill-rule="nonzero" stroke="none" stroke-linecap="butt" stroke-linejoin="miter" stroke-miterlimit="10" stroke-dasharray="" stroke-dashoffset="0" style="mix-blend-mode: normal"><path d="M239.31137,183.84787c0,-5.95362 0,-4.59518 0,-8.13253c0,-4.77455 6.10037,-11.77993 12.61256,-11.77993c18.02073,0 103.58265,0 136.14458,0c7.85036,0 12.62012,5.89968 12.62012,12.53294c0,5.81881 0,4.22018 0,7.68072c0,4.81412 -4.64793,11.91552 -12.31891,11.91552c-0.34533,0 -0.69678,0 -1.05422,0c-33.10805,0 -117.50805,0 -135.39156,0c-6.5122,0 -12.61256,-5.70807 -12.61256,-12.21673z" fill="url(#color-1)" stroke-width="0"/><text transform="translate(302.69884,183.57216) scale(0.29768,0.29768)" font-size="40" xml:space="preserve" fill="#ffffff" fill-rule="nonzero" stroke="none" stroke-width="1" stroke-linecap="butt" stroke-linejoin="miter" stroke-miterlimit="10" stroke-dasharray="" stroke-dashoffset="0" font-family="Sans Serif" font-weight="normal" text-anchor="start" style="mix-blend-mode: normal"><tspan x="0" dy="0">Green</tspan></text><g stroke-width="0"><path d="M251.03009,184.51678c0,-1.5633 0,-0.55371 0,-1.51186c0,-1.54075 1.38087,-3.83288 4.00979,-3.91151c0.9811,-0.02934 5.12301,0 6.70044,0c1.9939,0 3.81323,2.28556 3.81323,3.79357c0,0.95741 0,-0.03436 0,1.55117c0,2.10288 -2.47102,4.06875 -4.0491,4.06875c-0.94357,0 -4.98776,0 -6.50388,0c-2.05237,0 -3.97047,-1.92313 -3.97047,-3.99013z" fill="url(#color-2)"/><path d="M251.09689,176.91864c0,-1.5633 0,-0.55371 0,-1.51186c0,-1.54075 1.38087,-3.83288 4.00979,-3.91151c0.9811,-0.02934 4.62203,0 6.19946,0c1.9939,0 3.81323,2.28556 3.81323,3.79357c0,0.95741 0,-0.03436 0,1.55117c0,2.10288 -2.47102,4.06875 -4.0491,4.06875c-0.94357,0 -4.48678,0 -6.00291,0c-2.05237,0 -3.97047,-1.92313 -3.97047,-3.99013z" fill="url(#color-3)"/><path d="M252.77245,180.00004c0,-4.71296 3.82061,-8.53357 8.53357,-8.53357c4.71296,0 8.53357,3.82061 8.53357,8.53357c0,4.71296 -3.82061,8.53357 -8.53357,8.53357c-4.71296,0 -8.53357,-3.82061 -8.53357,-8.53357z" fill="#005919"/><path d="M255.27168,182.0453c0,-1.5633 0,-3.20889 0,-4.16703c0,-1.54075 1.38087,-3.83288 4.00979,-3.91151c0.9811,-0.02934 2.66822,0 4.24565,0c1.9939,0 3.81323,2.28556 3.81323,3.79357c0,0.95741 0,2.62082 0,4.20634c0,2.10288 -2.47102,4.06875 -4.0491,4.06875c-0.94357,0 -2.53297,0 -4.0491,0c-2.05237,0 -3.97047,-1.92313 -3.97047,-3.99013z" fill="url(#color-4)"/><path d="M257.24477,180.00644c0,-1.5633 0,0.96746 0,0.00932c0,-1.54075 1.38087,-3.83288 4.00979,-3.91151c0.6762,-0.02023 8.22765,-0.02257 10.3827,-0.02207c0.97168,0.00022 1.65522,0.9427 1.65522,1.68168c0,0.891 0,3.11615 0,4.66962c0,0.94253 -0.63548,1.63059 -1.557,1.62065c-2.04425,-0.02206 -9.4752,-0.05755 -10.52024,-0.05755c-2.05237,0 -3.97047,-1.92313 -3.97047,-3.99013z" fill="url(#color-5)"/></g></g></g></svg>