<svg version="1.1" xmlns="http://www.w3.org/2000/svg" xmlns:xlink="http://www.w3.org/1999/xlink" width="960" height="540" viewBox="0,0,960,540"><defs><linearGradient x1="-9.96901" y1="203.6854" x2="-9.96901" y2="243.79651" gradientUnits="userSpaceOnUse" id="color-1"><stop offset="0" stop-color="#e6e6e6"/><stop offset="1" stop-color="#cccccc"/></linearGradient><radialGradient cx="36.39981" cy="232.87301" r="50.5378" gradientUnits="userSpaceOnUse" id="color-2"><stop offset="0" stop-color="#fed576"/><stop offset="0.2634" stop-color="#f47133"/><stop offset="0.6091" stop-color="#bc3081"/><stop offset="1" stop-color="#4c63d2"/></radialGradient><clipPath id="clip-1"><rect x="-320" y="-180" transform="scale(0.5,0.5)" width="1920" height="1080" fill="none" stroke-width="0.5"/></clipPath></defs><g transform="translate(160,90)"><g clip-path="url(#clip-1)" stroke="none" stroke-miterlimit="10"><path d="M35.76379,223.59791c0,-5.9537 0,-4.5952 0,-8.1326c0,-4.77453 6.10037,-11.7799 12.6126,-11.7799c18.0207,0 -22.8388,0 9.7231,0c7.8504,0 12.6202,5.89967 12.6202,12.5329c0,5.8188 0,4.2202 0,7.6808c0,4.8141 -4.648,11.9155 -12.3189,11.9155c-0.3454,0 -0.6968,0 -1.0543,0c-33.108,0 8.9134,0 -8.9701,0c-6.51223,0 -12.6126,-5.7081 -12.6126,-12.2167z" fill="url(#color-1)" stroke-width="1"/><path d="M35.76379,223.59791c0,-5.9537 0,-4.5952 0,-8.1326c0,-4.77453 6.10037,-11.7799 12.6126,-11.7799c18.0207,0 -22.8388,0 9.7231,0c7.8504,0 12.6202,5.89967 12.6202,12.5329c0,5.8188 0,4.2202 0,7.6808c0,4.8141 -4.648,11.9155 -12.3189,11.9155c-0.3454,0 -0.6968,0 -1.0543,0c-33.108,0 8.9134,0 -8.9701,0c-6.51223,0 -12.6126,-5.7081 -12.6126,-12.2167z" fill="url(#color-2)" stroke-width="1"/><path d="M49.87079,211.61498c0.8719,-0.03993 1.1515,-0.04993 3.3745,-0.04993c2.223,0 2.5026,0.00999 3.3745,0.04993c0.8719,0.03993 1.4676,0.17637 1.9868,0.37937c0.5391,0.20966 0.995,0.4892 1.4509,0.94513c0.4526,0.4526 0.7322,0.91183 0.9418,1.44763c0.1997,0.5192 0.3395,1.1149 0.3794,1.9868c0.0399,0.8719 0.0499,1.1514 0.0499,3.3745c0,2.223 -0.01,2.5026 -0.0499,3.3745c-0.0399,0.8719 -0.1764,1.4676 -0.3794,1.9867c-0.2096,0.5392 -0.4892,0.9951 -0.9451,1.451c-0.4559,0.4559 -0.9119,0.7355 -1.451,0.9451c-0.5191,0.1997 -1.1148,0.3395 -1.9867,0.3794c-0.8719,0.04 -1.1515,0.0499 -3.3745,0.0499c-2.2231,0 -2.5026,-0.0099 -3.3745,-0.0499c-0.8719,-0.0399 -1.4676,-0.1764 -1.9868,-0.3794c-0.5391,-0.2096 -0.995,-0.4892 -1.451,-0.9451c-0.4559,-0.4559 -0.73544,-0.9118 -0.9451,-1.451c-0.19967,-0.5191 -0.33945,-1.1148 -0.37938,-1.9867c-0.03993,-0.8719 -0.04992,-1.1515 -0.04992,-3.3745c0,-2.2231 0.00998,-2.5026 0.04992,-3.3745c0.03993,-0.8719 0.17638,-1.4676 0.37938,-1.9868c0.20966,-0.5358 0.4892,-0.99504 0.9451,-1.44763c0.456,-0.45592 0.9119,-0.73547 1.451,-0.94513c0.5192,-0.203 1.1149,-0.34276 1.9901,-0.37937zM53.24199,213.03932c-2.1865,0 -2.446,0.00667 -3.308,0.0466c-0.7987,0.03661 -1.2313,0.16972 -1.5208,0.28287c-0.3827,0.14976 -0.6556,0.32612 -0.9418,0.61232c-0.2862,0.2862 -0.4626,0.5591 -0.6124,0.9418c-0.1131,0.2895 -0.2462,0.7222 -0.2828,1.5209c-0.0367,0.8619 -0.0466,1.1215 -0.0466,3.3079c0,2.1865 0.0066,2.446 0.0466,3.308c0.0366,0.7987 0.1697,1.2313 0.2828,1.5208c0.1498,0.3827 0.3262,0.6556 0.6124,0.9418c0.2862,0.2862 0.5591,0.4626 0.9418,0.6124c0.2895,0.1131 0.7221,0.2462 1.5208,0.2828c0.862,0.0366 1.1215,0.0466 3.308,0.0466c2.1864,0 2.446,-0.0066 3.3079,-0.0466c0.7987,-0.0366 1.2313,-0.1697 1.5209,-0.2828c0.3827,-0.1498 0.6556,-0.3262 0.9418,-0.6124c0.2862,-0.2862 0.4625,-0.5591 0.6123,-0.9418c0.1132,-0.2895 0.2463,-0.7221 0.2829,-1.5208c0.0366,-0.862 0.0466,-1.1215 0.0466,-3.308c0,-2.1864 -0.0067,-2.446 -0.0466,-3.3079c-0.0366,-0.7987 -0.1697,-1.2314 -0.2829,-1.5209c-0.1498,-0.3827 -0.3261,-0.6556 -0.6123,-0.9418c-0.2862,-0.2862 -0.5591,-0.46256 -0.9418,-0.61232c-0.2896,-0.11315 -0.7222,-0.24627 -1.5209,-0.28287c-0.8619,-0.03993 -1.1215,-0.0466 -3.3079,-0.0466z" fill="#ffffff" stroke-width="1"/><path d="M53.24189,215.54871c2.3228,0 4.2031,1.8836 4.2031,4.2031c0,2.3196 -1.8836,4.2032 -4.2031,4.2032c-2.3196,0 -4.2032,-1.8803 -4.2032,-4.2032c0,-2.3229 1.8803,-4.2031 4.2032,-4.2031zM53.24189,217.02301c-1.5076,0 -2.7289,1.2213 -2.7289,2.7288c0,1.5076 1.2213,2.7289 2.7289,2.7289c1.5075,0 2.7288,-1.2213 2.7288,-2.7289c0,-1.5075 -1.2213,-2.7288 -2.7288,-2.7288z" fill="#ffffff" stroke-width="1"/><path d="M56.63289,215.38221c0,-0.5422 0.4396,-0.9817 0.9818,-0.9817c0.5422,0 0.9817,0.4395 0.9817,0.9817c0,0.5422 -0.4395,0.9817 -0.9817,0.9817c-0.5422,0 -0.9818,-0.4395 -0.9818,-0.9817z" fill="#ffffff" stroke-width="1"/></g></g></svg>