<svg version="1.1" xmlns="http://www.w3.org/2000/svg" xmlns:xlink="http://www.w3.org/1999/xlink" width="28.81818" height="30.72878" viewBox="0,0,28.81818,30.72878"><defs><linearGradient x1="320.13637" y1="168.69168" x2="320.13637" y2="178.46441" gradientUnits="userSpaceOnUse" id="color-1"><stop offset="0" stop-color="#7f7f7f"/><stop offset="1" stop-color="#404040"/></linearGradient><linearGradient x1="320.13637" y1="168.69168" x2="320.13637" y2="178.46441" gradientUnits="userSpaceOnUse" id="color-2"><stop offset="0" stop-color="#ff3874"/><stop offset="1" stop-color="#ff8585"/></linearGradient><linearGradient x1="320" y1="165.3053" x2="320" y2="175.07805" gradientUnits="userSpaceOnUse" id="color-3"><stop offset="0" stop-color="#7f7f7f"/><stop offset="1" stop-color="#5f5f5f"/></linearGradient><linearGradient x1="320" y1="165.3053" x2="320" y2="175.07805" gradientUnits="userSpaceOnUse" id="color-4"><stop offset="0" stop-color="#ff3874"/><stop offset="1" stop-color="#ff8585"/></linearGradient><linearGradient x1="320" y1="175.98714" x2="320" y2="189.94168" gradientUnits="userSpaceOnUse" id="color-5"><stop offset="0" stop-color="#7f7f7f"/><stop offset="1" stop-color="#404040"/></linearGradient><linearGradient x1="320" y1="175.98714" x2="320" y2="189.94168" gradientUnits="userSpaceOnUse" id="color-6"><stop offset="0" stop-color="#ff3874"/><stop offset="1" stop-color="#ff8585"/></linearGradient><linearGradient x1="310.54546" y1="167.75986" x2="310.54546" y2="172.39623" gradientUnits="userSpaceOnUse" id="color-7"><stop offset="0" stop-color="#7f7f7f"/><stop offset="1" stop-color="#5f5f5f"/></linearGradient><linearGradient x1="310.54546" y1="167.75986" x2="310.54546" y2="172.39623" gradientUnits="userSpaceOnUse" id="color-8"><stop offset="0" stop-color="#ff3874"/><stop offset="1" stop-color="#ff8585"/></linearGradient><linearGradient x1="329.54546" y1="167.75986" x2="329.54546" y2="172.39623" gradientUnits="userSpaceOnUse" id="color-9"><stop offset="0" stop-color="#7f7f7f"/><stop offset="1" stop-color="#5f5f5f"/></linearGradient><linearGradient x1="329.54546" y1="167.75986" x2="329.54546" y2="172.39623" gradientUnits="userSpaceOnUse" id="color-10"><stop offset="0" stop-color="#ff3874"/><stop offset="1" stop-color="#ff8585"/></linearGradient><linearGradient x1="329.54546" y1="186.26138" x2="329.54546" y2="196.03411" gradientUnits="userSpaceOnUse" id="color-11"><stop offset="0" stop-color="#484848"/><stop offset="1" stop-color="#262626"/></linearGradient><linearGradient x1="329.54546" y1="186.26138" x2="329.54546" y2="196.03411" gradientUnits="userSpaceOnUse" id="color-12"><stop offset="0" stop-color="#ff3874"/><stop offset="1" stop-color="#ff8585"/></linearGradient><linearGradient x1="311.5" y1="186.07956" x2="311.5" y2="195.8523" gradientUnits="userSpaceOnUse" id="color-13"><stop offset="0" stop-color="#494949"/><stop offset="1" stop-color="#262626"/></linearGradient><linearGradient x1="311.5" y1="186.07956" x2="311.5" y2="195.8523" gradientUnits="userSpaceOnUse" id="color-14"><stop offset="0" stop-color="#ff3874"/><stop offset="1" stop-color="#ff8585"/></linearGradient></defs><g transform="translate(-305.59091,-165.30532)"><g data-paper-data="{&quot;isPaintingLayer&quot;:true}" fill-rule="nonzero" stroke-width="0" stroke-linecap="butt" stroke-linejoin="miter" stroke-miterlimit="10" stroke-dasharray="" stroke-dashoffset="0" style="mix-blend-mode: normal"><g><path d="M317,178.46441v-9.77273h6.27273v9.77273z" fill="url(#color-1)" stroke="url(#color-2)"/><path d="M305.59091,175.07805v-9.77273h28.81818v9.77273z" fill="url(#color-3)" stroke="url(#color-4)"/><path d="M305.59091,189.94168v-13.95454h28.81818v13.95454z" fill="url(#color-5)" stroke="url(#color-6)"/><path d="M308.22728,170.07804c0,-1.28029 1.03788,-2.31818 2.31818,-2.31818c1.2803,0 2.31818,1.03788 2.31818,2.31818c0,1.28029 -1.03788,2.31818 -2.31818,2.31818c-1.2803,0 -2.31818,-1.03789 -2.31818,-2.31818z" fill="url(#color-7)" stroke="url(#color-8)"/><path d="M327.22728,170.07804c0,-1.28029 1.03788,-2.31818 2.31818,-2.31818c1.2803,0 2.31818,1.03788 2.31818,2.31818c0,1.28029 -1.03788,2.31818 -2.31818,2.31818c-1.2803,0 -2.31818,-1.03789 -2.31818,-2.31818z" fill="url(#color-9)" stroke="url(#color-10)"/></g><g><path d="M326.40909,196.03411v-9.77273h6.27273v9.77273z" data-paper-data="{&quot;index&quot;:null}" fill="url(#color-11)" stroke="url(#color-12)"/><path d="M308.36364,195.8523v-9.77273h6.27273v9.77273z" data-paper-data="{&quot;index&quot;:null}" fill="url(#color-13)" stroke="url(#color-14)"/></g></g></g></svg>