<svg version="1.1" xmlns="http://www.w3.org/2000/svg" xmlns:xlink="http://www.w3.org/1999/xlink" width="34.95586" height="32.12918" viewBox="0,0,34.95586,32.12918"><defs><linearGradient x1="31.40605" y1="163.93541" x2="31.40605" y2="204.04653" gradientUnits="userSpaceOnUse" id="color-1"><stop offset="0" stop-color="#5c69ff"/><stop offset="1" stop-color="#454fbf"/></linearGradient></defs><g transform="translate(-77.13881,-163.93542)"><g stroke="none" stroke-miterlimit="10"><path d="M77.13881,183.84788c0,-5.95362 0,-4.59518 0,-8.13253c0,-4.77455 6.10037,-11.77993 12.61256,-11.77993c18.02073,0 -22.83875,0 9.72318,0c7.85036,0 12.62012,5.89968 12.62012,12.53294c0,5.81881 0,4.22018 0,7.68072c0,4.81412 -4.64793,11.91552 -12.31891,11.91552c-0.34533,0 -0.69679,0 -1.05422,0c-33.10806,0 8.91335,0 -8.97016,0c-6.5122,0 -12.61256,-5.70807 -12.61256,-12.21673z" fill="url(#color-1)" stroke-width="0"/><path d="M104.27507,185.01299c-1.68712,1.26147 -3.32363,2.02679 -4.93261,2.52761c-0.3984,-0.5462 -0.75084,-1.12842 -1.05578,-1.73879c0.58075,-0.22071 1.13851,-0.49303 1.66564,-0.81072c-0.13792,-0.1033 -0.27429,-0.2113 -0.4076,-0.32242c-3.16736,1.49937 -6.65038,1.49937 -9.85604,0c-0.13177,0.11112 -0.26816,0.21912 -0.40759,0.32242c0.52559,0.31615 1.08182,0.58847 1.66257,0.80915c-0.30494,0.61195 -0.65889,1.19259 -1.05577,1.73881c-1.60743,-0.50082 -3.24243,-1.26617 -4.92955,-2.52606c-0.34478,-3.69515 0.34477,-7.44354 2.88847,-11.28739c1.26113,-0.5916 2.61112,-1.022 4.02241,-1.26617c0.17469,0.31302 0.38155,0.73404 0.52098,1.06896c1.47106,-0.22537 2.95589,-0.22537 4.45452,0c0.13947,-0.33492 0.34174,-0.75594 0.51488,-1.06896c1.40976,0.24417 2.75821,0.67299 4.01934,1.26304c2.20506,3.29294 3.30067,7.00689 2.89612,11.29052zM93.13187,180.74813c0.01685,-1.09556 -0.77229,-1.99392 -1.75148,-1.99392c-0.97916,0 -1.75147,0.89992 -1.75147,1.99392c0,1.094 0.78916,1.99237 1.75147,1.99237c0.97919,0 1.753,-0.89837 1.75148,-1.99237zM99.6045,180.74813c0.01685,-1.09556 -0.77232,-1.99392 -1.75148,-1.99392c-0.97919,0 -1.75147,0.89992 -1.75147,1.99392c0,1.094 0.78917,1.99237 1.75147,1.99237c0.97916,0 1.75148,-0.89837 1.75148,-1.99237z" fill="#f2f2f2" stroke-width="1"/></g></g></svg>