<svg version="1.1" xmlns="http://www.w3.org/2000/svg" xmlns:xlink="http://www.w3.org/1999/xlink" width="641.23877" height="414.77895" viewBox="0,0,641.23877,414.77895"><defs><linearGradient x1="320.00001" y1="-0.39528" x2="320.00001" y2="360.39528" gradientUnits="userSpaceOnUse" id="color-1"><stop offset="0" stop-color="#ffffff"/><stop offset="1" stop-color="#d9d9d9"/></linearGradient><linearGradient x1="510.33365" y1="53.82853" x2="510.33365" y2="92.49844" gradientUnits="userSpaceOnUse" id="color-2"><stop offset="0" stop-color="#606060"/><stop offset="1" stop-color="#404040"/></linearGradient><linearGradient x1="510.33365" y1="53.82853" x2="510.33365" y2="92.49844" gradientUnits="userSpaceOnUse" id="color-3"><stop offset="0" stop-color="#ff3874"/><stop offset="1" stop-color="#ff8585"/></linearGradient><linearGradient x1="509.79405" y1="39.67893" x2="509.79405" y2="78.34888" gradientUnits="userSpaceOnUse" id="color-4"><stop offset="0" stop-color="#808080"/><stop offset="1" stop-color="#5f5f5f"/></linearGradient><linearGradient x1="509.79405" y1="39.67893" x2="509.79405" y2="78.34888" gradientUnits="userSpaceOnUse" id="color-5"><stop offset="0" stop-color="#ff3874"/><stop offset="1" stop-color="#ff8585"/></linearGradient><linearGradient x1="509.79405" y1="82.69608" x2="509.79405" y2="137.91307" gradientUnits="userSpaceOnUse" id="color-6"><stop offset="0" stop-color="#606060"/><stop offset="1" stop-color="#404040"/></linearGradient><linearGradient x1="509.79405" y1="82.69608" x2="509.79405" y2="137.91307" gradientUnits="userSpaceOnUse" id="color-7"><stop offset="0" stop-color="#ff3874"/><stop offset="1" stop-color="#ff8585"/></linearGradient><linearGradient x1="472.38316" y1="49.39139" x2="472.38316" y2="67.73714" gradientUnits="userSpaceOnUse" id="color-8"><stop offset="0" stop-color="#000000"/><stop offset="1" stop-color="#5f5f5f"/></linearGradient><linearGradient x1="472.38316" y1="49.39139" x2="472.38316" y2="67.73714" gradientUnits="userSpaceOnUse" id="color-9"><stop offset="0" stop-color="#ff3874"/><stop offset="1" stop-color="#ff8585"/></linearGradient><linearGradient x1="547.56463" y1="49.39139" x2="547.56463" y2="67.73714" gradientUnits="userSpaceOnUse" id="color-10"><stop offset="0" stop-color="#000000"/><stop offset="1" stop-color="#5f5f5f"/></linearGradient><linearGradient x1="547.56463" y1="49.39139" x2="547.56463" y2="67.73714" gradientUnits="userSpaceOnUse" id="color-11"><stop offset="0" stop-color="#ff3874"/><stop offset="1" stop-color="#ff8585"/></linearGradient><linearGradient x1="325.15626" y1="117.1875" x2="325.15626" y2="343.125" gradientUnits="userSpaceOnUse" id="color-12"><stop offset="0" stop-color="#d9d9d9"/><stop offset="1" stop-color="#a6a6a6"/></linearGradient><linearGradient x1="325.15626" y1="117.1875" x2="325.15626" y2="343.125" gradientUnits="userSpaceOnUse" id="color-13"><stop offset="0" stop-color="#ff3874"/><stop offset="1" stop-color="#ff8585"/></linearGradient><linearGradient x1="547.56463" y1="101.80169" x2="547.56463" y2="140.4716" gradientUnits="userSpaceOnUse" id="color-14"><stop offset="0" stop-color="#484848"/><stop offset="1" stop-color="#262626"/></linearGradient><linearGradient x1="547.56463" y1="101.80169" x2="547.56463" y2="140.4716" gradientUnits="userSpaceOnUse" id="color-15"><stop offset="0" stop-color="#ff3874"/><stop offset="1" stop-color="#ff8585"/></linearGradient><linearGradient x1="476.1602" y1="101.08228" x2="476.1602" y2="139.75219" gradientUnits="userSpaceOnUse" id="color-16"><stop offset="0" stop-color="#494949"/><stop offset="1" stop-color="#262626"/></linearGradient><linearGradient x1="476.1602" y1="101.08228" x2="476.1602" y2="139.75219" gradientUnits="userSpaceOnUse" id="color-17"><stop offset="0" stop-color="#ff3874"/><stop offset="1" stop-color="#ff8585"/></linearGradient><linearGradient x1="628.46827" y1="27.78398" x2="611.59014" y2="10.90586" gradientUnits="userSpaceOnUse" id="color-18"><stop offset="0" stop-color="#ffe34e"/><stop offset="1" stop-color="#ff9332"/></linearGradient><linearGradient x1="608.09456" y1="19.34492" x2="631.96386" y2="19.34492" gradientUnits="userSpaceOnUse" id="color-19"><stop offset="0" stop-color="#9d7222"/><stop offset="1" stop-color="#cb952c"/></linearGradient><linearGradient x1="356.12847" y1="-54.09713" x2="356.12847" y2="102.54423" gradientUnits="userSpaceOnUse" id="color-20"><stop offset="0" stop-color="#e6e6e6"/><stop offset="1" stop-color="#cccccc"/></linearGradient><linearGradient x1="339.36195" y1="55.63244" x2="342.53024" y2="95.61825" gradientUnits="userSpaceOnUse" id="color-21"><stop offset="0" stop-color="#e6e6e6"/><stop offset="1" stop-color="#cccccc"/></linearGradient></defs><g transform="translate(0.61939,54.38367)"><g data-paper-data="{&quot;isPaintingLayer&quot;:true}" fill-rule="nonzero" stroke-linejoin="miter" stroke-miterlimit="10" stroke-dasharray="" stroke-dashoffset="0" style="mix-blend-mode: normal"><path d="M-0.61939,360.39528v-360.79056h641.23877v360.79056z" fill="url(#color-1)" stroke="#000000" stroke-width="0" stroke-linecap="butt"/><path d="M497.9233,92.49844v-38.66991h24.82069v38.66991z" fill="url(#color-2)" stroke="url(#color-3)" stroke-width="0" stroke-linecap="butt"/><path d="M452.77845,78.34888v-38.66991h114.03122v38.66991z" fill="url(#color-4)" stroke="url(#color-5)" stroke-width="0" stroke-linecap="butt"/><path d="M452.77845,137.91307v-55.21699h114.03122v55.21699z" fill="url(#color-6)" stroke="url(#color-7)" stroke-width="0" stroke-linecap="butt"/><path d="M463.21034,58.56424c0,-5.066 4.10681,-9.17285 9.17285,-9.17285c5.06604,0 9.17285,4.10681 9.17285,9.17285c0,5.066 -4.10681,9.17285 -9.17285,9.17285c-5.06604,0 -9.17285,-4.10685 -9.17285,-9.17285z" fill="url(#color-8)" stroke="url(#color-9)" stroke-width="0" stroke-linecap="butt"/><path d="M538.39181,58.56424c0,-5.066 4.10681,-9.17285 9.17285,-9.17285c5.06604,0 9.17285,4.10681 9.17285,9.17285c0,5.066 -4.10681,9.17285 -9.17285,9.17285c-5.06604,0 -9.17285,-4.10685 -9.17285,-9.17285z" fill="url(#color-10)" stroke="url(#color-11)" stroke-width="0" stroke-linecap="butt"/><path d="M29.84375,336.18453c0,-34.98238 0,-191.10241 0,-211.40143c0,-4.26774 2.51559,-7.5956 6.34827,-7.5956c34.10473,0 507.60968,0 576.05451,0c5.34726,0 8.22222,2.70024 8.22222,6.28294c0,18.77796 0,176.86438 0,212.52657c0,4.56858 -2.80775,7.12799 -8.03469,7.12799c-67.85406,0 -543.39589,0 -576.61707,0c-3.61659,0 -5.97322,-2.48987 -5.97322,-6.94047z" fill="url(#color-12)" stroke="url(#color-13)" stroke-width="0" stroke-linecap="butt"/><path d="M608.0134,230.15625h-565.7143" fill="none" stroke-opacity="0.25098" stroke="#000000" stroke-width="3.5" stroke-linecap="round"/><g stroke-width="0" stroke-linecap="butt"><path d="M535.15426,140.4716v-38.66991h24.82069v38.66991z" data-paper-data="{&quot;index&quot;:null}" fill="url(#color-14)" stroke="url(#color-15)"/><path d="M463.74992,139.75219v-38.66991h24.82069v38.66991z" data-paper-data="{&quot;index&quot;:null}" fill="url(#color-16)" stroke="url(#color-17)"/></g><g stroke-linecap="butt"><path d="M628.46827,10.90586c4.66077,4.66077 4.66077,12.21736 0,16.87813c-4.66077,4.66077 -12.21736,4.66077 -16.87813,0c-4.66077,-4.66077 -4.66077,-12.21736 0,-16.87813c4.66077,-4.66077 12.21736,-4.66077 16.87813,0z" fill="url(#color-18)" stroke="url(#color-19)" stroke-width="2"/><path d="M617.17873,26.17061c-0.68115,-0.68115 -0.24127,-0.24123 -0.65874,-0.65874c-0.67136,-0.67136 -1.06842,-2.27182 0.04282,-3.45155c0.41469,-0.44032 2.23226,-2.23226 2.9196,-2.9196c0.86879,-0.86884 2.65743,-0.66566 3.31452,-0.00857c0.41718,0.41718 -0.01495,-0.015 0.67589,0.67589c0.91629,0.91629 0.6962,2.8496 0.00857,3.53718c-0.41114,0.41118 -2.17332,2.17337 -2.83397,2.83396c-0.89427,0.89427 -2.56804,0.89213 -3.46869,-0.00857z" fill="#be8b28" stroke="none" stroke-width="1"/><path d="M613.89707,22.83076c-0.6812,-0.6812 -0.24127,-0.24127 -0.65879,-0.65874c-0.67134,-0.67136 -1.0684,-2.27182 0.04282,-3.45159c0.41474,-0.44027 2.01398,-2.01398 2.70132,-2.70132c0.86884,-0.86879 2.65743,-0.66561 3.31452,-0.00852c0.41718,0.41718 -0.01495,-0.015 0.67594,0.67589c0.91629,0.91629 0.69615,2.8496 0.00852,3.53718c-0.41114,0.41114 -1.95499,1.95504 -2.61563,2.61568c-0.89427,0.89427 -2.56804,0.89208 -3.46869,-0.00857z" fill="#be8b28" stroke="none" stroke-width="1"/><path d="M615.96981,23.44332c-2.05359,-2.05359 -2.05359,-5.38311 0,-7.43669c2.05359,-2.05359 5.38315,-2.05359 7.43674,0c2.05359,2.05359 2.05359,5.38311 0,7.43669c-2.05359,2.05359 -5.38315,2.05359 -7.43674,0z" fill="#a67b29" stroke="none" stroke-width="1"/><path d="M617.95008,23.2455c-0.6812,-0.68115 -1.39825,-1.3982 -1.81572,-1.81567c-0.67136,-0.67136 -1.06842,-2.27182 0.04282,-3.45159c0.41474,-0.44027 1.16263,-1.16263 1.84997,-1.84997c0.86879,-0.86879 2.65743,-0.66566 3.31452,-0.00857c0.41718,0.41718 1.14197,1.14197 1.83287,1.83287c0.91629,0.91629 0.69615,2.8496 0.00857,3.53718c-0.41114,0.41114 -1.10373,1.10373 -1.76433,1.76433c-0.89427,0.89427 -2.56804,0.89208 -3.46869,-0.00857z" fill="#cb952c" stroke="none" stroke-width="1"/><path d="M617.92135,21.49739c-0.68115,-0.6812 0.42156,0.42156 0.00409,0.00404c-0.67136,-0.67136 -1.06842,-2.27177 0.04282,-3.45155c0.2858,-0.30348 3.57523,-3.59491 4.51446,-4.5337c0.42346,-0.42331 1.13199,-0.31045 1.45398,0.01154c0.38824,0.38824 1.35782,1.35777 2.03473,2.03469c0.4107,0.4107 0.43359,0.98741 0.02772,1.38461c-0.90036,0.88112 -4.15374,4.10357 -4.60911,4.55893c-0.89427,0.89427 -2.56804,0.89208 -3.46869,-0.00857z" fill="#9e7627" stroke="none" stroke-width="1"/></g><path d="M337.17605,-54.38367l6.91533,0.3502l-0.01077,125.40117l-6.91026,0.27916z" fill="url(#color-20)" stroke="none" stroke-width="0" stroke-linecap="butt"/><path d="M260.49827,81.85613c-0.47026,-5.93502 -0.36296,-4.58083 -0.64237,-8.10713c-0.37713,-4.75963 5.15084,-12.22498 11.64268,-12.73936c17.96443,-1.42342 103.25901,-8.18177 135.71921,-10.75376c7.82583,-0.62008 13.04669,4.88441 13.57064,11.49695c0.45962,5.80063 0.33334,4.20699 0.60668,7.65672c0.38026,4.79908 -3.69223,12.24542 -11.33924,12.85133c-0.34425,0.02728 -0.69461,0.05504 -1.05093,0.08327c-33.00462,2.61513 -117.14091,9.2817 -134.96854,10.69428c-6.49185,0.51438 -13.02402,-4.694 -13.53813,-11.18232z" fill="url(#color-21)" stroke="none" stroke-width="0" stroke-linecap="butt"/><text transform="translate(325.37196,77.22947) rotate(-4.53058) scale(0.37789,0.37789)" font-size="40" xml:space="preserve" fill="#000000" fill-rule="nonzero" stroke="#000000" stroke-width="1" stroke-linecap="butt" stroke-linejoin="miter" stroke-miterlimit="10" stroke-dasharray="" stroke-dashoffset="0" font-family="Handwriting" font-weight="normal" text-anchor="start" style="mix-blend-mode: normal"><tspan x="0" dy="0">Shop</tspan></text></g></g></svg>