<svg version="1.1" xmlns="http://www.w3.org/2000/svg" xmlns:xlink="http://www.w3.org/1999/xlink" width="1474.20013" height="662.28716" viewBox="0,0,1474.20013,662.28716"><g transform="translate(432.79195,187.96537)"><g data-paper-data="{&quot;isPaintingLayer&quot;:true}" fill-rule="nonzero" stroke="none" stroke-width="0" stroke-linecap="butt" stroke-linejoin="miter" stroke-miterlimit="10" stroke-dasharray="" stroke-dashoffset="0" style="mix-blend-mode: normal"><path d="M0.73595,469.32179h-7.93651v-657.28716h7.93651z" fill="#313131"/><path d="M645.70706,-6.91919v7.93651h-657.28716v-7.93651z" fill="#313131"/><path d="M646.42859,474.32179h-7.93651v-657.28716h7.93651z" fill="#313131"/><path d="M639.88456,360.27417v7.93651h-657.28716v-7.93651z" fill="#313131"/><path d="M-432.79195,125.67821c0,-24.21167 202.0502,-43.8391 451.29195,-43.8391c249.24164,0 451.29195,19.62743 451.29195,43.8391c0,24.21167 -202.0502,43.83911 -451.29195,43.83911c-249.24164,0 -451.29195,-19.62744 -451.29195,-43.83911z" fill="#313131"/><path d="M235.57597,358.27416c0,-42.16093 180.39161,-76.3391 402.91611,-76.3391c222.5244,0 402.9161,34.17817 402.9161,76.3391c0,42.16093 -180.39161,76.33911 -402.9161,76.33911c-222.5244,0 -402.91611,-34.17819 -402.91611,-76.33911z" fill="#313131"/></g></g></svg>