<svg version="1.1" xmlns="http://www.w3.org/2000/svg" xmlns:xlink="http://www.w3.org/1999/xlink" width="663.8312" height="662.28716" viewBox="0,0,663.8312,662.28716"><defs><linearGradient x1="319.98605" y1="23.23479" x2="319.98605" y2="63.56694" gradientTransform="translate(-205.38212,-61.1983) scale(1.14426,1.14426)" gradientUnits="userSpaceOnUse" id="color-1"><stop offset="0" stop-color="#00c1ff"/><stop offset="1" stop-color="#0099ff"/></linearGradient><linearGradient x1="319.98605" y1="23.23479" x2="319.98605" y2="63.56694" gradientTransform="translate(-205.38212,-61.1983) scale(1.14426,1.14426)" gradientUnits="userSpaceOnUse" id="color-2"><stop offset="0" stop-color="#00bfff"/><stop offset="1" stop-color="#0098ff"/></linearGradient></defs><g transform="translate(17.4026,187.96537)"><g data-paper-data="{&quot;isPaintingLayer&quot;:true}" fill-rule="nonzero" stroke-linecap="butt" stroke-linejoin="miter" stroke-miterlimit="10" stroke-dasharray="" stroke-dashoffset="0" style="mix-blend-mode: normal"><text transform="translate(193.89004,78) scale(0.5,0.5)" font-size="40" xml:space="preserve" fill="#000000" fill-rule="nonzero" stroke="none" stroke-width="1" stroke-linecap="butt" stroke-linejoin="miter" stroke-miterlimit="10" stroke-dasharray="" stroke-dashoffset="0" font-family="Sans Serif" font-weight="normal" text-anchor="start" style="mix-blend-mode: normal"><tspan x="0" dy="0">More Levels Coming Soon!</tspan></text><path d="M0.736,469.32179h-7.93651v-657.28716h7.93651z" fill="#313131" stroke="none" stroke-width="0"/><path d="M645.70706,-6.91919v7.93651h-657.28716v-7.93651z" fill="#313131" stroke="none" stroke-width="0"/><path d="M646.4286,474.32179h-7.93651v-657.28716h7.93651z" fill="#313131" stroke="none" stroke-width="0"/><path d="M639.88456,358.27417v7.93651h-657.28716v-7.93651z" fill="#313131" stroke="none" stroke-width="0"/><path d="M-4.98697,362v-141h171v141z" fill="#313131" stroke="none" stroke-width="0"/><path d="M234.50001,327.46667c0,-5.72233 0,-10.82774 0,-14.4c0,-5.0302 5.83178,-12.73333 12.2,-12.73333c18.9444,0 114.61315,0 147.6,0c7.01899,0 11.2,7.55873 11.2,12.53333c0,3.59514 0,10.20465 0,16c0,6.00352 -5.15105,11.13333 -10.2,11.13333c-17.59977,0 -117.4605,0 -149.4,0c-6.05137,0 -11.4,-6.53669 -11.4,-12.53333z" fill="#313131" stroke="none" stroke-width="0"/><path d="M469.01305,362v-141h171v141z" fill="#313131" stroke="none" stroke-width="0"/><text transform="translate(179.4896,53.48303) scale(0.87393,0.87393)" font-size="40" xml:space="preserve" fill="url(#color-1)" fill-rule="nonzero" stroke="url(#color-2)" stroke-width="3" stroke-linecap="butt" stroke-linejoin="miter" stroke-miterlimit="10" stroke-dasharray="" stroke-dashoffset="0" font-family="Sans Serif" font-weight="normal" text-anchor="start" style="mix-blend-mode: normal"><tspan x="0" dy="0">Tank Ball Physics</tspan></text></g></g></svg>