<svg version="1.1" xmlns="http://www.w3.org/2000/svg" xmlns:xlink="http://www.w3.org/1999/xlink" width="658.4127" height="374" viewBox="0,0,658.4127,374"><defs><linearGradient x1="320" y1="-7" x2="320" y2="367" gradientUnits="userSpaceOnUse" id="color-1"><stop offset="0" stop-color="#ffffff"/><stop offset="1" stop-color="#d9d9d9"/></linearGradient><linearGradient x1="249.99999" y1="11.59186" x2="249.99999" y2="296.87749" gradientUnits="userSpaceOnUse" id="color-2"><stop offset="0" stop-color="#d9d9d9" stop-opacity="0.90196"/><stop offset="1" stop-color="#bfbfbf" stop-opacity="0.90196"/></linearGradient></defs><g transform="translate(9.20635,7)"><g data-paper-data="{&quot;isPaintingLayer&quot;:true}" fill-rule="nonzero" stroke-linecap="butt" stroke-linejoin="miter" stroke-miterlimit="10" stroke-dasharray="" stroke-dashoffset="0" style="mix-blend-mode: normal"><path d="M-9.20635,367v-374h658.4127v374z" fill="url(#color-1)" stroke="#000000" stroke-width="0"/><path d="M14.49999,63.23463c0,-2.58344 4.54887,-12.12948 12.10429,-12.1121c69.2649,0.15932 563.55823,0.96925 587.25287,0.96925c4.20177,0 12.64286,1.39235 12.64286,11.2381c0,10.15682 -0.12195,207.49962 -0.12195,226.2561c0,7.24057 -6.24341,12.04762 -12.47619,12.04762c-14.66633,0 -563.32809,0 -588.5,0c-6.8111,0 -11.02381,-4.65942 -11.02381,-11.71429c0,0 0.12193,-216.48646 0.12193,-226.68468z" fill="url(#color-2)" stroke="none" stroke-width="0"/><text transform="translate(18.89382,31.93135) scale(0.55571,0.55571)" font-size="40" xml:space="preserve" fill-opacity="0.90196" fill="#000000" fill-rule="nonzero" stroke="none" stroke-width="1" stroke-linecap="butt" stroke-linejoin="miter" stroke-miterlimit="10" stroke-dasharray="" stroke-dashoffset="0" font-family="&quot;Segoe UI Variable Display&quot;, Sans Serif" font-weight="normal" text-anchor="start" style="mix-blend-mode: normal"><tspan x="0" dy="0">Something Went Wrong!</tspan></text><text transform="translate(504.05463,351.93135) scale(0.22238,0.22238)" font-size="40" xml:space="preserve" fill-opacity="0.90196" fill="#000000" fill-rule="nonzero" stroke="none" stroke-width="1" stroke-linecap="butt" stroke-linejoin="miter" stroke-miterlimit="10" stroke-dasharray="" stroke-dashoffset="0" font-family="&quot;Segoe UI Variable Display&quot;, Sans Serif" font-weight="normal" text-anchor="start" style="mix-blend-mode: normal"><tspan x="0" dy="0">Tank Ball Physics Error Report v1.3</tspan></text></g></g></svg>