<svg version="1.1" xmlns="http://www.w3.org/2000/svg" xmlns:xlink="http://www.w3.org/1999/xlink" width="829.64245" height="829.64245" viewBox="0,0,829.64245,829.64245"><defs><radialGradient cx="320.00002" cy="180.00003" r="414.82123" gradientUnits="userSpaceOnUse" id="color-1"><stop offset="0" stop-color="#000000" stop-opacity="0.50196"/><stop offset="1" stop-color="#000000" stop-opacity="0"/></radialGradient><linearGradient x1="368.00007" y1="-20.45862" x2="368.00007" y2="264.82702" gradientUnits="userSpaceOnUse" id="color-2"><stop offset="0" stop-color="#d9d9d9" stop-opacity="0.90196"/><stop offset="1" stop-color="#bfbfbf" stop-opacity="0.90196"/></linearGradient></defs><g transform="translate(94.8212,234.8212)"><g stroke-miterlimit="10"><path d="M-94.82119,594.82125v-829.64244h829.64245v829.64245z" fill="url(#color-1)" stroke="#000000" stroke-width="0"/><path d="M132.50001,31.18417c0,-2.58344 4.54887,-12.12948 12.10429,-12.1121c69.2649,0.15932 326.55823,0.96925 350.25287,0.96925c4.20177,0 12.64286,1.39235 12.64286,11.2381c0,10.15682 0,278.84447 0,297.60095c0,7.24057 -6.24341,12.04762 -12.47619,12.04762c-14.66633,0 -326.32809,0 -351.5,0c-6.8111,0 -11.02381,-4.65942 -11.02381,-11.71429c0,0 -0.00002,-287.83131 -0.00002,-298.02953z" fill="url(#color-2)" stroke="none" stroke-width="0"/><text transform="translate(148,50.02359) scale(0.5,0.5)" font-size="40" xml:space="preserve" fill="#000000" stroke="#000000" stroke-width="1" font-family="Sans Serif" font-weight="normal" text-anchor="start"><tspan x="0" dy="0">Sign into Tank Ball Physics</tspan></text><text transform="translate(148,72.00356) scale(0.27679,0.27679)" font-size="40" xml:space="preserve" fill="#000000" stroke="#000000" stroke-width="0" font-family="Sans Serif" font-weight="normal" text-anchor="start"><tspan x="0" dy="0">Please paste your Tank Ball Physics Link code here</tspan></text><text transform="translate(148,204.87237) scale(0.27679,0.27679)" font-size="40" xml:space="preserve" fill="#000000" stroke="#000000" stroke-width="0" font-family="Sans Serif" font-weight="normal" text-anchor="start"><tspan x="0" dy="0">1. Visit https://colebohte.github.io/river-services/account</tspan><tspan x="0" dy="48px">2. Enable the "Tank Ball Physics" service</tspan><tspan x="0" dy="48px">3. Click "Copy" under the link code</tspan><tspan x="0" dy="48px">4. Click the "Paste Code" button in Tank Ball Physics</tspan></text><text transform="translate(148,183.5745) scale(0.5,0.5)" font-size="40" xml:space="preserve" fill="#000000" stroke="#000000" stroke-width="1" font-family="Sans Serif" font-weight="normal" text-anchor="start"><tspan x="0" dy="0">How to find my link code?</tspan></text></g></g></svg>