<svg version="1.1" xmlns="http://www.w3.org/2000/svg" xmlns:xlink="http://www.w3.org/1999/xlink" width="266.9801" height="263.31307" viewBox="0,0,266.9801,263.31307"><defs><linearGradient x1="270.06451" y1="280.20159" x2="270.06451" y2="294.84063" gradientUnits="userSpaceOnUse" id="color-1"><stop offset="0" stop-color="#00ff9b" stop-opacity="0"/><stop offset="1" stop-color="#00ff9b"/></linearGradient><linearGradient x1="269.83378" y1="287.52111" x2="269.83378" y2="312.11614" gradientUnits="userSpaceOnUse" id="color-2"><stop offset="0" stop-color="#00ffb5"/><stop offset="1" stop-color="#00ff61"/></linearGradient><linearGradient x1="218.14835" y1="79.62525" x2="208.33974" y2="92.50033" gradientUnits="userSpaceOnUse" id="color-3"><stop offset="0" stop-color="#424242"/><stop offset="1" stop-color="#363636"/></linearGradient><linearGradient x1="224.39487" y1="71.5737" x2="214.58627" y2="84.44877" gradientUnits="userSpaceOnUse" id="color-4"><stop offset="0" stop-color="#424242"/><stop offset="1" stop-color="#363636"/></linearGradient><linearGradient x1="226.83998" y1="77.60334" x2="217.03138" y2="90.4784" gradientUnits="userSpaceOnUse" id="color-5"><stop offset="0" stop-color="#424242"/><stop offset="1" stop-color="#333333"/></linearGradient><linearGradient x1="230.60192" y1="77.03182" x2="220.79332" y2="89.9069" gradientUnits="userSpaceOnUse" id="color-6"><stop offset="0" stop-color="#808080"/><stop offset="1" stop-color="#666666"/></linearGradient><linearGradient x1="252.54773" y1="179.43436" x2="248.46986" y2="193.45351" gradientUnits="userSpaceOnUse" id="color-7"><stop offset="0" stop-color="#bf0000"/><stop offset="1" stop-color="#400000"/></linearGradient><linearGradient x1="253.17651" y1="177.21808" x2="248.45521" y2="193.44925" gradientUnits="userSpaceOnUse" id="color-8"><stop offset="0" stop-color="#333333"/><stop offset="1" stop-color="#1a1a1a"/></linearGradient><linearGradient x1="189.39677" y1="156.09188" x2="300.20762" y2="156.09188" gradientUnits="userSpaceOnUse" id="color-9"><stop offset="0" stop-color="#333333"/><stop offset="1" stop-color="#1a1a1a"/></linearGradient><linearGradient x1="350.55366" y1="230.93065" x2="239.74281" y2="230.93065" gradientUnits="userSpaceOnUse" id="color-10"><stop offset="0" stop-color="#333333"/><stop offset="1" stop-color="#1a1a1a"/></linearGradient><linearGradient x1="286.97851" y1="104.72596" x2="291.37194" y2="118.64945" gradientUnits="userSpaceOnUse" id="color-11"><stop offset="0" stop-color="#bf0000"/><stop offset="1" stop-color="#400000"/></linearGradient><linearGradient x1="286.27074" y1="102.53362" x2="291.35739" y2="118.65404" gradientUnits="userSpaceOnUse" id="color-12"><stop offset="0" stop-color="#333333"/><stop offset="1" stop-color="#1a1a1a"/></linearGradient></defs><g transform="translate(-189.14515,-48.76493)"><g data-paper-data="{&quot;isPaintingLayer&quot;:true}" fill-rule="nonzero" stroke-linecap="butt" stroke-linejoin="miter" stroke-miterlimit="10" stroke-dasharray="" stroke-dashoffset="0" style="mix-blend-mode: normal"><path d="M189.1764,299.01835c0,-5.95362 0,-234.93614 0,-238.47349c0,-4.77455 6.10037,-11.77993 12.61256,-11.77993c18.02073,0 103.58265,0 136.14458,0c7.85036,0 12.62012,5.89968 12.62012,12.53294c0,5.81881 0,234.56114 0,238.02168c0,4.81412 -4.64793,11.91552 -12.31891,11.91552c-0.34533,0 -0.69679,0 -1.05422,0c-33.10806,0 -117.50805,0 -135.39156,0c-6.5122,0 -12.61256,-5.70807 -12.61256,-12.21673z" fill="#e6e6e6" stroke="none" stroke-width="0"/><text transform="translate(368.15247,82.904) scale(0.57331,0.57331)" font-size="40" xml:space="preserve" fill="#000000" fill-rule="nonzero" stroke="none" stroke-width="1" stroke-linecap="butt" stroke-linejoin="miter" stroke-miterlimit="10" stroke-dasharray="" stroke-dashoffset="0" font-family="Sans Serif" font-weight="normal" text-anchor="start" style="mix-blend-mode: normal"><tspan x="0" dy="0">Hard</tspan></text><text transform="translate(368.15239,103.0101) scale(0.37099,0.37099)" font-size="40" xml:space="preserve" fill="#000000" fill-rule="nonzero" stroke="none" stroke-width="1" stroke-linecap="butt" stroke-linejoin="miter" stroke-miterlimit="10" stroke-dasharray="" stroke-dashoffset="0" font-family="Sans Serif" font-weight="normal" text-anchor="start" style="mix-blend-mode: normal"><tspan x="0" dy="0">Harder</tspan></text><text transform="translate(367.474,135.31699) scale(0.47686,0.47686)" font-size="40" xml:space="preserve" fill="#000000" fill-rule="nonzero" stroke="none" stroke-width="1" stroke-linecap="butt" stroke-linejoin="miter" stroke-miterlimit="10" stroke-dasharray="" stroke-dashoffset="0" font-family="Sans Serif" font-weight="normal" text-anchor="start" style="mix-blend-mode: normal"><tspan x="0" dy="0">Complete</tspan></text><path d="M189.62132,294.84063v-14.63904h160.88638v14.63904z" fill="url(#color-1)" stroke="#000000" stroke-width="0"/><path d="M189.16964,299.98126c-0.00828,-3.88316 -0.02449,-11.49344 -0.02449,-11.49344l161.32691,-0.96671c0,0 0.0576,8.33471 0.02634,12.35926c-0.04245,5.46349 -3.24615,11.161 -13.27178,11.35782c-19.32181,0.37932 -106.5022,0.72693 -137.25272,0.83975c-6.74782,0.02476 -10.79574,-8.10662 -10.80425,-12.09667z" fill="url(#color-2)" stroke="none" stroke-width="0"/><path d="M239.91314,292.06421c0,-2.87716 0,-7.65793 0,-9.00232c0,-0.6957 0.4686,-1.12168 1.19976,-0.66632c2.21014,1.37649 6.81926,4.24708 8.13583,5.06705c0.68653,0.42758 0.54693,1.38252 -0.22986,1.8118c-1.29508,0.7157 -5.36754,2.96627 -7.60196,4.20108c-0.90148,0.49818 -1.50377,-0.08913 -1.50377,-1.41129z" fill="#000000" stroke="none" stroke-width="0"/><text transform="translate(206.90137,292.38104) scale(0.37099,0.37099)" font-size="40" xml:space="preserve" fill="#000000" fill-rule="nonzero" stroke="none" stroke-width="1" stroke-linecap="butt" stroke-linejoin="miter" stroke-miterlimit="10" stroke-dasharray="" stroke-dashoffset="0" font-family="Sans Serif" font-weight="normal" text-anchor="start" style="mix-blend-mode: normal"><tspan x="0" dy="0">Play</tspan></text><g stroke="none" stroke-width="0"><path d="M207.30307,80.50671c1.27054,-1.66776 0.45002,-0.59071 1.22874,-1.61287c1.25221,-1.6437 4.58824,-2.96671 7.45672,-0.91398c1.0705,0.76606 5.46532,4.16364 7.14815,5.44567c2.12713,1.6205 2.21047,5.53742 0.98486,7.14619c-0.77812,1.02139 0.02792,-0.03666 -1.26069,1.65481c-1.70908,2.2434 -5.94293,2.33234 -7.62646,1.04979c-1.00662,-0.76687 -5.32103,-4.05371 -6.93846,-5.28592c-2.1895,-1.66803 -2.67279,-5.27857 -0.99286,-7.48368z" fill="url(#color-3)"/><path d="M213.5496,72.45515c1.27054,-1.66776 0.45002,-0.59071 1.22874,-1.61287c1.25221,-1.6437 4.58824,-2.96671 7.45672,-0.91398c1.0705,0.76606 4.93086,3.75648 6.6137,5.03851c2.12713,1.6205 2.21047,5.53742 0.98486,7.14619c-0.77812,1.02139 0.02792,-0.03666 -1.26069,1.65481c-1.70908,2.2434 -5.94293,2.33234 -7.62646,1.04979c-1.00662,-0.76687 -4.78658,-3.64655 -6.40401,-4.87876c-2.1895,-1.66803 -2.67279,-5.27857 -0.99286,-7.48368z" fill="url(#color-4)"/><path d="M212.83278,77.10422c3.83037,-5.02787 11.01141,-5.99863 16.03927,-2.16825c5.02787,3.83037 5.99863,11.01141 2.16825,16.03927c-3.83037,5.02787 -11.01141,5.99863 -16.03927,2.16825c-5.02787,-3.83037 -5.99863,-11.01141 -2.16825,-16.03927z" fill="#595959"/><path d="M213.83674,81.31736c1.27054,-1.66776 2.60797,-3.42331 3.38668,-4.44546c1.25221,-1.6437 4.58824,-2.96671 7.45672,-0.91398c1.0705,0.76606 2.84651,2.16856 4.52934,3.45058c2.12713,1.6205 2.21047,5.53742 0.98486,7.14619c-0.77812,1.02139 -2.13003,2.79594 -3.41863,4.48741c-1.70908,2.2434 -5.94293,2.33234 -7.62646,1.04979c-1.00662,-0.76687 -2.70222,-2.05863 -4.31965,-3.29083c-2.1895,-1.66803 -2.67279,-5.27857 -0.99286,-7.48368z" fill="url(#color-5)"/><path d="M217.59871,80.74586c1.27054,-1.66776 -0.78629,1.0321 -0.00757,0.00994c1.25221,-1.6437 4.58824,-2.96671 7.45672,-0.91398c0.73783,0.528 8.79575,6.6628 11.09439,8.41481c1.03643,0.78996 0.99966,2.35094 0.39907,3.1393c-0.72414,0.95053 -2.53259,3.32437 -3.79515,4.98164c-0.76603,1.00551 -2.00317,1.22307 -2.97818,0.46351c-2.16292,-1.68496 -10.06155,-7.7622 -11.17641,-8.61154c-2.1895,-1.66803 -2.67279,-5.27857 -0.99286,-7.48368z" fill="url(#color-6)"/></g><path d="M242.02762,189.43117c2.64887,-2.74972 7.8302,-8.22312 9.25576,-9.70294c0.68031,-0.70621 1.61268,-0.4066 1.833,0.58199c0.4488,2.01372 2.10398,9.44037 2.94975,13.23523c0.30496,1.3683 -0.65123,1.92821 -1.70621,1.62134c-1.97176,-0.57354 -8.51414,-2.47658 -11.8728,-3.45353c-1.16671,-0.33937 -1.36622,-1.34083 -0.45949,-2.28208z" fill="url(#color-7)" stroke="url(#color-8)" stroke-width="3"/><path d="M189.39677,163.4114v-14.63904l110.81086,-31.66024l5.12151,12.31108z" fill="#313131" stroke="url(#color-9)" stroke-width="0"/><path d="M234.6213,204.26197l5.12151,-12.31108l110.81085,31.66025v14.63904z" data-paper-data="{&quot;index&quot;:null}" fill="#313131" stroke="url(#color-10)" stroke-width="0"/><path d="M283.78064,118.88162c0.67603,-3.75772 1.94573,-11.18686 2.30955,-13.20917c0.17362,-0.9651 1.11541,-1.23366 1.84759,-0.53385c1.49146,1.4255 6.99199,6.68277 9.80265,9.36912c1.01343,0.96861 0.52914,1.96523 -0.51864,2.29585c-1.9583,0.61793 -8.45604,2.66823 -11.79177,3.7208c-1.15875,0.36563 -1.88078,-0.35645 -1.64937,-1.64275z" fill="url(#color-11)" stroke="url(#color-12)" stroke-width="3"/><path d="M251.74523,111.3898c0,-3.16035 2.56197,-5.72232 5.72232,-5.72232c3.16035,0 5.72232,2.56197 5.72232,5.72232c0,3.16035 -2.56197,5.72232 -5.72232,5.72232c-3.16035,0 -5.72232,-2.56197 -5.72232,-5.72232z" fill="#595959" stroke="none" stroke-width="0"/><path d="M305.32914,164.81135c0,-3.16035 2.56197,-5.72232 5.72232,-5.72232c3.16035,0 5.72232,2.56197 5.72232,5.72232c0,3.16035 -2.56197,5.72232 -5.72232,5.72232c-3.16035,0 -5.72232,-2.56197 -5.72232,-5.72232z" fill="#595959" stroke="none" stroke-width="0"/></g></g></svg>