<svg version="1.1" xmlns="http://www.w3.org/2000/svg" xmlns:xlink="http://www.w3.org/1999/xlink" width="572.18524" height="312.17148" viewBox="0,0,572.18524,312.17148"><defs><linearGradient x1="269.40898" y1="50.8001" x2="269.40898" y2="336.08573" gradientUnits="userSpaceOnUse" id="color-1"><stop offset="0" stop-color="#d9d9d9" stop-opacity="0.90196"/><stop offset="1" stop-color="#bfbfbf" stop-opacity="0.90196"/></linearGradient><linearGradient x1="64.70599" y1="213.75899" x2="47.82787" y2="196.88087" gradientUnits="userSpaceOnUse" id="color-2"><stop offset="0" stop-color="#ffe34e"/><stop offset="1" stop-color="#ff9332"/></linearGradient><linearGradient x1="44.33229" y1="205.31993" x2="68.20157" y2="205.31993" gradientUnits="userSpaceOnUse" id="color-3"><stop offset="0" stop-color="#9d7222"/><stop offset="1" stop-color="#cb952c"/></linearGradient><radialGradient cx="56.26693" cy="238.26783" r="12" gradientUnits="userSpaceOnUse" id="color-4"><stop offset="0" stop-color="#591717"/><stop offset="1" stop-color="#591717" stop-opacity="0"/></radialGradient><linearGradient x1="57.02995" y1="259.63767" x2="57.02995" y2="281.98088" gradientUnits="userSpaceOnUse" id="color-5"><stop offset="0" stop-color="#7f7f7f"/><stop offset="1" stop-color="#1a1a1a"/></linearGradient><linearGradient x1="378.16921" y1="80.10361" x2="378.16921" y2="120.21473" gradientUnits="userSpaceOnUse" id="color-6"><stop offset="0" stop-color="#e6e6e6"/><stop offset="1" stop-color="#cccccc"/></linearGradient></defs><g transform="translate(-33.90738,-23.91426)"><g stroke-miterlimit="10"><path d="M33.90898,324.37144c0,-18.7 0.15342,-279.22082 0,-289.41789c-0.09762,-6.48837 4.29258,-11.05599 11.57562,-11.03924c68.21606,0.15692 524.22157,1.22517 547.96483,1.01082c8.99006,-0.08116 12.68344,2.30518 12.64286,11.19752c-0.04635,10.15671 0,269.15898 0,287.91546c0,7.24057 -6.24341,12.04762 -12.47619,12.04762c-14.66633,0 -523.51137,0 -548.68328,0c-6.8111,0 -11.02381,-4.65942 -11.02381,-11.71429z" fill="url(#color-1)" stroke="none" stroke-width="0"/><path d="M33.90898,324.37144c0,-18.7 0.15342,-279.22082 0,-289.41789c-0.09762,-6.48837 4.29258,-11.05599 11.57562,-11.03924c68.21607,0.15692 107.00767,0.5933 130.75092,0.37896c8.99006,-0.08115 12.68344,2.93705 12.64286,11.82939c-0.04635,10.15671 0,269.15898 0,287.91546c0,7.24057 -6.24341,12.04762 -12.47619,12.04762c-14.66633,0 -106.29747,0 -131.46938,0c-6.8111,0 -11.02381,-4.65942 -11.02381,-11.71429z" fill="#e6e6e6" stroke="none" stroke-width="0"/><g><path d="M64.70599,196.88087c4.66077,4.66077 4.66077,12.21736 0,16.87813c-4.66077,4.66077 -12.21736,4.66077 -16.87813,0c-4.66077,-4.66077 -4.66077,-12.21736 0,-16.87813c4.66077,-4.66077 12.21736,-4.66077 16.87813,0z" fill="url(#color-2)" stroke="url(#color-3)" stroke-width="2"/><path d="M53.41645,212.14562c-0.68115,-0.68115 -0.24127,-0.24123 -0.65874,-0.65874c-0.67136,-0.67136 -1.06842,-2.27182 0.04282,-3.45155c0.41469,-0.44032 2.23226,-2.23226 2.9196,-2.9196c0.86879,-0.86884 2.65743,-0.66566 3.31452,-0.00857c0.41718,0.41718 -0.01495,-0.015 0.67589,0.67589c0.91629,0.91629 0.6962,2.8496 0.00857,3.53718c-0.41114,0.41118 -2.17332,2.17337 -2.83397,2.83396c-0.89427,0.89427 -2.56804,0.89213 -3.46869,-0.00857z" fill="#be8b28" stroke="none" stroke-width="1"/><path d="M50.13481,208.80577c-0.6812,-0.6812 -0.24127,-0.24127 -0.65879,-0.65874c-0.67134,-0.67136 -1.0684,-2.27182 0.04282,-3.45159c0.41474,-0.44027 2.01398,-2.01398 2.70132,-2.70132c0.86884,-0.86879 2.65743,-0.66561 3.31452,-0.00852c0.41718,0.41718 -0.01495,-0.015 0.67594,0.67589c0.91629,0.91629 0.69615,2.8496 0.00852,3.53718c-0.41114,0.41114 -1.95499,1.95504 -2.61563,2.61568c-0.89427,0.89427 -2.56804,0.89208 -3.46869,-0.00857z" fill="#be8b28" stroke="none" stroke-width="1"/><path d="M52.20754,209.41833c-2.05359,-2.05359 -2.05359,-5.38311 0,-7.43669c2.05359,-2.05359 5.38315,-2.05359 7.43674,0c2.05359,2.05359 2.05359,5.38311 0,7.43669c-2.05359,2.05359 -5.38315,2.05359 -7.43674,0z" fill="#a67b29" stroke="none" stroke-width="1"/><path d="M54.18777,209.22051c-0.6812,-0.68115 -1.39825,-1.3982 -1.81572,-1.81567c-0.67136,-0.67136 -1.06842,-2.27182 0.04282,-3.45159c0.41474,-0.44027 1.16263,-1.16263 1.84997,-1.84997c0.86879,-0.86879 2.65743,-0.66566 3.31452,-0.00857c0.41718,0.41718 1.14197,1.14197 1.83287,1.83287c0.91629,0.91629 0.69615,2.8496 0.00857,3.53718c-0.41114,0.41114 -1.10373,1.10373 -1.76433,1.76433c-0.89427,0.89427 -2.56804,0.89208 -3.46869,-0.00857z" fill="#cb952c" stroke="none" stroke-width="1"/><path d="M54.15908,207.4724c-0.68115,-0.6812 0.42156,0.42156 0.00409,0.00404c-0.67136,-0.67136 -1.06842,-2.27177 0.04282,-3.45155c0.2858,-0.30348 3.57523,-3.59491 4.51446,-4.5337c0.42346,-0.42331 1.13199,-0.31045 1.45398,0.01154c0.38824,0.38824 1.35782,1.35777 2.03473,2.03469c0.4107,0.4107 0.43359,0.98741 0.02772,1.38461c-0.90036,0.88112 -4.15374,4.10357 -4.60911,4.55893c-0.89427,0.89427 -2.56804,0.89208 -3.46869,-0.00857z" fill="#9e7627" stroke="none" stroke-width="1"/></g><g stroke="none" stroke-width="0"><path d="M44.26692,238.26783c0,-6.62741 5.37259,-12 12,-12c6.62741,0 12,5.37259 12,12c0,6.62741 -5.37259,12 -12,12c-6.62741,0 -12,-5.37259 -12,-12z" fill="url(#color-4)"/><path d="M47.59274,238.26783c0,-4.79062 3.88357,-8.67419 8.67419,-8.67419c4.79062,0 8.67419,3.88357 8.67419,8.67419c0,4.79062 -3.88357,8.67419 -8.67419,8.67419c-4.79062,0 -8.67419,-3.88357 -8.67419,-8.67419z" fill="#591717"/></g><path d="M45.85834,281.98088l1.85043,-3.82974l-3.3765,-3.61998l6.64,-1.43958l-4.92479,-3.17059l3.46617,-2.17174l-3.43984,-2.96256l-0.21546,-5.14902l2.59612,3.06563l2.01614,-3.06563l3.17611,2.84469l1.9609,-2.84469l-1.41181,4.2834l2.48892,2.12405l-0.10174,-3.02491l2.34016,3.48699l3.77893,0.98471l1.92574,-5.84481l3.57376,-2.00943l-2.40279,7.07029l2.26121,3.488l-4.13337,-0.10025l1.28981,3.76134l-2.2728,3.16046l5.25793,4.96337l-7.3478,-0.74079l-1.71101,-1.63438l-3.42842,2.71086l-1.69669,-3.71943l-3.29993,-2.05615l-0.86703,3.90312z" fill="url(#color-5)" stroke="#4a4a4a" stroke-width="0"/><text transform="translate(47.41647,53.3491) scale(0.43473,0.43473)" font-size="40" xml:space="preserve" fill="#000000" stroke="#000000" stroke-width="1" font-family="Sans Serif" font-weight="normal" text-anchor="start"><tspan x="0" dy="0">Account Viewer</tspan></text><path d="M297.48058,100.01608c0,-5.95362 0,-4.59518 0,-8.13253c0,-4.77455 6.10037,-11.77993 12.61256,-11.77993c18.02073,0 203.91598,0 236.47791,0c7.85036,0 12.62012,5.89968 12.62012,12.53294c0,5.81881 0,4.22018 0,7.68072c0,4.81412 -4.64793,11.91552 -12.31891,11.91552c-0.34533,0 -0.69679,0 -1.05422,0c-33.10806,0 -217.84138,0 -235.72489,0c-6.5122,0 -12.61256,-5.70807 -12.61256,-12.21673z" fill="url(#color-6)" stroke="none" stroke-width="0"/><text transform="translate(198.82099,101.38497) scale(0.43473,0.43473)" font-size="40" xml:space="preserve" fill="#000000" stroke="none" stroke-width="1" font-family="Sans Serif" font-weight="normal" text-anchor="start"><tspan x="0" dy="0">Username:</tspan></text><text transform="translate(198.82099,138.19386) scale(0.43473,0.43473)" font-size="40" xml:space="preserve" fill="#000000" stroke="none" stroke-width="1" font-family="Sans Serif" font-weight="normal" text-anchor="start"><tspan x="0" dy="0">Reigon:</tspan></text></g></g></svg>