<svg version="1.1" xmlns="http://www.w3.org/2000/svg" xmlns:xlink="http://www.w3.org/1999/xlink" width="135.70358" height="32.66792" viewBox="0,0,135.70358,32.66792"><defs><linearGradient x1="320" y1="163.66604" x2="320" y2="196.33394" gradientUnits="userSpaceOnUse" id="color-1"><stop offset="0" stop-color="#ff3874"/><stop offset="1" stop-color="#ff8585"/></linearGradient></defs><g transform="translate(-252.14821,-163.66604)"><g data-paper-data="{&quot;isPaintingLayer&quot;:true}" fill-rule="nonzero" stroke-linecap="butt" stroke-linejoin="miter" stroke-miterlimit="10" stroke-dasharray="" stroke-dashoffset="0" style="mix-blend-mode: normal"><path d="M252.14821,193.04907c0,-6.76177 0,-21.92796 0,-25.80647c0,-1.76538 1.34994,-3.57656 3.19208,-3.57656c10.69704,0 109.74773,0 129.20377,0c2.13154,0 3.30773,1.78996 3.30773,3.53984c0,3.84034 0,18.85389 0,25.6963c0,2.10113 -1.35247,3.43178 -3.19755,3.43178c-10.7124,0 -109.8872,0 -129.2405,0c-2.10486,0 -3.26553,-1.26891 -3.26553,-3.28487z" fill-opacity="0.74902" fill="#ffffff" stroke="url(#color-1)" stroke-width="0"/><text transform="translate(299.38026,183.85535) scale(0.32128,0.32128)" font-size="40" xml:space="preserve" fill-opacity="0.74902" fill="#000000" fill-rule="nonzero" stroke="none" stroke-width="1" stroke-linecap="butt" stroke-linejoin="miter" stroke-miterlimit="10" stroke-dasharray="" stroke-dashoffset="0" font-family="Sans Serif" font-weight="normal" text-anchor="start" style="mix-blend-mode: normal"><tspan x="0" dy="0">Accept</tspan></text></g></g></svg>