<svg version="1.1" xmlns="http://www.w3.org/2000/svg" xmlns:xlink="http://www.w3.org/1999/xlink" width="23.86724" height="23.86726" viewBox="0,0,23.86724,23.86726"><defs><linearGradient x1="327.90801" y1="187.90801" x2="312.092" y2="172.09198" gradientUnits="userSpaceOnUse" id="color-1"><stop offset="0" stop-color="#ffe34e"/><stop offset="1" stop-color="#ff9332"/></linearGradient><linearGradient x1="308.81638" y1="179.99999" x2="331.18363" y2="179.99999" gradientUnits="userSpaceOnUse" id="color-2"><stop offset="0" stop-color="#9d7222"/><stop offset="1" stop-color="#cb952c"/></linearGradient></defs><g transform="translate(-308.06637,-168.06637)"><g data-paper-data="{&quot;isPaintingLayer&quot;:true}" fill-rule="nonzero" stroke-linecap="butt" stroke-linejoin="miter" stroke-miterlimit="10" stroke-dasharray="" stroke-dashoffset="0" style="mix-blend-mode: normal"><path d="M327.90801,172.09198c4.36748,4.36748 4.36748,11.44856 0,15.81604c-4.36748,4.36748 -11.44854,4.36748 -15.81602,0c-4.36748,-4.36748 -4.36748,-11.44856 0,-15.81604c4.36748,-4.36748 11.44854,-4.36748 15.81602,0z" fill="url(#color-1)" stroke="url(#color-2)" stroke-width="1.5"/><path d="M317.32891,186.39616c-0.63828,-0.63828 -0.2261,-0.22605 -0.61729,-0.61728c-0.62911,-0.62911 -1.00118,-2.12886 0.04013,-3.23436c0.3886,-0.41261 2.09179,-2.09179 2.73588,-2.73588c0.81412,-0.81416 2.4902,-0.62377 3.10594,-0.00803c0.39093,0.39093 -0.014,-0.01406 0.63336,0.63335c0.85862,0.85862 0.65239,2.67028 0.00802,3.31459c-0.38526,0.38532 -2.03655,2.03662 -2.65563,2.65563c-0.838,0.838 -2.40644,0.83598 -3.25042,-0.00803z" fill="#be8b28" stroke="none" stroke-width="1"/><path d="M314.25377,183.26648c-0.63834,-0.63834 -0.2261,-0.22609 -0.61733,-0.61728c-0.62909,-0.62911 -1.00116,-2.12886 0.04013,-3.23439c0.38864,-0.41255 1.88724,-1.88724 2.53133,-2.53133c0.81417,-0.81412 2.4902,-0.62373 3.10594,-0.00798c0.39093,0.39093 -0.014,-0.01406 0.63341,0.63336c0.85862,0.85862 0.65234,2.67028 0.00798,3.31459c-0.38526,0.38527 -1.83197,1.83201 -2.45103,2.45109c-0.838,0.838 -2.40644,0.83594 -3.25042,-0.00803z" fill="#be8b28" stroke="none" stroke-width="1"/><path d="M316.19606,183.84049c-1.92436,-1.92436 -1.92436,-5.04436 0,-6.96872c1.92436,-1.92436 5.0444,-1.92436 6.96876,0c1.92436,1.92436 1.92436,5.04436 0,6.96872c-1.92436,1.92436 -5.0444,1.92436 -6.96876,0z" fill="#a67b29" stroke="none" stroke-width="1"/><path d="M318.05169,183.65512c-0.63834,-0.63828 -1.31026,-1.31022 -1.70146,-1.70141c-0.62911,-0.62911 -1.00119,-2.12886 0.04013,-3.23439c0.38864,-0.41255 1.08947,-1.08947 1.73356,-1.73356c0.81412,-0.81412 2.4902,-0.62377 3.10594,-0.00802c0.39093,0.39093 1.07011,1.0701 1.71753,1.71753c0.85862,0.85862 0.65234,2.67028 0.00803,3.31459c-0.38526,0.38527 -1.03428,1.03426 -1.65331,1.6533c-0.838,0.838 -2.40644,0.83595 -3.25042,-0.00802z" fill="#cb952c" stroke="none" stroke-width="1"/><path d="M318.02481,182.01701c-0.63828,-0.63834 0.39503,0.39503 0.00384,0.00378c-0.62911,-0.62911 -1.00119,-2.12881 0.04012,-3.23435c0.26781,-0.28439 3.35025,-3.3687 4.23038,-4.24841c0.3968,-0.39666 1.06076,-0.29091 1.36248,0.01081c0.36381,0.36381 1.27237,1.27233 1.90668,1.90665c0.38485,0.38485 0.40631,0.92528 0.02597,1.29748c-0.8437,0.82567 -3.89236,3.84534 -4.31907,4.27205c-0.838,0.838 -2.40643,0.83594 -3.25042,-0.00803z" fill="#9e7627" stroke="none" stroke-width="1"/></g></g></svg>