<svg version="1.1" xmlns="http://www.w3.org/2000/svg" xmlns:xlink="http://www.w3.org/1999/xlink" width="118.61944" height="31.11879" viewBox="0,0,118.61944,31.11879"><defs><linearGradient x1="351.37891" y1="223.09994" x2="351.37891" y2="263.21106" gradientUnits="userSpaceOnUse" id="color-1"><stop offset="0" stop-color="#e6e6e6"/><stop offset="1" stop-color="#cccccc"/></linearGradient></defs><g transform="translate(-250.69028,-164.44061)"><g data-paper-data="{&quot;isPaintingLayer&quot;:true}" stroke="none" stroke-linecap="butt" stroke-linejoin="miter" stroke-miterlimit="10" stroke-dasharray="" stroke-dashoffset="0" style="mix-blend-mode: normal"><path d="M250.69028,183.34268c0,-5.95362 0,-3.58479 0,-7.12214c0,-4.77455 6.10037,-11.77993 12.61256,-11.77993c18.02073,0 60.82483,0 93.38676,0c7.85036,0 12.62012,5.89968 12.62012,12.53294c0,5.81881 0,3.20979 0,6.67033c0,4.81412 -4.64793,11.91552 -12.31891,11.91552c-0.34533,0 -0.69679,0 -1.05422,0c-33.10806,0 -74.75023,0 -92.63374,0c-6.5122,0 -12.61256,-5.70807 -12.61256,-12.21673z" fill="url(#color-1)" fill-rule="nonzero" stroke-width="0"/><text transform="translate(298.22184,183.22629) scale(0.27964,0.27964)" font-size="40" xml:space="preserve" fill="#000000" fill-rule="nonzero" stroke="none" stroke-width="1" stroke-linecap="butt" stroke-linejoin="miter" stroke-miterlimit="10" stroke-dasharray="" stroke-dashoffset="0" font-family="Sans Serif" font-weight="normal" text-anchor="start" style="mix-blend-mode: normal"><tspan x="0" dy="0">Settings</tspan></text><path d="M359.97189,178.97473c0.21272,0.08127 0.35311,0.2855 0.3528,0.51321v1.0215c0.00032,0.22771 -0.14008,0.43194 -0.3528,0.51321l-1.03247,0.39442c-0.14101,0.05465 -0.25344,0.16473 -0.31107,0.30455c-0.05763,0.13982 -0.05541,0.29715 0.00613,0.43528l0.44946,1.00675c0.09387,0.2082 0.04863,0.45281 -0.1135,0.61366l-0.72149,0.72262c-0.16144,0.16103 -0.40531,0.20614 -0.61366,0.1135l-1.01091,-0.44871c-0.13795,-0.06193 -0.29535,-0.06418 -0.43502,-0.0062c-0.13967,0.05798 -0.2492,0.17104 -0.30273,0.31246l-0.39442,1.03002c-0.08154,0.21316 -0.28612,0.35394 -0.51435,0.35393h-1.02018c-0.22822,0.00001 -0.43281,-0.14077 -0.51435,-0.35393l-0.39442,-1.03002c-0.05353,-0.14143 -0.16307,-0.25449 -0.30273,-0.31246c-0.13967,-0.05798 -0.29707,-0.05574 -0.43502,0.0062l-1.00808,0.44946c-0.20835,0.09263 -0.45222,0.04753 -0.61366,-0.1135l-0.72149,-0.72262c-0.16148,-0.1612 -0.20664,-0.40537 -0.1135,-0.61366l0.45116,-1.00732c0.06159,-0.1383 0.06368,-0.29582 0.00578,-0.4357c-0.0579,-0.13988 -0.17072,-0.24984 -0.31204,-0.30414l-1.03002,-0.39442c-0.21316,-0.0809 -0.35407,-0.28521 -0.35393,-0.51321v-1.0215c-0.00013,-0.228 0.14077,-0.43231 0.35393,-0.51321l1.03002,-0.39555c0.1411,-0.05394 0.25383,-0.16351 0.31175,-0.30303c0.05792,-0.13951 0.05594,-0.29671 -0.00549,-0.43472l-0.45079,-1.00808c-0.09314,-0.20829 -0.04798,-0.45246 0.1135,-0.61366l0.72149,-0.72054c0.16115,-0.16158 0.40538,-0.20675 0.61366,-0.1135l1.00883,0.45079c0.13805,0.06114 0.29512,0.06297 0.43456,0.00509c0.13944,-0.05788 0.24903,-0.17043 0.30319,-0.31135l0.39442,-1.03134c0.08154,-0.21316 0.28612,-0.35394 0.51435,-0.35393h1.02018c0.2283,-0.00009 0.43297,0.1407 0.51454,0.35393l0.39517,1.03134c0.05416,0.14092 0.16376,0.25347 0.3032,0.31135c0.13944,0.05788 0.29651,0.05605 0.43456,-0.00509l1.00788,-0.45154c0.20828,-0.09325 0.45251,-0.04808 0.61366,0.1135l0.72073,0.72205c0.16214,0.16085 0.20738,0.40545 0.1135,0.61366l-0.44946,1.00808c-0.06137,0.13786 -0.06349,0.29485 -0.00584,0.43431c0.05764,0.13946 0.16998,0.24915 0.31078,0.30344l1.03247,0.39555M354.979,182.55813c1.03327,-0.20687 1.84096,-1.01449 2.04793,-2.04773c0.22506,-1.12727 -0.31418,-2.26901 -1.32776,-2.81127c-1.01357,-0.54226 -2.26263,-0.35726 -3.0755,0.45554c-0.81287,0.81279 -0.99799,2.06183 -0.45582,3.07545c0.54217,1.01363 1.68387,1.55297 2.81115,1.32802" fill="#000000" fill-rule="evenodd" stroke-width="1"/></g></g></svg>