<svg version="1.1" xmlns="http://www.w3.org/2000/svg" xmlns:xlink="http://www.w3.org/1999/xlink" width="104.0358" height="69.24226" viewBox="0,0,104.0358,69.24226"><defs><linearGradient x1="319.33" y1="194.47942" x2="302.45187" y2="177.6013" gradientUnits="userSpaceOnUse" id="color-1"><stop offset="0" stop-color="#ffe34e"/><stop offset="1" stop-color="#ff9332"/></linearGradient><linearGradient x1="298.95629" y1="186.04036" x2="322.82558" y2="186.04036" gradientUnits="userSpaceOnUse" id="color-2"><stop offset="0" stop-color="#9d7222"/><stop offset="1" stop-color="#cb952c"/></linearGradient><linearGradient x1="331.26465" y1="182.54477" x2="314.38652" y2="165.66665" gradientUnits="userSpaceOnUse" id="color-3"><stop offset="0" stop-color="#ffe34e"/><stop offset="1" stop-color="#ff9332"/></linearGradient><linearGradient x1="310.89094" y1="174.10571" x2="334.76023" y2="174.10571" gradientUnits="userSpaceOnUse" id="color-4"><stop offset="0" stop-color="#9d7222"/><stop offset="1" stop-color="#cb952c"/></linearGradient><linearGradient x1="343.19929" y1="194.47942" x2="326.32116" y2="177.6013" gradientUnits="userSpaceOnUse" id="color-5"><stop offset="0" stop-color="#ffe34e"/><stop offset="1" stop-color="#ff9332"/></linearGradient><linearGradient x1="322.82558" y1="186.04036" x2="346.69487" y2="186.04036" gradientUnits="userSpaceOnUse" id="color-6"><stop offset="0" stop-color="#9d7222"/><stop offset="1" stop-color="#cb952c"/></linearGradient></defs><g transform="translate(-267.9821,-145.37888)"><g data-paper-data="{&quot;isPaintingLayer&quot;:true}" fill-rule="nonzero" stroke-linecap="butt" stroke-linejoin="miter" stroke-miterlimit="10" stroke-dasharray="" stroke-dashoffset="0" style="mix-blend-mode: normal"><path d="M267.9821,191.02463l53.32266,-20.11574v43.42444z" fill="#000000" stroke="none" stroke-width="0"/><path d="M267.9821,165.49462l53.32266,-20.11574v43.42444z" fill="#000000" stroke="none" stroke-width="0"/><path d="M288.27748,180.07304c0,-19.08038 15.46772,-34.5481 34.5481,-34.5481c19.08038,0 34.5481,15.46772 34.5481,34.5481c0,19.08038 -15.46772,34.5481 -34.5481,34.5481c-19.08038,0 -34.5481,-15.46772 -34.5481,-34.5481z" fill="#000000" stroke="none" stroke-width="0"/><path d="M298.39562,188.3533c0,-6.32901 0,-12.99118 0,-16.8702c0,-6.2377 5.59044,-15.51739 16.2336,-15.83571c3.97196,-0.1188 10.80229,0 17.1885,0c8.07228,0 15.43783,9.25309 15.43783,15.35825c0,3.87608 0,10.61038 0,17.02936c0,8.51351 -10.00392,16.47232 -16.39274,16.47232c-3.82004,0 -10.25472,0 -16.39274,0c-8.30901,0 -16.07444,-7.78579 -16.07444,-16.15402z" fill="#000000" stroke="none" stroke-width="0"/><path d="M306.58964,178.87193l65.42826,-14.79926v32.4545z" fill="#000000" stroke="none" stroke-width="0"/><path d="M306.58964,196.52717v-32.4545l65.42826,14.79926z" data-paper-data="{&quot;index&quot;:null}" fill="#000000" stroke="none" stroke-width="0"/><g><g><path d="M319.33,177.6013c4.66077,4.66077 4.66077,12.21736 0,16.87813c-4.66077,4.66077 -12.21736,4.66077 -16.87813,0c-4.66077,-4.66077 -4.66077,-12.21736 0,-16.87813c4.66077,-4.66077 12.21736,-4.66077 16.87813,0z" fill="url(#color-1)" stroke="url(#color-2)" stroke-width="2"/><path d="M308.04046,192.86605c-0.68115,-0.68115 -0.24127,-0.24123 -0.65874,-0.65874c-0.67136,-0.67136 -1.06842,-2.27182 0.04282,-3.45155c0.41469,-0.44032 2.23226,-2.23226 2.9196,-2.9196c0.86879,-0.86884 2.65743,-0.66566 3.31452,-0.00857c0.41718,0.41718 -0.01495,-0.015 0.67589,0.67589c0.91629,0.91629 0.6962,2.8496 0.00857,3.53718c-0.41114,0.41118 -2.17332,2.17337 -2.83397,2.83396c-0.89427,0.89427 -2.56804,0.89213 -3.46869,-0.00857z" fill="#be8b28" stroke="none" stroke-width="1"/><path d="M304.7588,189.5262c-0.6812,-0.6812 -0.24127,-0.24127 -0.65879,-0.65874c-0.67134,-0.67136 -1.0684,-2.27182 0.04282,-3.45159c0.41474,-0.44027 2.01398,-2.01398 2.70132,-2.70132c0.86884,-0.86879 2.65743,-0.66561 3.31452,-0.00852c0.41718,0.41718 -0.01495,-0.015 0.67594,0.67589c0.91629,0.91629 0.69615,2.8496 0.00852,3.53718c-0.41114,0.41114 -1.95499,1.95504 -2.61563,2.61568c-0.89427,0.89427 -2.56804,0.89208 -3.46869,-0.00857z" fill="#be8b28" stroke="none" stroke-width="1"/><path d="M306.83154,190.13876c-2.05359,-2.05359 -2.05359,-5.38311 0,-7.43669c2.05359,-2.05359 5.38315,-2.05359 7.43674,0c2.05359,2.05359 2.05359,5.38311 0,7.43669c-2.05359,2.05359 -5.38315,2.05359 -7.43674,0z" fill="#a67b29" stroke="none" stroke-width="1"/><path d="M308.81178,189.94094c-0.6812,-0.68115 -1.39825,-1.3982 -1.81572,-1.81567c-0.67136,-0.67136 -1.06842,-2.27182 0.04282,-3.45159c0.41474,-0.44027 1.16263,-1.16263 1.84997,-1.84997c0.86879,-0.86879 2.65743,-0.66566 3.31452,-0.00857c0.41718,0.41718 1.14197,1.14197 1.83287,1.83287c0.91629,0.91629 0.69615,2.8496 0.00857,3.53718c-0.41114,0.41114 -1.10373,1.10373 -1.76433,1.76433c-0.89427,0.89427 -2.56804,0.89208 -3.46869,-0.00857z" fill="#cb952c" stroke="none" stroke-width="1"/><path d="M308.78308,188.19283c-0.68115,-0.6812 0.42156,0.42156 0.00409,0.00404c-0.67136,-0.67136 -1.06842,-2.27177 0.04282,-3.45155c0.2858,-0.30348 3.57523,-3.59491 4.51446,-4.5337c0.42346,-0.42331 1.13199,-0.31045 1.45398,0.01154c0.38824,0.38824 1.35782,1.35777 2.03473,2.03469c0.4107,0.4107 0.43359,0.98741 0.02772,1.38461c-0.90036,0.88112 -4.15374,4.10357 -4.60911,4.55893c-0.89427,0.89427 -2.56804,0.89208 -3.46869,-0.00857z" fill="#9e7627" stroke="none" stroke-width="1"/></g><g><path d="M331.26465,165.66665c4.66077,4.66077 4.66077,12.21736 0,16.87813c-4.66077,4.66077 -12.21736,4.66077 -16.87813,0c-4.66077,-4.66077 -4.66077,-12.21736 0,-16.87813c4.66077,-4.66077 12.21736,-4.66077 16.87813,0z" fill="url(#color-3)" stroke="url(#color-4)" stroke-width="2"/><path d="M319.97511,180.9314c-0.68115,-0.68115 -0.24127,-0.24123 -0.65874,-0.65874c-0.67136,-0.67136 -1.06842,-2.27182 0.04282,-3.45155c0.41469,-0.44032 2.23226,-2.23226 2.9196,-2.9196c0.86879,-0.86884 2.65743,-0.66566 3.31452,-0.00857c0.41718,0.41718 -0.01495,-0.015 0.67589,0.67589c0.91629,0.91629 0.6962,2.8496 0.00857,3.53718c-0.41114,0.41118 -2.17332,2.17337 -2.83397,2.83396c-0.89427,0.89427 -2.56804,0.89213 -3.46869,-0.00857z" fill="#be8b28" stroke="none" stroke-width="1"/><path d="M316.69345,177.59155c-0.6812,-0.6812 -0.24127,-0.24127 -0.65879,-0.65874c-0.67134,-0.67136 -1.0684,-2.27182 0.04282,-3.45159c0.41474,-0.44027 2.01398,-2.01398 2.70132,-2.70132c0.86884,-0.86879 2.65743,-0.66561 3.31452,-0.00852c0.41718,0.41718 -0.01495,-0.015 0.67594,0.67589c0.91629,0.91629 0.69615,2.8496 0.00852,3.53718c-0.41114,0.41114 -1.95499,1.95504 -2.61563,2.61568c-0.89427,0.89427 -2.56804,0.89208 -3.46869,-0.00857z" fill="#be8b28" stroke="none" stroke-width="1"/><path d="M318.76619,178.20411c-2.05359,-2.05359 -2.05359,-5.38311 0,-7.43669c2.05359,-2.05359 5.38315,-2.05359 7.43674,0c2.05359,2.05359 2.05359,5.38311 0,7.43669c-2.05359,2.05359 -5.38315,2.05359 -7.43674,0z" fill="#a67b29" stroke="none" stroke-width="1"/><path d="M320.74643,178.00629c-0.6812,-0.68115 -1.39825,-1.3982 -1.81572,-1.81567c-0.67136,-0.67136 -1.06842,-2.27182 0.04282,-3.45159c0.41474,-0.44027 1.16263,-1.16263 1.84997,-1.84997c0.86879,-0.86879 2.65743,-0.66566 3.31452,-0.00857c0.41718,0.41718 1.14197,1.14197 1.83287,1.83287c0.91629,0.91629 0.69615,2.8496 0.00857,3.53718c-0.41114,0.41114 -1.10373,1.10373 -1.76433,1.76433c-0.89427,0.89427 -2.56804,0.89208 -3.46869,-0.00857z" fill="#cb952c" stroke="none" stroke-width="1"/><path d="M320.71773,176.25818c-0.68115,-0.6812 0.42156,0.42156 0.00409,0.00404c-0.67136,-0.67136 -1.06842,-2.27177 0.04282,-3.45155c0.2858,-0.30348 3.57523,-3.59491 4.51446,-4.5337c0.42346,-0.42331 1.13199,-0.31045 1.45398,0.01154c0.38824,0.38824 1.35782,1.35777 2.03473,2.03469c0.4107,0.4107 0.43359,0.98741 0.02772,1.38461c-0.90036,0.88112 -4.15374,4.10357 -4.60911,4.55893c-0.89427,0.89427 -2.56804,0.89208 -3.46869,-0.00857z" fill="#9e7627" stroke="none" stroke-width="1"/></g><g><path d="M343.19929,177.6013c4.66077,4.66077 4.66077,12.21736 0,16.87813c-4.66077,4.66077 -12.21736,4.66077 -16.87813,0c-4.66077,-4.66077 -4.66077,-12.21736 0,-16.87813c4.66077,-4.66077 12.21736,-4.66077 16.87813,0z" fill="url(#color-5)" stroke="url(#color-6)" stroke-width="2"/><path d="M331.90975,192.86605c-0.68115,-0.68115 -0.24127,-0.24123 -0.65874,-0.65874c-0.67136,-0.67136 -1.06842,-2.27182 0.04282,-3.45155c0.41469,-0.44032 2.23226,-2.23226 2.9196,-2.9196c0.86879,-0.86884 2.65743,-0.66566 3.31452,-0.00857c0.41718,0.41718 -0.01495,-0.015 0.67589,0.67589c0.91629,0.91629 0.6962,2.8496 0.00857,3.53718c-0.41114,0.41118 -2.17332,2.17337 -2.83397,2.83396c-0.89427,0.89427 -2.56804,0.89213 -3.46869,-0.00857z" fill="#be8b28" stroke="none" stroke-width="1"/><path d="M328.62809,189.5262c-0.6812,-0.6812 -0.24127,-0.24127 -0.65879,-0.65874c-0.67134,-0.67136 -1.0684,-2.27182 0.04282,-3.45159c0.41474,-0.44027 2.01398,-2.01398 2.70132,-2.70132c0.86884,-0.86879 2.65743,-0.66561 3.31452,-0.00852c0.41718,0.41718 -0.01495,-0.015 0.67594,0.67589c0.91629,0.91629 0.69615,2.8496 0.00852,3.53718c-0.41114,0.41114 -1.95499,1.95504 -2.61563,2.61568c-0.89427,0.89427 -2.56804,0.89208 -3.46869,-0.00857z" fill="#be8b28" stroke="none" stroke-width="1"/><path d="M330.70083,190.13876c-2.05359,-2.05359 -2.05359,-5.38311 0,-7.43669c2.05359,-2.05359 5.38315,-2.05359 7.43674,0c2.05359,2.05359 2.05359,5.38311 0,7.43669c-2.05359,2.05359 -5.38315,2.05359 -7.43674,0z" fill="#a67b29" stroke="none" stroke-width="1"/><path d="M332.68107,189.94094c-0.6812,-0.68115 -1.39825,-1.3982 -1.81572,-1.81567c-0.67136,-0.67136 -1.06842,-2.27182 0.04282,-3.45159c0.41474,-0.44027 1.16263,-1.16263 1.84997,-1.84997c0.86879,-0.86879 2.65743,-0.66566 3.31452,-0.00857c0.41718,0.41718 1.14197,1.14197 1.83287,1.83287c0.91629,0.91629 0.69615,2.8496 0.00857,3.53718c-0.41114,0.41114 -1.10373,1.10373 -1.76433,1.76433c-0.89427,0.89427 -2.56804,0.89208 -3.46869,-0.00857z" fill="#cb952c" stroke="none" stroke-width="1"/><path d="M332.65237,188.19283c-0.68115,-0.6812 0.42156,0.42156 0.00409,0.00404c-0.67136,-0.67136 -1.06842,-2.27177 0.04282,-3.45155c0.2858,-0.30348 3.57523,-3.59491 4.51446,-4.5337c0.42346,-0.42331 1.13199,-0.31045 1.45398,0.01154c0.38824,0.38824 1.35782,1.35777 2.03473,2.03469c0.4107,0.4107 0.43359,0.98741 0.02772,1.38461c-0.90036,0.88112 -4.15374,4.10357 -4.60911,4.55893c-0.89427,0.89427 -2.56804,0.89208 -3.46869,-0.00857z" fill="#9e7627" stroke="none" stroke-width="1"/></g></g></g></g></svg>