<svg version="1.1" xmlns="http://www.w3.org/2000/svg" xmlns:xlink="http://www.w3.org/1999/xlink" width="95.93751" height="95.9375" viewBox="0,0,95.93751,95.9375"><defs><linearGradient x1="297.87647" y1="215.49511" x2="286.38004" y2="203.99867" gradientUnits="userSpaceOnUse" id="color-1"><stop offset="0" stop-color="#ffe34e"/><stop offset="1" stop-color="#ff9332"/></linearGradient><linearGradient x1="283.99904" y1="209.74689" x2="300.25747" y2="209.74689" gradientUnits="userSpaceOnUse" id="color-2"><stop offset="0" stop-color="#9d7222"/><stop offset="1" stop-color="#cb952c"/></linearGradient></defs><g transform="translate(-272.03124,-132.03126)"><g data-paper-data="{&quot;isPaintingLayer&quot;:true}" fill-rule="nonzero" stroke-linecap="butt" stroke-linejoin="miter" stroke-miterlimit="10" stroke-dasharray="" stroke-dashoffset="0" style="mix-blend-mode: normal"><path d="M272.03125,220.09379c0,-19.50071 0,-69.24344 0,-80.09259c0,-4.08401 3.90678,-7.96994 8.00768,-7.96994c10.8788,0 60.69179,0 80.12963,0c4.84283,0 7.80019,3.83485 7.80019,7.87735c0,10.76775 0,60.26837 0,79.9537c0,5.02438 -3.86889,8.10645 -7.93908,8.10645c-10.79645,0 -60.24948,0 -79.90741,0c-5.01514,0 -8.09102,-2.98774 -8.09102,-7.87496z" fill="#999999" stroke="none" stroke-width="0"/><g stroke-width="1"><path d="M297.87647,203.99867c3.17466,3.17466 3.17466,8.32179 0,11.49645c-3.17466,3.17466 -8.32178,3.17466 -11.49644,0c-3.17466,-3.17466 -3.17466,-8.32179 0,-11.49645c3.17466,-3.17466 8.32178,-3.17466 11.49644,0z" fill="url(#color-1)" stroke="url(#color-2)"/><path d="M290.18667,214.39617c-0.46396,-0.46396 -0.16435,-0.16431 -0.4487,-0.44869c-0.45729,-0.45729 -0.72774,-1.54744 0.02917,-2.35101c0.28247,-0.29992 1.52049,-1.52049 1.98867,-1.98867c0.59177,-0.5918 1.81009,-0.45341 2.25766,-0.00584c0.28416,0.28416 -0.01018,-0.01022 0.46038,0.46037c0.62412,0.62412 0.47421,1.94099 0.00583,2.40933c-0.28004,0.28008 -1.48034,1.48039 -1.93034,1.93034c-0.60913,0.60913 -1.74921,0.60766 -2.36268,-0.00584z" fill="#be8b28" stroke="none"/><path d="M287.9514,212.12125c-0.464,-0.464 -0.16435,-0.16434 -0.44873,-0.44869c-0.45728,-0.45729 -0.72773,-1.54744 0.02917,-2.35103c0.2825,-0.29988 1.37181,-1.37181 1.83999,-1.83999c0.59181,-0.59177 1.81009,-0.45338 2.25766,-0.0058c0.28416,0.28416 -0.01018,-0.01022 0.46042,0.46038c0.62412,0.62412 0.47418,1.94099 0.0058,2.40933c-0.28004,0.28005 -1.33163,1.33166 -1.78162,1.78166c-0.60913,0.60913 -1.74921,0.60763 -2.36268,-0.00584z" fill="#be8b28" stroke="none"/><path d="M289.36322,212.53849c-1.39879,-1.39879 -1.39879,-3.66667 0,-5.06546c1.39879,-1.39879 3.6667,-1.39879 5.06549,0c1.39879,1.39879 1.39879,3.66667 0,5.06546c-1.39879,1.39879 -3.6667,1.39879 -5.06549,0z" fill="#a67b29" stroke="none"/><path d="M290.71205,212.40375c-0.464,-0.46396 -0.95241,-0.95238 -1.23677,-1.23673c-0.45729,-0.45729 -0.72775,-1.54744 0.02917,-2.35103c0.2825,-0.29988 0.79192,-0.79192 1.2601,-1.2601c0.59177,-0.59177 1.81009,-0.45341 2.25766,-0.00583c0.28416,0.28416 0.77785,0.77784 1.24845,1.24845c0.62412,0.62412 0.47418,1.94099 0.00584,2.40933c-0.28004,0.28005 -0.7518,0.75179 -1.20177,1.20176c-0.60913,0.60913 -1.74921,0.60764 -2.36268,-0.00583z" fill="#cb952c" stroke="none"/><path d="M290.69251,211.21303c-0.46396,-0.464 0.28714,0.28714 0.00279,0.00275c-0.45729,-0.45729 -0.72775,-1.5474 0.02916,-2.351c0.19467,-0.20672 2.43525,-2.44866 3.075,-3.08811c0.28843,-0.28833 0.77105,-0.21146 0.99037,0.00786c0.26445,0.26445 0.92487,0.92484 1.38594,1.38592c0.27974,0.27974 0.29534,0.67257 0.01888,0.94312c-0.61327,0.60017 -2.8293,2.79512 -3.13947,3.10529c-0.60913,0.60913 -1.7492,0.60763 -2.36268,-0.00584z" fill="#9e7627" stroke="none"/></g><text transform="translate(303.0303,212.89343) scale(0.27272,0.27272)" font-size="40" xml:space="preserve" fill="#000000" fill-rule="nonzero" stroke="none" stroke-width="1" stroke-linecap="butt" stroke-linejoin="miter" stroke-miterlimit="10" stroke-dasharray="" stroke-dashoffset="0" font-family="Sans Serif" font-weight="normal" text-anchor="start" style="mix-blend-mode: normal"><tspan x="0" dy="0">50</tspan></text><text transform="translate(285.55025,143.12962) scale(0.16852,0.16852)" font-size="40" xml:space="preserve" fill="#000000" fill-rule="nonzero" stroke="none" stroke-width="1" stroke-linecap="butt" stroke-linejoin="miter" stroke-miterlimit="10" stroke-dasharray="" stroke-dashoffset="0" font-family="Sans Serif" font-weight="normal" text-anchor="start" style="mix-blend-mode: normal"><tspan x="0" dy="0">Body (MS-Paint)</tspan></text><g stroke="none" stroke-width="0.5"><path d="M315.9293,173.44719c2.13358,2.13358 1.35176,6.72829 -0.49284,8.80104c-5.31928,5.97719 -17.16687,8.10762 -23.46555,2.24333c-2.42005,-2.25315 -2.44061,-7.15131 -2.36831,-9.97048c0.17693,-6.89919 10.77283,-8.91873 16.16231,-8.32711c0.30417,0.03339 2.62709,0.22385 4.06595,0.47267c0.27081,0.01451 0.53017,0.0721 0.77135,0.16607c0.9322,0.36319 1.59276,1.2696 1.59276,2.3303c0,0.14431 -0.01223,0.28575 -0.0357,0.42337c0.08994,1.55194 2.59402,2.68481 3.77003,3.86082z" fill="#3e3e3e"/><path d="M317.98323,155.58691c2.13358,2.13358 1.35176,6.72829 -0.49284,8.80104c-5.31928,5.97719 -17.16686,8.10762 -23.46554,2.24333c-2.42005,-2.25315 -2.44061,-7.1513 -2.36832,-9.97048c0.17693,-6.89919 10.77283,-8.91873 16.16231,-8.32712c0.30417,0.03339 2.62709,0.22385 4.06595,0.47267c0.27081,0.01451 0.53017,0.0721 0.77135,0.16607c0.9322,0.36319 1.59276,1.26961 1.59276,2.3303c0,0.14431 -0.01222,0.28575 -0.0357,0.42336c0.08994,1.55194 2.59401,2.68481 3.77003,3.86083z" fill="#3e3e3e"/><path d="M325.04417,150.36009l0.3769,0.18845l0.36726,0.12242l0.12171,0.07745l0.78423,0.19606l0.12379,0.21664l0.01214,0.00269l0.89302,0.44651l0.30512,0.26154l0.02513,0.01508l0.41183,0.15444l0.29354,0.20244l0.32865,0.13838l0.34457,0.25843l0.05573,0.03547l0.49258,0.29555l0.04925,0.04925l0.06058,0.03855l0.00551,0.02754l0.42046,0.42047l0.15834,0.2639l0.21762,0.21762l0.10956,0.1826l0.00563,0.00564l0.22325,0.13395l0.2679,0.2679l0.06842,0.11403l0.44277,0.22138l0.30513,0.26154l0.34461,0.20676l0.98231,0.98231l0.09258,0.15429l0.13966,0.11347l0.26791,0.3572l0.06786,0.16119l0.02143,0.01741l0.1613,0.21507l0.14228,0.14227l0.17979,0.29965l0.15361,0.10241l0.01428,0.01571l0.38213,0.24318l0.1647,0.03294l0.07686,0.12078l0.12078,0.07686l0.03294,0.1647l0.12052,0.18939l0.62971,0.62972l0.15834,0.2639l0.21762,0.21762l0.2679,0.44651l0.02854,0.09378l0.0638,0.07442l0.1786,0.3572l0.01726,0.07764l0.20304,0.24365l0.18226,0.37754l0.23801,0.34512l0.2679,0.71441l0.00539,0.04718l0.0255,0.04006l0.05642,0.16925l0.13652,0.31856l0.05128,0.07692l0.03383,0.09473l0.07354,0.04202l0.13658,0.54632l0.1894,0.53034l-0.03788,0.07576l0.02439,0.09758v0.28826l0.04075,0.20377l-0.01184,0.24872l0.06039,0.24157v11.25198l-0.0244,0.09758l0.03788,0.07576l-0.1894,0.53033l-0.00268,0.01073v0.44651l-0.0604,0.24156l0.01185,0.24873l-0.0893,0.44651l-0.14294,0.30177l-0.00388,0.01746l0.01677,0.03879l-0.05377,0.12769l-0.03156,0.14203l-0.12046,0.24091l-0.10671,0.42687l-0.10829,0.06188l-0.07921,0.18812l-0.22627,0.30169l-0.20196,0.30295l0.00045,0.02102l-0.04339,0.04339l-0.07381,0.11071l-0.40595,0.36904l-0.38794,0.38793l-0.1141,0.06846l-0.04541,0.04128l-0.02098,-0.00144l-0.00212,0.00127l-0.05028,0.05029l-0.21352,0.12811l-0.1675,0.18424l-0.80371,0.53581l-0.21781,0.07779l-0.18414,0.13994l-0.41414,0.17749l-0.61273,0.40849l-0.03843,0.01372l-0.00653,0.03262l-0.27101,0.17246l-0.20905,0.2439l-0.19087,0.0106l-0.07354,0.0468l-0.01429,0.01571l-0.2679,0.17861l-0.05279,0.01885l-0.00758,0.00482l-0.0889,0.02963l-0.16519,0.059l-0.03672,0.02336l-0.01723,0.01723l-0.17235,0.10342l-0.05541,0.03526l-0.00755,0.00252l-0.21119,0.12671l-0.16453,0.05007l-0.13691,0.10406l-0.41414,0.17749l-0.61273,0.40849l-0.03555,0.0127l-0.02621,0.02717l-0.71441,0.44651l-0.23579,0.07647l-0.21432,0.16074l-0.20943,0.08818l-0.17253,0.14789l-0.39659,0.1983l-0.1384,0.09226l-0.0574,0.02051l-0.04311,0.0431l-0.44651,0.26791l-0.22509,0.0685l-0.50106,0.3579l-0.31665,0.12474l-0.28209,0.19041l-0.98231,0.3572l-0.03451,0.00359l-0.02927,0.01863l-0.21819,0.07273l-0.52515,0.3501l-0.3646,0.13021l-0.33534,0.19347l-0.62511,0.17861l-0.34851,0.01162l-0.33829,0.08458h-2.85764l-0.17457,-0.04364l-0.17899,0.01852l-0.62511,-0.0893l-0.21044,-0.08573l-0.22657,-0.01743l-0.44473,-0.14824l-1.89176,-0.47294l-0.12998,0.01575l-0.55997,-0.06999h-0.20156l-0.09758,-0.02439l-0.07576,0.03788l-0.53033,-0.18941l-0.3016,-0.0754l-0.28713,-0.03589l-0.23221,-0.08989l-0.24827,-0.01909l-0.80372,-0.26791l-0.33904,-0.21576l-0.23395,-0.0985l-0.01882,-0.00471l-0.00173,0.00075l-0.00692,-0.00292l-0.28692,-0.07173l-0.4371,-0.23312l-0.45656,-0.19223l-0.0179,-0.01343l-0.2679,-0.06698l-0.04404,-0.07706l-0.00997,-0.00166l-0.13034,-0.05667l-0.88727,-0.22181l-0.04898,-0.08571l-0.09857,-0.00547l-0.12543,-0.14634l-0.46593,-0.18355l-0.16188,-0.11562l-0.03976,-0.01883l-0.00419,-0.01255l-0.25968,-0.18548l-0.23179,-0.11589l-0.84722,-0.30808l-0.24922,-0.16823l-0.1339,-0.04782l-0.08889,-0.02964l-0.00758,-0.00482l-0.0528,-0.01886l-0.11837,-0.07891l-0.14872,-0.03305l-0.32806,-0.16403l-0.01699,0.00267l-0.04262,-0.03247l-0.14813,-0.07406l-0.40737,-0.34917l-0.42677,-0.32516l-0.0433,-0.05412l-0.54117,-0.29519l-0.26348,-0.24268l-0.30716,-0.18429l-0.2885,-0.28851l-0.14498,-0.00805l-0.20905,-0.2439l-0.27101,-0.17246l-0.02087,-0.10433l-0.19907,-0.15926l-0.16884,-0.2216l-0.2216,-0.16884l-0.27071,-0.33838l-0.70581,-0.7058l-0.09257,-0.1543l-0.13966,-0.11347l-0.26791,-0.3572l-0.02756,-0.06546l-0.05256,-0.04779l-0.04129,-0.06193l-0.09286,-0.09286l-0.07243,-0.12071l-0.11198,-0.08532l-0.35721,-0.44651l-0.04609,-0.10057l-0.08186,-0.07442l-0.5358,-0.80371l-0.05314,-0.14878l-0.10281,-0.11995l-0.19495,-0.38991l-0.02438,-0.01393l-0.01741,-0.06966l-0.03116,-0.06231l-0.12461,-0.56076l-0.13932,-0.55728v-0.06966l-0.01558,-0.0701l0.01558,-0.02337v-7.15959l0.06678,-0.2671l-0.00725,-0.27523l0.11907,-0.53582v-0.52928l0.03832,-0.15326l-0.01901,-0.15683l0.07,-0.55997v-1.02076l-0.01558,-0.02337l0.01558,-0.0701v-0.06966l0.13932,-0.55728l0.03928,-0.17677v-1.14128l0.08931,-0.3572v-1.62291l-0.01558,-0.02336l0.01558,-0.07009v-0.06966l0.13932,-0.55729l0.03928,-0.17677v-0.15896l0.0604,-0.24157l-0.01184,-0.24872l0.0893,-0.44651l0.14294,-0.30177l0.07244,-0.32596l0.2679,-0.53581l0.14788,-0.17254l0.08818,-0.20943l0.2679,-0.3572l0.13151,-0.10685l0.02948,-0.04632l0.0106,-0.19088l0.24389,-0.20905l0.17246,-0.27101l0.09688,-0.01938l0.08321,-0.13869l0.26791,-0.2679l0.05159,-0.03096l0.08256,-0.12384l0.18425,-0.1675l0.12811,-0.21352l0.89301,-0.89301l0.05819,-0.03492l0.00447,-0.03203l0.1763,-0.12733l0.11675,-0.18347l0.15587,-0.03117l0.00619,-0.01082l0.05104,-0.01276l0.53839,-0.38884l0.34996,-0.13998l0.2969,-0.14845l0.01394,-0.02438l0.06966,-0.01741l0.0623,-0.03115l0.53367,-0.11859l0.49258,-0.21111l0.34697,-0.05596l0.32774,-0.12687l0.71441,-0.0893l0.14937,0.0181l0.24888,-0.08296l0.46217,-0.28886l0.24675,-0.08003l0.51817,-0.37012l0.18451,-0.07268l0.15056,-0.12905l1.52155,-0.76077l0.36417,-0.21851l0.03296,-0.01003l0.35298,-0.26894l0.40737,-0.34917l0.14813,-0.07406l0.04262,-0.03248l0.01699,0.00267l0.32806,-0.16403l0.14873,-0.03305l0.0281,-0.01873l0.36179,-0.28943l0.10057,-0.04609l0.07442,-0.08186l0.2679,-0.17861l0.08287,-0.0296l0.06353,-0.06089l0.33443,-0.1911l0.29908,-0.29908l0.34461,-0.20676l0.30512,-0.26154l0.03271,-0.01636l0.01394,-0.02438l0.06966,-0.01741l0.0623,-0.03115l0.16042,-0.03565l0.11611,-0.06966l0.08862,0.02417l0.19562,-0.04347l0.55728,-0.13932h0.06966l0.07009,-0.01557l0.02337,0.01557h0.64059l0.29858,0.07465h0.30777l0.05863,0.01466h0.22805l0.3572,0.0893h0.23244l0.07327,-0.01998l0.0333,0.01998h0.6433c0.42611,0 0.82734,0.10661 1.17843,0.29461l0.07157,0.01789l0.01883,0.03296c0.12908,0.07618 0.25071,0.16362 0.36354,0.26099l0.46797,0.10399l0.0623,0.03115l0.00333,0.00083l0.14271,0.01098l0.2679,0.0893l0.12171,0.07746l0.05084,0.01271l0.07298,-0.00584l0.53581,0.0893l0.24874,0.10815l0.26875,0.03665l0.28897,0.11559l0.1926,0.04815l0.01254,0.00669l0.04404,-0.01201l0.33488,0.20092l0.15947,0.02278l0.37218,0.15162zM319.44229,184.28394l0.08649,0.04613l0.09774,0.00752l0.32195,0.10732l0.22607,0.0323h2.28024l0.26922,-0.17948h-1.11971l-0.20271,-0.05068l-0.20828,0.01666l-0.97044,-0.16174l-0.86578,-0.07215h-0.93129z" fill="#3a3a3a"/><path d="M310.08432,155.17164c0.65568,-1.14743 7.40016,0.17733 8.24903,0.19035c3.01398,0.04622 6.02867,0.00132 9.04301,0c1.84125,-0.00081 2.48763,-1.31374 4.37289,0.37489c1.36182,1.21979 1.38615,4.87452 1.39301,6.50088c0.00973,2.30556 0.87968,4.79296 0.35721,7.14411c-0.75725,3.40761 -4.55136,11.20577 -7.94761,12.63576c-4.70677,1.9818 -16.67193,1.68207 -19.69036,-3.34864c-0.92776,-1.54626 -0.35555,-4.50522 -0.52529,-6.38763c-0.46102,-5.11282 -3.60154,-14.06825 3.69894,-15.89337z" fill="#424242"/><path d="M349.88017,162.15141c0,0.5114 -0.15355,0.98694 -0.41707,1.38302l0.34898,0.45804l-0.01145,0.07299l0.04055,0.06372l0.0893,0.2679l0.03082,0.40069l0.09747,0.38988v0.46686l0.13005,0.65027l-0.01184,0.24872l0.06039,0.24157v1.31122l0.05529,0.33172l-0.01666,0.20829l0.05068,0.20271v0.37756l0.04075,0.20377l-0.01184,0.24872l0.06039,0.24157v1.96463l-0.03831,0.15326l0.01901,0.15683l-0.07,0.55997v0.11226l-0.09747,0.38988l-0.03082,0.40069l-0.05031,0.15093v0.21942l-0.05068,0.20271l0.01666,0.20829l-0.05529,0.33172v0.061l-0.0244,0.09758l0.03788,0.07576l-0.1894,0.53033l-0.13658,0.54632l-0.07194,0.04111l-0.01176,0.03527l-0.00482,0.00758l-0.01885,0.05279l-0.02578,0.03868l-0.13475,0.53899l-0.08571,0.04898l-0.00548,0.09857l-0.97828,0.83853l-0.53581,0.2679l-0.12905,0.02868l-0.00689,0.01206l-0.06981,0.01745l-0.12171,0.07745l-0.2679,0.0893l-0.40069,0.03082l-0.38988,0.09747h-3.50311l-0.20377,0.04075l-0.24872,-0.01184l-0.24157,0.06039h-3.48275l-0.17457,-0.04364l-0.17899,0.01852l-0.44923,-0.06418h-0.80465l-0.24157,-0.06039l-0.24872,0.01184l-0.65027,-0.13005h-0.28826l-0.08838,-0.0221l-0.08973,0.01574l-1.16127,-0.08295h-1.07175l-0.29857,-0.07464h-0.30776l-0.51773,-0.12943l-0.86958,-0.07246l-0.23309,-0.07935l-0.24609,-0.0082l-0.5443,-0.15552l-1.04518,-0.22397l-0.54121,-0.06013h-0.66525l-0.38988,-0.09747l-0.40069,-0.03082l-0.15093,-0.05031h-0.39802l-0.29857,-0.07464h-0.30776l-0.05863,-0.01466h-3.8894l-0.83671,-0.20918l-0.05266,0.00545l-0.44923,-0.06418h-0.09023l-0.09758,-0.0244l-0.07576,0.03788l-0.53033,-0.1894l-0.30931,-0.07733h-0.03986l-0.35721,-0.0893l-0.27156,-0.14483l-0.0149,-0.00372l-0.00347,-0.00607l-0.03629,-0.01935l-0.35369,-0.10764l-0.44651,-0.2679l-0.0431,-0.0431l-0.05741,-0.0205l-0.2679,-0.1786l-0.04778,-0.05256l-0.06547,-0.02757l-0.35721,-0.2679l-0.22414,-0.27586l-0.27586,-0.22414l-0.1613,-0.21507l-0.05297,-0.05297l-0.00731,-0.01218l-0.04394,-0.01236l-0.2922,-0.54787l-0.31946,-0.53244l0.00564,-0.02067l-0.03036,-0.01735l-0.13658,-0.54632l-0.01373,-0.03844l-0.0339,-0.05327l-0.03312,-0.09935l-0.04495,-0.08989l-0.14987,-0.24978l-0.26154,-0.30513l-0.10565,-0.21131l-0.02438,-0.01393l-0.01742,-0.06966l-0.03115,-0.06231l-0.1197,-0.53863l-0.02296,-0.03827l-0.16598,-0.09485l-0.07791,-0.31164l-0.16527,-0.27545l0.0503,-0.18443l-0.05615,-0.22458l-0.01493,-0.03151l-0.02819,-0.14096l-0.02036,-0.08142v-0.02036l-0.04075,-0.20377l0.01184,-0.24872l-0.06039,-0.24157v-3.75066l0.09747,-0.38988l0.00054,-0.00699l-0.02219,-0.04438l0.03263,-0.09137l0.01984,-0.25795l0.0893,-0.2679l0.07745,-0.12171l0.01745,-0.06981l0.04239,-0.02422l0.04198,-0.06597l0.11231,-0.31447l0.1786,-0.2679l0.18906,-0.17187l0.0325,-0.05107l0.03036,-0.00607l0.11128,-0.10116l0.33018,-0.3632l0.00477,-0.00318l0.16378,-0.27296l0.2922,-0.54787l0.04394,-0.01236l0.00731,-0.01218l0.46711,-0.46711l0.00805,-0.14498l0.24389,-0.20905l0.17246,-0.27101l0.18746,-0.03749l0.24071,-0.20632l0.04364,-0.04801l0.05565,-0.0371l0.03447,-0.02954l0.03939,-0.0197l0.08066,-0.05378l0.30169,-0.22627l0.06547,-0.02757l0.04778,-0.05256l0.2679,-0.1786l0.09473,-0.03383l0.04202,-0.07354l0.54632,-0.13658l0.53033,-0.1894l0.07576,0.03788l0.09758,-0.0244h0.64059l0.02336,-0.01558l0.07009,0.01558h0.06966l0.35721,0.0893h0.0893l0.09758,0.0244l0.07576,-0.03788l0.53033,0.1894l0.1918,0.04795l0.14063,-0.01125l0.53581,0.0893l0.14701,0.06392l0.10491,-0.02861l0.33097,0.19858h1.14935l0.47848,0.11962l0.18443,-0.0503l0.18214,0.10928h0.22657l0.24157,0.06039l0.24872,-0.01184l0.20377,0.04075h0.91337l0.09758,0.0244l0.07576,-0.03788l0.53033,0.1894l0.01074,0.00268h1.69673l0.13657,0.03414l0.13951,-0.01885l0.6661,0.07401h10.3991l0.71441,-0.1786h0.26884l0.44923,-0.06418l0.17899,0.01852l0.17457,-0.04364h0.27096l0.99125,-0.21241l0.07474,0.00253l0.06894,-0.02896l1.10563,-0.1701l0.39165,-0.07833l0.07095,0.00338l0.06578,-0.0268l0.62511,-0.0893l0.17899,0.01852l0.17457,-0.04364h0.62511c0.42612,0 0.82733,0.10661 1.17843,0.29461l0.07157,0.01789l0.01883,0.03296c0.73685,0.43488 1.23117,1.23698 1.23117,2.15454zM336.72832,168.75034l0.10266,-0.06533l-0.31577,-0.01504h-0.35067l0.20523,0.05131l0.31851,0.05308z" fill="#707070"/></g></g></g></svg>