<svg version="1.1" xmlns="http://www.w3.org/2000/svg" xmlns:xlink="http://www.w3.org/1999/xlink" width="165.89815" height="23.51227" viewBox="0,0,165.89815,23.51227"><defs><linearGradient x1="496.93974" y1="94.18705" x2="496.9046" y2="115.61416" gradientUnits="userSpaceOnUse" id="color-1"><stop offset="0" stop-color="#bf0000"/><stop offset="1" stop-color="#400000"/></linearGradient><linearGradient x1="514.43552" y1="103.04909" x2="514.41405" y2="116.14288" gradientUnits="userSpaceOnUse" id="color-2"><stop offset="0" stop-color="#bf0000"/><stop offset="1" stop-color="#400000"/></linearGradient><linearGradient x1="479.43556" y1="102.99168" x2="479.41408" y2="116.08547" gradientUnits="userSpaceOnUse" id="color-3"><stop offset="0" stop-color="#bf0000"/><stop offset="1" stop-color="#400000"/></linearGradient><linearGradient x1="552.56475" y1="94.18705" x2="552.5296" y2="115.61416" gradientUnits="userSpaceOnUse" id="color-4"><stop offset="0" stop-color="#bf0000"/><stop offset="1" stop-color="#400000"/></linearGradient><linearGradient x1="570.06052" y1="103.04909" x2="570.03905" y2="116.14288" gradientUnits="userSpaceOnUse" id="color-5"><stop offset="0" stop-color="#bf0000"/><stop offset="1" stop-color="#400000"/></linearGradient><linearGradient x1="535.06056" y1="102.99168" x2="535.03908" y2="116.08547" gradientUnits="userSpaceOnUse" id="color-6"><stop offset="0" stop-color="#bf0000"/><stop offset="1" stop-color="#400000"/></linearGradient><linearGradient x1="612.71841" y1="94.18705" x2="612.68326" y2="115.61416" gradientUnits="userSpaceOnUse" id="color-7"><stop offset="0" stop-color="#bf0000"/><stop offset="1" stop-color="#400000"/></linearGradient><linearGradient x1="630.21419" y1="103.04909" x2="630.19271" y2="116.14288" gradientUnits="userSpaceOnUse" id="color-8"><stop offset="0" stop-color="#bf0000"/><stop offset="1" stop-color="#400000"/></linearGradient><linearGradient x1="595.21422" y1="102.99168" x2="595.19275" y2="116.08547" gradientUnits="userSpaceOnUse" id="color-9"><stop offset="0" stop-color="#bf0000"/><stop offset="1" stop-color="#400000"/></linearGradient></defs><g transform="translate(-471.86195,-93.61667)"><g data-paper-data="{&quot;isPaintingLayer&quot;:true}" fill-rule="nonzero" stroke="#000000" stroke-linecap="butt" stroke-linejoin="miter" stroke-miterlimit="10" stroke-dasharray="" stroke-dashoffset="0" style="mix-blend-mode: normal"><g><path d="M486.18246,112.56902c2.61377,-4.95636 7.68783,-14.78495 9.09453,-17.45235c0.6713,-1.27293 2.10792,-1.23053 2.82148,0.07343c1.45352,2.65615 6.81412,12.45203 9.55328,17.45754c0.98764,1.80482 -0.13222,2.98395 -1.74469,2.9813c-3.01366,-0.00494 -13.01319,-0.02134 -18.14661,-0.02977c-1.78322,-0.00292 -2.4727,-1.33354 -1.57798,-3.03015z" fill="url(#color-1)" stroke-width="3"/><path d="M507.86189,114.28203c1.59722,-3.02875 4.69791,-9.03487 5.5575,-10.66488c0.41021,-0.77788 1.28812,-0.75197 1.72417,0.04487c0.88823,1.62314 4.16401,7.60925 5.83787,10.66805c0.60353,1.10289 -0.08078,1.82346 -1.06615,1.82183c-1.8416,-0.00302 -7.95217,-0.01304 -11.08913,-0.0182c-1.08968,-0.00179 -1.51104,-0.8149 -0.96427,-1.85167z" fill="url(#color-2)" stroke-width="2"/><path d="M472.86195,114.22464c1.59722,-3.02875 4.69791,-9.03487 5.5575,-10.66488c0.41021,-0.77788 1.28812,-0.75197 1.72417,0.04487c0.88823,1.62314 4.164,7.60927 5.83787,10.66805c0.60353,1.10289 -0.08078,1.82346 -1.06615,1.82183c-1.8416,-0.00302 -7.95216,-0.01304 -11.08913,-0.0182c-1.08971,-0.00179 -1.51104,-0.8149 -0.96427,-1.85167z" fill="url(#color-3)" stroke-width="2"/></g><g><path d="M541.80746,112.56902c2.61378,-4.95636 7.68784,-14.78495 9.09453,-17.45235c0.67129,-1.27294 2.10792,-1.23054 2.82149,0.07343c1.45352,2.65614 6.81412,12.45203 9.55328,17.45754c0.98764,1.80482 -0.13222,2.98395 -1.74468,2.9813c-3.01366,-0.00495 -13.0132,-0.02134 -18.14662,-0.02977c-1.78322,-0.00292 -2.47269,-1.33354 -1.57797,-3.03015z" fill="url(#color-4)" stroke-width="3"/><path d="M563.4869,114.28203c1.59722,-3.02876 4.69791,-9.03486 5.5575,-10.66487c0.4102,-0.77788 1.28812,-0.75197 1.72417,0.04487c0.88823,1.62314 4.16402,7.60925 5.83787,10.66805c0.60353,1.1029 -0.08079,1.82346 -1.06615,1.82183c-1.8416,-0.00302 -7.95217,-0.01304 -11.08913,-0.0182c-1.08968,-0.00179 -1.51104,-0.8149 -0.96427,-1.85168z" fill="url(#color-5)" stroke-width="2"/><path d="M528.48695,114.22464c1.59722,-3.02876 4.69791,-9.03487 5.5575,-10.66488c0.41021,-0.77788 1.28813,-0.75196 1.72418,0.04487c0.88823,1.62314 4.164,7.60927 5.83786,10.66805c0.60353,1.1029 -0.08078,1.82345 -1.06615,1.82183c-1.8416,-0.00302 -7.95217,-0.01304 -11.08913,-0.0182c-1.0897,-0.00179 -1.51104,-0.81489 -0.96427,-1.85167z" fill="url(#color-6)" stroke-width="2"/></g><g><path d="M601.96113,112.56902c2.61378,-4.95636 7.68783,-14.78495 9.09452,-17.45235c0.67129,-1.27294 2.10792,-1.23054 2.82149,0.07343c1.45352,2.65614 6.81412,12.45203 9.55328,17.45754c0.98765,1.80482 -0.13221,2.98395 -1.74469,2.9813c-3.01366,-0.00495 -13.0132,-0.02134 -18.14661,-0.02977c-1.78323,-0.00292 -2.4727,-1.33354 -1.57798,-3.03015z" fill="url(#color-7)" stroke-width="3"/><path d="M623.64056,114.28203c1.59722,-3.02876 4.69791,-9.03486 5.5575,-10.66487c0.41021,-0.77788 1.28812,-0.75197 1.72417,0.04487c0.88823,1.62314 4.16402,7.60925 5.83787,10.66805c0.60353,1.1029 -0.08078,1.82346 -1.06615,1.82183c-1.8416,-0.00302 -7.95217,-0.01304 -11.08913,-0.0182c-1.08969,-0.00179 -1.51104,-0.8149 -0.96427,-1.85168z" fill="url(#color-8)" stroke-width="2"/><path d="M588.64061,114.22464c1.59722,-3.02876 4.69791,-9.03487 5.5575,-10.66488c0.41021,-0.77788 1.28813,-0.75196 1.72418,0.04487c0.88823,1.62314 4.164,7.60927 5.83786,10.66805c0.60353,1.1029 -0.08078,1.82345 -1.06615,1.82183c-1.8416,-0.00302 -7.95217,-0.01304 -11.08913,-0.0182c-1.0897,-0.00179 -1.51104,-0.81489 -0.96427,-1.85167z" fill="url(#color-9)" stroke-width="2"/></g></g></g></svg>