<svg version="1.1" xmlns="http://www.w3.org/2000/svg" xmlns:xlink="http://www.w3.org/1999/xlink" width="471.00001" height="285.78567" viewBox="0,0,471.00001,285.78567"><defs><linearGradient x1="320" y1="37.35726" x2="320" y2="322.64284" gradientUnits="userSpaceOnUse" id="color-1"><stop offset="0" stop-color="#d9d9d9" stop-opacity="0.90196"/><stop offset="1" stop-color="#bfbfbf" stop-opacity="0.90196"/></linearGradient></defs><g transform="translate(-84.5,-36.85718)"><g data-paper-data="{&quot;isPaintingLayer&quot;:true}" fill-rule="nonzero" stroke-linecap="butt" stroke-linejoin="miter" stroke-miterlimit="10" stroke-dasharray="" stroke-dashoffset="0" style="mix-blend-mode: normal"><path d="M84.5,310.92855c0,-18.7 0,-211.73035 0,-221.92857c0,-2.58344 0.37295,-12.13911 0.37295,-12.13911c0,0 431.70494,0.99626 457.9842,0.99626c4.20176,0 12.42323,-0.30837 12.42323,-0.30837c0,0 0.21963,9.06558 0.21963,11.54647c0,10.15682 0,202.74352 0,221.5c0,7.24057 -6.24341,12.04762 -12.47619,12.04762c-14.66633,0 -422.32809,0 -447.5,0c-6.8111,0 -11.02381,-4.65942 -11.02381,-11.71429z" fill="url(#color-1)" stroke="none" stroke-width="0"/><path d="M84.5,48.00003c0,-5.37311 5.81137,-11.14285 11.71429,-11.14285c14.10987,0 420.3636,0 446.64286,0c7.7585,0 12.64286,5.82639 12.64286,11.23809c0,10.15682 0,-0.75647 0,18c0,3.42312 -0.32614,12.11943 -0.32614,12.11943l-470.3077,0.18531c0,0 -0.36617,-20.20176 -0.36617,-30.39998z" fill="#e6e6e6" stroke="none" stroke-width="0"/><text transform="translate(100,63.50011) scale(0.5,0.5)" font-size="40" xml:space="preserve" fill="#000000" fill-rule="nonzero" stroke="#000000" stroke-width="1" stroke-linecap="butt" stroke-linejoin="miter" stroke-miterlimit="10" stroke-dasharray="" stroke-dashoffset="0" font-family="Sans Serif" font-weight="normal" text-anchor="start" style="mix-blend-mode: normal"><tspan x="0" dy="0">Mods</tspan></text><text transform="translate(109.47493,99.03109) scale(0.31977,0.31977)" font-size="40" xml:space="preserve" fill="#000000" fill-rule="nonzero" stroke="#000000" stroke-width="0" stroke-linecap="butt" stroke-linejoin="miter" stroke-miterlimit="10" stroke-dasharray="" stroke-dashoffset="0" font-family="Sans Serif" font-weight="normal" text-anchor="start" style="mix-blend-mode: normal"><tspan x="0" dy="0">The current loaded mod will show up here</tspan></text></g></g></svg>