<svg version="1.1" xmlns="http://www.w3.org/2000/svg" xmlns:xlink="http://www.w3.org/1999/xlink" width="829.64245" height="829.64245" viewBox="0,0,829.64245,829.64245"><defs><radialGradient cx="320.00002" cy="180.00003" r="414.82123" gradientUnits="userSpaceOnUse" id="color-1"><stop offset="0" stop-color="#000000" stop-opacity="0.50196"/><stop offset="1" stop-color="#000000" stop-opacity="0"/></radialGradient><linearGradient x1="368.00002" y1="40.59188" x2="368.00002" y2="325.87752" gradientUnits="userSpaceOnUse" id="color-2"><stop offset="0" stop-color="#d9d9d9" stop-opacity="0.90196"/><stop offset="1" stop-color="#bfbfbf" stop-opacity="0.90196"/></linearGradient></defs><g transform="translate(94.82119,234.82119)"><g stroke-miterlimit="10"><path d="M-94.82119,594.82125v-829.64244h829.64245v829.64245z" fill="url(#color-1)" stroke="#000000" stroke-width="0"/><path d="M132.50001,268.16322c0,-18.7 0,-165.73035 0,-175.92857c0,-2.58344 4.54887,-12.12948 12.10429,-12.1121c69.2649,0.15932 326.55823,0.96925 350.25287,0.96925c4.20177,0 12.64286,1.39235 12.64286,11.2381c0,10.15682 0,156.74352 0,175.5c0,7.24057 -6.24341,12.04762 -12.47619,12.04762c-14.66633,0 -326.32809,0 -351.5,0c-6.8111,0 -11.02381,-4.65942 -11.02381,-11.71429z" fill="url(#color-2)" stroke="none" stroke-width="0"/><text transform="translate(148.00001,111.0741) scale(0.5,0.5)" font-size="40" xml:space="preserve" fill="#000000" stroke="#000000" stroke-width="1" font-family="Sans Serif" font-weight="normal" text-anchor="start"><tspan x="0" dy="0">CCode</tspan></text><text transform="translate(148.00001,133.46784) scale(0.30723,0.30723)" font-size="40" xml:space="preserve" fill="#000000" stroke="#000000" stroke-width="0" font-family="Sans Serif" font-weight="normal" text-anchor="start"><tspan x="0" dy="0">Could not find command in ConsoleAPI database, instead</tspan><tspan x="0" dy="48px">ran command using TBPinternalConsole database.</tspan><tspan x="0" dy="48px"> </tspan><tspan x="0" dy="48px">Operation completed successfully.</tspan></text></g></g></svg>