<svg version="1.1" xmlns="http://www.w3.org/2000/svg" xmlns:xlink="http://www.w3.org/1999/xlink" width="98.61944" height="90.78853" viewBox="0,0,98.61944,90.78853"><defs><linearGradient x1="351.37891" y1="193.26508" x2="351.37891" y2="233.3762" gradientUnits="userSpaceOnUse" id="color-1"><stop offset="0" stop-color="#229be6"/><stop offset="1" stop-color="#2681ff"/></linearGradient></defs><g transform="translate(-270.69028,-134.60574)"><g data-paper-data="{&quot;isPaintingLayer&quot;:true}" fill-rule="nonzero" stroke-linecap="butt" stroke-linejoin="miter" stroke-miterlimit="10" stroke-dasharray="" stroke-dashoffset="0" style="mix-blend-mode: normal"><path d="M270.69028,213.17755c0,-5.95362 0,-63.25453 0,-66.79188c0,-4.77455 6.10037,-11.77993 12.61256,-11.77993c18.02073,0 40.82483,0 73.38676,0c7.85036,0 12.62012,5.89968 12.62012,12.53294c0,5.81881 0,62.87953 0,66.34007c0,4.81412 -4.64793,11.91552 -12.31891,11.91552c-0.34533,0 -0.69679,0 -1.05422,0c-33.10806,0 -54.75023,0 -72.63374,0c-6.5122,0 -12.61256,-5.70807 -12.61256,-12.21673z" fill="url(#color-1)" stroke="none" stroke-width="0"/><text transform="translate(296.7603,215.95136) scale(0.25943,0.25943)" font-size="40" xml:space="preserve" fill="#ffffff" fill-rule="nonzero" stroke="none" stroke-width="1" stroke-linecap="butt" stroke-linejoin="miter" stroke-miterlimit="10" stroke-dasharray="" stroke-dashoffset="0" font-family="Sans Serif" font-weight="normal" text-anchor="start" style="mix-blend-mode: normal"><tspan x="0" dy="0">The Vault</tspan></text><g fill="#ffffff" stroke="#ffffff" stroke-width="1"><path d="M333.54825,165.68103v13.69676c0,2.5215 -2.04408,4.56559 -4.56559,4.56559h-17.96558c-1.21217,0.00427 -2.37593,-0.47538 -3.23307,-1.33252c-0.85714,-0.85714 -1.33679,-2.02089 -1.33252,-3.23307v-13.69676c0,-2.5215 2.04408,-4.56559 4.56559,-4.56559h17.96558c2.51838,0.00752 4.55807,2.0472 4.56559,4.56559zM331.26545,165.68103c0,-1.26075 -1.02204,-2.28279 -2.28279,-2.28279h-17.96558c-1.26075,0 -2.28279,1.02204 -2.28279,2.28279v13.69676c-0.00617,0.6073 0.23236,1.19153 0.66181,1.62098c0.42945,0.42945 1.01368,0.66798 1.62098,0.66181h17.96558c1.26075,0 2.28279,-1.02204 2.28279,-2.28279z"/><path d="M340.39663,159.97404v25.11073c0,3.15188 -2.5551,5.70698 -5.70698,5.70698v0.86746c0,1.89113 -1.53306,3.42419 -3.42419,3.42419h-3.28722c-1.89113,0 -3.42419,-1.53306 -3.42419,-3.42419v-0.86746h-9.13117v0.86746c0,1.89113 -1.53306,3.42419 -3.42419,3.42419h-3.26439c-1.89113,0 -3.42419,-1.53306 -3.42419,-3.42419v-0.86746c-3.15188,0 -5.70698,-2.5551 -5.70698,-5.70698v-25.11073c0.00878,-3.14824 2.55875,-5.69821 5.70698,-5.70698h29.37955c3.14824,0.00878 5.6982,2.55875 5.70698,5.70698zM313.14008,190.79176h-5.54719v0.86746c0,0.63038 0.51102,1.1414 1.1414,1.1414h3.26439c0.63038,0 1.1414,-0.51102 1.1414,-1.1414zM332.41827,190.79176h-5.57002v0.86746c0.00979,0.62628 0.51512,1.13161 1.1414,1.1414h3.27581c0.63038,0 1.1414,-0.51102 1.1414,-1.1414zM338.11384,159.97404c0,-1.89113 -1.53306,-3.42419 -3.42419,-3.42419h-29.37955c-1.89113,0 -3.42419,1.53306 -3.42419,3.42419v25.11073c0,1.89113 1.53306,3.42419 3.42419,3.42419h29.37955c1.89113,0 3.42419,-1.53306 3.42419,-3.42419z"/><path d="M325.96143,171.72838c0.20783,0.21426 0.32162,0.50258 0.31612,0.80103c0.00922,0.29755 -0.10177,0.58628 -0.30794,0.80104c-0.20616,0.21475 -0.49012,0.33744 -0.7878,0.34036h-1.3925c-0.33835,1.29689 -1.35115,2.30969 -2.64804,2.64804v1.41533c-0.00773,0.29409 -0.13267,0.5729 -0.34703,0.7744c-0.21436,0.2015 -0.50035,0.30897 -0.79436,0.29852c-0.60966,0.01417 -1.11787,-0.46354 -1.1414,-1.07291v-1.41533c-1.28859,-0.35274 -2.2953,-1.35945 -2.64804,-2.64804h-1.3925c-0.61728,-0.01373 -1.10721,-0.52407 -1.09574,-1.1414c-0.00049,-0.61297 0.48326,-1.11688 1.09574,-1.1414h1.3925c0.35274,-1.28859 1.35945,-2.2953 2.64804,-2.64804v-1.39251c0.02452,-0.61248 0.52843,-1.09623 1.1414,-1.09574c0.61732,-0.01147 1.12767,0.47846 1.1414,1.09574v1.39251c1.2842,0.35622 2.28596,1.36232 2.63663,2.64804h1.3925c0.29848,0.0036 0.5832,0.12611 0.79103,0.34037zM321.21118,173.74072c0.32121,-0.32121 0.5014,-0.75704 0.50079,-1.2113c0,-0.94556 -0.76653,-1.7121 -1.7121,-1.7121c-0.94556,0 -1.7121,0.76653 -1.7121,1.7121c0,0.94556 0.76653,1.7121 1.7121,1.7121c0.45426,0.00061 0.89009,-0.17958 1.2113,-0.50079z"/></g></g></g></svg>