<svg version="1.1" xmlns="http://www.w3.org/2000/svg" xmlns:xlink="http://www.w3.org/1999/xlink" width="290.10405" height="263.31307" viewBox="0,0,290.10405,263.31307"><defs><linearGradient x1="271.58283" y1="172.68243" x2="283.18124" y2="161.3929" gradientUnits="userSpaceOnUse" id="color-1"><stop offset="0" stop-color="#424242"/><stop offset="1" stop-color="#363636"/></linearGradient><linearGradient x1="264.21828" y1="179.72585" x2="275.81667" y2="168.43634" gradientUnits="userSpaceOnUse" id="color-2"><stop offset="0" stop-color="#424242"/><stop offset="1" stop-color="#363636"/></linearGradient><linearGradient x1="262.68817" y1="173.40178" x2="274.28656" y2="162.11227" gradientUnits="userSpaceOnUse" id="color-3"><stop offset="0" stop-color="#424242"/><stop offset="1" stop-color="#333333"/></linearGradient><linearGradient x1="258.88308" y1="173.41283" x2="270.48148" y2="162.12331" gradientUnits="userSpaceOnUse" id="color-4"><stop offset="0" stop-color="#808080"/><stop offset="1" stop-color="#666666"/></linearGradient><linearGradient x1="270.06451" y1="280.20159" x2="270.06451" y2="294.84063" gradientUnits="userSpaceOnUse" id="color-5"><stop offset="0" stop-color="#00ff9b" stop-opacity="0"/><stop offset="1" stop-color="#00ff9b"/></linearGradient><linearGradient x1="269.83378" y1="287.52111" x2="269.83378" y2="312.11614" gradientUnits="userSpaceOnUse" id="color-6"><stop offset="0" stop-color="#00ffb5"/><stop offset="1" stop-color="#00ff61"/></linearGradient><linearGradient x1="258.45367" y1="75.52659" x2="242.36705" y2="77.31458" gradientUnits="userSpaceOnUse" id="color-7"><stop offset="0" stop-color="#424242"/><stop offset="1" stop-color="#363636"/></linearGradient><linearGradient x1="268.59132" y1="74.48995" x2="252.50471" y2="76.27793" gradientUnits="userSpaceOnUse" id="color-8"><stop offset="0" stop-color="#424242"/><stop offset="1" stop-color="#363636"/></linearGradient><linearGradient x1="265.91552" y1="80.42081" x2="249.82891" y2="82.20879" gradientUnits="userSpaceOnUse" id="color-9"><stop offset="0" stop-color="#424242"/><stop offset="1" stop-color="#333333"/></linearGradient><linearGradient x1="268.92547" y1="82.74869" x2="252.83885" y2="84.53668" gradientUnits="userSpaceOnUse" id="color-10"><stop offset="0" stop-color="#808080"/><stop offset="1" stop-color="#666666"/></linearGradient></defs><g transform="translate(-189.14515,-48.76493)"><g data-paper-data="{&quot;isPaintingLayer&quot;:true}" fill-rule="nonzero" stroke-linecap="butt" stroke-linejoin="miter" stroke-miterlimit="10" stroke-dasharray="" stroke-dashoffset="0" style="mix-blend-mode: normal"><path d="M189.1764,299.01835c0,-5.95362 0,-234.93614 0,-238.47349c0,-4.77455 6.10037,-11.77993 12.61256,-11.77993c18.02073,0 103.58265,0 136.14458,0c7.85036,0 12.62012,5.89968 12.62012,12.53294c0,5.81881 0,234.56114 0,238.02168c0,4.81412 -4.64793,11.91552 -12.31891,11.91552c-0.34533,0 -0.69679,0 -1.05422,0c-33.10806,0 -117.50805,0 -135.39156,0c-6.5122,0 -12.61256,-5.70807 -12.61256,-12.21673z" fill="#e6e6e6" stroke="none" stroke-width="0"/><text transform="translate(368.15247,82.904) scale(0.57331,0.57331)" font-size="40" xml:space="preserve" fill="#000000" fill-rule="nonzero" stroke="none" stroke-width="1" stroke-linecap="butt" stroke-linejoin="miter" stroke-miterlimit="10" stroke-dasharray="" stroke-dashoffset="0" font-family="Sans Serif" font-weight="normal" text-anchor="start" style="mix-blend-mode: normal"><tspan x="0" dy="0">Minigame</tspan></text><text transform="translate(368.15239,103.0101) scale(0.37099,0.37099)" font-size="40" xml:space="preserve" fill="#000000" fill-rule="nonzero" stroke="none" stroke-width="1" stroke-linecap="butt" stroke-linejoin="miter" stroke-miterlimit="10" stroke-dasharray="" stroke-dashoffset="0" font-family="Sans Serif" font-weight="normal" text-anchor="start" style="mix-blend-mode: normal"><tspan x="0" dy="0">Multiplayer</tspan></text><g stroke="none" stroke-width="0"><path d="M282.43963,173.40838c-1.50237,1.46238 -0.53214,0.51797 -1.45295,1.41424c-1.4807,1.44128 -4.97525,2.25838 -7.51,-0.19456c-0.94596,-0.91542 -4.79227,-4.92338 -6.26786,-6.43935c-1.86518,-1.9162 -1.37055,-5.80265 0.0787,-7.21331c0.9201,-0.89561 -0.03302,0.03215 1.49073,-1.45102c2.02094,-1.96713 6.22169,-1.43134 7.6979,0.08524c0.88265,0.9068 4.66575,4.7934 6.084,6.25045c1.91986,1.9724 1.86596,5.61474 -0.12051,7.54829z" fill="url(#color-1)"/><path d="M275.07506,180.4518c-1.50237,1.46238 -0.53214,0.51797 -1.45295,1.41424c-1.4807,1.44128 -4.97525,2.25838 -7.51,-0.19456c-0.94596,-0.91542 -4.32363,-4.44193 -5.79923,-5.9579c-1.86518,-1.9162 -1.37055,-5.80265 0.0787,-7.21331c0.9201,-0.89561 -0.03302,0.03215 1.49073,-1.45102c2.02094,-1.96713 6.22169,-1.43134 7.6979,0.08524c0.88265,0.9068 4.19712,4.31194 5.61536,5.769c1.91986,1.9724 1.86596,5.61474 -0.12051,7.54829z" fill="url(#color-2)"/><path d="M276.46899,175.95907c-4.52931,4.4087 -11.775,4.31091 -16.18369,-0.2184c-4.4087,-4.52931 -4.31091,-11.775 0.2184,-16.18369c4.52931,-4.4087 11.775,-4.31091 16.18369,0.2184c4.4087,4.52931 4.31091,11.775 -0.2184,16.18369z" fill="#595959"/><path d="M276.09669,171.644c-1.50237,1.46238 -3.08386,3.00173 -4.00466,3.898c-1.4807,1.44128 -4.97525,2.25838 -7.51,-0.19456c-0.94596,-0.91542 -2.49597,-2.56426 -3.97155,-4.08022c-1.86518,-1.9162 -1.37055,-5.80265 0.0787,-7.21331c0.9201,-0.89561 2.5187,-2.45163 4.04244,-3.93479c2.02094,-1.96713 6.22169,-1.43134 7.6979,0.08524c0.88265,0.9068 2.36944,2.43427 3.78769,3.89132c1.91986,1.9724 1.86596,5.61474 -0.12051,7.54829z" fill="url(#color-3)"/><path d="M272.29158,171.65502c-1.50237,1.46238 0.92976,-0.90499 0.00895,-0.00872c-1.4807,1.44128 -4.97525,2.25838 -7.51,-0.19456c-0.65199,-0.63094 -7.71818,-7.88594 -9.73361,-9.95747c-0.90874,-0.93403 -0.64239,-2.47256 0.06778,-3.16384c0.85627,-0.83348 2.99472,-2.91498 4.48766,-4.36816c0.90581,-0.88168 2.1615,-0.91461 3.01397,-0.01968c1.89108,1.98522 8.80818,9.15982 9.78576,10.16414c1.91986,1.9724 1.86596,5.61474 -0.12051,7.54829z" fill="url(#color-4)"/></g><path d="M189.62132,294.84063v-14.63904h160.88638v14.63904z" fill="url(#color-5)" stroke="#000000" stroke-width="0"/><path d="M189.16964,299.98126c-0.00828,-3.88316 -0.02449,-11.49344 -0.02449,-11.49344l161.32691,-0.96671c0,0 0.0576,8.33471 0.02634,12.35926c-0.04245,5.46349 -3.24615,11.161 -13.27178,11.35782c-19.32181,0.37932 -106.5022,0.72693 -137.25272,0.83975c-6.74782,0.02476 -10.79574,-8.10662 -10.80425,-12.09667z" fill="url(#color-6)" stroke="none" stroke-width="0"/><path d="M239.91314,292.06421c0,-2.87716 0,-7.65793 0,-9.00232c0,-0.6957 0.4686,-1.12168 1.19976,-0.66632c2.21014,1.37649 6.81926,4.24708 8.13583,5.06705c0.68653,0.42758 0.54693,1.38252 -0.22986,1.8118c-1.29508,0.7157 -5.36754,2.96627 -7.60196,4.20108c-0.90148,0.49818 -1.50377,-0.08913 -1.50377,-1.41129z" fill="#000000" stroke="none" stroke-width="0"/><text transform="translate(206.90137,292.38104) scale(0.37099,0.37099)" font-size="40" xml:space="preserve" fill="#000000" fill-rule="nonzero" stroke="none" stroke-width="1" stroke-linecap="butt" stroke-linejoin="miter" stroke-miterlimit="10" stroke-dasharray="" stroke-dashoffset="0" font-family="Sans Serif" font-weight="normal" text-anchor="start" style="mix-blend-mode: normal"><tspan x="0" dy="0">Play</tspan></text><g stroke="none" stroke-width="0"><path d="M250.33074,68.28677c2.08376,-0.23161 0.73806,-0.08203 2.01518,-0.22397c2.0537,-0.22827 5.31352,1.27274 5.8078,4.76524c0.18447,1.30338 0.75898,6.82858 0.99268,8.93118c0.29541,2.65771 -2.48154,5.42136 -4.49161,5.64477c-1.27616,0.14185 0.0458,-0.0051 -2.06759,0.2298c-2.80299,0.31155 -5.78941,-2.69089 -6.02322,-4.79435c-0.13979,-1.25771 -0.73894,-6.6483 -0.96356,-8.66918c-0.30406,-2.73565 1.97515,-5.57727 4.73031,-5.88348z" fill="url(#color-7)"/><path d="M260.4684,67.25013c2.08376,-0.23161 0.73806,-0.08203 2.01519,-0.22397c2.0537,-0.22827 5.31352,1.27274 5.80779,4.76524c0.18447,1.30338 0.68476,6.16081 0.91845,8.26342c0.29541,2.65771 -2.48154,5.42136 -4.49161,5.64477c-1.27616,0.14185 0.0458,-0.0051 -2.06759,0.2298c-2.80299,0.31155 -5.78941,-2.69089 -6.02322,-4.79435c-0.13979,-1.25771 -0.66473,-5.98053 -0.88934,-8.00142c-0.30406,-2.73565 1.97515,-5.57727 4.73032,-5.88348z" fill="url(#color-8)"/><path d="M256.60938,69.94005c6.28202,-0.69824 11.94063,3.82833 12.63886,10.11034c0.69824,6.28202 -3.82833,11.94063 -10.11034,12.63885c-6.28202,0.69824 -11.94062,-3.82832 -12.63885,-10.11034c-0.69824,-6.28202 3.82833,-11.94063 10.11034,-12.63886z" fill="#595959"/><path d="M254.25344,73.57434c2.08376,-0.23161 4.27721,-0.4754 5.55433,-0.61735c2.0537,-0.22827 5.31352,1.27274 5.8078,4.76524c0.18447,1.30338 0.3953,3.55654 0.62899,5.65913c0.29541,2.65771 -2.48154,5.42136 -4.49161,5.64477c-1.27616,0.14185 -3.49336,0.38828 -5.60674,0.62318c-2.80299,0.31155 -5.78942,-2.69089 -6.02322,-4.79435c-0.13979,-1.25771 -0.37526,-3.37625 -0.59988,-5.39713c-0.30406,-2.73565 1.97515,-5.57727 4.73031,-5.88348z" fill="url(#color-9)"/><path d="M257.2634,75.90225c2.08376,-0.23161 -1.28955,0.14332 -0.01242,0.00138c2.0537,-0.22827 5.31352,1.27274 5.8078,4.76524c0.12714,0.89834 1.24902,10.96349 1.56763,13.83607c0.14366,1.29522 -1.01132,2.34594 -1.99632,2.45544c-1.18762,0.13201 -4.15359,0.46166 -6.22426,0.69182c-1.25633,0.13963 -2.2676,-0.60546 -2.39086,-1.83526c-0.27346,-2.7281 -1.32706,-12.63825 -1.48188,-14.03121c-0.30406,-2.73565 1.97515,-5.57727 4.73032,-5.88348z" fill="url(#color-10)"/></g><path d="M256.26873,129.34272c0,-3.16035 2.56197,-5.72232 5.72232,-5.72232c3.16035,0 5.72232,2.56197 5.72232,5.72232c0,3.16035 -2.56197,5.72232 -5.72232,5.72232c-3.16035,0 -5.72232,-2.56197 -5.72232,-5.72232z" fill="#595959" stroke="none" stroke-width="0"/></g></g></svg>