<svg version="1.1" xmlns="http://www.w3.org/2000/svg" xmlns:xlink="http://www.w3.org/1999/xlink" width="37.82439" height="32.12918" viewBox="0,0,37.82439,32.12918"><defs><linearGradient x1="153.37925" y1="163.78268" x2="153.37925" y2="203.8938" gradientUnits="userSpaceOnUse" id="color-1"><stop offset="0" stop-color="#e6e6e6"/><stop offset="1" stop-color="#cccccc"/></linearGradient></defs><g transform="translate(-196.24349,-163.78269)"><g data-paper-data="{&quot;isPaintingLayer&quot;:true}" fill-rule="nonzero" stroke-linejoin="miter" stroke-miterlimit="10" stroke-dasharray="" stroke-dashoffset="0" style="mix-blend-mode: normal"><path d="M196.24349,183.69515c0,-5.95362 0,-4.59518 0,-8.13253c0,-4.77455 6.10037,-11.77993 12.61256,-11.77993c18.02073,0 4.46545,0 12.59171,0c7.85036,0 12.62012,5.89968 12.62012,12.53294c0,5.81881 0,4.22018 0,7.68072c0,4.81412 -4.64793,11.91552 -12.31891,11.91552c-0.34533,0 4.9906,0 -12.89291,0c-6.5122,0 -12.61256,-5.70807 -12.61256,-12.21673z" fill="url(#color-1)" stroke="none" stroke-width="0" stroke-linecap="butt"/><g stroke="#000000"><path d="M208.18664,175.5295c1.40508,-2.1322 3.82094,-3.53937 6.56545,-3.53937c4.33938,0 7.85715,3.51776 7.85715,7.85715c0,4.33938 -3.51776,7.85715 -7.85715,7.85715c-2.32537,0 -4.41481,-1.01018 -5.85341,-2.61563" fill="none" stroke-width="1.5" stroke-linecap="butt"/><path d="M207.70214,175.73281v-3.40768" fill="none" stroke-width="1.5" stroke-linecap="round"/><path d="M211.21453,175.74233h-3.40768" fill="none" stroke-width="1.5" stroke-linecap="round"/><path d="M208.13197,185.10279c0,-0.42889 0.34768,-0.77657 0.77657,-0.77657c0.42889,0 0.77657,0.34768 0.77657,0.77657c0,0.42889 -0.34768,0.77657 -0.77657,0.77657c-0.42889,0 -0.77657,-0.34768 -0.77657,-0.77657z" fill="#000000" stroke-width="0" stroke-linecap="butt"/></g></g></g></svg>