<svg version="1.1" xmlns="http://www.w3.org/2000/svg" xmlns:xlink="http://www.w3.org/1999/xlink" width="663.83118" height="662.28716" viewBox="0,0,663.83118,662.28716"><g transform="translate(17.40261,187.96537)"><g data-paper-data="{&quot;isPaintingLayer&quot;:true}" fill="#313131" fill-rule="nonzero" stroke="none" stroke-width="0" stroke-linecap="butt" stroke-linejoin="miter" stroke-miterlimit="10" stroke-dasharray="" stroke-dashoffset="0" style="mix-blend-mode: normal"><path d="M0.73594,469.32179h-7.93651v-657.28716h7.93651z"/><path d="M645.70706,-6.91919v7.93651h-657.28716v-7.93651z"/><path d="M646.42858,474.32179h-7.93651v-657.28716h7.93651z"/><path d="M639.88456,360.27417v7.93651h-657.28716v-7.93651z"/><path d="M46.5839,96.83911c0,-24.21167 19.62744,-43.8391 43.83911,-43.8391c24.21167,0 43.8391,19.62744 43.8391,43.83911c0,24.21167 -19.62743,43.83911 -43.8391,43.83911c-24.21167,0 -43.8391,-19.62744 -43.8391,-43.8391z"/><path d="M276.1609,180c0,-24.21167 19.62743,-43.8391 43.83911,-43.8391c24.21167,0 43.83911,19.62743 43.83911,43.8391c0,24.21167 -19.62743,43.8391 -43.83911,43.8391c-24.21167,0 -43.83911,-19.62743 -43.83911,-43.8391z"/><path d="M495.1609,96.83911c0,-24.21167 19.62743,-43.8391 43.83911,-43.8391c24.21167,0 43.83911,19.62744 43.83911,43.83911c0,24.21167 -19.62743,43.83911 -43.83911,43.83911c-24.21167,0 -43.83911,-19.62744 -43.83911,-43.8391z"/><path d="M408.1609,259.83911c0,-24.21167 19.62743,-43.83911 43.83911,-43.83911c24.21167,0 43.83911,19.62744 43.83911,43.83911c0,24.21167 -19.62743,43.8391 -43.83911,43.8391c-24.21167,0 -43.83911,-19.62743 -43.83911,-43.8391z"/><path d="M146.1609,259.83911c0,-24.21167 19.62743,-43.83911 43.8391,-43.83911c24.21167,0 43.8391,19.62744 43.8391,43.83911c0,24.21167 -19.62743,43.8391 -43.8391,43.8391c-24.21167,0 -43.8391,-19.62743 -43.8391,-43.8391z"/><path d="M553.07363,190.83911c0,-24.21167 19.62743,-43.8391 43.83911,-43.8391c24.21167,0 43.83911,19.62743 43.83911,43.8391c0,24.21167 -19.62743,43.83911 -43.83911,43.83911c-24.21167,0 -43.83911,-19.62744 -43.83911,-43.83911z"/><path d="M-0.92637,190.83911c0,-24.21167 19.62743,-43.8391 43.83911,-43.8391c24.21167,0 43.83911,19.62743 43.83911,43.8391c0,24.21167 -19.62743,43.83911 -43.83911,43.83911c-24.21167,0 -43.83911,-19.62744 -43.83911,-43.83911z"/></g></g></svg>