<svg version="1.1" xmlns="http://www.w3.org/2000/svg" xmlns:xlink="http://www.w3.org/1999/xlink" width="179" height="48.22216" viewBox="0,0,179,48.22216"><defs><linearGradient x1="320" y1="-7" x2="320" y2="367" gradientUnits="userSpaceOnUse" id="color-1"><stop offset="0" stop-color="#ffffff"/><stop offset="1" stop-color="#d9d9d9"/></linearGradient></defs><g transform="translate(-231.83333,-12.9584)"><g data-paper-data="{&quot;isPaintingLayer&quot;:true}" fill-rule="nonzero" stroke="#000000" stroke-linecap="butt" stroke-linejoin="miter" stroke-miterlimit="10" stroke-dasharray="" stroke-dashoffset="0" style="mix-blend-mode: normal"><path d="M410.83334,36.37559v10.83055l-0.20938,3.55949l-0.26476,0.59571c-10.72039,-0.64569 -21.54344,1.74274 -32.19252,1.80533c-12.7152,0.07473 -25.39465,1.78228 -38.16697,1.65106c-10.5031,-0.10791 -16.69453,-1.76556 -27.32861,-3.20391c-4.86849,-0.65851 -9.97971,0.70083 -14.9538,0.55286c-13.55864,-0.40335 -27.07157,-0.78855 -40.62145,-1.60122c-1.86921,-0.11211 -11.77736,0.29671 -14.65063,-0.60441c-0.7164,-0.22468 -1.54307,-0.60125 -2.40578,-1.02669c-1.39717,-1.20873 -3.13264,-2.03693 -5.04526,-2.32347c-0.34089,-0.0985 -0.65539,-0.16008 -0.93516,-0.17318c-0.75612,-0.0354 -1.4674,-0.00446 -2.13525,0.08585l-0.09043,-1.35651v-24.69103c8.53005,2.1528 16.56321,3.18329 25.80008,3.35733c13.68099,0.25777 27.48046,-0.18281 41.10501,1.28253c11.03302,1.18662 11.74085,1.99787 21.61534,2.98488c10.45031,1.04456 21.00704,-0.15621 31.50707,0.06591c1.2661,0.02679 11.37179,0.9889 16.63917,1c11.89905,0.02508 23.79933,-0.16627 35.69725,0c1.48441,0.02075 3.36052,0.20575 5.43555,0.40588z" fill="url(#color-1)" stroke-width="0"/><text transform="translate(236.35168,50.41669) scale(0.86111,0.86111)" font-size="40" xml:space="preserve" fill="#000000" fill-rule="nonzero" stroke="#000000" stroke-width="1" stroke-linecap="butt" stroke-linejoin="miter" stroke-miterlimit="10" stroke-dasharray="" stroke-dashoffset="0" font-family="Sans Serif" font-weight="normal" text-anchor="start" style="mix-blend-mode: normal"><tspan x="0" dy="0">Workshop</tspan></text></g></g></svg>