<svg version="1.1" xmlns="http://www.w3.org/2000/svg" xmlns:xlink="http://www.w3.org/1999/xlink" width="161.37726" height="32.12918" viewBox="0,0,161.37726,32.12918"><defs><linearGradient x1="320" y1="163.9354" x2="320" y2="204.04652" gradientUnits="userSpaceOnUse" id="color-1"><stop offset="0" stop-color="#e6e6e6"/><stop offset="1" stop-color="#cccccc"/></linearGradient><linearGradient x1="257.0167" y1="179.08841" x2="257.0167" y2="191.22394" gradientUnits="userSpaceOnUse" id="color-2"><stop offset="0" stop-color="#414200"/><stop offset="1" stop-color="#2f3000"/></linearGradient><linearGradient x1="257.08387" y1="171.44816" x2="257.08387" y2="183.58369" gradientUnits="userSpaceOnUse" id="color-3"><stop offset="0" stop-color="#414200"/><stop offset="1" stop-color="#2f3000"/></linearGradient><linearGradient x1="261.28181" y1="173.93334" x2="261.28181" y2="186.06887" gradientUnits="userSpaceOnUse" id="color-4"><stop offset="0" stop-color="#414200"/><stop offset="1" stop-color="#2f3000"/></linearGradient><linearGradient x1="263.26581" y1="171.88319" x2="263.26581" y2="184.01873" gradientUnits="userSpaceOnUse" id="color-5"><stop offset="0" stop-color="#7d8000"/><stop offset="1" stop-color="#646600"/></linearGradient></defs><g transform="translate(-239.31137,-163.93541)"><g data-paper-data="{&quot;isPaintingLayer&quot;:true}" fill-rule="nonzero" stroke="none" stroke-linecap="butt" stroke-linejoin="miter" stroke-miterlimit="10" stroke-dasharray="" stroke-dashoffset="0" style="mix-blend-mode: normal"><path d="M239.31137,183.84787c0,-5.95362 0,-4.59518 0,-8.13253c0,-4.77455 6.10037,-11.77993 12.61256,-11.77993c18.02073,0 103.58265,0 136.14458,0c7.85036,0 12.62012,5.89968 12.62012,12.53294c0,5.81881 0,4.22018 0,7.68072c0,4.81412 -4.64793,11.91552 -12.31891,11.91552c-0.34533,0 -0.69679,0 -1.05422,0c-33.10806,0 -117.50805,0 -135.39156,0c-6.5122,0 -12.61256,-5.70807 -12.61256,-12.21673z" fill="url(#color-1)" stroke-width="0"/><text transform="translate(301.87129,183.57216) scale(0.29768,0.29768)" font-size="40" xml:space="preserve" fill="#000000" fill-rule="nonzero" stroke="none" stroke-width="1" stroke-linecap="butt" stroke-linejoin="miter" stroke-miterlimit="10" stroke-dasharray="" stroke-dashoffset="0" font-family="Sans Serif" font-weight="normal" text-anchor="start" style="mix-blend-mode: normal"><tspan x="0" dy="0">Yellow</tspan></text><g stroke-width="0"><path d="M250.94895,184.54181c0,-1.57196 0,-0.55678 0,-1.52023c0,-1.54928 1.38852,-3.85412 4.032,-3.93318c0.98653,-0.02951 5.1514,0 6.73756,0c2.00494,0 3.83435,2.29823 3.83435,3.81459c0,0.96272 0,-0.03455 0,1.55976c0,2.11453 -2.48471,4.0913 -4.07153,4.0913c-0.9488,0 -5.01539,0 -6.53992,0c-2.06374,0 -3.99247,-1.93379 -3.99247,-4.01224z" fill="url(#color-2)"/><path d="M251.01612,176.90157c0,-1.57196 0,-0.55678 0,-1.52023c0,-1.54928 1.38852,-3.85412 4.032,-3.93318c0.98653,-0.02951 4.64764,0 6.23381,0c2.00494,0 3.83435,2.29823 3.83435,3.81459c0,0.96272 0,-0.03455 0,1.55976c0,2.11453 -2.48471,4.0913 -4.07153,4.0913c-0.9488,0 -4.51164,0 -6.03616,0c-2.06374,0 -3.99247,-1.93379 -3.99247,-4.01224z" fill="url(#color-3)"/><path d="M252.70096,180.00004c0,-4.73907 3.84178,-8.58085 8.58085,-8.58085c4.73907,0 8.58085,3.84178 8.58085,8.58085c0,4.73907 -3.84178,8.58085 -8.58085,8.58085c-4.73907,0 -8.58085,-3.84178 -8.58085,-8.58085z" fill="#575900"/><path d="M255.21404,182.05663c0,-1.57196 0,-3.22667 0,-4.19012c0,-1.54928 1.38852,-3.85412 4.032,-3.93318c0.98653,-0.02951 2.68301,0 4.26918,0c2.00494,0 3.83435,2.29823 3.83435,3.81459c0,0.96272 0,2.63534 0,4.22965c0,2.11453 -2.48471,4.0913 -4.07153,4.0913c-0.9488,0 -2.547,0 -4.07153,0c-2.06374,0 -3.99247,-1.93379 -3.99247,-4.01224z" fill="url(#color-4)"/><path d="M257.19806,180.00648c0,-1.57196 0,0.97282 0,0.00937c0,-1.54928 1.38852,-3.85412 4.032,-3.93318c0.67995,-0.02034 8.27323,-0.02269 10.44022,-0.02219c0.97707,0.00022 1.66439,0.94793 1.66439,1.691c0,0.89593 0,3.13342 0,4.69549c0,0.94775 -0.639,1.63962 -1.56562,1.62962c-2.05558,-0.02218 -9.5277,-0.05787 -10.57853,-0.05787c-2.06374,0 -3.99247,-1.93379 -3.99247,-4.01224z" fill="url(#color-5)"/></g></g></g></svg>