<svg version="1.1" xmlns="http://www.w3.org/2000/svg" xmlns:xlink="http://www.w3.org/1999/xlink" width="974.60384" height="1116.03182" viewBox="0,0,974.60384,1116.03182"><g transform="translate(178.29545,622)"><g data-paper-data="{&quot;isPaintingLayer&quot;:true}" fill-rule="nonzero" stroke="none" stroke-linecap="butt" stroke-linejoin="miter" stroke-miterlimit="10" stroke-dasharray="" stroke-dashoffset="0" style="mix-blend-mode: normal"><path d="M0.73597,469.32179h-7.93651v-657.28716h7.93651z" fill="#313131" stroke-width="0"/><path d="M645.70706,-6.91919v7.93651h-657.28716v-7.93651z" fill="#313131" stroke-width="0"/><path d="M646.4286,474.32179h-7.93651v-657.28716h7.93651z" fill="#313131" stroke-width="0"/><path d="M639.88456,360.27417v7.93651h-657.28716v-7.93651z" fill="#313131" stroke-width="0"/><text transform="translate(578.76289,485.33) rotate(-90) scale(17.40364,17.40364)" font-size="40" xml:space="preserve" fill="#313131" fill-rule="nonzero" stroke="none" stroke-width="1" stroke-linecap="butt" stroke-linejoin="miter" stroke-miterlimit="10" stroke-dasharray="" stroke-dashoffset="0" font-family="Sans Serif" font-weight="normal" text-anchor="start" style="mix-blend-mode: normal"><tspan x="0" dy="0">C</tspan></text><path d="M-30.58078,418v-351h136c0,0 0,161.73938 0,226c0,47.79095 98,103 98,103z" fill="#313131" stroke-width="0"/><path d="M463.41922,414c0,0 98,-55.20904 98,-103c0,-64.26062 0,-226 0,-226h136v351z" data-paper-data="{&quot;index&quot;:null}" fill="#313131" stroke-width="0"/><path d="M-16.58078,97v-719h719v861c0,0 -169.80898,-25.93743 -179.473,-76.16431c-15.79137,-82.07258 -142.97752,-71.83569 -200.527,-71.83569c-58.92449,0 -167.328,-9.20135 -176.02014,61.0629c-9.83202,79.47875 -162.97986,-55.06289 -162.97986,-55.06289z" fill="#313131" stroke-width="0"/><path d="M202.91922,255c0,-13.53098 10.96902,-24.5 24.5,-24.5c13.53098,0 24.5,10.96902 24.5,24.5c0,13.53098 -10.96902,24.5 -24.5,24.5c-13.53098,0 -24.5,-10.96902 -24.5,-24.5z" fill="#313131" stroke-width="0"/><path d="M419.91922,258c0,-13.53098 10.96902,-24.5 24.5,-24.5c13.53098,0 24.5,10.96902 24.5,24.5c0,13.53098 -10.96902,24.5 -24.5,24.5c-13.53098,0 -24.5,-10.96902 -24.5,-24.5z" fill="#313131" stroke-width="0"/><path d="M309.91922,293c0,-13.53098 10.96902,-24.5 24.5,-24.5c13.53098,0 24.5,10.96902 24.5,24.5c0,13.53098 -10.96902,24.5 -24.5,24.5c-13.53098,0 -24.5,-10.96902 -24.5,-24.5z" fill="#313131" stroke-width="0"/></g></g></svg>