<svg version="1.1" xmlns="http://www.w3.org/2000/svg" xmlns:xlink="http://www.w3.org/1999/xlink" width="663.8312" height="662.28716" viewBox="0,0,663.8312,662.28716"><g transform="translate(17.4026,187.96537)"><g data-paper-data="{&quot;isPaintingLayer&quot;:true}" fill-rule="nonzero" stroke-linejoin="miter" stroke-miterlimit="10" stroke-dasharray="" stroke-dashoffset="0" style="mix-blend-mode: normal"><path d="M0.73597,469.32179h-7.93651v-657.28716h7.93651z" fill="#313131" stroke="none" stroke-width="0" stroke-linecap="butt"/><path d="M645.70706,-6.91919v7.93651h-657.28716v-7.93651z" fill="#313131" stroke="none" stroke-width="0" stroke-linecap="butt"/><path d="M646.4286,474.32179h-7.93651v-657.28716h7.93651z" fill="#313131" stroke="none" stroke-width="0" stroke-linecap="butt"/><path d="M639.88456,360.27417v7.93651h-657.28716v-7.93651z" fill="#313131" stroke="none" stroke-width="0" stroke-linecap="butt"/><path d="M474.05582,50c0,-28.71881 23.28119,-52 52,-52c28.71881,0 52,23.28119 52,52c0,28.71881 -23.28119,52 -52,52c-28.71881,0 -52,-23.28119 -52,-52z" fill="#313131" stroke="none" stroke-width="0" stroke-linecap="butt"/><path d="M68.05582,275.0311c0,-21.11586 17.11779,-38.23363 38.23363,-38.23363c21.11585,0 38.23363,17.11778 38.23363,38.23363c0,21.11586 -17.11779,38.23363 -38.23363,38.23363c-21.11585,0 -38.23363,-17.11778 -38.23363,-38.23363z" fill="#313131" stroke="none" stroke-width="0" stroke-linecap="butt"/><path d="M206.46893,275.21492c0,-21.11586 17.11779,-38.23363 38.23363,-38.23363c21.11585,0 38.23363,17.11778 38.23363,38.23363c0,21.11586 -17.11779,38.23363 -38.23363,38.23363c-21.11585,0 -38.23363,-17.11778 -38.23363,-38.23363z" fill="#313131" stroke="none" stroke-width="0" stroke-linecap="butt"/><path d="M361.42544,275.58255c0,-21.11586 17.11779,-38.23363 38.23363,-38.23363c21.11585,0 38.23363,17.11778 38.23363,38.23363c0,21.11586 -17.11779,38.23363 -38.23363,38.23363c-21.11585,0 -38.23363,-17.11778 -38.23363,-38.23363z" fill="#313131" stroke="none" stroke-width="0" stroke-linecap="butt"/><path d="M499.83855,275.76637c0,-21.11586 17.11779,-38.23363 38.23363,-38.23363c21.11585,0 38.23363,17.11778 38.23363,38.23363c0,21.11586 -17.11779,38.23363 -38.23363,38.23363c-21.11585,0 -38.23363,-17.11778 -38.23363,-38.23363z" fill="#313131" stroke="none" stroke-width="0" stroke-linecap="butt"/><path d="M139.875,179.73942c0,-14.96702 12.13317,-27.10018 27.10018,-27.10018c14.96701,0 27.10018,12.13316 27.10018,27.10018c0,14.96702 -12.13317,27.10018 -27.10018,27.10018c-14.96701,0 -27.10018,-12.13316 -27.10018,-27.10018z" fill="#313131" stroke="none" stroke-width="0" stroke-linecap="butt"/><path d="M237.98287,179.86971c0,-14.96702 12.13317,-27.10018 27.10018,-27.10018c14.96701,0 27.10018,12.13316 27.10018,27.10018c0,14.96702 -12.13317,27.10018 -27.10018,27.10018c-14.96701,0 -27.10018,-12.13316 -27.10018,-27.10018z" fill="#313131" stroke="none" stroke-width="0" stroke-linecap="butt"/><path d="M347.81677,180.13029c0,-14.96702 12.13317,-27.10018 27.10018,-27.10018c14.96701,0 27.10018,12.13316 27.10018,27.10018c0,14.96702 -12.13317,27.10018 -27.10018,27.10018c-14.96701,0 -27.10018,-12.13316 -27.10018,-27.10018z" fill="#313131" stroke="none" stroke-width="0" stroke-linecap="butt"/><path d="M445.92464,180.26058c0,-14.96702 12.13317,-27.10018 27.10018,-27.10018c14.96701,0 27.10018,12.13316 27.10018,27.10018c0,14.96702 -12.13317,27.10018 -27.10018,27.10018c-14.96701,0 -27.10018,-12.13316 -27.10018,-27.10018z" fill="#313131" stroke="none" stroke-width="0" stroke-linecap="butt"/><path d="M542.92464,180.26058c0,-14.96702 12.13316,-27.10019 27.10018,-27.10019c14.96702,0 27.10018,12.13317 27.10018,27.10019c0,14.96702 -12.13316,27.10018 -27.10018,27.10018c-14.96702,0 -27.10018,-12.13316 -27.10018,-27.10018z" fill="#313131" stroke="none" stroke-width="0" stroke-linecap="butt"/><path d="M23.92464,181.26058c0,-14.96702 12.13317,-27.10019 27.10018,-27.10019c14.96701,0 27.10018,12.13317 27.10018,27.10019c0,14.96702 -12.13317,27.10018 -27.10018,27.10018c-14.96701,0 -27.10018,-12.13316 -27.10018,-27.10018z" fill="#313131" stroke="none" stroke-width="0" stroke-linecap="butt"/><path d="M268.138,204.71108h108.75" fill="none" stroke="#313131" stroke-width="5" stroke-linecap="round"/><path d="M264.05582,53c0,-28.71881 23.28119,-52 52,-52c28.71881,0 52,23.28119 52,52c0,28.71881 -23.28119,52 -52,52c-28.71881,0 -52,-23.28119 -52,-52z" fill="#313131" stroke="none" stroke-width="0" stroke-linecap="butt"/><path d="M53.05582,54c0,-28.71881 23.28119,-52 52,-52c28.71881,0 52,23.28119 52,52c0,28.71881 -23.28119,52 -52,52c-28.71881,0 -52,-23.28119 -52,-52z" fill="#313131" stroke="none" stroke-width="0" stroke-linecap="butt"/></g></g></svg>