<svg version="1.1" xmlns="http://www.w3.org/2000/svg" xmlns:xlink="http://www.w3.org/1999/xlink" width="118.61944" height="31.11879" viewBox="0,0,118.61944,31.11879"><defs><linearGradient x1="351.37891" y1="223.09997" x2="351.37891" y2="263.21109" gradientUnits="userSpaceOnUse" id="color-1"><stop offset="0" stop-color="#229be6"/><stop offset="1" stop-color="#2681ff"/></linearGradient></defs><g transform="translate(-250.69028,-164.44063)"><g data-paper-data="{&quot;isPaintingLayer&quot;:true}" fill-rule="nonzero" stroke="none" stroke-linecap="butt" stroke-linejoin="miter" stroke-miterlimit="10" stroke-dasharray="" stroke-dashoffset="0" style="mix-blend-mode: normal"><path d="M306.74255,191.2129c0,-7.8019 0,-20.7657 0,-24.41123c0,-1.88649 1.2707,-3.04164 3.25333,-1.80684c5.99314,3.73257 18.49153,11.51665 22.06162,13.74013c1.86165,1.15945 1.4831,3.74891 -0.6233,4.91297c-3.51182,1.94074 -14.55496,8.04353 -20.61393,11.39191c-2.44451,1.35091 -4.07772,-0.24171 -4.07772,-3.82694z" fill="#ffffff" stroke-width="0"/><path d="M250.69028,183.3427c0,-5.95362 0,-3.58479 0,-7.12214c0,-4.77455 6.10037,-11.77993 12.61256,-11.77993c18.02073,0 60.82483,0 93.38676,0c7.85036,0 12.62012,5.89968 12.62012,12.53294c0,5.81881 0,3.20979 0,6.67033c0,4.81412 -4.64793,11.91552 -12.31891,11.91552c-0.34533,0 -0.69679,0 -1.05422,0c-33.10806,0 -74.75023,0 -92.63374,0c-6.5122,0 -12.61256,-5.70807 -12.61256,-12.21673z" fill="url(#color-1)" stroke-width="0"/><text transform="translate(304.73185,183.2263) scale(0.27964,0.27964)" font-size="40" xml:space="preserve" fill="#ffffff" fill-rule="nonzero" stroke="none" stroke-width="1" stroke-linecap="butt" stroke-linejoin="miter" stroke-miterlimit="10" stroke-dasharray="" stroke-dashoffset="0" font-family="Sans Serif" font-weight="normal" text-anchor="start" style="mix-blend-mode: normal"><tspan x="0" dy="0">Tanks</tspan></text><g fill="#ffffff" stroke-width="0"><path d="M346.83287,183.099c0,-1.07259 0,-0.3799 0,-1.0373c0,-1.05712 0.94742,-2.62976 2.75114,-2.68371c0.67314,-0.02013 3.51493,0 4.59721,0c1.36802,0 2.61629,1.56813 2.61629,2.60279c0,0.65688 0,-0.02357 0,1.06427c0,1.4428 -1.69538,2.7916 -2.77811,2.7916c-0.64739,0 -3.42213,0 -4.46236,0c-1.40814,0 -2.72417,-1.31947 -2.72417,-2.73765z"/><path d="M346.8787,177.88586c0,-1.07259 0,-0.3799 0,-1.0373c0,-1.05712 0.94742,-2.62976 2.75114,-2.6837c0.67314,-0.02013 3.17121,0 4.25349,0c1.36802,0 2.61628,1.56813 2.61628,2.60279c0,0.65688 0,-0.02358 0,1.06427c0,1.4428 -1.69538,2.7916 -2.77811,2.7916c-0.64739,0 -3.07842,0 -4.11863,0c-1.40814,0 -2.72417,-1.31947 -2.72417,-2.73766z"/><path d="M348.02831,180.00002c0,-3.23359 2.62135,-5.85493 5.85494,-5.85493c3.23359,0 5.85493,2.62134 5.85493,5.85493c0,3.23359 -2.62135,5.85493 -5.85493,5.85493c-3.23359,0 -5.85494,-2.62135 -5.85494,-5.85493z"/><path d="M349.74305,181.4033c0,-1.07259 0,-2.20165 0,-2.85903c0,-1.05712 0.94743,-2.62976 2.75115,-2.68371c0.67314,-0.02013 1.83068,0 2.91296,0c1.36802,0 2.61628,1.56813 2.61628,2.60279c0,0.65688 0,1.79816 0,2.886c0,1.4428 -1.69537,2.7916 -2.7781,2.7916c-0.64739,0 -1.73789,0 -2.77811,0c-1.40814,0 -2.72416,-1.31947 -2.72416,-2.73766z"/><path d="M351.09679,180.00443c0,-1.07259 0,0.66377 0,0.00639c0,-1.05712 0.94743,-2.62976 2.75115,-2.68371c0.46395,-0.01388 5.64504,-0.01548 7.12363,-0.01514c0.66667,0.00016 1.13566,0.64679 1.13566,1.15381c0,0.61132 0,2.13802 0,3.20386c0,0.64667 -0.43601,1.11876 -1.06826,1.11193c-1.40257,-0.01513 -6.501,-0.03949 -7.218,-0.03949c-1.40814,0 -2.72417,-1.31947 -2.72417,-2.73765z"/></g></g></g></svg>