<svg version="1.1" xmlns="http://www.w3.org/2000/svg" xmlns:xlink="http://www.w3.org/1999/xlink" width="135.92555" height="31.96918" viewBox="0,0,135.92555,31.96918"><defs><linearGradient x1="1959.90037" y1="-598.12387" x2="1959.90037" y2="-558.01275" gradientUnits="userSpaceOnUse" id="color-1"><stop offset="0" stop-color="#e6e6e6"/><stop offset="1" stop-color="#cccccc"/></linearGradient><linearGradient x1="320.00001" y1="164.05192" x2="320.00001" y2="196.0211" gradientUnits="userSpaceOnUse" id="color-2"><stop offset="0" stop-color="#1a1a1a" stop-opacity="0.25098"/><stop offset="1" stop-color="#333333" stop-opacity="0.25098"/></linearGradient></defs><g transform="translate(-252.03724,-164.05191)"><g data-paper-data="{&quot;isPaintingLayer&quot;:true}" fill-rule="nonzero" stroke-linecap="butt" stroke-linejoin="miter" stroke-miterlimit="10" stroke-dasharray="" stroke-dashoffset="0" style="mix-blend-mode: normal"><path d="" fill="url(#color-1)" stroke="none" stroke-width="0"/><path d="M252.03725,191.9194c0,-6.82924 0,-20.15148 0,-23.89781c0,-1.92255 1.69469,-3.96967 3.92818,-3.96967c11.522,0 107.07576,0 127.9708,0c2.5843,0 4.02657,2.04712 4.02657,3.96967c0,3.75301 0,17.11615 0,23.93431c0,2.45787 -1.74145,4.0652 -4.02657,4.0652c-11.64242,0 -107.07802,0 -127.89781,0c-2.56832,0 -4.00117,-1.62326 -4.00117,-4.1017z" fill="url(#color-2)" stroke-opacity="0.50196" stroke="#000000" stroke-width="0"/><text transform="translate(279.80413,182.46602) scale(0.2055,0.2055)" font-size="40" xml:space="preserve" fill="#ffffff" fill-rule="nonzero" stroke="#ffffff" stroke-width="1" stroke-linecap="butt" stroke-linejoin="miter" stroke-miterlimit="10" stroke-dasharray="" stroke-dashoffset="0" font-family="Sans Serif" font-weight="normal" text-anchor="start" style="mix-blend-mode: normal"><tspan x="0" dy="0">Download On Itch.io</tspan></text></g></g></svg>