<svg version="1.1" xmlns="http://www.w3.org/2000/svg" xmlns:xlink="http://www.w3.org/1999/xlink" width="95.93751" height="95.9375" viewBox="0,0,95.93751,95.9375"><defs><radialGradient cx="313.94932" cy="178.94519" r="15.5129" gradientUnits="userSpaceOnUse" id="color-1"><stop offset="0" stop-color="#000000"/><stop offset="1" stop-color="#000000" stop-opacity="0"/></radialGradient><linearGradient x1="297.87647" y1="215.49511" x2="286.38004" y2="203.99867" gradientUnits="userSpaceOnUse" id="color-2"><stop offset="0" stop-color="#ffe34e"/><stop offset="1" stop-color="#ff9332"/></linearGradient><linearGradient x1="283.99904" y1="209.74689" x2="300.25747" y2="209.74689" gradientUnits="userSpaceOnUse" id="color-3"><stop offset="0" stop-color="#9d7222"/><stop offset="1" stop-color="#cb952c"/></linearGradient><radialGradient cx="329.46221" cy="181.95894" r="15.51289" gradientUnits="userSpaceOnUse" id="color-4"><stop offset="0" stop-color="#000000"/><stop offset="1" stop-color="#000000" stop-opacity="0"/></radialGradient></defs><g transform="translate(-272.03124,-132.03126)"><g data-paper-data="{&quot;isPaintingLayer&quot;:true}" fill-rule="nonzero" stroke-linecap="butt" stroke-linejoin="miter" stroke-miterlimit="10" stroke-dasharray="" stroke-dashoffset="0" style="mix-blend-mode: normal"><path d="M272.03125,220.09379c0,-19.50071 0,-69.24344 0,-80.09259c0,-4.08401 3.90678,-7.96994 8.00768,-7.96994c10.8788,0 60.69179,0 80.12963,0c4.84283,0 7.80019,3.83485 7.80019,7.87735c0,10.76775 0,60.26837 0,79.9537c0,5.02438 -3.86889,8.10645 -7.93908,8.10645c-10.79645,0 -60.24948,0 -79.90741,0c-5.01514,0 -8.09102,-2.98774 -8.09102,-7.87496z" fill="#999999" stroke="none" stroke-width="0"/><path d="M298.43642,178.94519c0,-8.56753 6.94536,-15.51289 15.5129,-15.51289c8.56754,0 15.5129,6.94536 15.5129,15.51289c0,8.56753 -6.94536,15.5129 -15.5129,15.5129c-8.56754,0 -15.5129,-6.94536 -15.5129,-15.5129z" fill="url(#color-1)" stroke="#000000" stroke-width="0"/><g stroke-width="1"><path d="M297.87647,203.99867c3.17466,3.17466 3.17466,8.32179 0,11.49645c-3.17466,3.17466 -8.32178,3.17466 -11.49644,0c-3.17466,-3.17466 -3.17466,-8.32179 0,-11.49645c3.17466,-3.17466 8.32178,-3.17466 11.49644,0z" fill="url(#color-2)" stroke="url(#color-3)"/><path d="M290.18667,214.39617c-0.46396,-0.46396 -0.16435,-0.16431 -0.4487,-0.44869c-0.45729,-0.45729 -0.72774,-1.54744 0.02917,-2.35101c0.28247,-0.29992 1.52049,-1.52049 1.98867,-1.98867c0.59177,-0.5918 1.81009,-0.45341 2.25766,-0.00584c0.28416,0.28416 -0.01018,-0.01022 0.46038,0.46037c0.62412,0.62412 0.47421,1.94099 0.00583,2.40933c-0.28004,0.28008 -1.48034,1.48039 -1.93034,1.93034c-0.60913,0.60913 -1.74921,0.60766 -2.36268,-0.00584z" fill="#be8b28" stroke="none"/><path d="M287.9514,212.12125c-0.464,-0.464 -0.16435,-0.16434 -0.44873,-0.44869c-0.45728,-0.45729 -0.72773,-1.54744 0.02917,-2.35103c0.2825,-0.29988 1.37181,-1.37181 1.83999,-1.83999c0.59181,-0.59177 1.81009,-0.45338 2.25766,-0.0058c0.28416,0.28416 -0.01018,-0.01022 0.46042,0.46038c0.62412,0.62412 0.47418,1.94099 0.0058,2.40933c-0.28004,0.28005 -1.33163,1.33166 -1.78162,1.78166c-0.60913,0.60913 -1.74921,0.60763 -2.36268,-0.00584z" fill="#be8b28" stroke="none"/><path d="M289.36322,212.53849c-1.39879,-1.39879 -1.39879,-3.66667 0,-5.06546c1.39879,-1.39879 3.6667,-1.39879 5.06549,0c1.39879,1.39879 1.39879,3.66667 0,5.06546c-1.39879,1.39879 -3.6667,1.39879 -5.06549,0z" fill="#a67b29" stroke="none"/><path d="M290.71205,212.40375c-0.464,-0.46396 -0.95241,-0.95238 -1.23677,-1.23673c-0.45729,-0.45729 -0.72775,-1.54744 0.02917,-2.35103c0.2825,-0.29988 0.79192,-0.79192 1.2601,-1.2601c0.59177,-0.59177 1.81009,-0.45341 2.25766,-0.00583c0.28416,0.28416 0.77785,0.77784 1.24845,1.24845c0.62412,0.62412 0.47418,1.94099 0.00584,2.40933c-0.28004,0.28005 -0.7518,0.75179 -1.20177,1.20176c-0.60913,0.60913 -1.74921,0.60764 -2.36268,-0.00583z" fill="#cb952c" stroke="none"/><path d="M290.69251,211.21303c-0.46396,-0.464 0.28714,0.28714 0.00279,0.00275c-0.45729,-0.45729 -0.72775,-1.5474 0.02916,-2.351c0.19467,-0.20672 2.43525,-2.44866 3.075,-3.08811c0.28843,-0.28833 0.77105,-0.21146 0.99037,0.00786c0.26445,0.26445 0.92487,0.92484 1.38594,1.38592c0.27974,0.27974 0.29534,0.67257 0.01888,0.94312c-0.61327,0.60017 -2.8293,2.79512 -3.13947,3.10529c-0.60913,0.60913 -1.7492,0.60763 -2.36268,-0.00584z" fill="#9e7627" stroke="none"/></g><text transform="translate(303.0303,212.89343) scale(0.27272,0.27272)" font-size="40" xml:space="preserve" fill="#000000" fill-rule="nonzero" stroke="none" stroke-width="1" stroke-linecap="butt" stroke-linejoin="miter" stroke-miterlimit="10" stroke-dasharray="" stroke-dashoffset="0" font-family="Sans Serif" font-weight="normal" text-anchor="start" style="mix-blend-mode: normal"><tspan x="0" dy="0">150</tspan></text><text transform="translate(285.55025,143.12961) scale(0.16852,0.16852)" font-size="40" xml:space="preserve" fill="#000000" fill-rule="nonzero" stroke="none" stroke-width="1" stroke-linecap="butt" stroke-linejoin="miter" stroke-miterlimit="10" stroke-dasharray="" stroke-dashoffset="0" font-family="Sans Serif" font-weight="normal" text-anchor="start" style="mix-blend-mode: normal"><tspan x="0" dy="0">Upgrade (x2 Balls)</tspan></text><path d="M302.35429,178.94519c0,-6.40376 5.19127,-11.59502 11.59503,-11.59502c6.40376,0 11.59502,5.19126 11.59502,11.59502c0,6.40376 -5.19126,11.59502 -11.59502,11.59502c-6.40376,0 -11.59503,-5.19126 -11.59503,-11.59502z" fill="#505050" stroke="#000000" stroke-width="0"/><path d="M313.94932,181.95894c0,-8.56753 6.94536,-15.51289 15.5129,-15.51289c8.56754,0 15.51289,6.94536 15.51289,15.51289c0,8.56753 -6.94536,15.5129 -15.51289,15.5129c-8.56754,0 -15.5129,-6.94536 -15.5129,-15.5129z" fill="url(#color-4)" stroke="#000000" stroke-width="0"/><path d="M317.86719,181.95894c0,-6.40375 5.19127,-11.59502 11.59503,-11.59502c6.40375,0 11.59502,5.19127 11.59502,11.59502c0,6.40375 -5.19127,11.59502 -11.59502,11.59502c-6.40375,0 -11.59503,-5.19127 -11.59503,-11.59502z" fill="#505050" stroke="#000000" stroke-width="0"/></g></g></svg>