<svg version="1.1" xmlns="http://www.w3.org/2000/svg" xmlns:xlink="http://www.w3.org/1999/xlink" width="118.61944" height="31.11879" viewBox="0,0,118.61944,31.11879"><defs><linearGradient x1="351.37891" y1="223.09995" x2="351.37891" y2="263.21107" gradientUnits="userSpaceOnUse" id="color-1"><stop offset="0" stop-color="#e6e6e6"/><stop offset="1" stop-color="#cccccc"/></linearGradient></defs><g transform="translate(-250.69028,-164.44061)"><g data-paper-data="{&quot;isPaintingLayer&quot;:true}" fill-rule="nonzero" stroke-miterlimit="10" stroke-dasharray="" stroke-dashoffset="0" style="mix-blend-mode: normal"><path d="M250.69028,183.34269c0,-5.95362 0,-3.58479 0,-7.12214c0,-4.77455 6.10037,-11.77993 12.61256,-11.77993c18.02073,0 60.82483,0 93.38676,0c7.85036,0 12.62012,5.89968 12.62012,12.53294c0,5.81881 0,3.20979 0,6.67033c0,4.81412 -4.64793,11.91552 -12.31891,11.91552c-0.34533,0 -0.69679,0 -1.05422,0c-33.10806,0 -74.75023,0 -92.63374,0c-6.5122,0 -12.61256,-5.70807 -12.61256,-12.21673z" fill="url(#color-1)" stroke="none" stroke-width="0" stroke-linecap="butt" stroke-linejoin="miter"/><path d="M354.47004,183.2526v-1.95155M357.65755,178.69899c-0.30136,1.4846 -1.61394,2.60207 -3.18752,2.60207M351.28251,178.69899c0.30138,1.4846 1.61393,2.60207 3.18753,2.60207M351.28251,178.69899h-0.06505h-0.16263c-0.45341,0 -0.68012,0.00001 -0.86864,-0.03749c-0.77412,-0.15399 -1.3793,-0.75917 -1.53334,-1.53333c-0.03747,-0.18852 -0.03746,-0.41522 -0.03746,-0.86862c0,-0.15113 0,-0.2267 0.01249,-0.28954c0.05132,-0.25805 0.25305,-0.45978 0.51111,-0.51111c0.06283,-0.0125 0.13843,-0.0125 0.28954,-0.0125h1.78892M357.65756,178.69899h0.06507h0.16263c0.4534,0 0.68009,0.00001 0.86861,-0.03749c0.77416,-0.15399 1.37933,-0.75917 1.53333,-1.53333c0.03749,-0.18852 0.03749,-0.41522 0.03749,-0.86862c0,-0.15113 0,-0.2267 -0.01249,-0.28954c-0.05133,-0.25805 -0.25306,-0.45978 -0.51111,-0.51111c-0.06284,-0.0125 -0.13841,-0.0125 -0.28954,-0.0125h-1.78892M355.62568,183.31908c0.67344,0.18044 1.19948,0.70652 1.37994,1.37994c0.0665,0.24818 0.0665,0.55067 0.0665,1.15565h-5.20414c0,-0.60499 0,-0.90747 0.06648,-1.15565c0.18045,-0.67342 0.70653,-1.19948 1.37994,-1.37994c0.24817,-0.06648 0.55066,-0.06648 1.15564,-0.06648c0.60499,0 0.90747,0 1.15564,0.06648zM351.28251,178.69898c-0.04267,-0.21018 -0.06505,-0.42773 -0.06505,-0.65052v-2.88086c0,-0.3468 0,-0.5202 0.0644,-0.65397c0.06395,-0.13278 0.17107,-0.23991 0.30385,-0.30385c0.13381,-0.06442 0.30718,-0.06442 0.65397,-0.06442h4.46071c0.3468,0 0.5202,-0.00001 0.65397,0.06442c0.13278,0.06394 0.23991,0.17108 0.30385,0.30385c0.06442,0.13377 0.06442,0.30716 0.06442,0.65397v2.88086c0,0.22278 -0.0224,0.44033 -0.06507,0.65052" fill="none" stroke="#000000" stroke-width="2" stroke-linecap="round" stroke-linejoin="round"/></g></g></svg>