<svg version="1.1" xmlns="http://www.w3.org/2000/svg" xmlns:xlink="http://www.w3.org/1999/xlink" width="415.6006" height="107.89216" viewBox="0,0,415.6006,107.89216"><defs><linearGradient x1="205.22864" y1="208.33265" x2="163.08406" y2="165.34721" gradientUnits="userSpaceOnUse" id="color-1"><stop offset="0" stop-color="#0098fb"/><stop offset="1" stop-color="#08b7ff"/></linearGradient><linearGradient x1="226.06477" y1="188.58925" x2="155.27603" y2="143.51657" gradientUnits="userSpaceOnUse" id="color-2"><stop offset="0" stop-color="#175ceb"/><stop offset="1" stop-color="#229cff"/></linearGradient><linearGradient x1="201.83651" y1="180.12947" x2="259.27829" y2="237.91651" gradientUnits="userSpaceOnUse" id="color-3"><stop offset="0" stop-color="#0099f9"/><stop offset="1" stop-color="#0075c8"/></linearGradient><clipPath id="clip-1"><path d="M112.1997,233.94608v-107.89216h415.6006v107.89216z" fill="none"/></clipPath></defs><g transform="translate(-112.1997,-126.05392)"><g clip-path="url(#clip-1)" data-paper-data="{&quot;isPaintingLayer&quot;:true}" fill-rule="nonzero" stroke="none" stroke-width="1" stroke-linecap="butt" stroke-linejoin="miter" stroke-miterlimit="10" stroke-dasharray="" stroke-dashoffset="0" style="mix-blend-mode: normal"><path d="M264.71606,163.68671h12.6018c1.84107,0 3.51038,0.31651 5.0062,0.94945c1.49582,0.6042 2.77671,1.43859 3.84096,2.5031c1.06425,1.06451 1.88423,2.31606 2.45994,3.75465c0.57571,1.40976 0.86314,2.92025 0.86314,4.53147c0,1.58239 -0.28742,3.09288 -0.86314,4.53147c-0.57571,1.43859 -1.39569,2.70447 -2.45994,3.7978c-1.03576,1.06451 -2.3158,1.92764 -3.84096,2.58941c-1.49582,0.63294 -3.17893,0.94945 -5.04935,0.94945h-5.0062v7.89771h-7.55245zM272.26851,170.50549v9.79661h4.66094c1.4095,0 2.57474,-0.44598 3.49571,-1.33786c0.94945,-0.89188 1.42418,-2.07153 1.42418,-3.53886c0,-1.46733 -0.47473,-2.64698 -1.42418,-3.53886c-0.92097,-0.92071 -2.0862,-1.38102 -3.49571,-1.38102zM303.80237,195.62278c-1.81259,0 -3.49571,-0.31651 -5.04935,-0.94945c-1.52516,-0.63294 -2.83454,-1.49608 -3.92727,-2.58941c-1.09359,-1.09334 -1.95673,-2.37363 -2.58941,-3.84096c-0.6042,-1.46733 -0.90629,-3.03539 -0.90629,-4.7041c0,-1.6687 0.3021,-3.23676 0.90629,-4.7041c0.63268,-1.46733 1.49582,-2.74762 2.58941,-3.84096c1.09273,-1.12208 2.40211,-1.99963 3.92727,-2.63257c1.55365,-0.63294 3.23676,-0.94945 5.04935,-0.94945c1.78324,0 3.43788,0.31651 4.96304,0.94945c1.5243,0.63294 2.84835,1.51049 3.97043,2.63257c1.12208,1.09334 1.99903,2.37363 2.63257,3.84096c0.63268,1.46733 0.94945,3.03539 0.94945,4.7041c0,1.6687 -0.31677,3.23676 -0.94945,4.7041c-0.6042,1.46733 -1.46733,2.74762 -2.58941,3.84096c-1.09359,1.09334 -2.40297,1.95647 -3.92727,2.58941c-1.52516,0.63294 -3.20828,0.94945 -5.04935,0.94945zM303.84552,188.76084c0.71899,0 1.39483,-0.12947 2.02837,-0.38841c0.66116,-0.28768 1.2222,-0.66177 1.68312,-1.12208c0.48854,-0.48914 0.86314,-1.05018 1.12208,-1.68312c0.28742,-0.63294 0.43157,-1.32345 0.43157,-2.07153c0,-0.71925 -0.14414,-1.39543 -0.43157,-2.02837c-0.25894,-0.66177 -0.63354,-1.22281 -1.12208,-1.68312c-0.46092,-0.48914 -1.02195,-0.86314 -1.68312,-1.12208c-0.63354,-0.28768 -1.30938,-0.43157 -2.02837,-0.43157c-0.71986,0 -1.41037,0.14388 -2.07153,0.43157c-0.63354,0.25894 -1.19458,0.63294 -1.68312,1.12208c-0.46092,0.46031 -0.83465,1.02135 -1.12208,1.68312c-0.25894,0.63294 -0.38841,1.30912 -0.38841,2.02837c0,0.74808 0.12947,1.43859 0.38841,2.07153c0.28742,0.63294 0.66116,1.19398 1.12208,1.68312c0.48854,0.46031 1.04957,0.83439 1.68312,1.12208c0.66116,0.25894 1.35167,0.38841 2.07153,0.38841zM319.58138,161.18361h7.2072v34.00761h-7.2072zM333.94916,205.03098c-1.38102,0 -2.71888,-0.24453 -4.01359,-0.73367c-1.29471,-0.46031 -2.41678,-1.05018 -3.36624,-1.76943l4.14306,-5.69671c0.40309,0.43157 0.86314,0.77682 1.38102,1.03576c0.51788,0.28768 1.10827,0.43157 1.76943,0.43157c0.92097,0 1.71246,-0.24453 2.37363,-0.73367c0.66203,-0.46031 1.19458,-1.23713 1.5968,-2.33047l0.34525,-0.86314l-9.14926,-22.48473h7.72508l5.09251,13.206l4.74726,-13.206h7.50929l-9.71029,24.64257c-0.63268,1.61122 -1.28003,2.94908 -1.94206,4.01359c-0.66116,1.09334 -1.4095,1.9708 -2.24416,2.63257c-0.80531,0.66177 -1.72627,1.13649 -2.76204,1.42418c-1.00642,0.28768 -2.17165,0.43157 -3.49571,0.43157zM356.71959,163.68671h13.55126c1.8989,0 3.58202,0.28768 5.04935,0.86314c1.46733,0.57545 2.70421,1.35228 3.71149,2.33047c1.00642,0.97819 1.76943,2.1291 2.28731,3.45255c0.51788,1.29471 0.77682,2.69014 0.77682,4.18622c0,2.01396 -0.46092,3.84096 -1.38102,5.48092c-0.89248,1.61122 -2.12936,2.8771 -3.71149,3.7978l5.86933,11.39341h-8.28612l-4.44516,-9.45135h-5.91249v9.45135h-7.50929zM364.22888,170.54865v8.37243h5.48092c1.61061,0 2.79052,-0.40283 3.53886,-1.20839c0.77682,-0.83439 1.16524,-1.84133 1.16524,-3.02098c0,-1.29471 -0.38841,-2.30173 -1.16524,-3.02098c-0.77682,-0.74808 -1.95673,-1.12208 -3.53886,-1.12208zM396.05448,195.62278c-1.8989,0 -3.61137,-0.3021 -5.13567,-0.90629c-1.52516,-0.63294 -2.81987,-1.49608 -3.88412,-2.58941c-1.03576,-1.09334 -1.84193,-2.37363 -2.41678,-3.84096c-0.57571,-1.46733 -0.86314,-3.04972 -0.86314,-4.74726c0,-1.6687 0.3021,-3.23676 0.90629,-4.7041c0.63268,-1.46733 1.49582,-2.74762 2.58941,-3.84096c1.09273,-1.12208 2.38744,-1.99963 3.88412,-2.63257c1.49582,-0.63294 3.1211,-0.94945 4.87673,-0.94945c1.78324,0 3.40939,0.3021 4.87673,0.90629c1.49582,0.6042 2.77585,1.45292 3.84096,2.54625c1.09273,1.06451 1.92739,2.33047 2.5031,3.7978c0.6042,1.43859 0.90629,3.02098 0.90629,4.74726v2.54625h-17.34906c0.40222,1.17965 1.06425,2.08594 1.98522,2.71888c0.9201,0.6042 2.05686,0.90629 3.40939,0.90629c1.12208,0 2.07153,-0.21578 2.84835,-0.64735c0.80531,-0.43157 1.45266,-1.03576 1.94206,-1.81259l5.86933,3.40939c-1.20839,1.61122 -2.66192,2.86277 -4.35884,3.75465c-1.66931,0.89188 -3.81248,1.33786 -6.43037,1.33786zM396.05448,177.45375c-1.17991,0 -2.201,0.28768 -3.06414,0.86314c-0.86314,0.54662 -1.52516,1.30912 -1.98522,2.28731h9.96924c-0.40309,-1.03576 -1.02195,-1.81259 -1.85575,-2.33047c-0.83465,-0.54662 -1.85575,-0.81998 -3.06414,-0.81998zM411.3743,171.88651h7.29351v2.71888c0.74748,-1.00702 1.63996,-1.78385 2.67573,-2.33047c1.06425,-0.57545 2.25797,-0.86314 3.58202,-0.86314c2.58941,0 4.64627,0.80557 6.17143,2.41678c1.5243,1.61122 2.28731,3.85538 2.28731,6.73247v14.63018h-7.46614v-13.16284c0,-1.35228 -0.28829,-2.38804 -0.86314,-3.10729c-0.57571,-0.74808 -1.46733,-1.12208 -2.67573,-1.12208c-1.06511,0 -1.94206,0.374 -2.63257,1.12208c-0.69051,0.74808 -1.03576,1.8989 -1.03576,3.45255v12.81759h-7.33667zM447.39302,195.66594c-1.35254,0 -2.67573,-0.27336 -3.97043,-0.81998c-1.29471,-0.57545 -2.44527,-1.38102 -3.45255,-2.41678c-1.00728,-1.03576 -1.81259,-2.30173 -2.41678,-3.7978c-0.6042,-1.49608 -0.90629,-3.19361 -0.90629,-5.09251c0,-1.87016 0.3021,-3.55328 0.90629,-5.04935c0.6042,-1.49608 1.39569,-2.76204 2.37363,-3.7978c1.00728,-1.06451 2.15784,-1.87016 3.45255,-2.41678c1.32319,-0.57545 2.6904,-0.86314 4.0999,-0.86314c1.46733,0 2.73356,0.27336 3.7978,0.81998c1.09359,0.54662 1.98522,1.29471 2.67573,2.24416v-13.29231h7.16404v34.00761h-7.12088v-2.84835c-0.74834,1.06451 -1.68312,1.88449 -2.8052,2.45994c-1.09359,0.57545 -2.35895,0.86314 -3.7978,0.86314zM449.1193,188.76084c0.71899,0 1.39569,-0.12947 2.02837,-0.38841c0.66203,-0.28768 1.22307,-0.66177 1.68312,-1.12208c0.4894,-0.48914 0.86314,-1.05018 1.12208,-1.68312c0.28742,-0.63294 0.43157,-1.32345 0.43157,-2.07153c0,-0.71925 -0.14414,-1.39543 -0.43157,-2.02837c-0.25894,-0.66177 -0.63268,-1.22281 -1.12208,-1.68312c-0.46005,-0.48914 -1.02109,-0.86314 -1.68312,-1.12208c-0.63268,-0.28768 -1.30938,-0.43157 -2.02837,-0.43157c-0.71899,0 -1.4095,0.14388 -2.07153,0.43157c-0.63268,0.25894 -1.19372,0.63294 -1.68312,1.12208c-0.46005,0.46031 -0.83465,1.02135 -1.12208,1.68312c-0.25894,0.63294 -0.38841,1.30912 -0.38841,2.02837c0,0.74808 0.12947,1.43859 0.38841,2.07153c0.28742,0.63294 0.66203,1.19398 1.12208,1.68312c0.4894,0.46031 1.05044,0.83439 1.68312,1.12208c0.66203,0.25894 1.35254,0.38841 2.07153,0.38841zM476.67841,195.62278c-1.8989,0 -3.6105,-0.3021 -5.13567,-0.90629c-1.52516,-0.63294 -2.81987,-1.49608 -3.88412,-2.58941c-1.03576,-1.09334 -1.84107,-2.37363 -2.41678,-3.84096c-0.57571,-1.46733 -0.86314,-3.04972 -0.86314,-4.74726c0,-1.6687 0.3021,-3.23676 0.90629,-4.7041c0.63268,-1.46733 1.49582,-2.74762 2.58941,-3.84096c1.09359,-1.12208 2.3883,-1.99963 3.88412,-2.63257c1.49582,-0.63294 3.12197,-0.94945 4.87673,-0.94945c1.7841,0 3.40939,0.3021 4.87673,0.90629c1.49582,0.6042 2.77671,1.45292 3.84096,2.54625c1.09359,1.06451 1.92739,2.33047 2.5031,3.7978c0.6042,1.43859 0.90629,3.02098 0.90629,4.74726v2.54625h-17.34906c0.40309,1.17965 1.06425,2.08594 1.98522,2.71888c0.92097,0.6042 2.05686,0.90629 3.40939,0.90629c1.12208,0 2.07153,-0.21578 2.84835,-0.64735c0.80531,-0.43157 1.45266,-1.03576 1.94206,-1.81259l5.86933,3.40939c-1.20839,1.61122 -2.66105,2.86277 -4.35884,3.75465c-1.66844,0.89188 -3.81248,1.33786 -6.43037,1.33786zM476.67841,177.45375c-1.17991,0 -2.201,0.28768 -3.06414,0.86314c-0.86314,0.54662 -1.52516,1.30912 -1.98522,2.28731h9.96924c-0.40309,-1.03576 -1.02109,-1.81259 -1.85575,-2.33047c-0.83465,-0.54662 -1.85575,-0.81998 -3.06414,-0.81998zM491.99823,171.88651h7.16404v3.27992c0.6042,-1.35228 1.46733,-2.31606 2.58941,-2.89151c1.12208,-0.57545 2.44527,-0.86314 3.97043,-0.86314c0.74748,0 1.45266,0.08631 2.11469,0.25894c0.66116,0.17263 1.26536,0.38841 1.81259,0.64735l-2.5031,7.25035c-0.34525,-0.25894 -0.81998,-0.47473 -1.42418,-0.64735c-0.57571,-0.20137 -1.19458,-0.3021 -1.85575,-0.3021c-1.43885,0 -2.5756,0.38841 -3.40939,1.16524c-0.83465,0.77682 -1.25155,2.10027 -1.25155,3.97043v11.43657h-7.2072z" fill="#000000"/><path d="M137.05805,161.44255c0,-4.76693 3.86444,-8.63137 8.63137,-8.63137h56.96706c4.76711,0 8.63137,3.86444 8.63137,8.63137v56.96706c0,4.76711 -3.86427,8.63137 -8.63137,8.63137h-56.96706c-4.76693,0 -8.63137,-3.86427 -8.63137,-8.63137z" fill="url(#color-1)"/><path d="M158.29123,170.28971c0,-20.37882 16.5203,-36.89912 36.89912,-36.89912c20.37882,0 36.89912,16.5203 36.89912,36.89912c0,20.37882 -16.5203,36.89912 -36.89912,36.89912c-20.37882,0 -36.89912,-16.5203 -36.89912,-36.89912z" fill="url(#color-2)"/><path d="M209.25086,165.75823c3.32222,-5.75428 11.62732,-5.75428 14.94954,0l21.90211,37.93488c3.32222,5.75428 -0.83034,12.94706 -7.47477,12.94706h-43.80379c-6.64443,0 -10.79724,-7.19278 -7.47503,-12.94706z" fill="url(#color-3)"/></g></g></svg>