<svg version="1.1" xmlns="http://www.w3.org/2000/svg" xmlns:xlink="http://www.w3.org/1999/xlink" width="43.18191" height="33.70471" viewBox="0,0,43.18191,33.70471"><defs><linearGradient x1="520.11325" y1="61.93337" x2="508.01168" y2="44.25077" gradientUnits="userSpaceOnUse" id="color-1"><stop offset="0" stop-color="#bf0000"/><stop offset="1" stop-color="#400000"/></linearGradient><linearGradient x1="500.67413" y1="64.53315" x2="493.27904" y2="53.72757" gradientUnits="userSpaceOnUse" id="color-2"><stop offset="0" stop-color="#bf0000"/><stop offset="1" stop-color="#400000"/></linearGradient><linearGradient x1="529.55765" y1="44.76592" x2="522.16256" y2="33.96035" gradientUnits="userSpaceOnUse" id="color-3"><stop offset="0" stop-color="#bf0000"/><stop offset="1" stop-color="#400000"/></linearGradient></defs><g transform="translate(-487.89173,-30.7849)"><g data-paper-data="{&quot;isPaintingLayer&quot;:true}" fill-rule="nonzero" stroke="#000000" stroke-linecap="butt" stroke-linejoin="miter" stroke-miterlimit="10" stroke-dasharray="" stroke-dashoffset="0" style="mix-blend-mode: normal"><path d="M518.57405,40.6908c0.65137,5.56534 2.03301,16.53978 2.38355,19.53493c0.16729,1.42934 -1.04095,2.2077 -2.36736,1.5368c-2.70188,-1.36662 -12.66646,-6.40672 -17.75817,-8.98212c-1.83589,-0.9286 -1.58031,-2.53457 -0.24963,-3.44525c2.48701,-1.70205 10.73906,-7.34957 14.97539,-10.24881c1.47159,-1.00713 2.79324,-0.30061 3.01621,1.60446z" fill="url(#color-1)" stroke-width="3"/><path d="M499.73357,51.55212c0.39805,3.40089 1.24235,10.10721 1.45657,11.93749c0.10224,0.87345 -0.63611,1.3491 -1.44666,0.93912c-1.65109,-0.83512 -7.74029,-3.91505 -10.85175,-5.48885c-1.12188,-0.56746 -0.96572,-1.54884 -0.15255,-2.10534c1.51977,-1.0401 6.56248,-4.49121 9.15124,-6.26289c0.89926,-0.61543 1.70691,-0.18371 1.84315,0.98046z" fill="url(#color-2)" stroke-width="2"/><path d="M528.61707,31.7849c0.39805,3.40089 1.24235,10.10721 1.45657,11.93749c0.10224,0.87345 -0.63611,1.3491 -1.44666,0.93912c-1.65109,-0.83512 -7.74029,-3.91507 -10.85175,-5.48885c-1.12188,-0.56746 -0.96572,-1.54884 -0.15255,-2.10534c1.51977,-1.0401 6.56247,-4.49121 9.15124,-6.26289c0.89927,-0.61544 1.70691,-0.18371 1.84315,0.98046z" fill="url(#color-3)" stroke-width="2"/></g></g></svg>