<svg version="1.1" xmlns="http://www.w3.org/2000/svg" xmlns:xlink="http://www.w3.org/1999/xlink" width="264.1441" height="158.12503" viewBox="0,0,264.1441,158.12503"><g transform="translate(-187.92795,-100.93748)"><g fill="#ffffff" stroke="none" stroke-miterlimit="10"><path d="M258.9788,100.93748c11.385,0 21.92667,2.03792 31.62501,6.11417c9.55792,3.93542 17.85042,9.4875 24.87834,16.65584c7.02792,7.02792 12.50959,15.39084 16.445,25.08917c3.93542,9.55792 5.90333,19.95875 5.90333,31.20334c0,10.96334 -1.8975,21.29417 -5.6925,30.99251c-3.795,9.55792 -9.13625,17.92084 -16.02334,25.08917c-6.88708,7.02792 -15.18,12.65 -24.87834,16.86667c-9.69834,4.07625 -20.45084,6.11417 -32.25751,6.11417c-8.15208,0 -15.8125,-1.05417 -22.98084,-3.1625c-7.30875,-2.10833 -13.915,-5.06 -19.81834,-8.855c-6.04375,-3.93542 -11.45542,-8.57375 -16.23417,-13.915c-4.77875,-5.34125 -8.78458,-11.17417 -12.0175,-17.49917l33.94417,-18.13167c3.23292,7.30875 7.94125,13.35292 14.12584,18.13167c6.18459,4.63833 13.915,6.9575 23.19167,6.9575c6.18459,0 11.80667,-1.12459 16.86667,-3.37333c4.91959,-2.24875 9.20625,-5.27083 12.86084,-9.06584c3.65459,-3.93542 6.46542,-8.43334 8.43334,-13.49334c1.96792,-5.20042 2.95167,-10.7525 2.95167,-16.65584c0,-5.90333 -0.98375,-11.45542 -2.95167,-16.65584c-2.10833,-5.34125 -4.98958,-9.90917 -8.64417,-13.70417c-3.65459,-3.93542 -8.01167,-7.02792 -13.07167,-9.27667c-5.06,-2.24875 -10.68208,-3.37333 -16.86667,-3.37333c-8.43334,0 -15.67209,2.03792 -21.71584,6.11417c-6.04375,3.93542 -10.82292,9.34709 -14.33667,16.23417l-32.25751,-20.45084c3.37333,-5.62208 7.44959,-10.7525 12.22834,-15.39084c4.77875,-4.77875 10.12,-8.78458 16.02334,-12.0175c5.90333,-3.37333 12.22834,-5.97375 18.975,-7.80083c6.74667,-1.82708 13.84458,-2.74083 21.29417,-2.74083zM404.03216,103.04582c8.15208,0 15.39084,1.265 21.71584,3.795c6.46542,2.38959 11.80667,5.76292 16.02334,10.12c4.21667,4.35708 7.16833,9.55792 8.855,15.60167c1.68667,5.90333 1.8975,12.29875 0.6325,19.18584c-1.12459,6.46542 -3.51375,12.0175 -7.16833,16.65584c-3.51375,4.63833 -7.94125,8.50375 -13.2825,11.59584c5.06,3.795 8.71459,8.71459 10.96334,14.75834c2.24875,5.90333 2.60042,13.2825 1.05417,22.1375c-2.38959,12.93125 -8.855,22.84042 -19.39667,29.72751c-10.40125,6.88708 -24.38625,10.33084 -41.95584,10.33084h-66.83418l2.75939,-15.73871c15.46969,-16.00057 25.04026,-38.1153 25.04026,-62.54456c0,-13.06534 -2.73788,-25.46867 -7.65114,-36.62893l6.83817,-38.99616zM356.17298,224.69668h26.35417c7.44959,0 13.00125,-1.265 16.65584,-3.795c3.65459,-2.53 5.90333,-5.97375 6.74667,-10.33084c0.84333,-4.63833 -0.21083,-8.43334 -3.1625,-11.385c-2.95167,-2.95167 -8.43334,-4.4275 -16.445,-4.4275h-24.87834zM367.13632,162.50083h27.40834c7.02792,0 12.0175,-1.265 14.96917,-3.795c3.09208,-2.53 4.98958,-5.48167 5.6925,-8.855c0.98375,-4.49792 0.14042,-8.08209 -2.53,-10.7525c-2.53,-2.67042 -7.09792,-4.00583 -13.70417,-4.00583h-26.98667z"/></g></g></svg>