<svg version="1.1" xmlns="http://www.w3.org/2000/svg" xmlns:xlink="http://www.w3.org/1999/xlink" width="35.48397" height="42.54054" viewBox="0,0,35.48397,42.54054"><defs><linearGradient x1="104.29675" y1="168.22456" x2="87.11215" y2="181.02345" gradientUnits="userSpaceOnUse" id="color-1"><stop offset="0" stop-color="#bf0000"/><stop offset="1" stop-color="#400000"/></linearGradient><linearGradient x1="107.67168" y1="187.54418" x2="97.17043" y2="195.3654" gradientUnits="userSpaceOnUse" id="color-2"><stop offset="0" stop-color="#bf0000"/><stop offset="1" stop-color="#400000"/></linearGradient><linearGradient x1="86.76542" y1="159.47411" x2="76.26416" y2="167.29532" gradientUnits="userSpaceOnUse" id="color-3"><stop offset="0" stop-color="#bf0000"/><stop offset="1" stop-color="#400000"/></linearGradient></defs><g transform="translate(-72.12439,-158.00025)"><g data-paper-data="{&quot;isPaintingLayer&quot;:true}" fill-rule="nonzero" stroke="#000000" stroke-linecap="butt" stroke-linejoin="miter" stroke-miterlimit="10" stroke-dasharray="" stroke-dashoffset="0" style="mix-blend-mode: normal"><path d="M83.13271,170.61186c5.53485,-0.87337 16.44527,-2.69269 19.42401,-3.1627c1.42151,-0.2243 2.24756,0.95184 1.63023,2.30402c-1.2575,2.75437 -5.89515,12.91249 -8.26492,18.1031c-0.85446,1.87155 -2.46936,1.68039 -3.43252,0.38718c-1.80013,-2.41697 -7.77308,-10.43662 -10.83937,-14.55364c-1.06517,-1.43014 -0.41205,-2.77899 1.48258,-3.07795z" fill="url(#color-1)" stroke-width="3"/><path d="M94.73865,189.00301c3.38225,-0.53371 10.04946,-1.64547 11.86971,-1.93271c0.86866,-0.13708 1.37346,0.58166 0.99621,1.40796c-0.76844,1.68316 -3.60244,7.89063 -5.05057,11.06253c-0.52215,1.14367 -1.50898,1.02688 -2.09756,0.2366c-1.10003,-1.47697 -4.75001,-6.37766 -6.62378,-8.89352c-0.65089,-0.87393 -0.25181,-1.6982 0.90598,-1.88088z" fill="url(#color-2)" stroke-width="2"/><path d="M73.83239,160.93296c3.38225,-0.53371 10.04946,-1.64547 11.86971,-1.93271c0.86866,-0.13708 1.37346,0.58166 0.99621,1.40796c-0.76844,1.68316 -3.60246,7.89064 -5.05057,11.06253c-0.52215,1.14367 -1.50898,1.02688 -2.09756,0.2366c-1.10003,-1.47697 -4.75001,-6.37765 -6.62378,-8.89352c-0.6509,-0.87395 -0.25181,-1.6982 0.90598,-1.88088z" fill="url(#color-3)" stroke-width="2"/></g></g></svg>