<svg version="1.1" xmlns="http://www.w3.org/2000/svg" xmlns:xlink="http://www.w3.org/1999/xlink" width="118.61944" height="31.11879" viewBox="0,0,118.61944,31.11879"><defs><linearGradient x1="351.37891" y1="223.09994" x2="351.37891" y2="263.21106" gradientUnits="userSpaceOnUse" id="color-1"><stop offset="0" stop-color="#e6e6e6"/><stop offset="1" stop-color="#cccccc"/></linearGradient></defs><g transform="translate(-250.69028,-164.44061)"><g data-paper-data="{&quot;isPaintingLayer&quot;:true}" fill-rule="nonzero" stroke="none" stroke-linecap="butt" stroke-linejoin="miter" stroke-miterlimit="10" stroke-dasharray="" stroke-dashoffset="0" style="mix-blend-mode: normal"><path d="M250.69028,183.34268c0,-5.95362 0,-3.58479 0,-7.12214c0,-4.77455 6.10037,-11.77993 12.61256,-11.77993c18.02073,0 60.82483,0 93.38676,0c7.85036,0 12.62012,5.89968 12.62012,12.53294c0,5.81881 0,3.20979 0,6.67033c0,4.81412 -4.64793,11.91552 -12.31891,11.91552c-0.34533,0 -0.69679,0 -1.05422,0c-33.10806,0 -74.75023,0 -92.63374,0c-6.5122,0 -12.61256,-5.70807 -12.61256,-12.21673z" fill="url(#color-1)" stroke-width="0"/><path d="M349.46769,184.23089c0,-2.94384 0,-7.8354 0,-9.21094c0,-0.71182 0.47947,-1.14768 1.22756,-0.68176c2.26136,1.40839 6.9773,4.34551 8.32438,5.18448c0.70245,0.43749 0.55961,1.41455 -0.23519,1.85378c-1.32509,0.73229 -5.49194,3.03502 -7.77813,4.29844c-0.92237,0.50973 -1.53862,-0.0912 -1.53862,-1.444z" fill="#000000" stroke-width="0"/><text transform="translate(308.89809,183.22641) scale(0.27965,0.27965)" font-size="40" xml:space="preserve" fill="#000000" fill-rule="nonzero" stroke="none" stroke-width="1" stroke-linecap="butt" stroke-linejoin="miter" stroke-miterlimit="10" stroke-dasharray="" stroke-dashoffset="0" font-family="Sans Serif" font-weight="normal" text-anchor="start" style="mix-blend-mode: normal"><tspan x="0" dy="0">Play</tspan></text></g></g></svg>