<svg version="1.1" xmlns="http://www.w3.org/2000/svg" xmlns:xlink="http://www.w3.org/1999/xlink" width="24" height="24" viewBox="0,0,24,24"><defs><linearGradient x1="320" y1="168" x2="320" y2="192" gradientUnits="userSpaceOnUse" id="color-1"><stop offset="0" stop-color="#808080"/><stop offset="1" stop-color="#595959"/></linearGradient><linearGradient x1="320" y1="168" x2="320" y2="192" gradientUnits="userSpaceOnUse" id="color-2"><stop offset="0" stop-color="#009cff"/><stop offset="1" stop-color="#0074ff"/></linearGradient></defs><g transform="translate(-308,-168)"><g data-paper-data="{&quot;isPaintingLayer&quot;:true}" fill-rule="nonzero" stroke-width="0" stroke-linecap="butt" stroke-linejoin="miter" stroke-miterlimit="10" stroke-dasharray="" stroke-dashoffset="0" style="mix-blend-mode: normal"><g><path d="M308,180c0,-6.62742 5.37258,-12 12,-12c6.62742,0 12,5.37258 12,12c0,6.62742 -5.37258,12 -12,12c-6.62742,0 -12,-5.37258 -12,-12z" fill="url(#color-1)" stroke="url(#color-2)"/><path d="M324.80408,187.08231l-3.94609,-4.35334l1.52024,-1.51995c2.1475,1.94849 4.35149,3.94609 4.35149,3.94609c0.1428,0.14109 0.11994,0.39305 -0.04769,0.56069l-1.31555,1.31541c-0.1675,0.16735 -0.42144,0.19035 -0.56239,0.0511z" fill="#ffffff" stroke="#ffffff"/><path d="M318.67948,180.46015l1.33997,-1.33997l1.60455,-1.60441l1.55856,1.56041l-1.52691,1.52691l-1.49355,1.49355l-4.60529,4.60529c-0.067,0.06898 -0.15869,0.10248 -0.24684,0.10248c-0.08815,0 -0.17984,-0.0352 -0.24684,-0.10248l-1.06488,-1.06488c-0.13755,-0.13599 -0.13755,-0.35628 0,-0.49383z" fill="#ffffff" stroke="#ffffff"/><path d="M320.90218,175.49766c-0.16764,-0.16579 -0.16764,-0.43734 0,-0.60483l1.8162,-1.81606c0.0846,-0.0829 0.19404,-0.1252 0.30333,-0.1252c0.1093,0 0.22044,0.0423 0.30305,0.1252l0.08105,0.08105c0.16764,0.16579 0.16764,0.43734 0,0.60483l-0.16224,0.16224l0.51115,0.50589l0.1604,-0.1604c0.08489,-0.0829 0.19404,-0.1252 0.30333,-0.1252c0.10958,0 0.22058,0.0423 0.30348,0.1252l1.81818,1.81534c0.1675,0.16579 0.1675,0.43734 0,0.60483l-0.0917,0.0917c0.41618,0.75288 0.7438,1.9184 -0.14635,3.09797c-0.30674,0.40199 -0.44259,0.58198 -0.52534,0.58198c-0.17999,0 -0.12349,-0.82144 -1.00157,-2.0064l-0.05294,0.05294c-0.08489,0.0829 -0.1939,0.1252 -0.30334,0.1252c-0.07949,0 -0.15884,-0.02101 -0.22754,-0.06515c-0.02626,-0.01575 -0.0511,-0.0352 -0.07594,-0.0599l-0.05621,-0.05635l-0.12349,-0.12335l-1.56041,-1.56041l-0.0758,-0.0758c-0.01604,-0.0176 -0.0318,-0.03521 -0.04415,-0.05294c-0.03875,-0.0528 -0.06345,-0.1127 -0.07395,-0.17445c-0.0247,-0.13215 0.01589,-0.27495 0.1181,-0.37729l0.16054,-0.1604l-0.50958,-0.50958l-0.16054,0.1604c-0.0846,0.0829 -0.1939,0.1252 -0.30333,0.1252c-0.10944,0 -0.22058,-0.0423 -0.30333,-0.1252z" fill="#ffffff" stroke="#ffffff"/><path d="M316.51302,178.04743c-0.00525,-0.00355 -0.00695,-0.00709 -0.0105,-0.01064c-0.36679,-0.35628 -0.93457,-0.32279 -1.34891,-0.59958c-0.32789,-0.21859 -0.52194,-0.70348 -0.72293,-1.03152c-0.32435,-0.53599 -0.65054,-1.07027 -0.97673,-1.60626c-0.04585,-0.0741 -0.03364,-0.17104 0.02811,-0.23279l0.70008,-0.69993c0.06174,-0.06174 0.15884,-0.0741 0.23279,-0.02825c0.55543,0.33854 1.11257,0.67708 1.66801,1.01562c0.34918,0.21334 0.76012,0.39149 1.00157,0.73883c0.27694,0.39844 0.21519,0.93273 0.57304,1.29767c0,0 0.69128,0.62598 1.67865,1.51996l-1.30831,1.30831z" fill="#ffffff" stroke="#ffffff"/></g></g></g></svg>