<svg version="1.1" xmlns="http://www.w3.org/2000/svg" xmlns:xlink="http://www.w3.org/1999/xlink" width="658.4127" height="374" viewBox="0,0,658.4127,374"><defs><linearGradient x1="320" y1="-7" x2="320" y2="367" gradientUnits="userSpaceOnUse" id="color-1"><stop offset="0" stop-color="#ffffff"/><stop offset="1" stop-color="#d9d9d9"/></linearGradient><linearGradient x1="510.33362" y1="53.82853" x2="510.33362" y2="92.49844" gradientUnits="userSpaceOnUse" id="color-2"><stop offset="0" stop-color="#606060"/><stop offset="1" stop-color="#404040"/></linearGradient><linearGradient x1="510.33362" y1="53.82853" x2="510.33362" y2="92.49844" gradientUnits="userSpaceOnUse" id="color-3"><stop offset="0" stop-color="#ff3874"/><stop offset="1" stop-color="#ff8585"/></linearGradient><linearGradient x1="509.79402" y1="40.42893" x2="509.79402" y2="79.09888" gradientUnits="userSpaceOnUse" id="color-4"><stop offset="0" stop-color="#808080"/><stop offset="1" stop-color="#5f5f5f"/></linearGradient><linearGradient x1="509.79402" y1="40.42893" x2="509.79402" y2="79.09888" gradientUnits="userSpaceOnUse" id="color-5"><stop offset="0" stop-color="#ff3874"/><stop offset="1" stop-color="#ff8585"/></linearGradient><linearGradient x1="509.79402" y1="82.69608" x2="509.79402" y2="137.91307" gradientUnits="userSpaceOnUse" id="color-6"><stop offset="0" stop-color="#606060"/><stop offset="1" stop-color="#404040"/></linearGradient><linearGradient x1="509.79402" y1="82.69608" x2="509.79402" y2="137.91307" gradientUnits="userSpaceOnUse" id="color-7"><stop offset="0" stop-color="#ff3874"/><stop offset="1" stop-color="#ff8585"/></linearGradient><linearGradient x1="472.38316" y1="50.14139" x2="472.38316" y2="68.48714" gradientUnits="userSpaceOnUse" id="color-8"><stop offset="0" stop-color="#000000"/><stop offset="1" stop-color="#5f5f5f"/></linearGradient><linearGradient x1="472.38316" y1="50.14139" x2="472.38316" y2="68.48714" gradientUnits="userSpaceOnUse" id="color-9"><stop offset="0" stop-color="#ff3874"/><stop offset="1" stop-color="#ff8585"/></linearGradient><linearGradient x1="547.56464" y1="50.14139" x2="547.56464" y2="68.48714" gradientUnits="userSpaceOnUse" id="color-10"><stop offset="0" stop-color="#000000"/><stop offset="1" stop-color="#5f5f5f"/></linearGradient><linearGradient x1="547.56464" y1="50.14139" x2="547.56464" y2="68.48714" gradientUnits="userSpaceOnUse" id="color-11"><stop offset="0" stop-color="#ff3874"/><stop offset="1" stop-color="#ff8585"/></linearGradient><linearGradient x1="325.15626" y1="117.1875" x2="325.15626" y2="343.125" gradientUnits="userSpaceOnUse" id="color-12"><stop offset="0" stop-color="#d9d9d9"/><stop offset="1" stop-color="#a6a6a6"/></linearGradient><linearGradient x1="325.15626" y1="117.1875" x2="325.15626" y2="343.125" gradientUnits="userSpaceOnUse" id="color-13"><stop offset="0" stop-color="#ff3874"/><stop offset="1" stop-color="#ff8585"/></linearGradient><linearGradient x1="547.56464" y1="102.05169" x2="547.56464" y2="140.7216" gradientUnits="userSpaceOnUse" id="color-14"><stop offset="0" stop-color="#484848"/><stop offset="1" stop-color="#262626"/></linearGradient><linearGradient x1="547.56464" y1="102.05169" x2="547.56464" y2="140.7216" gradientUnits="userSpaceOnUse" id="color-15"><stop offset="0" stop-color="#ff3874"/><stop offset="1" stop-color="#ff8585"/></linearGradient><linearGradient x1="476.1602" y1="101.33228" x2="476.1602" y2="140.00219" gradientUnits="userSpaceOnUse" id="color-16"><stop offset="0" stop-color="#494949"/><stop offset="1" stop-color="#262626"/></linearGradient><linearGradient x1="476.1602" y1="101.33228" x2="476.1602" y2="140.00219" gradientUnits="userSpaceOnUse" id="color-17"><stop offset="0" stop-color="#ff3874"/><stop offset="1" stop-color="#ff8585"/></linearGradient></defs><g transform="translate(9.20635,7)"><g data-paper-data="{&quot;isPaintingLayer&quot;:true}" fill-rule="nonzero" stroke-linejoin="miter" stroke-miterlimit="10" stroke-dasharray="" stroke-dashoffset="0" style="mix-blend-mode: normal"><path d="M-9.20635,367v-374h658.4127v374z" fill="url(#color-1)" stroke="#000000" stroke-width="0" stroke-linecap="butt"/><text transform="translate(130.07329,124.68785) rotate(-7.88995) scale(1.11755,1.11755)" font-size="40" xml:space="preserve" fill="#000000" fill-rule="nonzero" stroke="none" stroke-width="1" stroke-linecap="butt" stroke-linejoin="miter" stroke-miterlimit="10" stroke-dasharray="" stroke-dashoffset="0" font-family="Sans Serif" font-weight="normal" text-anchor="start" style="mix-blend-mode: normal"><tspan x="0" dy="0">Shop</tspan></text><g stroke-width="0" stroke-linecap="butt"><path d="M497.92326,92.49844v-38.66991h24.82069v38.66991z" fill="url(#color-2)" stroke="url(#color-3)"/><path d="M452.77841,79.09888v-38.66991h114.03122v38.66991z" fill="url(#color-4)" stroke="url(#color-5)"/><path d="M452.77841,137.91307v-55.21699h114.03122v55.21699z" fill="url(#color-6)" stroke="url(#color-7)"/><path d="M463.21031,59.31424c0,-5.066 4.10681,-9.17285 9.17285,-9.17285c5.06604,0 9.17285,4.10681 9.17285,9.17285c0,5.066 -4.10681,9.17285 -9.17285,9.17285c-5.06604,0 -9.17285,-4.10685 -9.17285,-9.17285z" fill="url(#color-8)" stroke="url(#color-9)"/><path d="M538.39179,59.31424c0,-5.066 4.10681,-9.17285 9.17285,-9.17285c5.06604,0 9.17285,4.10681 9.17285,9.17285c0,5.066 -4.10681,9.17285 -9.17285,9.17285c-5.06604,0 -9.17285,-4.10685 -9.17285,-9.17285z" fill="url(#color-10)" stroke="url(#color-11)"/></g><path d="M29.84376,336.18453c0,-34.98238 0,-191.10241 0,-211.40143c0,-4.26774 2.51559,-7.5956 6.34827,-7.5956c34.10473,0 507.60968,0 576.05451,0c5.34726,0 8.22222,2.70024 8.22222,6.28294c0,18.77796 0,176.86438 0,212.52657c0,4.56858 -2.80775,7.12799 -8.03469,7.12799c-67.85406,0 -543.39589,0 -576.61707,0c-3.61659,0 -5.97322,-2.48987 -5.97322,-6.94047z" fill="url(#color-12)" stroke="url(#color-13)" stroke-width="0" stroke-linecap="butt"/><path d="M608.01341,230.15625h-565.7143" fill="none" stroke-opacity="0.25098" stroke="#000000" stroke-width="3.5" stroke-linecap="round"/><g stroke-width="0" stroke-linecap="butt"><path d="M535.15427,140.7216v-38.66991h24.82069v38.66991z" data-paper-data="{&quot;index&quot;:null}" fill="url(#color-14)" stroke="url(#color-15)"/><path d="M463.74988,140.00219v-38.66991h24.82069v38.66991z" data-paper-data="{&quot;index&quot;:null}" fill="url(#color-16)" stroke="url(#color-17)"/></g></g></g></svg>