<svg version="1.1" xmlns="http://www.w3.org/2000/svg" xmlns:xlink="http://www.w3.org/1999/xlink" width="406.65621" height="26.0981" viewBox="0,0,406.65621,26.0981"><defs><linearGradient x1="137.69523" y1="338.5565" x2="128.96848" y2="318.98694" gradientUnits="userSpaceOnUse" id="color-1"><stop offset="0" stop-color="#bf0000"/><stop offset="1" stop-color="#400000"/></linearGradient><linearGradient x1="507.08041" y1="339.5565" x2="515.80716" y2="319.98695" gradientUnits="userSpaceOnUse" id="color-2"><stop offset="0" stop-color="#bf0000"/><stop offset="1" stop-color="#400000"/></linearGradient></defs><g transform="translate(-118.87293,-314.51665)"><g data-paper-data="{&quot;isPaintingLayer&quot;:true}" fill-rule="nonzero" stroke="#000000" stroke-width="3" stroke-linecap="butt" stroke-linejoin="miter" stroke-miterlimit="10" stroke-dasharray="" stroke-dashoffset="0" style="mix-blend-mode: normal"><path d="M139.99866,317.38314c-0.3594,5.59179 -0.9725,16.63585 -1.16592,19.64523c-0.09231,1.43614 -1.42074,1.98471 -2.60498,1.08636c-2.4123,-1.82992 -11.30888,-8.57874 -15.85483,-12.02726c-1.63913,-1.24341 -1.0991,-2.77732 0.37358,-3.43402c2.75241,-1.22741 11.88502,-5.29996 16.57342,-7.39069c1.62862,-0.72627 2.80179,0.20625 2.67876,2.1204z" fill="url(#color-1)"/><path d="M504.77696,318.38316c-0.12303,-1.91415 1.05014,-2.84667 2.67876,-2.1204c4.6884,2.09073 13.82101,6.16329 16.57342,7.39069c1.47267,0.6567 2.0127,2.19061 0.37357,3.43402c-4.54594,3.44852 -13.44252,10.19734 -15.85483,12.02727c-1.18424,0.89835 -2.51268,0.34978 -2.60498,-1.08636c-0.19342,-3.00939 -0.80651,-14.05343 -1.16592,-19.64523z" data-paper-data="{&quot;index&quot;:null}" fill="url(#color-2)"/></g></g></svg>