<svg version="1.1" xmlns="http://www.w3.org/2000/svg" xmlns:xlink="http://www.w3.org/1999/xlink" width="102.54954" height="66.19211" viewBox="0,0,102.54954,66.19211"><defs><linearGradient x1="320" y1="147.90395" x2="320" y2="212.09606" gradientUnits="userSpaceOnUse" id="color-1"><stop offset="0" stop-color="#5d2800"/><stop offset="1" stop-color="#331601"/></linearGradient><linearGradient x1="320.5899" y1="161.02633" x2="320.5899" y2="177.71228" gradientUnits="userSpaceOnUse" id="color-2"><stop offset="0" stop-color="#ffac00"/><stop offset="1" stop-color="#ff9b25"/></linearGradient></defs><g transform="translate(-268.72523,-146.90394)"><g data-paper-data="{&quot;isPaintingLayer&quot;:true}" fill-rule="nonzero" stroke="#000000" stroke-width="2" stroke-linejoin="miter" stroke-miterlimit="10" stroke-dasharray="" stroke-dashoffset="0" style="mix-blend-mode: normal"><path d="M269.72523,203.84819c0,-10.00017 0,-42.43063 0,-47.97081c0,-3.67478 4.19745,-7.97343 8.11687,-7.97343c7.57016,0 70.69567,0 84.31772,0c4.9074,0 8.11495,4.44645 8.11495,8.20944c0,5.65045 0,38.32633 0,48.20684c0,4.59976 -3.18032,7.77584 -8.05595,7.77584c-13.70904,0 -77.22696,0 -84.73074,0c-3.77462,0 -7.76285,-3.39275 -7.76285,-8.24787z" fill="url(#color-1)" stroke-linecap="butt"/><path d="M270.28232,169.36931h99.26236" fill="none" stroke-linecap="round"/><path d="M314.47488,173.28628c0,-1.68093 0,-5.27841 0,-8.11719c0,-2.34197 2.55291,-4.14275 4.1698,-4.14275c0.93113,0 2.47372,0 3.9615,0c2.10418,0 4.09873,1.86437 4.09873,4.25926c0,2.80398 0,6.30641 0,7.96184c0,1.85521 -0.63895,4.46484 -4.17641,4.46484c-1.50898,0 -3.06878,0 -4.00034,0c-3.21693,0 -4.05329,-2.58281 -4.05329,-4.426z" fill="url(#color-2)" stroke-linecap="butt"/></g></g></svg>