<svg version="1.1" xmlns="http://www.w3.org/2000/svg" xmlns:xlink="http://www.w3.org/1999/xlink" width="98.61944" height="90.78853" viewBox="0,0,98.61944,90.78853"><defs><linearGradient x1="351.37891" y1="193.26508" x2="351.37891" y2="233.3762" gradientUnits="userSpaceOnUse" id="color-1"><stop offset="0" stop-color="#e6e6e6"/><stop offset="1" stop-color="#cccccc"/></linearGradient><linearGradient x1="304.03722" y1="170.329" x2="335.43928" y2="170.329" gradientUnits="userSpaceOnUse" id="color-2"><stop offset="0" stop-color="#bf7900"/><stop offset="1" stop-color="#ff9500"/></linearGradient><linearGradient x1="301.4585" y1="168.55932" x2="338.5415" y2="168.55932" gradientUnits="userSpaceOnUse" id="color-3"><stop offset="0" stop-color="#ffa000"/><stop offset="1" stop-color="#ff9500"/></linearGradient></defs><g transform="translate(-270.69028,-134.60574)"><g data-paper-data="{&quot;isPaintingLayer&quot;:true}" fill-rule="nonzero" stroke-linecap="butt" stroke-linejoin="miter" stroke-miterlimit="10" stroke-dasharray="" stroke-dashoffset="0" style="mix-blend-mode: normal"><path d="M270.69028,213.17755c0,-5.95362 0,-63.25453 0,-66.79188c0,-4.77455 6.10037,-11.77993 12.61256,-11.77993c18.02073,0 40.82483,0 73.38676,0c7.85036,0 12.62012,5.89968 12.62012,12.53294c0,5.81881 0,62.87953 0,66.34007c0,4.81412 -4.64793,11.91552 -12.31891,11.91552c-0.34533,0 -0.69679,0 -1.05422,0c-33.10806,0 -54.75023,0 -72.63374,0c-6.5122,0 -12.61256,-5.70807 -12.61256,-12.21673z" fill="url(#color-1)" stroke="none" stroke-width="0"/><text transform="translate(293.27848,207.90932) scale(0.32249,0.32249)" font-size="40" xml:space="preserve" fill="#000000" fill-rule="nonzero" stroke="none" stroke-width="1" stroke-linecap="butt" stroke-linejoin="miter" stroke-miterlimit="10" stroke-dasharray="" stroke-dashoffset="0" font-family="Sans Serif" font-weight="normal" text-anchor="start" style="mix-blend-mode: normal"><tspan x="0" dy="0">Gold Bar</tspan></text><g stroke-width="0"><path d="M304.03722,175.53326l0.38705,-8.40747l26.33435,-7.95209l5.1211,2.52566l-21.99408,19.78496z" fill="url(#color-2)" stroke="none"/><path d="M314.44873,172.43216l0.00653,0.0034l0.00174,0.00091zM338.54142,168.45066l-24.67326,13.13332l0.84657,-8.63155l13.21286,-7.25265l7.52999,-4.07868c0,0 -3.17011,1.63259 -5.45342,2.80849c-3.85529,1.98546 -15.54721,8.00674 -15.54721,8.00674l-9.91731,-5.24407l9.53203,5.44309l-0.20348,8.94881l-12.4097,-6.60319l3.07874,-8.22503l21.05091,-11.22142l10.15882,5.52234l2.79453,7.39388zM314.86705,169.85334l16.39865,-8.63816l-16.551,7.34426l-5.4056,-1.67154l5.55796,2.96541z" fill="url(#color-3)" stroke="#000000"/></g><text transform="translate(299.56315,217.90054) scale(0.13814,0.13814)" font-size="40" xml:space="preserve" fill="#000000" fill-rule="nonzero" stroke="none" stroke-width="1" stroke-linecap="butt" stroke-linejoin="miter" stroke-miterlimit="10" stroke-dasharray="" stroke-dashoffset="0" font-family="Sans Serif" font-weight="normal" text-anchor="start" style="mix-blend-mode: normal"><tspan x="0" dy="0">Click to Change</tspan></text></g></g></svg>