<svg version="1.1" xmlns="http://www.w3.org/2000/svg" xmlns:xlink="http://www.w3.org/1999/xlink" width="137.81976" height="38.08437" viewBox="0,0,137.81976,38.08437"><defs><linearGradient x1="171.24134" y1="247.92299" x2="173.5062" y2="269.23011" gradientUnits="userSpaceOnUse" id="color-1"><stop offset="0" stop-color="#bf0000"/><stop offset="1" stop-color="#400000"/></linearGradient><linearGradient x1="69.61948" y1="261.42708" x2="72.55612" y2="282.65203" gradientUnits="userSpaceOnUse" id="color-2"><stop offset="0" stop-color="#bf0000"/><stop offset="1" stop-color="#400000"/></linearGradient><linearGradient x1="88.17517" y1="267.77723" x2="89.96971" y2="280.74748" gradientUnits="userSpaceOnUse" id="color-3"><stop offset="0" stop-color="#bf0000"/><stop offset="1" stop-color="#400000"/></linearGradient><linearGradient x1="53.50543" y1="272.57408" x2="55.29997" y2="285.54432" gradientUnits="userSpaceOnUse" id="color-4"><stop offset="0" stop-color="#bf0000"/><stop offset="1" stop-color="#400000"/></linearGradient></defs><g transform="translate(-47.55308,-247.52572)"><g data-paper-data="{&quot;isPaintingLayer&quot;:true}" fill-rule="nonzero" stroke="#000000" stroke-linecap="butt" stroke-linejoin="miter" stroke-miterlimit="10" stroke-dasharray="" stroke-dashoffset="0" style="mix-blend-mode: normal"><path d="M162.51917,267.35338c2.06671,-5.20827 6.05653,-15.52469 7.16877,-18.32766c0.53079,-1.33764 1.96367,-1.44968 2.81306,-0.22985c1.73021,2.48479 8.11126,11.64873 11.37184,16.33132c1.17567,1.68839 0.18882,2.98091 -1.41461,3.15134c-2.9968,0.31855 -12.94029,1.37551 -18.04497,1.91812c-1.77324,0.18849 -2.60154,-1.06043 -1.89408,-2.84328z" fill="url(#color-1)" stroke-width="3"/><g><path d="M61.5153,281.12323c1.90119,-5.27094 5.56322,-15.70822 6.5864,-18.54492c0.48828,-1.35373 1.9169,-1.51096 2.8044,-0.31856c1.80782,2.42891 8.47509,11.38675 11.88194,15.96404c1.22839,1.65041 0.28286,2.97345 -1.31439,3.19444c-2.98523,0.41303 -12.89041,1.7835 -17.9754,2.48704c-1.7664,0.2444 -2.63373,-0.97775 -1.98294,-2.78204z" fill="url(#color-2)" stroke-width="3"/><path d="M83.22281,279.81325c1.16178,-3.22099 3.39959,-9.59906 4.02483,-11.33252c0.29837,-0.82725 1.17139,-0.92333 1.71373,-0.19467c1.10474,1.48427 5.17901,6.95828 7.26087,9.7554c0.75064,1.00854 0.17286,1.81704 -0.8032,1.95208c-1.82423,0.2524 -7.87714,1.08986 -10.9845,1.51979c-1.07941,0.14934 -1.60944,-0.59748 -1.21174,-1.70006z" fill="url(#color-3)" stroke-width="2"/><path d="M48.55308,284.61009c1.16178,-3.22099 3.39959,-9.59906 4.02483,-11.33252c0.29837,-0.82725 1.17139,-0.92333 1.71373,-0.19467c1.10474,1.48427 5.179,6.95829 7.26087,9.7554c0.75064,1.00854 0.17286,1.81704 -0.8032,1.95208c-1.82423,0.2524 -7.87713,1.08987 -10.9845,1.51979c-1.07942,0.14935 -1.60944,-0.59748 -1.21174,-1.70006z" fill="url(#color-4)" stroke-width="2"/></g></g></g></svg>