<svg version="1.1" xmlns="http://www.w3.org/2000/svg" xmlns:xlink="http://www.w3.org/1999/xlink" width="118.61944" height="31.11879" viewBox="0,0,118.61944,31.11879"><defs><linearGradient x1="351.37891" y1="223.09997" x2="351.37891" y2="263.21109" gradientUnits="userSpaceOnUse" id="color-1"><stop offset="0" stop-color="#229be6"/><stop offset="1" stop-color="#2681ff"/></linearGradient></defs><g transform="translate(-250.69028,-164.44063)"><g data-paper-data="{&quot;isPaintingLayer&quot;:true}" fill-rule="nonzero" stroke-miterlimit="10" stroke-dasharray="" stroke-dashoffset="0" style="mix-blend-mode: normal"><path d="M306.74255,191.2129c0,-7.8019 0,-20.7657 0,-24.41123c0,-1.88649 1.2707,-3.04164 3.25333,-1.80684c5.99314,3.73257 18.49153,11.51665 22.06162,13.74013c1.86165,1.15945 1.4831,3.74891 -0.6233,4.91297c-3.51182,1.94074 -14.55496,8.04353 -20.61393,11.39191c-2.44451,1.35091 -4.07772,-0.24171 -4.07772,-3.82694z" fill="#ffffff" stroke="none" stroke-width="0" stroke-linecap="butt" stroke-linejoin="miter"/><path d="M250.69028,183.3427c0,-5.95362 0,-3.58479 0,-7.12214c0,-4.77455 6.10037,-11.77993 12.61256,-11.77993c18.02073,0 60.82483,0 93.38676,0c7.85036,0 12.62012,5.89968 12.62012,12.53294c0,5.81881 0,3.20979 0,6.67033c0,4.81412 -4.64793,11.91552 -12.31891,11.91552c-0.34533,0 -0.69679,0 -1.05422,0c-33.10806,0 -74.75023,0 -92.63374,0c-6.5122,0 -12.61256,-5.70807 -12.61256,-12.21673z" fill="url(#color-1)" stroke="none" stroke-width="0" stroke-linecap="butt" stroke-linejoin="miter"/><path d="M354.47004,183.25261v-1.95155M357.65756,178.69899c-0.30136,1.4846 -1.61395,2.60207 -3.18752,2.60207M351.28251,178.69899c0.30138,1.4846 1.61393,2.60207 3.18753,2.60207M351.28251,178.69899h-0.06505h-0.16263c-0.45341,0 -0.68012,0.00001 -0.86863,-0.03749c-0.77412,-0.15399 -1.3793,-0.75916 -1.53334,-1.53332c-0.03747,-0.18852 -0.03746,-0.41523 -0.03746,-0.86862c0,-0.15114 0,-0.2267 0.0125,-0.28954c0.05133,-0.25806 0.25305,-0.45978 0.51111,-0.51111c0.06284,-0.0125 0.13843,-0.0125 0.28954,-0.0125h1.78892M357.65757,178.69899h0.06507h0.16263c0.4534,0 0.68009,0.00001 0.86861,-0.03749c0.77416,-0.15399 1.37933,-0.75916 1.53333,-1.53332c0.03749,-0.18852 0.03749,-0.41523 0.03749,-0.86862c0,-0.15114 0,-0.2267 -0.0125,-0.28954c-0.05133,-0.25806 -0.25305,-0.45978 -0.51111,-0.51111c-0.06284,-0.0125 -0.1384,-0.0125 -0.28954,-0.0125h-1.78892M355.62568,183.31909c0.67344,0.18044 1.19948,0.70652 1.37993,1.37993c0.0665,0.24818 0.0665,0.55068 0.0665,1.15565h-5.20414c0,-0.60498 0,-0.90748 0.06649,-1.15565c0.18045,-0.67342 0.70652,-1.19948 1.37994,-1.37993c0.24817,-0.06648 0.55066,-0.06648 1.15564,-0.06648c0.60498,0 0.90747,0 1.15564,0.06648zM351.28251,178.69898c-0.04267,-0.21018 -0.06505,-0.42773 -0.06505,-0.65051v-2.88086c0,-0.3468 0,-0.5202 0.0644,-0.65397c0.06394,-0.13278 0.17107,-0.23991 0.30384,-0.30385c0.13381,-0.06442 0.30719,-0.06442 0.65397,-0.06442h4.46071c0.3468,0 0.52021,-0.00001 0.65397,0.06442c0.13277,0.06394 0.23991,0.17108 0.30385,0.30385c0.06442,0.13377 0.06442,0.30716 0.06442,0.65397v2.88086c0,0.22278 -0.0224,0.44032 -0.06507,0.65051" fill="none" stroke="#ffffff" stroke-width="2" stroke-linecap="round" stroke-linejoin="round"/></g></g></svg>