<svg version="1.1" xmlns="http://www.w3.org/2000/svg" xmlns:xlink="http://www.w3.org/1999/xlink" width="364.99541" height="68.82351" viewBox="0,0,364.99541,68.82351"><defs><linearGradient x1="303.22586" y1="154.14313" x2="303.22586" y2="200.56422" gradientTransform="translate(-140.69366,-187.85545) scale(0.9941,0.9941)" gradientUnits="userSpaceOnUse" id="color-1"><stop offset="0" stop-color="#ff0000"/><stop offset="1" stop-color="#ff8080"/></linearGradient><linearGradient x1="303.22586" y1="154.14313" x2="303.22586" y2="200.56422" gradientTransform="translate(-140.69366,-187.85545) scale(0.9941,0.9941)" gradientUnits="userSpaceOnUse" id="color-2"><stop offset="0" stop-color="#ff0000"/><stop offset="1" stop-color="#ff8080"/></linearGradient><linearGradient x1="250.3492" y1="154.59568" x2="251.00365" y2="159.01325" gradientUnits="userSpaceOnUse" id="color-3"><stop offset="0" stop-color="#ffffff"/><stop offset="1" stop-color="#bfbfbf"/></linearGradient><linearGradient x1="247.47854" y1="135.21861" x2="248.44832" y2="141.76464" gradientUnits="userSpaceOnUse" id="color-4"><stop offset="0" stop-color="#ffffff"/><stop offset="1" stop-color="#bfbfbf"/></linearGradient><linearGradient x1="458.36084" y1="162.96748" x2="456.94741" y2="168.03013" gradientUnits="userSpaceOnUse" id="color-5"><stop offset="0" stop-color="#ffffff"/><stop offset="1" stop-color="#bfbfbf"/></linearGradient><linearGradient x1="464.5607" y1="140.76086" x2="462.46625" y2="148.26278" gradientUnits="userSpaceOnUse" id="color-6"><stop offset="0" stop-color="#ffffff"/><stop offset="1" stop-color="#bfbfbf"/></linearGradient></defs><g transform="translate(-138.00722,-134.96861)"><g stroke-miterlimit="10"><text transform="translate(141.52798,187.87975) scale(1.00593,1.00593)" font-size="40" xml:space="preserve" fill="#000000" stroke="#000000" stroke-width="7" font-family="Sans Serif" font-weight="normal" text-anchor="start"><tspan x="0" dy="0">Tank Ball Physics 2</tspan></text><text transform="translate(141.52798,188.2002) scale(1.00593,1.00593)" font-size="40" xml:space="preserve" fill="#000000" stroke="#000000" stroke-width="7" font-family="Sans Serif" font-weight="normal" text-anchor="start"><tspan x="0" dy="0">Tank Ball Physics 2</tspan></text><text transform="translate(141.52798,188.2002) scale(1.00593,1.00593)" font-size="40" xml:space="preserve" fill="#ffffff" stroke="#ffffff" stroke-width="3" font-family="Sans Serif" font-weight="normal" text-anchor="start"><tspan x="0" dy="0">Tank Ball Physics 2</tspan></text><text transform="translate(141.52798,188.96943) scale(1.00593,1.00593)" font-size="40" xml:space="preserve" fill="url(#color-1)" stroke="url(#color-2)" stroke-width="3" font-family="Sans Serif" font-weight="normal" text-anchor="start"><tspan x="0" dy="0">Tank Ball Physics 2</tspan></text><g stroke="#000000" stroke-width="0.5"><path d="M242.3959,156.17795l5.49093,-18.44576l10.5328,16.07189z" fill="#ff0000"/><path d="M241.7539,159.809c-0.14078,-0.95026 -0.41788,-2.82071 -0.49381,-3.33326c-0.03775,-0.25478 0.20172,-0.56342 0.55763,-0.61614c1.6653,-0.24671 14.34397,-2.1045 17.19133,-2.52633c0.3653,-0.05412 0.54447,0.15999 0.58098,0.40642c0.07417,0.50067 0.34741,2.34506 0.49084,3.31318c0.05373,0.36269 -0.20701,0.64628 -0.58098,0.70168c-1.73902,0.25763 -14.8207,2.19565 -17.26868,2.55831c-0.25445,0.0377 -0.42693,-0.16384 -0.4773,-0.50387z" fill="url(#color-3)"/><path d="M244.69041,138.97651c-0.2678,-1.80764 0.98049,-3.4901 2.78813,-3.7579c1.80764,-0.2678 3.4901,0.98049 3.7579,2.78812c0.2678,1.80764 -0.98049,3.49011 -2.78812,3.75791c-1.80764,0.2678 -3.49011,-0.98049 -3.75791,-2.78813z" fill="url(#color-4)"/></g><g stroke="#000000" stroke-width="0.5"><path d="M449.05255,160.85708l14.74252,-17.19839l3.62109,22.32532z" fill="#ff0000"/><path d="M446.6223,164.4529c0.30404,-1.08902 0.90251,-3.23261 1.0665,-3.82c0.08152,-0.29199 0.48686,-0.50902 0.89473,-0.39515c1.90847,0.53282 16.42873,4.61154 19.69188,5.52258c0.41864,0.11688 0.50865,0.43292 0.42981,0.71533c-0.16019,0.57379 -0.75032,2.6875 -1.06008,3.79699c-0.11605,0.41565 -0.53225,0.59557 -0.96083,0.47591c-1.99297,-0.55642 -16.9849,-4.74202 -19.79036,-5.52527c-0.29161,-0.08141 -0.38044,-0.38072 -0.27165,-0.7704z" fill="url(#color-5)"/><path d="M459.76251,143.46459c0.57837,-2.0716 2.7266,-3.2821 4.79819,-2.70373c2.0716,0.57837 3.2821,2.72659 2.70373,4.79819c-0.57837,2.0716 -2.72659,3.28211 -4.79818,2.70374c-2.0716,-0.57837 -3.28211,-2.7266 -2.70374,-4.7982z" fill="url(#color-6)"/></g></g></g></svg>