<svg version="1.1" xmlns="http://www.w3.org/2000/svg" xmlns:xlink="http://www.w3.org/1999/xlink" width="45.90828" height="43.88705" viewBox="0,0,45.90828,43.88705"><defs><linearGradient x1="262.26552" y1="169.81434" x2="262.26552" y2="209.92546" gradientUnits="userSpaceOnUse" id="color-1"><stop offset="0" stop-color="#229be6"/><stop offset="1" stop-color="#2681ff"/></linearGradient></defs><g transform="translate(-297.04587,-158.05647)"><g data-paper-data="{&quot;isPaintingLayer&quot;:true}" fill-rule="nonzero" stroke="none" stroke-linecap="butt" stroke-linejoin="miter" stroke-miterlimit="10" stroke-dasharray="" stroke-dashoffset="0" style="mix-blend-mode: normal"><path d="M297.04587,169.87909c0,-4.77455 6.60889,-11.77993 13.12108,-11.77993c5.05353,0 11.88687,-0.10784 20.16708,0.01928c7.84943,0.12052 12.62012,5.39116 12.62012,12.02442c0,5.81881 0,16.4246 0,19.88514c0,4.81412 -4.64793,11.91552 -12.31891,11.91552c-0.34533,0 -3.074,0 -20.95751,0c-6.5122,0 -12.61256,-5.70807 -12.61256,-12.21673c0,0 -0.01929,-16.31036 -0.01929,-19.84771z" fill="url(#color-1)" stroke-width="0"/><path d="M320,189.41291c-2.40552,0 -4.50163,-0.79748 -6.28834,-2.39245c-1.78671,-1.59497 -2.8108,-3.58649 -3.07227,-5.97458h2.14405c0.24404,1.81286 1.05023,3.31195 2.41859,4.49728c1.36836,1.18533 2.96768,1.778 4.79797,1.778c2.03947,0 3.76952,-0.71032 5.19018,-2.13098c1.42066,-1.42065 2.13098,-3.15071 2.13098,-5.19018c0,-2.03947 -0.71032,-3.76953 -2.13098,-5.19018c-1.42066,-1.42065 -3.15071,-2.13098 -5.19018,-2.13098c-1.20276,0 -2.32708,0.27891 -3.37296,0.8367c-1.04588,0.5578 -1.92616,1.32478 -2.64085,2.30094h2.87617v2.09176h-6.27528v-6.27527h2.09176v2.45782c0.889,-1.1156 1.97409,-1.97846 3.2553,-2.58856c1.2812,-0.6101 2.63648,-0.91514 4.06585,-0.91514c1.30735,0 2.5319,0.2484 3.67365,0.74519c1.14175,0.49679 2.13533,1.1679 2.98075,2.01332c0.84542,0.84542 1.51653,1.839 2.01332,2.98075c0.49679,1.14175 0.74518,2.3663 0.74518,3.67365c0,1.30735 -0.2484,2.5319 -0.74518,3.67365c-0.49679,1.14175 -1.1679,2.13533 -2.01332,2.98075c-0.84542,0.84542 -1.839,1.51653 -2.98075,2.01332c-1.14175,0.49679 -2.3663,0.74519 -3.67365,0.74519zM322.92846,184.39269l-3.97434,-3.97434v-5.64775h2.09176v4.81105l3.34681,3.34681z" fill="#ffffff" stroke-width="1"/></g></g></svg>