<svg version="1.1" xmlns="http://www.w3.org/2000/svg" xmlns:xlink="http://www.w3.org/1999/xlink" width="743.63894" height="662.28716" viewBox="0,0,743.63894,662.28716"><g transform="translate(88.76365,187.96537)"><g data-paper-data="{&quot;isPaintingLayer&quot;:true}" fill="#313131" fill-rule="nonzero" stroke="none" stroke-width="0" stroke-linecap="butt" stroke-linejoin="miter" stroke-miterlimit="10" stroke-dasharray="" stroke-dashoffset="0" style="mix-blend-mode: normal"><path d="M0.73597,469.32179h-7.93651v-657.28716h7.93651z"/><path d="M645.70706,-6.91919v7.93651h-657.28716v-7.93651z"/><path d="M646.4286,474.32179h-7.93651v-657.28716h7.93651z"/><path d="M639.88456,360.27417v7.93651h-657.28716v-7.93651z"/><path d="M76.55131,217.65362l578.32398,0.27499l-3.28451,160.00803l-578.3231,-0.27499z"/><path d="M76.80231,218.21068l82,-82l82,82l-82,82z"/><path d="M-88.76365,106c0,-45.28735 36.71265,-82 82,-82c45.28735,0 82,36.71265 82,82c0,45.28735 -36.71265,82 -82,82c-45.28735,0 -82,-36.71265 -82,-82z"/><path d="M-22.70475,-168.79452h97.43651v281.28716h-97.43651z"/></g></g></svg>