<svg version="1.1" xmlns="http://www.w3.org/2000/svg" xmlns:xlink="http://www.w3.org/1999/xlink" width="34.95586" height="32.12918" viewBox="0,0,34.95586,32.12918"><defs><linearGradient x1="73.03106" y1="163.9354" x2="73.03106" y2="204.04652" gradientUnits="userSpaceOnUse" id="color-1"><stop offset="0" stop-color="#e6e6e6"/><stop offset="1" stop-color="#cccccc"/></linearGradient></defs><g transform="translate(-118.76382,-163.93541)"><g stroke="none" stroke-miterlimit="10"><path d="M118.76382,183.84787c0,-5.95362 0,-4.59518 0,-8.13253c0,-4.77455 6.10037,-11.77993 12.61256,-11.77993c18.02073,0 -22.83875,0 9.72318,0c7.85036,0 12.62012,5.89968 12.62012,12.53294c0,5.81881 0,4.22018 0,7.68072c0,4.81412 -4.64793,11.91552 -12.31891,11.91552c-0.34533,0 -0.69679,0 -1.05422,0c-33.10806,0 8.91335,0 -8.97016,0c-6.5122,0 -12.61256,-5.70807 -12.61256,-12.21673z" fill="url(#color-1)" stroke-width="0"/><path d="M131.12384,172.55613c1.07192,0 2.06443,0.19187 2.97755,0.57566c0.89989,0.37053 1.68065,0.89327 2.34234,1.56818c0.66169,0.66169 1.1778,1.44907 1.54833,2.36219c0.37053,0.89989 0.55581,1.87915 0.55581,2.93785c0,1.03222 -0.17865,2.00488 -0.53596,2.918c-0.35731,0.89989 -0.86019,1.68728 -1.50863,2.36219c-0.64843,0.66169 -1.42922,1.19102 -2.34234,1.58803c-0.91312,0.38379 -1.92548,0.57566 -3.0371,0.57566c-0.76753,0 -1.48877,-0.09925 -2.16369,-0.29775c-0.68813,-0.1985 -1.31012,-0.47641 -1.86593,-0.83371c-0.56903,-0.37053 -1.07855,-0.80723 -1.52848,-1.31012c-0.44993,-0.50289 -0.82708,-1.05207 -1.13147,-1.64758l3.1959,-1.70713c0.30439,0.68813 0.74768,1.2572 1.32997,1.70713c0.58229,0.43671 1.31012,0.65506 2.18354,0.65506c0.58229,0 1.11162,-0.10588 1.58803,-0.3176c0.46319,-0.21172 0.86678,-0.49626 1.21087,-0.85356c0.34409,-0.37053 0.60873,-0.79401 0.79401,-1.27042c0.18528,-0.48963 0.2779,-1.01237 0.2779,-1.56818c0,-0.55581 -0.09262,-1.07855 -0.2779,-1.56818c-0.1985,-0.50289 -0.46978,-0.93297 -0.81386,-1.29027c-0.34409,-0.37053 -0.75431,-0.66169 -1.23072,-0.87341c-0.47641,-0.21172 -1.00574,-0.31761 -1.58803,-0.31761c-0.79401,0 -1.47555,0.19187 -2.04458,0.57566c-0.56903,0.37053 -1.019,0.88004 -1.34982,1.52848l-3.0371,-1.92548c0.31761,-0.52933 0.70139,-1.01237 1.15132,-1.44907c0.44993,-0.44993 0.95282,-0.82708 1.50862,-1.13147c0.55581,-0.31761 1.15132,-0.56244 1.78653,-0.73446c0.63521,-0.17202 1.30349,-0.25805 2.00488,-0.25805zM144.78087,172.75463c0.76753,0 1.44907,0.1191 2.04458,0.35731c0.60873,0.22498 1.11162,0.54259 1.50862,0.95282c0.39701,0.41023 0.67491,0.89989 0.83371,1.46892c0.1588,0.55581 0.17865,1.15795 0.05955,1.80638c-0.10588,0.60873 -0.33083,1.13147 -0.67491,1.56818c-0.33083,0.43671 -0.74768,0.80064 -1.25057,1.09177c0.47641,0.35731 0.82049,0.82049 1.03222,1.38952c0.21172,0.55581 0.24483,1.25057 0.09925,2.08428c-0.22498,1.2175 -0.83371,2.15047 -1.82623,2.7989c-0.9793,0.64843 -2.29601,0.97267 -3.95022,0.97267h-6.29255l0.2598,-1.48183c1.4565,-1.50648 2.35758,-3.58862 2.35758,-5.88868c0,-1.23012 -0.25778,-2.39792 -0.72037,-3.44868l0.64383,-3.67156zM140.27484,184.20827h2.48129c0.70139,0 1.22409,-0.1191 1.56818,-0.35731c0.34409,-0.2382 0.55581,-0.56244 0.63521,-0.97267c0.0794,-0.43671 -0.01985,-0.79401 -0.29775,-1.07192c-0.2779,-0.2779 -0.79401,-0.41686 -1.54833,-0.41686h-2.34234zM141.30706,178.35242h2.58054c0.66169,0 1.13147,-0.1191 1.40937,-0.35731c0.29112,-0.2382 0.46978,-0.51611 0.53596,-0.83371c0.09262,-0.42349 0.01322,-0.76094 -0.2382,-1.01237c-0.2382,-0.25142 -0.66828,-0.37716 -1.29027,-0.37716h-2.54084z" fill="#000000" stroke-width="1"/></g></g></svg>