<svg version="1.1" xmlns="http://www.w3.org/2000/svg" xmlns:xlink="http://www.w3.org/1999/xlink" width="663.8312" height="662.28716" viewBox="0,0,663.8312,662.28716"><g transform="translate(17.4026,187.96537)"><g data-paper-data="{&quot;isPaintingLayer&quot;:true}" fill-rule="nonzero" stroke="none" stroke-width="0" stroke-linecap="butt" stroke-linejoin="miter" stroke-miterlimit="10" stroke-dasharray="" stroke-dashoffset="0" style="mix-blend-mode: normal"><path d="M0.73596,469.32179h-7.93651v-657.28716h7.93651z" fill="#313131"/><path d="M645.70706,-6.91919v7.93651h-657.28716v-7.93651z" fill="#313131"/><path d="M646.4286,474.32179h-7.93651v-657.28716h7.93651z" fill="#313131"/><path d="M639.88456,360.27417v7.93651h-657.28716v-7.93651z" fill="#313131"/><path d="M81.03753,324.65362l487.83775,0.1772l-2.77061,103.10582l-487.837,-0.1772z" fill="#313131"/><path d="M80.09523,104.40549h7.93651v255.28716h-7.93651z" fill="#313131"/><path d="M562.09525,78.40548h7.93651v281.28716h-7.93651z" fill="#313131"/><path d="M205.01303,159c0,-12.15026 9.84974,-22 22,-22c12.15026,0 22,9.84974 22,22c0,12.15026 -9.84974,22 -22,22c-12.15026,0 -22,-9.84974 -22,-22z" fill="#313131"/><path d="M195.01302,254c0,-12.15026 9.84974,-22 22,-22c12.15026,0 22,9.84974 22,22c0,12.15026 -9.84974,22 -22,22c-12.15026,0 -22,-9.84974 -22,-22z" fill="#313131"/><path d="M364.01301,276c0,-12.15026 9.84974,-22 22,-22c12.15026,0 22,9.84974 22,22c0,12.15026 -9.84973,22 -22,22c-12.15026,0 -22,-9.84974 -22,-22z" fill="#313131"/><path d="M443.01303,140.67821c0,-12.15026 9.84974,-22 22,-22c12.15026,0 22,9.84974 22,22c0,12.15026 -9.84974,22 -22,22c-12.15026,0 -22,-9.84974 -22,-22z" fill="#313131"/><path d="M80.85133,107.56075l0.7994,-8.08223l148.12494,-0.94113l-0.2994,8.08223z" fill="#313131"/><path d="M133.31351,26.67821c0,-12.15026 9.84974,-22 22,-22c12.15026,0 22,9.84974 22,22c0,12.15026 -9.84974,22 -22,22c-12.15026,0 -22,-9.84974 -22,-22z" fill="#313131"/><path d="M289.24098,47.67821c0,-12.15026 9.84974,-22 22,-22c12.15026,0 22,9.84974 22,22c0,12.15026 -9.84974,22 -22,22c-12.15026,0 -22,-9.84974 -22,-22z" fill="#313131"/></g></g></svg>