<svg version="1.1" xmlns="http://www.w3.org/2000/svg" xmlns:xlink="http://www.w3.org/1999/xlink" width="209.00001" height="66.78572" viewBox="0,0,209.00001,66.78572"><defs><linearGradient x1="398" y1="-32.64281" x2="398" y2="252.64288" gradientUnits="userSpaceOnUse" id="color-1"><stop offset="0" stop-color="#d9d9d9" stop-opacity="0.90196"/><stop offset="1" stop-color="#bfbfbf" stop-opacity="0.90196"/></linearGradient></defs><g transform="translate(-424.5,-7.85717)"><g data-paper-data="{&quot;isPaintingLayer&quot;:true}" fill-rule="nonzero" stroke-linecap="butt" stroke-linejoin="miter" stroke-miterlimit="10" stroke-dasharray="" stroke-dashoffset="0" style="mix-blend-mode: normal"><path d="M424.5,62.92859c0,-18.7 0,-33.73035 0,-43.92857c0,-5.37311 5.81137,-11.14285 11.71429,-11.14285c14.10987,0 158.3636,0 184.64286,0c7.7585,0 12.64286,5.82639 12.64286,11.2381c0,10.15682 0,24.74352 0,43.5c0,7.24057 -6.24341,12.04762 -12.47619,12.04762c-14.66633,0 -160.32809,0 -185.5,0c-6.8111,0 -11.02381,-4.65942 -11.02381,-11.71429z" fill="url(#color-1)" stroke="none" stroke-width="0"/><text transform="translate(432.66667,26.4822) scale(0.34324,0.34324)" font-size="40" xml:space="preserve" fill-opacity="0.90196" fill="#000000" fill-rule="nonzero" stroke="#000000" stroke-width="2" stroke-linecap="butt" stroke-linejoin="miter" stroke-miterlimit="10" stroke-dasharray="" stroke-dashoffset="0" font-family="Sans Serif" font-weight="normal" text-anchor="start" style="mix-blend-mode: normal"><tspan x="0" dy="0">crash.dialog.exportbutton</tspan></text><text transform="translate(433.66668,39.77827) scale(0.20899,0.20899)" font-size="40" xml:space="preserve" fill-opacity="0.90196" fill="#000000" fill-rule="nonzero" stroke="#000000" stroke-width="0" stroke-linecap="butt" stroke-linejoin="miter" stroke-miterlimit="10" stroke-dasharray="" stroke-dashoffset="0" font-family="Sans Serif" font-weight="normal" text-anchor="start" style="mix-blend-mode: normal"><tspan x="0" dy="0">Exporting Data...</tspan></text></g></g></svg>