<svg version="1.1" xmlns="http://www.w3.org/2000/svg" xmlns:xlink="http://www.w3.org/1999/xlink" width="34.95586" height="32.12918" viewBox="0,0,34.95586,32.12918"><defs><linearGradient x1="256.78932" y1="163.9354" x2="256.78932" y2="204.04652" gradientUnits="userSpaceOnUse" id="color-1"><stop offset="0" stop-color="#229be6"/><stop offset="1" stop-color="#2681ff"/></linearGradient></defs><g transform="translate(-302.52208,-163.93541)"><g data-paper-data="{&quot;isPaintingLayer&quot;:true}" fill-rule="nonzero" stroke-linejoin="miter" stroke-miterlimit="10" stroke-dasharray="" stroke-dashoffset="0" style="mix-blend-mode: normal"><path d="M302.52208,183.84787c0,-5.95362 0,-4.59518 0,-8.13253c0,-4.77455 6.10037,-11.77993 12.61256,-11.77993c18.02073,0 -22.83875,0 9.72318,0c7.85036,0 12.62012,5.89968 12.62012,12.53294c0,5.81881 0,4.22018 0,7.68072c0,4.81412 -4.64793,11.91552 -12.31891,11.91552c-0.34533,0 -0.69679,0 -1.05422,0c-33.10806,0 8.91335,0 -8.97016,0c-6.5122,0 -12.61256,-5.70807 -12.61256,-12.21673z" fill="url(#color-1)" stroke="none" stroke-width="0" stroke-linecap="butt"/><g><path d="M313.03095,175.68222c1.40508,-2.1322 3.82094,-3.53937 6.56545,-3.53937c4.33938,0 7.85715,3.51776 7.85715,7.85715c0,4.33938 -3.51776,7.85715 -7.85715,7.85715c-2.32537,0 -4.41481,-1.01018 -5.85341,-2.61563" fill="none" stroke="#ffffff" stroke-width="1.5" stroke-linecap="butt"/><path d="M312.54645,175.88553v-3.40768" fill="none" stroke="#ffffff" stroke-width="1.5" stroke-linecap="round"/><path d="M316.05884,175.89505h-3.40768" fill="none" stroke="#ffffff" stroke-width="1.5" stroke-linecap="round"/><path d="M312.97628,185.25551c0,-0.42889 0.34769,-0.77656 0.77657,-0.77656c0.42888,0 0.77657,0.34768 0.77657,0.77656c0,0.42889 -0.34769,0.77657 -0.77657,0.77657c-0.42888,0 -0.77657,-0.34769 -0.77657,-0.77657z" fill="#ffffff" stroke="#000000" stroke-width="0" stroke-linecap="butt"/></g></g></g></svg>