<svg version="1.1" xmlns="http://www.w3.org/2000/svg" xmlns:xlink="http://www.w3.org/1999/xlink" width="34.58084" height="32.1791" viewBox="0,0,34.58084,32.1791"><defs><linearGradient x1="256.60179" y1="163.9354" x2="256.60179" y2="204.04652" gradientUnits="userSpaceOnUse" id="color-1"><stop offset="0" stop-color="#229be6"/><stop offset="1" stop-color="#2681ff"/></linearGradient></defs><g transform="translate(-302.70958,-163.8855)"><g data-paper-data="{&quot;isPaintingLayer&quot;:true}" fill-rule="nonzero" stroke="none" stroke-width="0" stroke-linecap="butt" stroke-linejoin="miter" stroke-miterlimit="10" stroke-dasharray="" stroke-dashoffset="0" style="mix-blend-mode: normal"><path d="M337.29041,183.84786c0,6.50866 -6.10036,12.21673 -12.61256,12.21673c-17.88351,0 -9.30403,0 -9.64936,0c-7.67098,0 -12.31891,-7.1014 -12.31891,-11.91552c0,-3.46054 0,-1.86191 0,-7.68072c0,-6.63326 4.7721,-12.34119 12.62012,-12.53294c4.59665,-0.11231 -8.67257,0 9.34816,0c6.51219,0 12.61256,7.00538 12.61256,11.77993c0,3.53735 0,2.17891 0,8.13253z" data-paper-data="{&quot;index&quot;:null}" fill="url(#color-1)"/><g data-paper-data="{&quot;index&quot;:null}" fill="#ffffff"><path d="M312.76705,179.89587l10.375,-6.52087v1.69927l-7.54546,4.79546l7.54546,4.88637v1.8689z"/><path d="M316.85795,179.89587l10.375,-6.52087v13.25z"/></g></g></g></svg>