<svg version="1.1" xmlns="http://www.w3.org/2000/svg" xmlns:xlink="http://www.w3.org/1999/xlink" width="98.61944" height="90.78853" viewBox="0,0,98.61944,90.78853"><defs><linearGradient x1="351.37891" y1="193.26508" x2="351.37891" y2="233.3762" gradientUnits="userSpaceOnUse" id="color-1"><stop offset="0" stop-color="#229be6"/><stop offset="1" stop-color="#2681ff"/></linearGradient></defs><g transform="translate(-270.69028,-134.60574)"><g data-paper-data="{&quot;isPaintingLayer&quot;:true}" fill-rule="nonzero" stroke-linecap="butt" stroke-linejoin="miter" stroke-miterlimit="10" stroke-dasharray="" stroke-dashoffset="0" style="mix-blend-mode: normal"><path d="M270.69028,213.17755c0,-5.95362 0,-63.25453 0,-66.79188c0,-4.77455 6.10037,-11.77993 12.61256,-11.77993c18.02073,0 40.82483,0 73.38676,0c7.85036,0 12.62012,5.89968 12.62012,12.53294c0,5.81881 0,62.87953 0,66.34007c0,4.81412 -4.64793,11.91552 -12.31891,11.91552c-0.34533,0 -0.69679,0 -1.05422,0c-33.10806,0 -54.75023,0 -72.63374,0c-6.5122,0 -12.61256,-5.70807 -12.61256,-12.21673z" fill="url(#color-1)" stroke="none" stroke-width="0"/><path d="M331.02907,189.20008l-9.30536,-10.26569l3.58491,-3.58424c5.06406,4.59477 10.26134,9.30536 10.26134,9.30536c0.33673,0.33272 0.28284,0.92686 -0.11247,1.32217l-3.10223,3.1019c-0.39498,0.39464 -0.9938,0.44887 -1.32618,0.12051z" fill="#ffffff" stroke="#ffffff" stroke-width="1.5"/><path d="M316.58651,173.28944l3.15981,-3.15981l3.78373,-3.7834l3.67528,3.67963l-3.60063,3.60064l-3.52198,3.52197l-10.85982,10.85983c-0.15798,0.16268 -0.37422,0.24167 -0.58209,0.24167c-0.20786,0 -0.42409,-0.08301 -0.58209,-0.24167l-2.51111,-2.51112c-0.32435,-0.32067 -0.32435,-0.84016 0,-1.16451z" fill="#ffffff" stroke="#ffffff" stroke-width="1.5"/><path d="M322.12271,161.58729c-0.39531,-0.39096 -0.39531,-1.03129 0,-1.42627l4.28282,-4.28247c0.19949,-0.19548 0.45757,-0.29523 0.71531,-0.29523c0.25774,0 0.51983,0.09975 0.71463,0.29523l0.19113,0.19113c0.39531,0.39096 0.39531,1.03129 0,1.42626l-0.38259,0.38259l1.20535,1.19296l0.37824,-0.37824c0.20017,-0.19548 0.45757,-0.29523 0.71531,-0.29523c0.25841,0 0.52016,0.09975 0.71564,0.29523l4.28749,4.28081c0.39498,0.39096 0.39498,1.03128 0,1.42627l-0.21623,0.21623c0.98141,1.77539 1.75396,4.52381 -0.3451,7.30538c-0.72334,0.94794 -1.04367,1.37238 -1.23882,1.37238c-0.42443,0 -0.29121,-1.93706 -2.36183,-4.73135l-0.12485,0.12485c-0.20017,0.19548 -0.45724,0.29523 -0.71532,0.29523c-0.18745,0 -0.37456,-0.04953 -0.53656,-0.15363c-0.06192,-0.03716 -0.1205,-0.08301 -0.17908,-0.14126l-0.13255,-0.13289l-0.29121,-0.29087l-3.67963,-3.67963l-0.17874,-0.17874c-0.03782,-0.04151 -0.07498,-0.08301 -0.1041,-0.12485c-0.09138,-0.12452 -0.14963,-0.26577 -0.17439,-0.41138c-0.05824,-0.31163 0.03749,-0.64836 0.27849,-0.8897l0.37857,-0.37824l-1.20166,-1.20166l-0.37858,0.37824c-0.19949,0.19548 -0.45724,0.29523 -0.71531,0.29523c-0.25808,0 -0.52017,-0.09975 -0.71531,-0.29523z" fill="#ffffff" stroke="#ffffff" stroke-width="1.5"/><path d="M311.47776,167.59995c-0.01238,-0.00837 -0.0164,-0.01673 -0.02477,-0.0251c-0.86493,-0.84016 -2.20384,-0.76116 -3.1809,-1.41387c-0.77321,-0.51548 -1.23078,-1.65891 -1.70475,-2.43245c-0.76485,-1.26392 -1.53405,-2.52383 -2.30325,-3.78776c-0.10812,-0.17472 -0.07933,-0.40334 0.06627,-0.54895l1.65087,-1.65053c0.1456,-0.1456 0.37456,-0.17473 0.54895,-0.06661c1.30978,0.79832 2.62358,1.59664 3.93336,2.39496c0.82342,0.50309 1.79245,0.92318 2.36182,1.74225c0.65305,0.93957 0.50745,2.19948 1.35129,3.06006c0,0 1.63011,1.47613 3.95846,3.58424l-3.08516,3.08516z" fill="#ffffff" stroke="#ffffff" stroke-width="1.5"/><text transform="translate(305.12935,215.2521) scale(0.25943,0.25943)" font-size="40" xml:space="preserve" fill="#ffffff" fill-rule="nonzero" stroke="none" stroke-width="1" stroke-linecap="butt" stroke-linejoin="miter" stroke-miterlimit="10" stroke-dasharray="" stroke-dashoffset="0" font-family="Sans Serif" font-weight="normal" text-anchor="start" style="mix-blend-mode: normal"><tspan x="0" dy="0">Editor</tspan></text></g></g></svg>