<svg version="1.1" xmlns="http://www.w3.org/2000/svg" xmlns:xlink="http://www.w3.org/1999/xlink" width="108.67925" height="108.67925" viewBox="0,0,108.67925,108.67925"><defs><linearGradient x1="310.07813" y1="177.87931" x2="310.07813" y2="206.11008" gradientUnits="userSpaceOnUse" id="color-1"><stop offset="0" stop-color="#424242"/><stop offset="1" stop-color="#363636"/></linearGradient><linearGradient x1="310.23438" y1="160.10587" x2="310.23438" y2="188.33664" gradientUnits="userSpaceOnUse" id="color-2"><stop offset="0" stop-color="#424242"/><stop offset="1" stop-color="#363636"/></linearGradient><linearGradient x1="320.00001" y1="165.88713" x2="320.00001" y2="194.11789" gradientUnits="userSpaceOnUse" id="color-3"><stop offset="0" stop-color="#424242"/><stop offset="1" stop-color="#333333"/></linearGradient><linearGradient x1="324.61537" y1="161.11789" x2="324.61537" y2="189.34867" gradientUnits="userSpaceOnUse" id="color-4"><stop offset="0" stop-color="#808080"/><stop offset="1" stop-color="#666666"/></linearGradient></defs><g transform="translate(-265.66038,-125.66038)"><g data-paper-data="{&quot;isPaintingLayer&quot;:true}" fill-rule="nonzero" stroke="none" stroke-width="0" stroke-linecap="butt" stroke-linejoin="miter" stroke-miterlimit="10" stroke-dasharray="" stroke-dashoffset="0" style="mix-blend-mode: normal"><path d="M265.66038,234.33964v-108.67925h108.67925v108.67925z" fill="none"/><path d="M295.96276,190.56552c0,-3.65684 0,-1.29523 0,-3.5365c0,-3.60408 3.2301,-8.96579 9.37961,-9.14971c2.29496,-0.06864 11.98364,0 15.67353,0c4.66408,0 8.91982,5.34634 8.91982,8.87384c0,2.23956 0,-0.08037 0,3.62846c0,4.91902 -5.78016,9.51754 -9.47156,9.51754c-2.20718,0 -11.66726,0 -15.21375,0c-4.80086,0 -9.28765,-4.49855 -9.28765,-9.33363z" fill="url(#color-1)"/><path d="M296.11901,172.79209c0,-3.65684 0,-1.29523 0,-3.5365c0,-3.60408 3.2301,-8.96579 9.37961,-9.14971c2.29496,-0.06864 10.81176,0 14.50165,0c4.66408,0 8.91982,5.34634 8.91982,8.87384c0,2.23956 0,-0.08037 0,3.62846c0,4.91902 -5.78016,9.51754 -9.47156,9.51754c-2.20718,0 -10.49538,0 -14.04187,0c-4.80086,0 -9.28765,-4.49855 -9.28765,-9.33363z" fill="url(#color-2)"/><path d="M300.03846,180.00002c0,-11.02445 8.93709,-19.96154 19.96154,-19.96154c11.02445,0 19.96154,8.93709 19.96154,19.96154c0,11.02445 -8.93709,19.96154 -19.96154,19.96154c-11.02445,0 -19.96154,-8.93709 -19.96154,-19.96154z" fill="#595959"/><path d="M305.88462,184.78427c0,-3.65684 0,-7.50617 0,-9.74743c0,-3.60408 3.2301,-8.96579 9.37961,-9.14971c2.29496,-0.06864 6.24145,0 9.93134,0c4.66408,0 8.91982,5.34634 8.91982,8.87384c0,2.23956 0,6.13057 0,9.83939c0,4.91902 -5.78016,9.51754 -9.47156,9.51754c-2.20718,0 -5.92507,0 -9.47156,0c-4.80086,0 -9.28765,-4.49855 -9.28765,-9.33363z" fill="url(#color-3)"/><path d="M310.50001,180.01502c0,-3.65684 0,2.26306 0,0.0218c0,-3.60408 3.2301,-8.96579 9.37961,-9.14971c1.58176,-0.04731 19.24594,-0.05279 24.28699,-0.05163c2.27294,0.00052 3.87186,2.20515 3.87186,3.93375c0,2.0842 0,7.28924 0,10.92308c0,2.20475 -1.48649,3.81424 -3.64209,3.79098c-4.78187,-0.0516 -22.16419,-0.13463 -24.60872,-0.13463c-4.80086,0 -9.28765,-4.49855 -9.28765,-9.33363z" fill="url(#color-4)"/></g></g></svg>