<svg version="1.1" xmlns="http://www.w3.org/2000/svg" xmlns:xlink="http://www.w3.org/1999/xlink" width="98.61944" height="90.78853" viewBox="0,0,98.61944,90.78853"><defs><linearGradient x1="351.37894" y1="193.26508" x2="351.37894" y2="233.3762" gradientUnits="userSpaceOnUse" id="color-1"><stop offset="0" stop-color="#e6e6e6"/><stop offset="1" stop-color="#cccccc"/></linearGradient></defs><g transform="translate(-270.69031,-134.60574)"><g data-paper-data="{&quot;isPaintingLayer&quot;:true}" fill-rule="nonzero" stroke="none" stroke-linecap="butt" stroke-linejoin="miter" stroke-miterlimit="10" stroke-dasharray="" stroke-dashoffset="0" style="mix-blend-mode: normal"><path d="M270.69031,213.17755c0,-5.95362 0,-63.25453 0,-66.79188c0,-4.77455 6.10037,-11.77993 12.61256,-11.77993c18.02073,0 40.82483,0 73.38676,0c7.85036,0 12.62012,5.89968 12.62012,12.53294c0,5.81881 0,62.87953 0,66.34007c0,4.81412 -4.64793,11.91552 -12.31891,11.91552c-0.34533,0 -0.69679,0 -1.05422,0c-33.10806,0 -54.75023,0 -72.63374,0c-6.5122,0 -12.61256,-5.70807 -12.61256,-12.21673z" fill="url(#color-1)" stroke-width="0"/><text transform="translate(297.77191,215.4512) scale(0.25943,0.25943)" font-size="40" xml:space="preserve" fill="#000000" fill-rule="nonzero" stroke="none" stroke-width="1" stroke-linecap="butt" stroke-linejoin="miter" stroke-miterlimit="10" stroke-dasharray="" stroke-dashoffset="0" font-family="Sans Serif" font-weight="normal" text-anchor="start" style="mix-blend-mode: normal"><tspan x="0" dy="0">Featured</tspan></text><path d="M321.33668,160.22599l3.12262,6.32727c0.21715,0.44006 0.637,0.74499 1.12269,0.81546l6.98276,1.01469c1.22318,0.17788 1.71119,1.68058 0.82643,2.54281l-5.05269,4.92507c-0.35114,0.34246 -0.51169,0.83625 -0.42851,1.31963l1.19258,6.95445c0.20907,1.21797 -1.06956,2.14664 -2.16338,1.57201l-6.24527,-3.28319c-0.4343,-0.22812 -0.95348,-0.22812 -1.38778,0l-6.24527,3.28319c-1.09382,0.57521 -2.37244,-0.35401 -2.16338,-1.57201l1.19258,-6.95445c0.08316,-0.48337 -0.07739,-0.97716 -0.42851,-1.31963l-5.05269,-4.92507c-0.88475,-0.8628 -0.39675,-2.3655 0.82643,-2.54281l6.98276,-1.01469c0.48569,-0.07045 0.90554,-0.37538 1.12269,-0.81546l3.12262,-6.32727c0.54634,-1.10826 2.12641,-1.10826 2.67333,0z" fill="#000000" stroke-width="1"/></g></g></svg>