<svg version="1.1" xmlns="http://www.w3.org/2000/svg" xmlns:xlink="http://www.w3.org/1999/xlink" width="135.48603" height="23.44022" viewBox="0,0,135.48603,23.44022"><defs><linearGradient x1="112.97925" y1="129.17913" x2="112.99182" y2="107.752" gradientUnits="userSpaceOnUse" id="color-1"><stop offset="0" stop-color="#bf0000"/><stop offset="1" stop-color="#400000"/></linearGradient><linearGradient x1="130.49472" y1="120.35609" x2="130.50241" y2="107.26228" gradientUnits="userSpaceOnUse" id="color-2"><stop offset="0" stop-color="#bf0000"/><stop offset="1" stop-color="#400000"/></linearGradient><linearGradient x1="95.49471" y1="120.33553" x2="95.5024" y2="107.24173" gradientUnits="userSpaceOnUse" id="color-3"><stop offset="0" stop-color="#bf0000"/><stop offset="1" stop-color="#400000"/></linearGradient><linearGradient x1="161.60425" y1="129.17913" x2="161.61683" y2="107.752" gradientUnits="userSpaceOnUse" id="color-4"><stop offset="0" stop-color="#bf0000"/><stop offset="1" stop-color="#400000"/></linearGradient><linearGradient x1="179.11973" y1="120.35609" x2="179.12742" y2="107.26228" gradientUnits="userSpaceOnUse" id="color-5"><stop offset="0" stop-color="#bf0000"/><stop offset="1" stop-color="#400000"/></linearGradient><linearGradient x1="144.11971" y1="120.33553" x2="144.1274" y2="107.24173" gradientUnits="userSpaceOnUse" id="color-6"><stop offset="0" stop-color="#bf0000"/><stop offset="1" stop-color="#400000"/></linearGradient><linearGradient x1="211.47925" y1="129.17913" x2="211.49182" y2="107.752" gradientUnits="userSpaceOnUse" id="color-7"><stop offset="0" stop-color="#bf0000"/><stop offset="1" stop-color="#400000"/></linearGradient><linearGradient x1="228.99473" y1="120.35609" x2="229.00242" y2="107.26228" gradientUnits="userSpaceOnUse" id="color-8"><stop offset="0" stop-color="#bf0000"/><stop offset="1" stop-color="#400000"/></linearGradient><linearGradient x1="228.97981" y1="122.42211" x2="228.98871" y2="107.26227" gradientUnits="userSpaceOnUse" id="color-9"><stop offset="0" stop-color="#333333"/><stop offset="1" stop-color="#1a1a1a"/></linearGradient><linearGradient x1="193.99472" y1="120.33553" x2="194.00241" y2="107.24173" gradientUnits="userSpaceOnUse" id="color-10"><stop offset="0" stop-color="#bf0000"/><stop offset="1" stop-color="#400000"/></linearGradient></defs><g transform="translate(-88.06056,-106.23845)"><g data-paper-data="{&quot;isPaintingLayer&quot;:true}" fill-rule="nonzero" stroke-linecap="butt" stroke-linejoin="miter" stroke-miterlimit="10" stroke-dasharray="" stroke-dashoffset="0" style="mix-blend-mode: normal"><g data-paper-data="{&quot;index&quot;:null}" stroke="#000000"><path d="M102.26295,110.77325c-0.89094,-1.6986 -0.1985,-3.02768 1.58472,-3.02663c5.13342,0.003 15.13297,0.00888 18.14663,0.01065c1.61247,0.00094 2.72971,1.18256 1.73804,2.98518c-2.7503,4.9994 -8.13271,14.78332 -9.59214,17.43622c-0.71647,1.30237 -2.15318,1.34157 -2.82164,0.06714c-1.40075,-2.67053 -6.4529,-12.5104 -9.05563,-17.47257z" fill="url(#color-1)" stroke-width="3"/><path d="M123.94612,109.10853c-0.54446,-1.03799 -0.12129,-1.85016 0.96839,-1.84952c3.13696,0.00183 9.24754,0.00542 11.08914,0.0065c0.98537,0.00057 1.66807,0.72265 1.06209,1.8242c-1.68067,3.05506 -4.96977,9.03386 -5.86161,10.65502c-0.43782,0.79586 -1.31579,0.81982 -1.72427,0.04103c-0.85596,-1.63192 -3.94326,-7.64492 -5.53373,-10.67723z" fill="url(#color-2)" stroke-width="2"/><path d="M88.94613,109.08797c-0.54446,-1.03799 -0.12131,-1.85016 0.96839,-1.84952c3.13697,0.00183 9.24754,0.00542 11.08914,0.0065c0.98537,0.00057 1.66807,0.72265 1.06209,1.8242c-1.68068,3.05504 -4.96977,9.03386 -5.86161,10.65502c-0.43782,0.79586 -1.31579,0.81982 -1.72427,0.04103c-0.85596,-1.63192 -3.94326,-7.64492 -5.53373,-10.67723z" fill="url(#color-3)" stroke-width="2"/></g><g data-paper-data="{&quot;index&quot;:null}" stroke="#000000"><path d="M150.88795,110.77325c-0.89094,-1.6986 -0.1985,-3.02769 1.58472,-3.02663c5.13343,0.00301 15.13297,0.00889 18.14663,0.01066c1.61247,0.00095 2.7297,1.18256 1.73804,2.98517c-2.7503,4.9994 -8.13271,14.78332 -9.59214,17.43622c-0.71647,1.30237 -2.15318,1.34157 -2.82164,0.06714c-1.40075,-2.67053 -6.45291,-12.5104 -9.05563,-17.47257z" fill="url(#color-4)" stroke-width="3"/><path d="M172.57113,109.10854c-0.54446,-1.03799 -0.12129,-1.85017 0.96839,-1.84952c3.13696,0.00183 9.24754,0.00542 11.08914,0.0065c0.98537,0.00057 1.66808,0.72265 1.06209,1.8242c-1.68066,3.05506 -4.96977,9.03387 -5.86161,10.65502c-0.43783,0.79586 -1.3158,0.81982 -1.72427,0.04102c-0.85596,-1.63192 -3.94325,-7.64492 -5.53373,-10.67722z" fill="url(#color-5)" stroke-width="2"/><path d="M137.57114,109.08797c-0.54446,-1.03799 -0.12132,-1.85016 0.96839,-1.84952c3.13697,0.00182 9.24753,0.00542 11.08914,0.0065c0.98537,0.00057 1.66807,0.72265 1.06209,1.8242c-1.68068,3.05504 -4.96977,9.03386 -5.86162,10.65502c-0.43782,0.79586 -1.31579,0.81982 -1.72426,0.04103c-0.85596,-1.63192 -3.94326,-7.64492 -5.53374,-10.67723z" fill="url(#color-6)" stroke-width="2"/></g><g data-paper-data="{&quot;index&quot;:null}"><path d="M200.76294,110.77325c-0.89094,-1.6986 -0.1985,-3.02769 1.58472,-3.02663c5.13342,0.00301 15.13297,0.00889 18.14664,0.01066c1.61247,0.00095 2.7297,1.18256 1.73804,2.98517c-2.7503,4.9994 -8.13271,14.78332 -9.59215,17.43622c-0.71647,1.30237 -2.15318,1.34157 -2.82164,0.06714c-1.40075,-2.67053 -6.4529,-12.5104 -9.05563,-17.47257z" fill="url(#color-7)" stroke="#000000" stroke-width="3"/><path d="" fill="url(#color-8)" stroke="url(#color-9)" stroke-width="2"/><path d="M187.44614,109.08797c-0.54445,-1.03799 -0.12132,-1.85016 0.96839,-1.84952c3.13697,0.00182 9.24753,0.00542 11.08914,0.0065c0.98537,0.00057 1.66808,0.72265 1.06209,1.8242c-1.68068,3.05504 -4.96977,9.03386 -5.86161,10.65502c-0.43783,0.79586 -1.31579,0.81982 -1.72427,0.04103c-0.85596,-1.63192 -3.94326,-7.64492 -5.53374,-10.67723z" fill="url(#color-10)" stroke="#000000" stroke-width="2"/></g></g></g></svg>