<svg version="1.1" xmlns="http://www.w3.org/2000/svg" xmlns:xlink="http://www.w3.org/1999/xlink" width="533.92418" height="50.11949" viewBox="0,0,533.92418,50.11949"><defs><linearGradient x1="566.7122" y1="145.65419" x2="588.13931" y2="145.68934" gradientUnits="userSpaceOnUse" id="color-1"><stop offset="0" stop-color="#bf0000"/><stop offset="1" stop-color="#400000"/></linearGradient><linearGradient x1="575.57424" y1="128.15841" x2="588.66803" y2="128.17989" gradientUnits="userSpaceOnUse" id="color-2"><stop offset="0" stop-color="#bf0000"/><stop offset="1" stop-color="#400000"/></linearGradient><linearGradient x1="575.51683" y1="163.15838" x2="588.61062" y2="163.17985" gradientUnits="userSpaceOnUse" id="color-3"><stop offset="0" stop-color="#bf0000"/><stop offset="1" stop-color="#400000"/></linearGradient><linearGradient x1="78.67657" y1="145.65419" x2="57.24946" y2="145.68934" gradientUnits="userSpaceOnUse" id="color-4"><stop offset="0" stop-color="#bf0000"/><stop offset="1" stop-color="#400000"/></linearGradient><linearGradient x1="69.81453" y1="128.15841" x2="56.72074" y2="128.17989" gradientUnits="userSpaceOnUse" id="color-5"><stop offset="0" stop-color="#bf0000"/><stop offset="1" stop-color="#400000"/></linearGradient><linearGradient x1="69.87194" y1="163.15838" x2="56.77815" y2="163.17985" gradientUnits="userSpaceOnUse" id="color-6"><stop offset="0" stop-color="#bf0000"/><stop offset="1" stop-color="#400000"/></linearGradient></defs><g transform="translate(-55.72991,-120.6125)"><g data-paper-data="{&quot;isPaintingLayer&quot;:true}" fill-rule="nonzero" stroke="#000000" stroke-linecap="butt" stroke-linejoin="miter" stroke-miterlimit="10" stroke-dasharray="" stroke-dashoffset="0" style="mix-blend-mode: normal"><g><path d="M585.09417,156.41147c-4.95636,-2.61378 -14.78495,-7.68783 -17.45235,-9.09452c-1.27294,-0.67129 -1.23054,-2.10792 0.07343,-2.82149c2.65614,-1.45352 12.45203,-6.81412 17.45754,-9.55328c1.80482,-0.98765 2.98395,0.13221 2.9813,1.74469c-0.00495,3.01366 -0.02134,13.0132 -0.02977,18.14661c-0.00292,1.78323 -1.33354,2.4727 -3.03015,1.57798z" fill="url(#color-1)" stroke-width="3"/><path d="M586.80718,134.73204c-3.02876,-1.59722 -9.03486,-4.69791 -10.66487,-5.5575c-0.77788,-0.41021 -0.75197,-1.28812 0.04487,-1.72417c1.62314,-0.88823 7.60925,-4.16402 10.66805,-5.83787c1.1029,-0.60353 1.82346,0.08078 1.82183,1.06615c-0.00302,1.8416 -0.01304,7.95217 -0.0182,11.08913c-0.00179,1.08969 -0.8149,1.51104 -1.85168,0.96427z" fill="url(#color-2)" stroke-width="2"/><path d="M586.74979,169.73199c-3.02876,-1.59722 -9.03487,-4.69791 -10.66488,-5.5575c-0.77788,-0.41021 -0.75196,-1.28813 0.04487,-1.72418c1.62314,-0.88823 7.60927,-4.164 10.66805,-5.83786c1.1029,-0.60353 1.82345,0.08078 1.82183,1.06615c-0.00302,1.8416 -0.01304,7.95217 -0.0182,11.08913c-0.00179,1.0897 -0.81489,1.51104 -1.85167,0.96427z" fill="url(#color-3)" stroke-width="2"/></g><g data-paper-data="{&quot;index&quot;:null}"><path d="M60.2946,156.41146c-1.69661,0.89472 -3.02723,0.20525 -3.03015,-1.57798c-0.00843,-5.13341 -0.02482,-15.13295 -0.02977,-18.14661c-0.00265,-1.61248 1.17648,-2.73234 2.9813,-1.74469c5.00551,2.73916 14.8014,8.09976 17.45754,9.55328c1.30397,0.71357 1.34637,2.1502 0.07343,2.82149c-2.6674,1.40669 -12.49599,6.48074 -17.45235,9.09452z" fill="url(#color-4)" stroke-width="3"/><path d="M58.58159,134.73205c-1.03678,0.54677 -1.84989,0.12542 -1.85168,-0.96427c-0.00516,-3.13696 -0.01518,-9.24753 -0.0182,-11.08913c-0.00163,-0.98537 0.71893,-1.66968 1.82183,-1.06615c3.0588,1.67385 9.04491,4.94964 10.66805,5.83787c0.79684,0.43605 0.82275,1.31396 0.04487,1.72417c-1.63001,0.85959 -7.63611,3.96028 -10.66487,5.5575z" fill="url(#color-5)" stroke-width="2"/><path d="M58.63898,169.732c-1.03678,0.54677 -1.84988,0.12543 -1.85167,-0.96427c-0.00516,-3.13696 -0.01518,-9.24753 -0.0182,-11.08913c-0.00162,-0.98537 0.71893,-1.66968 1.82183,-1.06615c3.05878,1.67386 9.04491,4.94963 10.66805,5.83786c0.79683,0.43605 0.82275,1.31397 0.04487,1.72418c-1.63001,0.85959 -7.63612,3.96028 -10.66488,5.5575z" fill="url(#color-6)" stroke-width="2"/></g></g></g></svg>