<svg version="1.1" xmlns="http://www.w3.org/2000/svg" xmlns:xlink="http://www.w3.org/1999/xlink" width="115.97312" height="60.88834" viewBox="0,0,115.97312,60.88834"><defs><linearGradient x1="188.9931" y1="125.11673" x2="172.85735" y2="139.21501" gradientUnits="userSpaceOnUse" id="color-1"><stop offset="0" stop-color="#bf0000"/><stop offset="1" stop-color="#400000"/></linearGradient><linearGradient x1="95.84814" y1="98.78226" x2="74.4263" y2="98.30459" gradientUnits="userSpaceOnUse" id="color-2"><stop offset="0" stop-color="#bf0000"/><stop offset="1" stop-color="#400000"/></linearGradient></defs><g transform="translate(-72.72481,-85.95265)"><g data-paper-data="{&quot;isPaintingLayer&quot;:true}" fill-rule="nonzero" stroke="#000000" stroke-width="3" stroke-linecap="butt" stroke-linejoin="miter" stroke-miterlimit="10" stroke-dasharray="" stroke-dashoffset="0" style="mix-blend-mode: normal"><path d="M168.07922,129.14494c5.45003,-1.30173 16.18563,-3.96519 19.11871,-4.66576c1.39973,-0.33433 2.31487,0.77392 1.80471,2.17006c-1.03918,2.84393 -4.8717,13.33237 -6.83005,18.69174c-0.70611,1.93242 -2.331,1.8676 -3.39194,0.65333c-1.98289,-2.26945 -8.5622,-9.79958 -11.93983,-13.66532c-1.1733,-1.34286 -0.62722,-2.73845 1.23839,-3.18405z" fill="url(#color-1)"/><path d="M77.69224,87.64763c4.90132,2.71559 14.62302,7.99153 17.2608,9.45299c1.25881,0.69744 1.18675,2.13288 -0.13166,2.81936c-2.68559,1.39836 -12.59011,6.55551 -17.65112,9.1907c-1.82483,0.95018 -2.9806,-0.19381 -2.94464,-1.80587c0.06718,-3.01293 0.29009,-13.00996 0.40451,-18.14212c0.03974,-1.78279 1.38431,-2.44463 3.06209,-1.51505z" fill="url(#color-2)"/></g></g></svg>