<svg version="1.1" xmlns="http://www.w3.org/2000/svg" xmlns:xlink="http://www.w3.org/1999/xlink" width="1250" height="1250" viewBox="0,0,1250,1250"><defs><clipPath id="clip-1"><path d="M186.99232,232.73679v-105.47358h105.47358v105.47358z" fill="none" fill-rule="nonzero"/></clipPath><linearGradient x1="220.74387" y1="127.26321" x2="220.74387" y2="169.45264" gradientUnits="userSpaceOnUse" id="color-1"><stop offset="0" stop-color="#c8ffc8"/><stop offset="1" stop-color="#aff0af"/></linearGradient><linearGradient x1="186.99232" y1="198.98524" x2="229.18175" y2="198.98524" gradientUnits="userSpaceOnUse" id="color-2"><stop offset="0" stop-color="#c8ffc8"/><stop offset="1" stop-color="#aff0af"/></linearGradient><linearGradient x1="258.71435" y1="232.73679" x2="258.71435" y2="190.54736" gradientUnits="userSpaceOnUse" id="color-3"><stop offset="0" stop-color="#c8ffc8"/><stop offset="1" stop-color="#aff0af"/></linearGradient><linearGradient x1="292.4659" y1="161.01476" x2="250.27647" y2="161.01476" gradientUnits="userSpaceOnUse" id="color-4"><stop offset="0" stop-color="#c8ffc8"/><stop offset="1" stop-color="#aff0af"/></linearGradient><clipPath id="clip-2"><path d="M-305,805v-1250h1250v1250z" fill="none" fill-rule="nonzero"/></clipPath></defs><g transform="translate(305,445)"><g clip-path="url(#clip-2)" data-paper-data="{&quot;isPaintingLayer&quot;:true}" stroke="none" stroke-width="1" stroke-linecap="butt" stroke-linejoin="miter" stroke-miterlimit="10" stroke-dasharray="" stroke-dashoffset="0" style="mix-blend-mode: normal"><g><g clip-path="url(#clip-1)"><path d="M220.74387,127.26321h12.65683c4.66008,0 8.43789,3.77777 8.43789,8.43789v12.65683v12.65683c0,4.66008 -3.77781,8.43789 -8.43789,8.43789h-12.65683h-12.65683c-4.66008,0 -8.43789,-3.77781 -8.43789,-8.43789v-12.65683c0,-11.65027 9.44444,-21.09472 21.09472,-21.09472z" fill="url(#color-1)" fill-rule="evenodd"/><path d="M186.99232,198.98524v-12.65683c0,-4.66008 3.77777,-8.43789 8.43789,-8.43789h12.65683h12.65683c4.66008,0 8.43789,3.77773 8.43789,8.43789v12.65683v12.65683c0,4.66024 -3.77781,8.43789 -8.43789,8.43789h-12.65683c-11.65027,0 -21.09472,-9.44444 -21.09472,-21.09472z" fill="url(#color-2)" fill-rule="evenodd"/><path d="M258.71435,232.73679h-12.65683c-4.66008,0 -8.43789,-3.77764 -8.43789,-8.43789v-12.65683v-12.65683c0,-4.66016 3.77781,-8.43789 8.43789,-8.43789h12.65683h12.65683c4.66024,0 8.43789,3.77781 8.43789,8.43789v12.65683c0,11.65019 -9.44444,21.09472 -21.09472,21.09472z" fill="url(#color-3)" fill-rule="evenodd"/><path d="M284.02801,182.10947h-12.65683h-12.65683c-4.66016,0 -8.43789,-3.77781 -8.43789,-8.43789v-12.65683v-12.65683c0,-4.66008 3.77781,-8.43789 8.43789,-8.43789h12.65683c11.65019,0 21.09472,9.44444 21.09472,21.09472v12.65683c0,4.66008 -3.77764,8.43789 -8.43789,8.43789zM274.10337,152.0706c1.02014,0 2.02509,0.2409 2.93301,0.70296c4.24679,2.16052 4.4012,8.14518 0.2717,10.5201l-1.65298,0.95095l4.47799,4.88233c0.29279,0.31895 0.06497,0.83198 -0.36874,0.83198h-14.84148c-1.37841,0 -2.49584,-1.11237 -2.49584,-2.48445v-12.61886c0,-1.53814 1.2526,-2.78501 2.79775,-2.78501z" fill="url(#color-4)" fill-rule="evenodd"/></g><text transform="translate(309.63496,195.29367) scale(1.32556,1.32556)" font-size="40" xml:space="preserve" fill="#c8ffc8" fill-rule="nonzero" stroke="none" stroke-width="1" stroke-linecap="butt" stroke-linejoin="miter" stroke-miterlimit="10" stroke-dasharray="" stroke-dashoffset="0" font-family="&quot;Charles Wright&quot;, Pixel" font-weight="normal" text-anchor="start" style="mix-blend-mode: normal"><tspan x="0" dy="0">Clover</tspan></text></g></g></g></svg>