<svg version="1.1" xmlns="http://www.w3.org/2000/svg" xmlns:xlink="http://www.w3.org/1999/xlink" width="274.88446" height="263.31307" viewBox="0,0,274.88446,263.31307"><defs><linearGradient x1="217.0002" y1="84.72591" x2="224.35545" y2="99.14384" gradientUnits="userSpaceOnUse" id="color-1"><stop offset="0" stop-color="#424242"/><stop offset="1" stop-color="#363636"/></linearGradient><linearGradient x1="212.44931" y1="75.60802" x2="219.80455" y2="90.02594" gradientUnits="userSpaceOnUse" id="color-2"><stop offset="0" stop-color="#424242"/><stop offset="1" stop-color="#363636"/></linearGradient><linearGradient x1="218.94303" y1="76.01626" x2="226.29827" y2="90.43418" gradientUnits="userSpaceOnUse" id="color-3"><stop offset="0" stop-color="#424242"/><stop offset="1" stop-color="#333333"/></linearGradient><linearGradient x1="220.05758" y1="72.37805" x2="227.41283" y2="86.79597" gradientUnits="userSpaceOnUse" id="color-4"><stop offset="0" stop-color="#808080"/><stop offset="1" stop-color="#666666"/></linearGradient><linearGradient x1="270.06451" y1="280.20159" x2="270.06451" y2="294.84063" gradientUnits="userSpaceOnUse" id="color-5"><stop offset="0" stop-color="#00ff9b" stop-opacity="0"/><stop offset="1" stop-color="#00ff9b"/></linearGradient><linearGradient x1="269.83378" y1="287.52111" x2="269.83378" y2="312.11614" gradientUnits="userSpaceOnUse" id="color-6"><stop offset="0" stop-color="#00ffb5"/><stop offset="1" stop-color="#00ff61"/></linearGradient><linearGradient x1="330.40899" y1="178.77289" x2="326.33112" y2="192.79204" gradientUnits="userSpaceOnUse" id="color-7"><stop offset="0" stop-color="#bf0000"/><stop offset="1" stop-color="#400000"/></linearGradient><linearGradient x1="331.03777" y1="176.55661" x2="326.31647" y2="192.78778" gradientUnits="userSpaceOnUse" id="color-8"><stop offset="0" stop-color="#333333"/><stop offset="1" stop-color="#1a1a1a"/></linearGradient><linearGradient x1="189.39677" y1="156.09188" x2="300.20762" y2="156.09188" gradientUnits="userSpaceOnUse" id="color-9"><stop offset="0" stop-color="#333333"/><stop offset="1" stop-color="#1a1a1a"/></linearGradient><linearGradient x1="350.55367" y1="207.56715" x2="239.74282" y2="207.56715" gradientUnits="userSpaceOnUse" id="color-10"><stop offset="0" stop-color="#333333"/><stop offset="1" stop-color="#1a1a1a"/></linearGradient><linearGradient x1="314.37638" y1="173.59582" x2="310.29851" y2="187.61497" gradientUnits="userSpaceOnUse" id="color-11"><stop offset="0" stop-color="#bf0000"/><stop offset="1" stop-color="#400000"/></linearGradient><linearGradient x1="315.00516" y1="171.37954" x2="310.28386" y2="187.61071" gradientUnits="userSpaceOnUse" id="color-12"><stop offset="0" stop-color="#333333"/><stop offset="1" stop-color="#1a1a1a"/></linearGradient><linearGradient x1="298.00454" y1="169.09723" x2="293.92667" y2="183.11638" gradientUnits="userSpaceOnUse" id="color-13"><stop offset="0" stop-color="#bf0000"/><stop offset="1" stop-color="#400000"/></linearGradient><linearGradient x1="298.63332" y1="166.88095" x2="293.91202" y2="183.11212" gradientUnits="userSpaceOnUse" id="color-14"><stop offset="0" stop-color="#333333"/><stop offset="1" stop-color="#1a1a1a"/></linearGradient><linearGradient x1="254.78477" y1="114.56883" x2="258.86264" y2="128.58798" gradientUnits="userSpaceOnUse" id="color-15"><stop offset="0" stop-color="#bf0000"/><stop offset="1" stop-color="#400000"/></linearGradient><linearGradient x1="254.15599" y1="112.35255" x2="258.87729" y2="128.58372" gradientUnits="userSpaceOnUse" id="color-16"><stop offset="0" stop-color="#333333"/><stop offset="1" stop-color="#1a1a1a"/></linearGradient><linearGradient x1="270.81737" y1="109.39176" x2="274.89524" y2="123.41091" gradientUnits="userSpaceOnUse" id="color-17"><stop offset="0" stop-color="#bf0000"/><stop offset="1" stop-color="#400000"/></linearGradient><linearGradient x1="270.18859" y1="107.17548" x2="274.90989" y2="123.40665" gradientUnits="userSpaceOnUse" id="color-18"><stop offset="0" stop-color="#333333"/><stop offset="1" stop-color="#1a1a1a"/></linearGradient><linearGradient x1="287.18921" y1="104.89317" x2="291.26708" y2="118.91232" gradientUnits="userSpaceOnUse" id="color-19"><stop offset="0" stop-color="#bf0000"/><stop offset="1" stop-color="#400000"/></linearGradient><linearGradient x1="286.56043" y1="102.67689" x2="291.28173" y2="118.90806" gradientUnits="userSpaceOnUse" id="color-20"><stop offset="0" stop-color="#333333"/><stop offset="1" stop-color="#1a1a1a"/></linearGradient></defs><g transform="translate(-189.14515,-48.76493)"><g data-paper-data="{&quot;isPaintingLayer&quot;:true}" fill-rule="nonzero" stroke-linecap="butt" stroke-linejoin="miter" stroke-miterlimit="10" stroke-dasharray="" stroke-dashoffset="0" style="mix-blend-mode: normal"><path d="M189.1764,299.01835c0,-5.95362 0,-234.93614 0,-238.47349c0,-4.77455 6.10037,-11.77993 12.61256,-11.77993c18.02073,0 103.58265,0 136.14458,0c7.85036,0 12.62012,5.89968 12.62012,12.53294c0,5.81881 0,234.56114 0,238.02168c0,4.81412 -4.64793,11.91552 -12.31891,11.91552c-0.34533,0 -0.69679,0 -1.05422,0c-33.10806,0 -117.50805,0 -135.39156,0c-6.5122,0 -12.61256,-5.70807 -12.61256,-12.21673z" fill="#e6e6e6" stroke="none" stroke-width="0"/><text transform="translate(368.15247,82.904) scale(0.57331,0.57331)" font-size="40" xml:space="preserve" fill="#000000" fill-rule="nonzero" stroke="none" stroke-width="1" stroke-linecap="butt" stroke-linejoin="miter" stroke-miterlimit="10" stroke-dasharray="" stroke-dashoffset="0" font-family="Sans Serif" font-weight="normal" text-anchor="start" style="mix-blend-mode: normal"><tspan x="0" dy="0">Ultimate</tspan></text><text transform="translate(368.15239,103.0101) scale(0.37099,0.37099)" font-size="40" xml:space="preserve" fill="#000000" fill-rule="nonzero" stroke="none" stroke-width="1" stroke-linecap="butt" stroke-linejoin="miter" stroke-miterlimit="10" stroke-dasharray="" stroke-dashoffset="0" font-family="Sans Serif" font-weight="normal" text-anchor="start" style="mix-blend-mode: normal"><tspan x="0" dy="0">Extreme</tspan></text><text transform="translate(367.474,135.31699) scale(0.47686,0.47686)" font-size="40" xml:space="preserve" fill="#000000" fill-rule="nonzero" stroke="none" stroke-width="1" stroke-linecap="butt" stroke-linejoin="miter" stroke-miterlimit="10" stroke-dasharray="" stroke-dashoffset="0" font-family="Sans Serif" font-weight="normal" text-anchor="start" style="mix-blend-mode: normal"><tspan x="0" dy="0">Complete</tspan></text><g stroke="none" stroke-width="0"><path d="M213.09652,94.8826c-0.95276,-1.8676 -0.33746,-0.6615 -0.92139,-1.80615c-0.93901,-1.84066 -0.68629,-5.42055 2.40645,-7.11667c1.15419,-0.63299 6.12024,-3.12222 8.00473,-4.08358c2.38202,-1.21519 5.94844,0.40649 6.8675,2.20805c0.5835,1.14378 -0.02095,-0.04105 0.94535,1.85312c1.28161,2.51223 -0.47232,6.36672 -2.35758,7.32849c-1.12724,0.57506 -5.95866,3.03979 -7.76991,3.96379c-2.45188,1.25081 -5.91542,0.12233 -7.17514,-2.34704z" fill="url(#color-1)"/><path d="M208.54563,85.7647c-0.95276,-1.8676 -0.33746,-0.6615 -0.92139,-1.80615c-0.93901,-1.84066 -0.68629,-5.42055 2.40645,-7.11667c1.15419,-0.63299 5.52174,-2.81689 7.40624,-3.77826c2.38202,-1.21519 5.94844,0.40649 6.8675,2.20805c0.5835,1.14378 -0.02095,-0.04105 0.94535,1.85312c1.28161,2.51223 -0.47232,6.36672 -2.35758,7.32849c-1.12724,0.57506 -5.36016,2.73447 -7.17142,3.65847c-2.45188,1.25081 -5.91542,0.12233 -7.17514,-2.34704z" fill="url(#color-2)"/><path d="M212.42531,88.42473c-2.87232,-5.63037 -0.63646,-12.52316 4.99391,-15.39547c5.63037,-2.87232 12.52316,-0.63646 15.39547,4.99391c2.87232,5.63037 0.63646,12.52316 -4.99391,15.39547c-5.63037,2.87232 -12.52316,0.63646 -15.39547,-4.99391z" fill="#595959"/><path d="M216.65752,89.34498c-0.95276,-1.8676 -1.95566,-3.83353 -2.53959,-4.97817c-0.93901,-1.84066 -0.68629,-5.42055 2.40645,-7.11667c1.15419,-0.63299 3.18762,-1.62615 5.0721,-2.58751c2.38202,-1.21519 5.94844,0.40649 6.8675,2.20805c0.5835,1.14378 1.59726,3.13099 2.56356,5.02514c1.28161,2.51223 -0.47232,6.36672 -2.35758,7.32849c-1.12724,0.57506 -3.02603,1.54372 -4.83728,2.46772c-2.45188,1.25081 -5.91542,0.12233 -7.17514,-2.34704z" fill="url(#color-3)"/><path d="M217.7721,85.70675c-0.95276,-1.8676 0.58961,1.15578 0.00568,0.01113c-0.93901,-1.84066 -0.68629,-5.42055 2.40645,-7.11667c0.79551,-0.43628 9.81547,-5.04131 12.39031,-6.3541c1.16097,-0.59193 2.55195,0.11743 3.00233,1.00025c0.54302,1.06443 1.89914,3.72273 2.84591,5.5786c0.57442,1.12601 0.23459,2.33529 -0.87238,2.88502c-2.45562,1.21952 -11.35469,5.70591 -12.60316,6.34281c-2.45188,1.25081 -5.91542,0.12233 -7.17514,-2.34704z" fill="url(#color-4)"/></g><path d="M189.62132,294.84063v-14.63904h160.88638v14.63904z" fill="url(#color-5)" stroke="#000000" stroke-width="0"/><path d="M189.16964,299.98126c-0.00828,-3.88316 -0.02449,-11.49344 -0.02449,-11.49344l161.32691,-0.96671c0,0 0.0576,8.33471 0.02634,12.35926c-0.04245,5.46349 -3.24615,11.161 -13.27178,11.35782c-19.32181,0.37932 -106.5022,0.72693 -137.25272,0.83975c-6.74782,0.02476 -10.79574,-8.10662 -10.80425,-12.09667z" fill="url(#color-6)" stroke="none" stroke-width="0"/><path d="M239.91314,292.06421c0,-2.87716 0,-7.65793 0,-9.00232c0,-0.6957 0.4686,-1.12168 1.19976,-0.66632c2.21014,1.37649 6.81926,4.24708 8.13583,5.06705c0.68653,0.42758 0.54693,1.38252 -0.22986,1.8118c-1.29508,0.7157 -5.36754,2.96627 -7.60196,4.20108c-0.90148,0.49818 -1.50377,-0.08913 -1.50377,-1.41129z" fill="#000000" stroke="none" stroke-width="0"/><text transform="translate(206.90137,292.38104) scale(0.37099,0.37099)" font-size="40" xml:space="preserve" fill="#000000" fill-rule="nonzero" stroke="none" stroke-width="1" stroke-linecap="butt" stroke-linejoin="miter" stroke-miterlimit="10" stroke-dasharray="" stroke-dashoffset="0" font-family="Sans Serif" font-weight="normal" text-anchor="start" style="mix-blend-mode: normal"><tspan x="0" dy="0">Play</tspan></text><path d="M319.88888,188.7697c2.64887,-2.74972 7.8302,-8.22312 9.25576,-9.70294c0.68031,-0.70621 1.61268,-0.4066 1.833,0.58199c0.4488,2.01372 2.10398,9.44037 2.94975,13.23523c0.30496,1.3683 -0.65123,1.92821 -1.70621,1.62134c-1.97176,-0.57354 -8.51414,-2.47658 -11.8728,-3.45353c-1.16671,-0.33937 -1.36622,-1.34083 -0.45949,-2.28208z" fill="url(#color-7)" stroke="url(#color-8)" stroke-width="3"/><path d="M189.39677,163.4114v-14.63904l110.81086,-31.66024l5.12151,12.31108z" fill="#313131" stroke="url(#color-9)" stroke-width="0"/><path d="M252.8182,72.03847c0,-3.16035 2.56197,-5.72232 5.72232,-5.72232c3.16035,0 5.72232,2.56197 5.72232,5.72232c0,3.16035 -2.56197,5.72232 -5.72232,5.72232c-3.16035,0 -5.72232,-2.56197 -5.72232,-5.72232z" fill="#595959" stroke="none" stroke-width="0"/><path d="M234.6213,180.89847l5.12151,-12.31108l110.81086,31.66024v14.63904z" data-paper-data="{&quot;index&quot;:null}" fill="#313131" stroke="url(#color-10)" stroke-width="0"/><path d="M303.85627,183.59263c2.64887,-2.74972 7.8302,-8.22312 9.25576,-9.70294c0.68031,-0.70621 1.61268,-0.4066 1.833,0.58199c0.4488,2.01372 2.10398,9.44037 2.94975,13.23523c0.30496,1.3683 -0.65123,1.92821 -1.70621,1.62134c-1.97176,-0.57354 -8.51414,-2.47658 -11.8728,-3.45353c-1.16671,-0.33937 -1.36622,-1.34083 -0.45949,-2.28208z" fill="url(#color-11)" stroke="url(#color-12)" stroke-width="3"/><path d="M287.48443,179.09404c2.64887,-2.74972 7.8302,-8.22312 9.25576,-9.70294c0.68031,-0.70621 1.61268,-0.4066 1.833,0.58199c0.4488,2.01372 2.10398,9.44037 2.94975,13.23523c0.30496,1.3683 -0.65123,1.92821 -1.70621,1.62134c-1.97176,-0.57354 -8.51414,-2.47658 -11.8728,-3.45353c-1.16671,-0.33937 -1.36622,-1.34083 -0.45949,-2.28208z" fill="url(#color-13)" stroke="url(#color-14)" stroke-width="3"/><path d="M265.30487,124.56565c0.90673,0.94125 0.70722,1.94271 -0.45949,2.28208c-3.35866,0.97695 -9.90104,2.87999 -11.8728,3.45353c-1.05498,0.30687 -2.01117,-0.25304 -1.70621,-1.62134c0.84577,-3.79486 2.50095,-11.22151 2.94975,-13.23523c0.22032,-0.98859 1.15269,-1.2882 1.833,-0.58199c1.42556,1.47982 6.60689,6.95322 9.25576,9.70294z" data-paper-data="{&quot;index&quot;:null}" fill="url(#color-15)" stroke="url(#color-16)" stroke-width="3"/><path d="M281.33747,119.38858c0.90673,0.94125 0.70722,1.94271 -0.45949,2.28208c-3.35866,0.97695 -9.90104,2.87999 -11.8728,3.45353c-1.05498,0.30687 -2.01117,-0.25304 -1.70621,-1.62134c0.84577,-3.79486 2.50095,-11.22151 2.94975,-13.23523c0.22032,-0.98859 1.15269,-1.2882 1.833,-0.58199c1.42556,1.47982 6.60689,6.95322 9.25576,9.70294z" data-paper-data="{&quot;index&quot;:null}" fill="url(#color-17)" stroke="url(#color-18)" stroke-width="3"/><path d="M297.70931,114.88999c0.90673,0.94125 0.70722,1.94271 -0.45949,2.28208c-3.35866,0.97695 -9.90104,2.87999 -11.8728,3.45353c-1.05498,0.30687 -2.01117,-0.25304 -1.70621,-1.62134c0.84577,-3.79486 2.50095,-11.22151 2.94975,-13.23523c0.22032,-0.98859 1.15269,-1.2882 1.833,-0.58199c1.42556,1.47982 6.60689,6.95322 9.25576,9.70294z" data-paper-data="{&quot;index&quot;:null}" fill="url(#color-19)" stroke="url(#color-20)" stroke-width="3"/><path d="M332.11079,128.15177c0,-3.16035 2.56197,-5.72232 5.72232,-5.72232c3.16035,0 5.72232,2.56197 5.72232,5.72232c0,3.16035 -2.56197,5.72232 -5.72232,5.72232c-3.16035,0 -5.72232,-2.56197 -5.72232,-5.72232z" fill="#595959" stroke="none" stroke-width="0"/><path d="M269.60291,162.86507c0,-3.16035 2.56197,-5.72232 5.72232,-5.72232c3.16035,0 5.72232,2.56197 5.72232,5.72232c0,3.16035 -2.56197,5.72232 -5.72232,5.72232c-3.16035,0 -5.72232,-2.56197 -5.72232,-5.72232z" fill="#595959" stroke="none" stroke-width="0"/></g></g></svg>