<svg version="1.1" xmlns="http://www.w3.org/2000/svg" xmlns:xlink="http://www.w3.org/1999/xlink" width="34.95586" height="32.12918" viewBox="0,0,34.95586,32.12918"><defs><linearGradient x1="169.56709" y1="323.10407" x2="169.56709" y2="363.21519" gradientUnits="userSpaceOnUse" id="color-1"><stop offset="0" stop-color="#e6e6e6"/><stop offset="1" stop-color="#cccccc"/></linearGradient></defs><g transform="translate(-215.29985,-323.10408)"><g data-paper-data="{&quot;isPaintingLayer&quot;:true}" fill-rule="nonzero" stroke-linejoin="miter" stroke-miterlimit="10" stroke-dasharray="" stroke-dashoffset="0" style="mix-blend-mode: normal"><path d="M215.29985,343.01654c0,-5.95362 0,-4.59518 0,-8.13253c0,-4.77455 6.10037,-11.77993 12.61256,-11.77993c18.02073,0 -22.83875,0 9.72318,0c7.85036,0 12.62012,5.89968 12.62012,12.53294c0,5.81881 0,4.22018 0,7.68072c0,4.81412 -4.64793,11.91552 -12.31891,11.91552c-0.34533,0 -0.69679,0 -1.05422,0c-33.10806,0 8.91335,0 -8.97016,0c-6.5122,0 -12.61256,-5.70807 -12.61256,-12.21673z" fill="url(#color-1)" stroke="none" stroke-width="0" stroke-linecap="butt"/><g data-paper-data="{&quot;index&quot;:null}" fill="none" stroke="#000000" stroke-width="2.5" stroke-linecap="round"><path d="M238.71506,333.00187l5.03835,12.3336" data-paper-data="{&quot;index&quot;:null}"/><path d="M231.61677,332.96881h7.03236"/><path d="M234.2676,339.30012h7.03236"/><path d="M234.24549,339.31086l-2.73805,-6.08992" data-paper-data="{&quot;index&quot;:null}"/><path d="M243.60026,345.34663h-7.03236"/></g><g data-paper-data="{&quot;index&quot;:null}" fill="none" stroke="#000000" stroke-width="2.5" stroke-linecap="round"><path d="M221.80215,332.88117h7.03236"/><path d="M226.90642,345.37928l-5.03835,-12.3336"/><path d="M233.9828,345.45617h-7.03236"/></g></g></g></svg>