<svg version="1.1" xmlns="http://www.w3.org/2000/svg" xmlns:xlink="http://www.w3.org/1999/xlink" width="663.8312" height="662.28716" viewBox="0,0,663.8312,662.28716"><g transform="translate(17.4026,187.96537)"><g data-paper-data="{&quot;isPaintingLayer&quot;:true}" fill-rule="nonzero" stroke-linejoin="miter" stroke-miterlimit="10" stroke-dasharray="" stroke-dashoffset="0" style="mix-blend-mode: normal"><path d="M0.73597,469.32179h-7.93651v-657.28716h7.93651z" fill="#313131" stroke="none" stroke-width="0" stroke-linecap="butt"/><path d="M645.70706,-6.91919v7.93651h-657.28716v-7.93651z" fill="#313131" stroke="none" stroke-width="0" stroke-linecap="butt"/><path d="M646.4286,474.32179h-7.93651v-657.28716h7.93651z" fill="#313131" stroke="none" stroke-width="0" stroke-linecap="butt"/><path d="M639.88456,360.27417v7.93651h-657.28716v-7.93651z" fill="#313131" stroke="none" stroke-width="0" stroke-linecap="butt"/><path d="M477.531,74c0,-28.71881 23.28119,-52 52,-52c28.71881,0 52,23.28119 52,52c0,28.71881 -23.28119,52 -52,52c-28.71881,0 -52,-23.28119 -52,-52z" fill="#313131" stroke="none" stroke-width="0" stroke-linecap="butt"/><path d="M71.531,336.0311c0,-21.11586 17.11779,-38.23363 38.23363,-38.23363c21.11585,0 38.23363,17.11778 38.23363,38.23363c0,21.11586 -17.11779,38.23363 -38.23363,38.23363c-21.11585,0 -38.23363,-17.11778 -38.23363,-38.23363z" fill="#313131" stroke="none" stroke-width="0" stroke-linecap="butt"/><path d="M209.94411,336.21492c0,-21.11586 17.11779,-38.23363 38.23363,-38.23363c21.11585,0 38.23363,17.11778 38.23363,38.23363c0,21.11586 -17.11779,38.23363 -38.23363,38.23363c-21.11585,0 -38.23363,-17.11778 -38.23363,-38.23363z" fill="#313131" stroke="none" stroke-width="0" stroke-linecap="butt"/><path d="M364.90062,336.58255c0,-21.11586 17.11779,-38.23363 38.23363,-38.23363c21.11585,0 38.23363,17.11778 38.23363,38.23363c0,21.11586 -17.11779,38.23363 -38.23363,38.23363c-21.11585,0 -38.23363,-17.11778 -38.23363,-38.23363z" fill="#313131" stroke="none" stroke-width="0" stroke-linecap="butt"/><path d="M503.31373,336.76637c0,-21.11586 17.11779,-38.23363 38.23363,-38.23363c21.11585,0 38.23363,17.11778 38.23363,38.23363c0,21.11586 -17.11779,38.23363 -38.23363,38.23363c-21.11585,0 -38.23363,-17.11778 -38.23363,-38.23363z" fill="#313131" stroke="none" stroke-width="0" stroke-linecap="butt"/><path d="M143.35018,203.73942c0,-14.96702 12.13317,-27.10018 27.10018,-27.10018c14.96701,0 27.10018,12.13316 27.10018,27.10018c0,14.96702 -12.13317,27.10018 -27.10018,27.10018c-14.96701,0 -27.10018,-12.13316 -27.10018,-27.10018z" fill="#313131" stroke="none" stroke-width="0" stroke-linecap="butt"/><path d="M241.45805,203.86971c0,-14.96702 12.13317,-27.10018 27.10018,-27.10018c14.96701,0 27.10018,12.13316 27.10018,27.10018c0,14.96702 -12.13317,27.10018 -27.10018,27.10018c-14.96701,0 -27.10018,-12.13316 -27.10018,-27.10018z" fill="#313131" stroke="none" stroke-width="0" stroke-linecap="butt"/><path d="M351.29195,204.13029c0,-14.96702 12.13317,-27.10018 27.10018,-27.10018c14.96701,0 27.10018,12.13316 27.10018,27.10018c0,14.96702 -12.13317,27.10018 -27.10018,27.10018c-14.96701,0 -27.10018,-12.13316 -27.10018,-27.10018z" fill="#313131" stroke="none" stroke-width="0" stroke-linecap="butt"/><path d="M449.39982,204.26058c0,-14.96702 12.13317,-27.10018 27.10018,-27.10018c14.96701,0 27.10018,12.13316 27.10018,27.10018c0,14.96702 -12.13317,27.10018 -27.10018,27.10018c-14.96701,0 -27.10018,-12.13316 -27.10018,-27.10018z" fill="#313131" stroke="none" stroke-width="0" stroke-linecap="butt"/><path d="M558.39982,204.26058c0,-14.96702 12.13316,-27.10019 27.10018,-27.10019c14.96702,0 27.10018,12.13317 27.10018,27.10019c0,14.96702 -12.13316,27.10018 -27.10018,27.10018c-14.96702,0 -27.10018,-12.13316 -27.10018,-27.10018z" fill="#313131" stroke="none" stroke-width="0" stroke-linecap="butt"/><path d="M27.39982,205.26058c0,-14.96702 12.13317,-27.10019 27.10018,-27.10019c14.96701,0 27.10018,12.13317 27.10018,27.10019c0,14.96702 -12.13317,27.10018 -27.10018,27.10018c-14.96701,0 -27.10018,-12.13316 -27.10018,-27.10018z" fill="#313131" stroke="none" stroke-width="0" stroke-linecap="butt"/><path d="M271.61318,228.71108h108.75" fill="none" stroke="#313131" stroke-width="5" stroke-linecap="round"/><path d="M267.531,77c0,-28.71881 23.28119,-52 52,-52c28.71881,0 52,23.28119 52,52c0,28.71881 -23.28119,52 -52,52c-28.71881,0 -52,-23.28119 -52,-52z" fill="#313131" stroke="none" stroke-width="0" stroke-linecap="butt"/><path d="M56.531,78c0,-28.71881 23.28119,-52 52,-52c28.71881,0 52,23.28119 52,52c0,28.71881 -23.28119,52 -52,52c-28.71881,0 -52,-23.28119 -52,-52z" fill="#313131" stroke="none" stroke-width="0" stroke-linecap="butt"/><path d="M197.06889,204.48511c0,-12.22677 9.91176,-22.13853 22.13853,-22.13853c12.22677,0 22.13853,9.91176 22.13853,22.13853c0,12.22677 -9.91176,22.13853 -22.13853,22.13853c-12.22677,0 -22.13853,-9.91175 -22.13853,-22.13853z" fill="#313131" stroke="none" stroke-width="0" stroke-linecap="butt"/><path d="M353.93951,204.69798c0,-12.22677 9.91176,-22.13853 22.13853,-22.13853c12.22677,0 22.13853,9.91175 22.13853,22.13853c0,12.22677 -9.91176,22.13853 -22.13853,22.13853c-12.22677,0 -22.13853,-9.91175 -22.13853,-22.13853z" fill="#313131" stroke="none" stroke-width="0" stroke-linecap="butt"/><path d="M405.08524,204.80441c0,-12.22677 9.91176,-22.13853 22.13853,-22.13853c12.22677,0 22.13853,9.91175 22.13853,22.13853c0,12.22677 -9.91176,22.13853 -22.13853,22.13853c-12.22677,0 -22.13853,-9.91176 -22.13853,-22.13853z" fill="#313131" stroke="none" stroke-width="0" stroke-linecap="butt"/><path d="M434.26637,302.58255c0,-21.11586 17.11779,-38.23363 38.23363,-38.23363c21.11585,0 38.23363,17.11778 38.23363,38.23363c0,21.11586 -17.11779,38.23363 -38.23363,38.23363c-21.11585,0 -38.23363,-17.11778 -38.23363,-38.23363z" fill="#313131" stroke="none" stroke-width="0" stroke-linecap="butt"/><path d="M140.26637,302.58255c0,-21.11586 17.11779,-38.23363 38.23363,-38.23363c21.11585,0 38.23363,17.11778 38.23363,38.23363c0,21.11586 -17.11779,38.23363 -38.23363,38.23363c-21.11585,0 -38.23363,-17.11778 -38.23363,-38.23363z" fill="#313131" stroke="none" stroke-width="0" stroke-linecap="butt"/></g></g></svg>