<svg version="1.1" xmlns="http://www.w3.org/2000/svg" xmlns:xlink="http://www.w3.org/1999/xlink" width="375.00002" height="129.21195" viewBox="0,0,375.00002,129.21195"><defs><linearGradient x1="368.00005" y1="107.24564" x2="368.00005" y2="392.53128" gradientUnits="userSpaceOnUse" id="color-1"><stop offset="0" stop-color="#d9d9d9" stop-opacity="0.90196"/><stop offset="1" stop-color="#bfbfbf" stop-opacity="0.90196"/></linearGradient><linearGradient x1="229.09745" y1="300.42026" x2="229.09745" y2="340.53139" gradientUnits="userSpaceOnUse" id="color-2"><stop offset="0" stop-color="#e6e6e6"/><stop offset="1" stop-color="#cccccc"/></linearGradient><linearGradient x1="320.25006" y1="334.91718" x2="320.25006" y2="356.95176" gradientUnits="userSpaceOnUse" id="color-3"><stop offset="0" stop-color="#00c1ff"/><stop offset="1" stop-color="#0099ff"/></linearGradient><linearGradient x1="320.25006" y1="334.91718" x2="320.25006" y2="356.95176" gradientUnits="userSpaceOnUse" id="color-4"><stop offset="0" stop-color="#00c1ff"/><stop offset="1" stop-color="#0099ff"/></linearGradient><linearGradient x1="352.05508" y1="334.87789" x2="352.05508" y2="356.99105" gradientUnits="userSpaceOnUse" id="color-5"><stop offset="0" stop-color="#00bfff"/><stop offset="1" stop-color="#0098ff"/></linearGradient><linearGradient x1="287.94491" y1="334.8779" x2="287.94491" y2="356.99105" gradientUnits="userSpaceOnUse" id="color-6"><stop offset="0" stop-color="#00bfff"/><stop offset="1" stop-color="#0098ff"/></linearGradient><linearGradient x1="198.03634" y1="292.37159" x2="198.03634" y2="315.14655" gradientUnits="userSpaceOnUse" id="color-7"><stop offset="0" stop-color="#606060"/><stop offset="1" stop-color="#404040"/></linearGradient><linearGradient x1="198.03634" y1="292.37159" x2="198.03634" y2="315.14655" gradientUnits="userSpaceOnUse" id="color-8"><stop offset="0" stop-color="#ff3874"/><stop offset="1" stop-color="#ff8585"/></linearGradient><linearGradient x1="197.71854" y1="284.47978" x2="197.71854" y2="307.25477" gradientUnits="userSpaceOnUse" id="color-9"><stop offset="0" stop-color="#808080"/><stop offset="1" stop-color="#5f5f5f"/></linearGradient><linearGradient x1="197.71854" y1="284.47978" x2="197.71854" y2="307.25477" gradientUnits="userSpaceOnUse" id="color-10"><stop offset="0" stop-color="#ff3874"/><stop offset="1" stop-color="#ff8585"/></linearGradient><linearGradient x1="197.71854" y1="309.37337" x2="197.71854" y2="332.14833" gradientUnits="userSpaceOnUse" id="color-11"><stop offset="0" stop-color="#606060"/><stop offset="1" stop-color="#404040"/></linearGradient><linearGradient x1="197.71854" y1="309.37337" x2="197.71854" y2="332.14833" gradientUnits="userSpaceOnUse" id="color-12"><stop offset="0" stop-color="#ff3874"/><stop offset="1" stop-color="#ff8585"/></linearGradient><linearGradient x1="175.6851" y1="290.20002" x2="175.6851" y2="301.0049" gradientUnits="userSpaceOnUse" id="color-13"><stop offset="0" stop-color="#000000"/><stop offset="1" stop-color="#5f5f5f"/></linearGradient><linearGradient x1="175.6851" y1="290.20002" x2="175.6851" y2="301.0049" gradientUnits="userSpaceOnUse" id="color-14"><stop offset="0" stop-color="#ff3874"/><stop offset="1" stop-color="#ff8585"/></linearGradient><linearGradient x1="219.96386" y1="290.20002" x2="219.96386" y2="301.0049" gradientUnits="userSpaceOnUse" id="color-15"><stop offset="0" stop-color="#000000"/><stop offset="1" stop-color="#5f5f5f"/></linearGradient><linearGradient x1="219.96386" y1="290.20002" x2="219.96386" y2="301.0049" gradientUnits="userSpaceOnUse" id="color-16"><stop offset="0" stop-color="#ff3874"/><stop offset="1" stop-color="#ff8585"/></linearGradient><linearGradient x1="198.03634" y1="292.37159" x2="198.03634" y2="315.14655" gradientUnits="userSpaceOnUse" id="color-17"><stop offset="0" stop-color="#606060"/><stop offset="1" stop-color="#404040"/></linearGradient><linearGradient x1="198.03634" y1="292.37159" x2="198.03634" y2="315.14655" gradientUnits="userSpaceOnUse" id="color-18"><stop offset="0" stop-color="#ff3874"/><stop offset="1" stop-color="#ff8585"/></linearGradient><linearGradient x1="197.71854" y1="284.47978" x2="197.71854" y2="307.25477" gradientUnits="userSpaceOnUse" id="color-19"><stop offset="0" stop-color="#808080"/><stop offset="1" stop-color="#5f5f5f"/></linearGradient><linearGradient x1="197.71854" y1="284.47978" x2="197.71854" y2="307.25477" gradientUnits="userSpaceOnUse" id="color-20"><stop offset="0" stop-color="#ff3874"/><stop offset="1" stop-color="#ff8585"/></linearGradient><linearGradient x1="197.71854" y1="309.37337" x2="197.71854" y2="332.14833" gradientUnits="userSpaceOnUse" id="color-21"><stop offset="0" stop-color="#606060"/><stop offset="1" stop-color="#404040"/></linearGradient><linearGradient x1="197.71854" y1="309.37337" x2="197.71854" y2="332.14833" gradientUnits="userSpaceOnUse" id="color-22"><stop offset="0" stop-color="#ff3874"/><stop offset="1" stop-color="#ff8585"/></linearGradient><linearGradient x1="175.6851" y1="290.20002" x2="175.6851" y2="301.0049" gradientUnits="userSpaceOnUse" id="color-23"><stop offset="0" stop-color="#000000"/><stop offset="1" stop-color="#5f5f5f"/></linearGradient><linearGradient x1="175.6851" y1="290.20002" x2="175.6851" y2="301.0049" gradientUnits="userSpaceOnUse" id="color-24"><stop offset="0" stop-color="#ff3874"/><stop offset="1" stop-color="#ff8585"/></linearGradient><linearGradient x1="219.96386" y1="290.20002" x2="219.96386" y2="301.0049" gradientUnits="userSpaceOnUse" id="color-25"><stop offset="0" stop-color="#000000"/><stop offset="1" stop-color="#5f5f5f"/></linearGradient><linearGradient x1="219.96386" y1="290.20002" x2="219.96386" y2="301.0049" gradientUnits="userSpaceOnUse" id="color-26"><stop offset="0" stop-color="#ff3874"/><stop offset="1" stop-color="#ff8585"/></linearGradient><linearGradient x1="172.48887" y1="291.24697" x2="178.88137" y2="299.95796" gradientUnits="userSpaceOnUse" id="color-27"><stop offset="0" stop-color="#ff0000" stop-opacity="0"/><stop offset="1" stop-color="#ff0000" stop-opacity="0.50196"/></linearGradient><linearGradient x1="172.48887" y1="291.24697" x2="178.88137" y2="299.95796" gradientUnits="userSpaceOnUse" id="color-28"><stop offset="0" stop-color="#ff3874"/><stop offset="1" stop-color="#ff8585"/></linearGradient><linearGradient x1="176.50481" y1="290.26257" x2="174.86539" y2="300.94235" gradientUnits="userSpaceOnUse" id="color-29"><stop offset="0" stop-color="#ff0000" stop-opacity="0"/><stop offset="1" stop-color="#ff0000" stop-opacity="0.50196"/></linearGradient><linearGradient x1="176.50481" y1="290.26257" x2="174.86539" y2="300.94235" gradientUnits="userSpaceOnUse" id="color-30"><stop offset="0" stop-color="#ff3874"/><stop offset="1" stop-color="#ff8585"/></linearGradient><linearGradient x1="220.78356" y1="290.26257" x2="219.14414" y2="300.94235" gradientUnits="userSpaceOnUse" id="color-31"><stop offset="0" stop-color="#ff0000" stop-opacity="0"/><stop offset="1" stop-color="#ff0000" stop-opacity="0.50196"/></linearGradient><linearGradient x1="220.78356" y1="290.26257" x2="219.14414" y2="300.94235" gradientUnits="userSpaceOnUse" id="color-32"><stop offset="0" stop-color="#ff3874"/><stop offset="1" stop-color="#ff8585"/></linearGradient><linearGradient x1="216.76762" y1="291.24697" x2="223.16012" y2="299.95797" gradientUnits="userSpaceOnUse" id="color-33"><stop offset="0" stop-color="#ff0000" stop-opacity="0"/><stop offset="1" stop-color="#ff0000" stop-opacity="0.50196"/></linearGradient><linearGradient x1="216.76762" y1="291.24697" x2="223.16012" y2="299.95797" gradientUnits="userSpaceOnUse" id="color-34"><stop offset="0" stop-color="#ff3874"/><stop offset="1" stop-color="#ff8585"/></linearGradient><radialGradient cx="175.81094" cy="295.76909" r="8.89565" gradientUnits="userSpaceOnUse" id="color-35"><stop offset="0" stop-color="#ff0000"/><stop offset="1" stop-color="#ff0000" stop-opacity="0"/></radialGradient><radialGradient cx="220.24354" cy="295.76909" r="8.89565" gradientUnits="userSpaceOnUse" id="color-36"><stop offset="0" stop-color="#ff0000"/><stop offset="1" stop-color="#ff0000" stop-opacity="0"/></radialGradient><linearGradient x1="218.74566" y1="316.75854" x2="218.74566" y2="339.5335" gradientUnits="userSpaceOnUse" id="color-37"><stop offset="0" stop-color="#484848"/><stop offset="1" stop-color="#262626"/></linearGradient><linearGradient x1="218.74566" y1="316.75854" x2="218.74566" y2="339.5335" gradientUnits="userSpaceOnUse" id="color-38"><stop offset="0" stop-color="#ff3874"/><stop offset="1" stop-color="#ff8585"/></linearGradient><linearGradient x1="176.69142" y1="316.33483" x2="176.69142" y2="339.1098" gradientUnits="userSpaceOnUse" id="color-39"><stop offset="0" stop-color="#494949"/><stop offset="1" stop-color="#262626"/></linearGradient><linearGradient x1="176.69142" y1="316.33483" x2="176.69142" y2="339.1098" gradientUnits="userSpaceOnUse" id="color-40"><stop offset="0" stop-color="#ff3874"/><stop offset="1" stop-color="#ff8585"/></linearGradient></defs><g transform="translate(-132.5,-227.7791)"><g data-paper-data="{&quot;isPaintingLayer&quot;:true}" fill-rule="nonzero" stroke-linejoin="miter" stroke-miterlimit="10" stroke-dasharray="" stroke-dashoffset="0" style="mix-blend-mode: normal"><path d="M132.5,334.81699c0,-18.7 0,-84.72755 0,-94.92577c0,-2.58344 4.54887,-12.12948 12.10429,-12.1121c69.2649,0.15932 326.55823,0.96925 350.25287,0.96925c4.20177,0 12.64286,1.39235 12.64286,11.2381c0,10.15682 0,75.74072 0,94.4972c0,7.24057 -6.24341,12.04762 -12.47619,12.04762c-14.66633,0 -326.32809,0 -351.5,0c-6.8111,0 -11.02381,-4.65942 -11.02381,-11.71429z" fill="url(#color-1)" stroke="none" stroke-width="0" stroke-linecap="butt"/><path d="M148.40882,320.33274c0,-5.95362 0,-63.25453 0,-66.79188c0,-4.77455 6.10037,-11.77993 12.61256,-11.77993c18.02073,0 40.82483,0 73.38676,0c7.85036,0 12.62012,5.89968 12.62012,12.53294c0,5.81881 0,62.87953 0,66.34007c0,4.81412 -4.64793,11.91552 -12.31891,11.91552c-0.34533,0 -0.69679,0 -1.05422,0c-33.10806,0 -54.75023,0 -72.63374,0c-6.5122,0 -12.61256,-5.70807 -12.61256,-12.21673z" fill="url(#color-2)" stroke="none" stroke-width="0" stroke-linecap="butt"/><text transform="translate(264.96054,255.60122) scale(0.39701,0.39701)" font-size="40" xml:space="preserve" fill="#000000" fill-rule="nonzero" stroke="#000000" stroke-width="0" stroke-linecap="butt" stroke-linejoin="miter" stroke-miterlimit="10" stroke-dasharray="" stroke-dashoffset="0" font-family="Sans Serif" font-weight="normal" text-anchor="start" style="mix-blend-mode: normal"><tspan x="0" dy="0">Shopkeeper</tspan></text><g><path d="M287.94492,356.95176v-22.03458h64.61029v22.03458z" fill="url(#color-3)" stroke="url(#color-4)" stroke-width="0" stroke-linecap="butt"/><g><path d="M340.9985,345.93447c0,-6.10638 4.9502,-11.05658 11.05658,-11.05658c6.10638,0 11.05658,4.9502 11.05658,11.05658c0,6.10638 -4.9502,11.05658 -11.05658,11.05658c-6.10638,0 -11.05658,-4.9502 -11.05658,-11.05658z" fill="url(#color-5)" stroke="none" stroke-width="5" stroke-linecap="butt"/><g fill="none" stroke="#ffffff" stroke-width="3.5" stroke-linecap="round"><path d="M352.04212,347.75593l-3.64292,-3.64292"/><path d="M355.71093,344.11301l-3.64292,3.64292" data-paper-data="{&quot;index&quot;:null}"/></g></g><path d="M276.88834,345.93447c0,-6.10638 4.95019,-11.05658 11.05657,-11.05658c6.10638,0 11.05658,4.9502 11.05658,11.05658c0,6.10638 -4.9502,11.05658 -11.05658,11.05658c-6.10638,0 -11.05657,-4.9502 -11.05657,-11.05658z" fill="url(#color-6)" stroke="none" stroke-width="5" stroke-linecap="butt"/><text transform="translate(295.40401,349.32174) scale(0.29359,0.29359)" font-size="40" xml:space="preserve" fill="#ffffff" fill-rule="nonzero" stroke="#ffffff" stroke-width="3" stroke-linecap="butt" stroke-linejoin="miter" stroke-miterlimit="10" stroke-dasharray="" stroke-dashoffset="0" font-family="&quot;Segoe UI Variable Text&quot;, Sans Serif" font-weight="normal" text-anchor="start" style="mix-blend-mode: normal"><tspan x="0" dy="0">[SPACE]</tspan></text></g><g stroke-width="0" stroke-linecap="butt"><g><g><path d="M190.72716,315.14655v-22.77496h14.61835v22.77496z" fill="url(#color-7)" stroke="url(#color-8)"/><path d="M164.13871,307.25477v-22.77496h67.15963v22.77496z" fill="url(#color-9)" stroke="url(#color-10)"/><path d="M164.13871,332.14833v-22.77496h67.15963v22.77496z" fill="url(#color-11)" stroke="url(#color-12)"/><path d="M170.28268,295.60244c0,-2.98366 2.41874,-5.40243 5.40243,-5.40243c2.98369,0 5.40243,2.41874 5.40243,5.40243c0,2.98366 -2.41874,5.40243 -5.40243,5.40243c-2.98369,0 -5.40243,-2.41876 -5.40243,-5.40243z" fill="url(#color-13)" stroke="url(#color-14)"/><path d="M214.56143,295.60244c0,-2.98366 2.41874,-5.40243 5.40243,-5.40243c2.98369,0 5.40243,2.41874 5.40243,5.40243c0,2.98366 -2.41874,5.40243 -5.40243,5.40243c-2.98369,0 -5.40243,-2.41876 -5.40243,-5.40243z" fill="url(#color-15)" stroke="url(#color-16)"/></g><path d="M190.72716,315.14655v-22.77496h14.61835v22.77496z" fill="url(#color-17)" stroke="url(#color-18)"/><path d="M164.13871,307.25477v-22.77496h67.15963v22.77496z" fill="url(#color-19)" stroke="url(#color-20)"/><path d="M164.13871,332.14833v-22.77496h67.15963v22.77496z" fill="url(#color-21)" stroke="url(#color-22)"/><path d="M170.28268,295.60244c0,-2.98366 2.41874,-5.40243 5.40243,-5.40243c2.98369,0 5.40243,2.41874 5.40243,5.40243c0,2.98366 -2.41874,5.40243 -5.40243,5.40243c-2.98369,0 -5.40243,-2.41876 -5.40243,-5.40243z" fill="url(#color-23)" stroke="url(#color-24)"/><path d="M214.56143,295.60244c0,-2.98366 2.41874,-5.40243 5.40243,-5.40243c2.98369,0 5.40243,2.41874 5.40243,5.40243c0,2.98366 -2.41874,5.40243 -5.40243,5.40243c-2.98369,0 -5.40243,-2.41876 -5.40243,-5.40243z" fill="url(#color-25)" stroke="url(#color-26)"/><path d="M171.32962,298.79868c-1.76522,-2.40546 -1.24624,-5.78649 1.15924,-7.55173c2.40548,-1.76524 5.78649,-1.24624 7.55174,1.15924c1.76522,2.40546 1.24624,5.78649 -1.15924,7.55173c-2.40548,1.76524 -5.78651,1.24622 -7.55174,-1.15924z" fill="url(#color-27)" stroke="url(#color-28)"/><path d="M170.34523,294.78273c0.45271,-2.94912 3.21044,-4.97289 6.15959,-4.52017c2.94915,0.45272 4.97289,3.21044 4.52017,6.15959c-0.45271,2.94912 -3.21044,4.97289 -6.15959,4.52017c-2.94915,-0.45272 -4.97288,-3.21046 -4.52017,-6.15959z" fill="url(#color-29)" stroke="url(#color-30)"/><path d="M214.62398,294.78273c0.45271,-2.94912 3.21044,-4.97289 6.15959,-4.52017c2.94915,0.45272 4.97289,3.21044 4.52017,6.15959c-0.45271,2.94912 -3.21044,4.97289 -6.15959,4.52017c-2.94915,-0.45272 -4.97288,-3.21046 -4.52017,-6.15959z" fill="url(#color-31)" stroke="url(#color-32)"/><path d="M215.60837,298.79869c-1.76522,-2.40546 -1.24624,-5.78649 1.15924,-7.55174c2.40548,-1.76524 5.78649,-1.24624 7.55173,1.15924c1.76522,2.40546 1.24624,5.78649 -1.15924,7.55174c-2.40548,1.76524 -5.7865,1.24622 -7.55173,-1.15924z" fill="url(#color-33)" stroke="url(#color-34)"/></g><path d="M166.91529,295.76909c0,-4.91293 3.98272,-8.89565 8.89565,-8.89565c4.91293,0 8.89565,3.98272 8.89565,8.89565c0,4.91293 -3.98272,8.89565 -8.89565,8.89565c-4.91293,0 -8.89565,-3.98272 -8.89565,-8.89565z" fill="url(#color-35)" stroke="none"/><path d="M211.3479,295.76909c0,-4.91293 3.98272,-8.89565 8.89565,-8.89565c4.91293,0 8.89565,3.98271 8.89565,8.89565c0,4.91293 -3.98272,8.89565 -8.89565,8.89565c-4.91293,0 -8.89565,-3.98271 -8.89565,-8.89565z" fill="url(#color-36)" stroke="none"/></g><g stroke-width="0" stroke-linecap="butt"><path d="M211.43647,339.5335v-22.77496h14.61835v22.77496z" data-paper-data="{&quot;index&quot;:null}" fill="url(#color-37)" stroke="url(#color-38)"/><path d="M169.38226,339.1098v-22.77496h14.61835v22.77496z" data-paper-data="{&quot;index&quot;:null}" fill="url(#color-39)" stroke="url(#color-40)"/></g></g></g></svg>