<svg version="1.1" xmlns="http://www.w3.org/2000/svg" xmlns:xlink="http://www.w3.org/1999/xlink" width="89.03635" height="25.19311" viewBox="0,0,89.03635,25.19311"><defs><linearGradient x1="307.96308" y1="374.25599" x2="308.10213" y2="395.68269" gradientUnits="userSpaceOnUse" id="color-1"><stop offset="0" stop-color="#bf0000"/><stop offset="1" stop-color="#400000"/></linearGradient><linearGradient x1="256.33333" y1="374.28643" x2="256.33333" y2="395.71357" gradientUnits="userSpaceOnUse" id="color-2"><stop offset="0" stop-color="#bf0000"/><stop offset="1" stop-color="#400000"/></linearGradient><linearGradient x1="273.84362" y1="383.11977" x2="273.84362" y2="396.21357" gradientUnits="userSpaceOnUse" id="color-3"><stop offset="0" stop-color="#bf0000"/><stop offset="1" stop-color="#400000"/></linearGradient><linearGradient x1="238.84362" y1="383.11977" x2="238.84362" y2="396.21357" gradientUnits="userSpaceOnUse" id="color-4"><stop offset="0" stop-color="#bf0000"/><stop offset="1" stop-color="#400000"/></linearGradient></defs><g transform="translate(-231.28843,-373.6991)"><g data-paper-data="{&quot;isPaintingLayer&quot;:true}" fill-rule="nonzero" stroke="#000000" stroke-linecap="butt" stroke-linejoin="miter" stroke-miterlimit="10" stroke-dasharray="" stroke-dashoffset="0" style="mix-blend-mode: normal"><path d="M297.3556,392.72481c2.5734,-4.97745 7.56738,-14.84696 8.95231,-17.52571c0.66092,-1.27836 2.09785,-1.24764 2.82198,0.05047c1.47506,2.64424 6.91513,12.39623 9.69489,17.37929c1.0023,1.79673 -0.10795,2.98493 -1.72038,2.99539c-3.01362,0.01956 -13.01292,0.08445 -18.14625,0.11777c-1.78319,0.01157 -2.48345,-1.31339 -1.60255,-3.01722z" fill="url(#color-1)" stroke-width="3"/><g><path d="M245.60622,392.68602c2.60565,-4.96064 7.66357,-14.79755 9.06587,-17.46724c0.6692,-1.27404 2.10589,-1.23399 2.8216,0.06879c1.45788,2.65376 6.83454,12.44084 9.58191,17.44185c0.99061,1.80319 -0.12733,2.98416 -1.73979,2.98416c-3.01367,0 -13.0132,0 -18.14663,0c-1.78323,0 -2.47488,-1.32948 -1.58294,-3.02755z" fill="url(#color-2)" stroke-width="3"/><path d="M267.28843,394.36348c1.59227,-3.03137 4.68309,-9.04256 5.54001,-10.67397c0.40894,-0.77855 1.28688,-0.75408 1.72424,0.04203c0.89089,1.62167 4.17649,7.60242 5.85536,10.65846c0.60534,1.1019 -0.07781,1.82358 -1.06316,1.82358c-1.84161,0 -7.95218,0 -11.08914,0c-1.0897,0 -1.51236,-0.81242 -0.96731,-1.85009z" fill="url(#color-3)" stroke-width="2"/><path d="M232.28843,394.36348c1.59227,-3.03137 4.68309,-9.04256 5.54001,-10.67397c0.40894,-0.77855 1.28688,-0.75408 1.72424,0.04203c0.89089,1.62167 4.17648,7.60242 5.85536,10.65846c0.60534,1.1019 -0.07781,1.82358 -1.06316,1.82358c-1.84161,0 -7.95217,0 -11.08914,0c-1.08971,0 -1.51236,-0.81242 -0.96731,-1.85009z" fill="url(#color-4)" stroke-width="2"/></g></g></g></svg>