<svg version="1.1" xmlns="http://www.w3.org/2000/svg" xmlns:xlink="http://www.w3.org/1999/xlink" width="438.7674" height="112.66773" viewBox="0,0,438.7674,112.66773"><g transform="translate(-100.61521,-123.67415)"><g data-paper-data="{&quot;isPaintingLayer&quot;:true}" fill="#ffffff" fill-rule="nonzero" stroke="none" stroke-width="1" stroke-linecap="butt" stroke-linejoin="miter" stroke-miterlimit="10" stroke-dasharray="" stroke-dashoffset="0" style="mix-blend-mode: normal"><g><path d="M244.43072,222.28496v-58.42842h19.71371v58.42842zM254.40594,159.10502c-3.32545,0 -5.89844,-0.83137 -7.71899,-2.49412c-1.74201,-1.66237 -2.61302,-3.87918 -2.61302,-6.65043c0,-2.61268 0.87082,-4.82949 2.61245,-6.65043c1.82092,-1.82094 4.39391,-2.73142 7.71899,-2.73142c3.32545,0 5.85918,0.91047 7.60119,2.73142c1.82092,1.82094 2.73138,4.03776 2.73138,6.65043c0,2.77125 -0.91046,4.98806 -2.73138,6.65043c-1.74163,1.66275 -4.27499,2.49412 -7.60006,2.49412zM293.55926,223.47426c-5.70099,0 -10.01637,-1.50455 -12.94615,-4.51366c-2.84974,-3.08726 -4.27461,-7.3625 -4.27461,-12.82571v-27.67096h-7.83791v-14.60852h7.83791v-14.25117h19.71371v14.2523h12.82722v14.60569h-12.82835v24.82118c0,1.82132 0.35641,3.12766 1.06922,3.91901c0.79172,0.71282 1.97911,1.06923 3.56217,1.06923c2.13806,0 4.47376,-0.95012 7.00712,-2.85035l4.5136,12.94521c-2.2955,1.58573 -4.90813,2.85242 -7.83791,3.80008c-2.92978,0.87215 -6.53159,1.30823 -10.80545,1.30823zM342.04785,223.47426c-9.02606,0 -16.15173,-2.57303 -21.377,-7.7191c-5.14599,-5.14682 -7.71899,-12.629 -7.71899,-22.44655c0,-7.12558 1.46451,-13.10321 4.39354,-17.93289c3.00906,-4.98749 6.77134,-8.35245 11.28682,-10.09486c4.74956,-1.82094 9.14423,-2.73142 13.184,-2.73142c5.0667,0 9.3028,1.02921 12.70829,3.08764c3.40549,1.97952 5.8992,4.15687 7.48113,6.53207c1.66499,2.37482 2.85238,4.2354 3.56217,5.58176l-13.65405,8.78833c-1.26479,-2.61268 -2.65039,-4.67129 -4.15681,-6.17585c-1.50264,-1.50418 -3.32243,-2.25626 -5.45936,-2.25626c-3.00906,0 -5.38385,1.18741 -7.12435,3.56223c-1.7405,2.37557 -2.61075,5.9782 -2.61075,10.80787c0,5.22535 1.02882,9.06508 3.08646,11.51918c2.05764,2.45486 4.98742,3.68229 8.78934,3.68229c3.00906,0 5.50277,-0.555 7.48113,-1.66501c2.05764,-1.11001 3.99768,-2.53528 5.8201,-4.2758l6.29468,14.72462c-1.90058,1.58195 -4.71143,3.16579 -8.43255,4.75152c-3.72112,1.50267 -8.23396,2.254 -13.53852,2.254zM370.73212,222.28496v-79.33172h19.83264v24.10873c1.66235,-1.18779 3.6811,-2.217 6.05626,-3.08764c2.37478,-0.9503 5.22528,-1.42546 8.55148,-1.42546c6.96691,0 12.15254,1.98027 15.5569,5.94082c3.48364,3.96055 5.22546,9.54269 5.22546,16.74642v37.05507h-19.83264v-34.68214c0,-3.32248 -0.63239,-5.73694 -1.89718,-7.24338c-1.26479,-1.58195 -2.92789,-2.37293 -4.98931,-2.37293c-1.7405,0 -3.36396,0.39643 -4.87038,1.1893c-1.50264,0.79286 -2.76932,1.62537 -3.80003,2.49752v40.6173h-19.83264zM441.18273,223.47426c-3.16763,0 -5.66172,-0.91047 -7.48226,-2.73142c-1.82092,-1.82094 -2.73138,-4.1565 -2.73138,-7.00665c0,-2.85054 0.91046,-5.22573 2.73138,-7.12558c1.82092,-1.90023 4.31463,-2.85035 7.48113,-2.85035c3.00906,0 5.42405,0.95012 7.24497,2.85035c1.82356,1.90023 2.73534,4.27543 2.73534,7.12558c0,2.85054 -0.90989,5.18609 -2.72968,7.00665c-1.7405,1.82094 -4.15492,2.73142 -7.24327,2.73142zM455.76555,222.28496v-58.42842h19.71371v58.42842zM465.7385,159.11634c-3.3262,0 -5.89958,-0.83137 -7.72012,-2.49412c-1.74163,-1.66275 -2.61245,-3.87956 -2.61245,-6.65043c0,-2.61268 0.87082,-4.82949 2.61245,-6.65043c1.82092,-1.82094 4.39391,-2.73142 7.71899,-2.73142c3.32545,0 5.85918,0.91047 7.60119,2.73142c1.82092,1.82094 2.73138,4.03776 2.73138,6.65043c0,2.77125 -0.91046,4.98806 -2.73138,6.65043c-1.74163,1.66275 -4.27499,2.49412 -7.60006,2.49412zM510.29115,223.47426c-4.5925,0 -8.67003,-0.75209 -12.23258,-2.25626c-3.56293,-1.58346 -6.61107,-3.72118 -9.14442,-6.41314c-2.45407,-2.77125 -4.35427,-6.01746 -5.70061,-9.73864c-1.26668,-3.80046 -1.90001,-7.91769 -1.90001,-12.35169c0,-6.57096 1.42525,-12.31091 4.27574,-17.21988c2.92902,-4.82968 6.57086,-8.19463 10.92551,-10.09486c4.43356,-1.90023 9.02549,-2.85035 13.77581,-2.85035c6.8072,0 12.42702,1.58346 16.85944,4.75039c4.51171,3.16693 7.67934,7.12558 9.5029,11.87597c1.81979,4.75039 2.72968,9.2633 2.72968,13.53872c0,4.43362 -0.67392,8.55085 -2.02177,12.35169c-1.26479,3.7208 -3.16575,6.96682 -5.70287,9.73807c-2.45407,2.69196 -5.50277,4.83081 -9.14612,6.41654c-3.56217,1.50644 -7.6397,2.25966 -12.23258,2.25966zM510.29115,208.27279c3.32507,0 5.7395,-1.38562 7.24327,-4.15687c1.50453,-2.85054 2.2568,-6.65062 2.2568,-11.40025c0,-4.51328 -0.79172,-8.11591 -2.37516,-10.80787c-1.58193,-2.69196 -3.95671,-4.03794 -7.12435,-4.03794c-3.08835,0 -5.42349,1.34598 -7.00542,4.03794c-1.58193,2.69196 -2.37289,6.2944 -2.37289,10.8073c0,4.75039 0.75321,8.55047 2.25963,11.40025c1.5857,2.77125 3.96049,4.15687 7.12435,4.15687z"/><path d="M116.94004,124.37077c4.83074,-0.42192 28.74657,-0.69546 46.27937,-0.69659c17.53903,-0.00227 29.31289,0.10024 46.2856,0.69659c5.45936,3.24281 16.2195,15.6064 16.3271,18.84865v5.36769c0,6.80447 -6.35981,12.78324 -12.13064,12.78324c-6.9318,0 -12.70829,-5.74657 -12.70829,-12.5652c0,6.8192 -5.57828,12.5652 -12.51008,12.5652c-6.9318,0 -12.32886,-5.74657 -12.32886,-12.5652c0,6.8192 -5.93507,12.5652 -12.86686,12.5652h-0.12459c-6.9318,0 -12.8612,-5.74657 -12.8612,-12.5652c0,6.8192 -5.39933,12.5652 -12.33225,12.5652c-6.9335,0 -12.51178,-5.74657 -12.51178,-12.5652c-0.00113,6.8192 -5.77763,12.5652 -12.70943,12.5652c-5.7731,0 -12.13291,-5.97933 -12.13291,-12.78324v-5.36769c0.10307,-3.24225 10.86434,-15.60583 16.32597,-18.84865zM150.22965,158.17963c0.6592,1.15588 1.46791,2.21096 2.4182,3.13974c2.61698,2.55982 6.22502,4.14555 10.18136,4.14555c0.13818,0 0.2758,-0.00566 0.41342,-0.01133h0.00453c0.13592,0.00566 0.27523,0.01133 0.41342,0.01133c3.9586,0 7.56608,-1.58573 10.18249,-4.14555c0.94916,-0.92822 1.7573,-1.98556 2.41593,-3.14087c0.6626,1.15928 1.48943,2.21039 2.44085,3.14144c2.61641,2.55982 6.2052,4.14555 10.15984,4.14555c3.95463,0 7.56211,-1.58573 10.17853,-4.14668c0.94859,-0.92822 1.66839,-1.92326 2.32872,-3.07858l0.00283,0.0034c0.65863,1.15758 1.57891,2.14979 2.5275,3.08084c2.61698,2.55925 6.22672,4.14328 10.17966,4.14328c0.47741,0 0.97408,-0.13196 1.37617,-0.26787c0.55783,5.80377 0.79285,11.34985 0.8778,15.39459v0.02265c0.01076,2.05465 0.02039,3.74345 0.03002,6.08806c-0.1076,12.17783 1.20627,39.46934 -5.36874,46.17641c-10.18815,2.37293 -28.93685,3.45462 -47.74671,3.46029h-0.0017c-18.81099,-0.00566 -37.55856,-1.08736 -47.74671,-3.46595c-6.57501,-6.70537 -5.26114,-33.99688 -5.36874,-46.17867c0.01076,-2.34461 0.01925,-4.03228 0.03058,-6.08806v-0.02265c0.08212,-4.04927 0.31884,-9.59366 0.87497,-15.39855c0.40209,0.13592 0.89479,0.26618 1.3705,0.26618c3.95294,0 7.56041,-1.58403 10.17683,-4.14385c0.94576,-0.92992 1.86887,-1.92213 2.5258,-3.08084v-0.00227c0.6626,1.15645 1.38183,2.14979 2.32759,3.07858c2.61641,2.56095 6.22446,4.14668 10.18023,4.14668c3.9552,0 7.54343,-1.58573 10.15984,-4.14555c0.95199,-0.93048 1.77939,-1.98216 2.43972,-3.14087zM139.77079,171.69513c-1.95382,0 -9.7804,0 -15.23409,15.3136l-5.85578,21.0109c-4.342,15.62509 1.38919,16.01019 8.53619,16.02152c10.60044,-0.39643 16.46755,-8.09288 16.46755,-15.78932c5.86598,0.96276 12.71056,1.44415 19.55514,1.44415h0.00283c6.84402,0 13.69086,-0.48138 19.55797,-1.44415c0,7.69645 5.86711,15.39855 16.46868,15.78932c7.147,-0.01133 12.87706,-0.39643 8.53619,-16.02718l-5.85975,-21.0109c-5.45369,-15.3136 -13.27575,-15.3136 -15.23409,-15.3136v0.00566h-0.01133c-4.13982,0.01133 -7.81526,0 -12.37416,4.97239c-3.59049,-0.37378 -7.33389,-0.56633 -11.08861,-0.56067h-0.00566c-3.75472,-0.00623 -7.49812,0.18236 -11.08861,0.55784c-4.55324,-4.97409 -8.23434,-4.96503 -12.37416,-4.97409h-0.01133l0.00113,-0.00453zM163.23017,183.72232l0.00113,-0.00113v0.0034c0,0 11.1577,10.24777 13.16135,13.88928l-7.29991,-0.29109v6.36557c0,0.29789 -2.92959,0.17726 -5.86145,0.04134h-0.00396c-2.93129,0.13535 -5.86145,0.25655 -5.86145,-0.04191v-6.36557l-7.29991,0.29223c2.00365,-3.64151 13.15172,-13.88022 13.16135,-13.88985v-0.00396z"/></g></g></g></svg>