<svg version="1.1" xmlns="http://www.w3.org/2000/svg" xmlns:xlink="http://www.w3.org/1999/xlink" width="118.61944" height="31.11879" viewBox="0,0,118.61944,31.11879"><defs><linearGradient x1="351.37891" y1="223.09997" x2="351.37891" y2="263.21109" gradientUnits="userSpaceOnUse" id="color-1"><stop offset="0" stop-color="#229be6"/><stop offset="1" stop-color="#2681ff"/></linearGradient></defs><g transform="translate(-250.69028,-164.44063)"><g data-paper-data="{&quot;isPaintingLayer&quot;:true}" fill-rule="nonzero" stroke-linecap="butt" stroke-linejoin="miter" stroke-miterlimit="10" stroke-dasharray="" stroke-dashoffset="0" style="mix-blend-mode: normal"><path d="M306.74255,191.2129c0,-7.8019 0,-20.7657 0,-24.41123c0,-1.88649 1.2707,-3.04164 3.25333,-1.80684c5.99314,3.73257 18.49153,11.51665 22.06162,13.74013c1.86165,1.15945 1.4831,3.74891 -0.6233,4.91297c-3.51182,1.94074 -14.55496,8.04353 -20.61393,11.39191c-2.44451,1.35091 -4.07772,-0.24171 -4.07772,-3.82694z" fill="#ffffff" stroke="none" stroke-width="0"/><path d="M250.69028,183.3427c0,-5.95362 0,-3.58479 0,-7.12214c0,-4.77455 6.10037,-11.77993 12.61256,-11.77993c18.02073,0 60.82483,0 93.38676,0c7.85036,0 12.62012,5.89968 12.62012,12.53294c0,5.81881 0,3.20979 0,6.67033c0,4.81412 -4.64793,11.91552 -12.31891,11.91552c-0.34533,0 -0.69679,0 -1.05422,0c-33.10806,0 -74.75023,0 -92.63374,0c-6.5122,0 -12.61256,-5.70807 -12.61256,-12.21673z" fill="url(#color-1)" stroke="none" stroke-width="0"/><text transform="translate(305.99583,183.2263) scale(0.27964,0.27964)" font-size="40" xml:space="preserve" fill="#ffffff" fill-rule="nonzero" stroke="none" stroke-width="1" stroke-linecap="butt" stroke-linejoin="miter" stroke-miterlimit="10" stroke-dasharray="" stroke-dashoffset="0" font-family="Sans Serif" font-weight="normal" text-anchor="start" style="mix-blend-mode: normal"><tspan x="0" dy="0">More</tspan></text><g fill="#ffffff" stroke="#ffffff" stroke-width="1"><path d="M354.44949,178.60312c0.77149,0 1.3969,0.62541 1.3969,1.3969c0,0.77149 -0.62541,1.3969 -1.3969,1.3969c-0.77149,0 -1.3969,-0.62541 -1.3969,-1.3969c0,-0.77149 0.62541,-1.3969 1.3969,-1.3969z"/><path d="M358.92779,178.60312c0.77149,0 1.3969,0.62541 1.3969,1.3969c0,0.77149 -0.62541,1.3969 -1.3969,1.3969c-0.77149,0 -1.3969,-0.62541 -1.3969,-1.3969c0,-0.77149 0.62541,-1.3969 1.3969,-1.3969z"/><path d="M350.01228,178.60312c0.77149,0 1.3969,0.62541 1.3969,1.3969c0,0.77149 -0.62541,1.3969 -1.3969,1.3969c-0.77149,0 -1.3969,-0.62541 -1.3969,-1.3969c0,-0.77149 0.62541,-1.3969 1.3969,-1.3969z"/></g></g></g></svg>