<svg version="1.1" xmlns="http://www.w3.org/2000/svg" xmlns:xlink="http://www.w3.org/1999/xlink" width="34.45818" height="20" viewBox="0,0,34.45818,20"><g transform="translate(-600.13406,-5.14153)"><g data-paper-data="{&quot;isPaintingLayer&quot;:true}" fill-rule="nonzero" stroke-linecap="butt" stroke-linejoin="miter" stroke-miterlimit="10" stroke-dasharray="" stroke-dashoffset="0" style="mix-blend-mode: normal"><path d="M600.13406,25.14153v-20h34.45818v20z" fill="#666666" stroke="none" stroke-width="0"/><g stroke="#ffffff" stroke-width="1.5"><path d="M607.33074,14.90205c0,0 4.53675,-5.07355 10.13312,-5.07355c5.59637,0 10.13312,5.07355 10.13312,5.07355c0,0 -4.53675,5.07355 -10.13312,5.07355c-5.59637,0 -10.13312,-5.07355 -10.13312,-5.07355z" fill="none"/><path d="M615.18463,14.90205c0,-1.25878 1.02046,-2.27923 2.27924,-2.27923c1.25878,0 2.27922,1.02046 2.27922,2.27924c0,1.25878 -1.02044,2.27924 -2.27922,2.27924c-1.25878,0 -2.27924,-1.02046 -2.27924,-2.27924z" fill="#ffffff"/></g></g></g></svg>