<svg version="1.1" xmlns="http://www.w3.org/2000/svg" xmlns:xlink="http://www.w3.org/1999/xlink" width="663.8312" height="662.28716" viewBox="0,0,663.8312,662.28716"><g transform="translate(17.4026,187.96537)"><g data-paper-data="{&quot;isPaintingLayer&quot;:true}" fill="#313131" fill-rule="nonzero" stroke="none" stroke-width="0" stroke-linecap="butt" stroke-linejoin="miter" stroke-miterlimit="10" stroke-dasharray="" stroke-dashoffset="0" style="mix-blend-mode: normal"><path d="M0.73598,469.32179h-7.93651v-657.28716h7.93651z"/><path d="M645.70706,-6.91919v7.93651h-657.28716v-7.93651z"/><path d="M646.4286,474.32179h-7.93651v-657.28716h7.93651z"/><path d="M639.88456,360.27417v7.93651h-657.28716v-7.93651z"/><path d="M43.01301,84c0,-16.01626 12.98374,-29 29,-29c16.01626,0 29,12.98374 29,29c0,16.01626 -12.98374,29 -29,29c-16.01626,0 -29,-12.98374 -29,-29z"/><path d="M169.01301,84c0,-16.01626 12.98374,-29 29,-29c16.01626,0 29,12.98374 29,29c0,16.01626 -12.98374,29 -29,29c-16.01626,0 -29,-12.98374 -29,-29z"/><path d="M292.48699,111c0,-16.01626 12.98374,-29 29,-29c16.01626,0 29,12.98374 29,29c0,16.01626 -12.98374,29 -29,29c-16.01626,0 -29,-12.98374 -29,-29z"/><path d="M410.01301,84c0,-16.01626 12.98374,-29 29,-29c16.01626,0 29,12.98374 29,29c0,16.01626 -12.98374,29 -29,29c-16.01626,0 -29,-12.98374 -29,-29z"/><path d="M536.01301,84c0,-16.01626 12.98374,-29 29,-29c16.01626,0 29,12.98374 29,29c0,16.01626 -12.98374,29 -29,29c-16.01626,0 -29,-12.98374 -29,-29z"/><path d="M107.5,179c0,-16.01626 12.98374,-29 29,-29c16.01626,0 29,12.98374 29,29c0,16.01626 -12.98374,29 -29,29c-16.01626,0 -29,-12.98374 -29,-29z"/><path d="M229.48699,181c0,-16.01626 12.98374,-29 29,-29c16.01626,0 29,12.98374 29,29c0,16.01626 -12.98374,29 -29,29c-16.01626,0 -29,-12.98374 -29,-29z"/><path d="M348.5,179c0,-16.01626 12.98374,-29 29,-29c16.01626,0 29,12.98374 29,29c0,16.01626 -12.98374,29 -29,29c-16.01626,0 -29,-12.98374 -29,-29z"/><path d="M474.5,179c0,-16.01626 12.98374,-29 29,-29c16.01626,0 29,12.98374 29,29c0,16.01626 -12.98374,29 -29,29c-16.01626,0 -29,-12.98374 -29,-29z"/><path d="M44.5,279c0,-16.01626 12.98374,-29 29,-29c16.01626,0 29,12.98374 29,29c0,16.01626 -12.98374,29 -29,29c-16.01626,0 -29,-12.98374 -29,-29z"/><path d="M170.5,279c0,-16.01626 12.98374,-29 29,-29c16.01626,0 29,12.98374 29,29c0,16.01626 -12.98374,29 -29,29c-16.01626,0 -29,-12.98374 -29,-29z"/><path d="M292.48699,281c0,-16.01626 12.98374,-29 29,-29c16.01626,0 29,12.98374 29,29c0,16.01626 -12.98374,29 -29,29c-16.01626,0 -29,-12.98374 -29,-29z"/><path d="M411.5,279c0,-16.01626 12.98374,-29 29,-29c16.01626,0 29,12.98374 29,29c0,16.01626 -12.98374,29 -29,29c-16.01626,0 -29,-12.98374 -29,-29z"/><path d="M537.5,279c0,-16.01626 12.98374,-29 29,-29c16.01626,0 29,12.98374 29,29c0,16.01626 -12.98374,29 -29,29c-16.01626,0 -29,-12.98374 -29,-29z"/></g></g></svg>