<svg version="1.1" xmlns="http://www.w3.org/2000/svg" xmlns:xlink="http://www.w3.org/1999/xlink" width="108.67925" height="108.67925" viewBox="0,0,108.67925,108.67925"><g transform="translate(-265.66039,-125.6604)"><g data-paper-data="{&quot;isPaintingLayer&quot;:true}" fill-rule="nonzero" stroke="none" stroke-width="0" stroke-linecap="butt" stroke-linejoin="miter" stroke-miterlimit="10" stroke-dasharray="" stroke-dashoffset="0" style="mix-blend-mode: normal"><path d="M265.66039,234.33966v-108.67925h108.67925v108.67925z" fill="none"/><g><path d="M295.96277,190.56554c0,-3.65684 0,-1.29523 0,-3.5365c0,-3.60408 3.2301,-8.96579 9.37961,-9.14971c2.29496,-0.06864 11.98364,0 15.67353,0c4.66408,0 8.91982,5.34634 8.91982,8.87384c0,2.23956 0,-0.08037 0,3.62846c0,4.91902 -5.78016,9.51754 -9.47156,9.51754c-2.20718,0 -11.66726,0 -15.21375,0c-4.80086,0 -9.28765,-4.49855 -9.28765,-9.33363z" fill="#424242"/><path d="M296.11902,172.79211c0,-3.65684 0,-1.29523 0,-3.5365c0,-3.60408 3.2301,-8.96579 9.37961,-9.14971c2.29496,-0.06864 10.81176,0 14.50165,0c4.66408,0 8.91982,5.34634 8.91982,8.87384c0,2.23956 0,-0.08037 0,3.62846c0,4.91902 -5.78016,9.51754 -9.47156,9.51754c-2.20718,0 -10.49538,0 -14.04187,0c-4.80086,0 -9.28765,-4.49855 -9.28765,-9.33363z" fill="#424242"/><path d="M300.03846,180.00004c-0.28936,-19.88394 14.41582,-19.96154 19.96154,-19.96154c11.02445,0 19.96154,8.93709 19.96154,19.96154c0,11.02445 -8.93709,19.96154 -19.96154,19.96154c-3.48588,0 -19.67325,-0.15105 -19.96154,-19.96154z" fill="#595959"/><path d="M310.50002,180.01504c0,-3.65684 0,2.26306 0,0.0218c0,-3.60408 3.2301,-8.96579 9.37961,-9.14971c1.58176,-0.04731 19.24594,-0.05279 24.28699,-0.05163c0.87477,0.0002 3.87282,0.02688 3.87282,0.02688c0,0 -0.00095,2.84355 -0.00095,3.90687c0,2.0842 0,7.28924 0,10.92308c0,0.98738 -0.02062,3.84472 -0.02062,3.84472c0,0 -2.43124,-0.0409 -3.62147,-0.05374c-4.78187,-0.0516 -22.16419,-0.13463 -24.60872,-0.13463c-4.80086,0 -9.28765,-4.49855 -9.28765,-9.33363z" fill="#808080"/></g></g></g></svg>