<svg version="1.1" xmlns="http://www.w3.org/2000/svg" xmlns:xlink="http://www.w3.org/1999/xlink" width="98.61944" height="90.78853" viewBox="0,0,98.61944,90.78853"><defs><linearGradient x1="351.37894" y1="193.26508" x2="351.37894" y2="233.3762" gradientUnits="userSpaceOnUse" id="color-1"><stop offset="0" stop-color="#e6e6e6"/><stop offset="1" stop-color="#cccccc"/></linearGradient></defs><g transform="translate(-270.69031,-134.60574)"><g data-paper-data="{&quot;isPaintingLayer&quot;:true}" fill-rule="nonzero" stroke="none" stroke-linecap="butt" stroke-linejoin="miter" stroke-miterlimit="10" stroke-dasharray="" stroke-dashoffset="0" style="mix-blend-mode: normal"><path d="M270.69031,213.17755c0,-5.95362 0,-63.25453 0,-66.79188c0,-4.77455 6.10037,-11.77993 12.61256,-11.77993c18.02073,0 40.82483,0 73.38676,0c7.85036,0 12.62012,5.89968 12.62012,12.53294c0,5.81881 0,62.87953 0,66.34007c0,4.81412 -4.64793,11.91552 -12.31891,11.91552c-0.34533,0 -0.69679,0 -1.05422,0c-33.10806,0 -54.75023,0 -72.63374,0c-6.5122,0 -12.61256,-5.70807 -12.61256,-12.21673z" fill="url(#color-1)" stroke-width="0"/><text transform="translate(291.73238,215.4512) scale(0.25943,0.25943)" font-size="40" xml:space="preserve" fill="#000000" fill-rule="nonzero" stroke="none" stroke-width="1" stroke-linecap="butt" stroke-linejoin="miter" stroke-miterlimit="10" stroke-dasharray="" stroke-dashoffset="0" font-family="Sans Serif" font-weight="normal" text-anchor="start" style="mix-blend-mode: normal"><tspan x="0" dy="0">Top Players</tspan></text><path d="M337.72622,189.93917h-35.32027c-0.5753,0.01788 -1.14831,-0.08057 -1.68473,-0.28918c-0.53645,-0.20861 -1.02535,-0.52318 -1.43745,-0.92495c-0.41212,-0.40177 -0.73901,-0.88256 -0.96115,-1.41369c-0.22212,-0.53091 -0.33495,-1.10133 -0.3317,-1.67683v-12.20757c0.02881,-1.15166 0.50665,-2.24659 1.33151,-3.05079c0.82488,-0.8042 1.93147,-1.25431 3.08353,-1.25387h6.33557c0.13046,0 0.25962,-0.02561 0.38016,-0.0755c0.12051,-0.05011 0.23002,-0.12318 0.32228,-0.21545c0.09223,-0.09227 0.16541,-0.20177 0.21534,-0.3223c0.04991,-0.12049 0.07561,-0.24965 0.07561,-0.38011v-4.41503c0.02799,-1.13285 0.49049,-2.21158 1.29179,-3.01286c0.80128,-0.80128 1.88001,-1.2638 3.01286,-1.29179h12.27379c1.17087,0 2.29383,0.46517 3.12187,1.29314c0.82804,0.82797 1.29316,1.95096 1.29316,3.12189v9.86758c0,0.26358 0.10464,0.51612 0.29095,0.70243c0.18631,0.18631 0.43908,0.29095 0.70243,0.29095h6.00445c1.14791,0.03444 2.2371,0.51479 3.03666,1.33908c0.79956,0.82429 1.24636,1.9276 1.24592,3.07595v6.53425c0.00287,0.56424 -0.10574,1.12363 -0.31965,1.6457c-0.21391,0.52208 -0.52892,0.99691 -0.92694,1.39692c-0.39779,0.4 -0.87109,0.71744 -1.39206,0.934c-0.52097,0.21656 -1.0797,0.32804 -1.64394,0.32804zM302.40595,172.43356c-0.25963,0.00574 -0.50665,0.11303 -0.68819,0.29868c-0.18155,0.18565 -0.28318,0.4351 -0.28312,0.69471v12.20757c-0.00007,0.2596 0.10157,0.50905 0.28312,0.69471c0.18155,0.18565 0.42857,0.29294 0.68819,0.29868h35.32027c0.2596,-0.00574 0.50662,-0.11303 0.6883,-0.29868c0.18146,-0.18565 0.283,-0.4351 0.283,-0.69471v-6.755c0,-0.2596 -0.10155,-0.50905 -0.283,-0.69471c-0.18168,-0.18565 -0.4287,-0.29294 -0.6883,-0.29868h-6.11482c-1.1521,0.00044 -2.25873,-0.44967 -3.08346,-1.25387c-0.82495,-0.8042 -1.30288,-1.89913 -1.33157,-3.05079v-9.86758c0,-0.26345 -0.10464,-0.51612 -0.29095,-0.70241c-0.18631,-0.18631 -0.43907,-0.29097 -0.70243,-0.29097h-12.16342c-0.26347,0 -0.51614,0.10466 -0.70243,0.29097c-0.18629,0.18629 -0.29095,0.43897 -0.29095,0.70241v4.41503c0.00035,1.15208 -0.44961,2.25871 -1.25387,3.08344c-0.80426,0.82495 -1.89908,1.30288 -3.05079,1.33157z" fill="#000000" stroke-width="1"/></g></g></svg>