<svg version="1.1" xmlns="http://www.w3.org/2000/svg" xmlns:xlink="http://www.w3.org/1999/xlink" width="423.69969" height="142.10469" viewBox="0,0,423.69969,142.10469"><defs><linearGradient x1="153.62366" y1="108.94765" x2="153.62366" y2="165.78953" gradientUnits="userSpaceOnUse" id="color-1"><stop offset="0" stop-color="#c8ffc8"/><stop offset="1" stop-color="#aff0af"/></linearGradient><linearGradient x1="108.15016" y1="205.57884" x2="164.99203" y2="205.57884" gradientUnits="userSpaceOnUse" id="color-2"><stop offset="0" stop-color="#c8ffc8"/><stop offset="1" stop-color="#aff0af"/></linearGradient><linearGradient x1="204.78135" y1="251.05235" x2="204.78135" y2="194.21047" gradientUnits="userSpaceOnUse" id="color-3"><stop offset="0" stop-color="#c8ffc8"/><stop offset="1" stop-color="#aff0af"/></linearGradient><linearGradient x1="250.25485" y1="154.42116" x2="193.41297" y2="154.42116" gradientUnits="userSpaceOnUse" id="color-4"><stop offset="0" stop-color="#c8ffc8"/><stop offset="1" stop-color="#aff0af"/></linearGradient><linearGradient x1="407.30588" y1="162.66323" x2="407.33999" y2="174.2592" gradientUnits="userSpaceOnUse" id="color-5"><stop offset="0" stop-color="#c8ffc8"/><stop offset="1" stop-color="#aff0af"/></linearGradient></defs><g transform="translate(-108.15016,-108.94765)"><g data-paper-data="{&quot;isPaintingLayer&quot;:true}" stroke="none" stroke-width="1" stroke-linecap="butt" stroke-linejoin="miter" stroke-miterlimit="10" stroke-dasharray="" stroke-dashoffset="0" style="mix-blend-mode: normal"><path d="M153.62366,108.94765h17.05256c6.27853,0 11.36838,5.08979 11.36838,11.36838v17.05256v17.05256c0,6.27853 -5.08985,11.36838 -11.36838,11.36838h-17.05256h-17.05256c-6.27853,0 -11.36838,-5.08985 -11.36838,-11.36838v-17.05256c0,-15.69643 12.72451,-28.42094 28.42094,-28.42094z" fill="url(#color-1)" fill-rule="evenodd"/><path d="M108.15016,205.57884l0,-17.05256c0,-6.27853 5.08979,-11.36838 11.36838,-11.36838h17.05256h17.05256c6.27853,0 11.36838,5.08974 11.36838,11.36838v17.05256v17.05256c0,6.27875 -5.08985,11.36838 -11.36838,11.36838h-17.05256c-15.69643,0 -28.42094,-12.72451 -28.42094,-28.42094z" fill="url(#color-2)" fill-rule="evenodd"/><path d="M204.78135,251.05235h-17.05256c-6.27853,0 -11.36838,-5.08962 -11.36838,-11.36838v-17.05256v-17.05256c0,-6.27864 5.08985,-11.36838 11.36838,-11.36838h17.05256h17.05256c6.27875,0 11.36838,5.08985 11.36838,11.36838v17.05256c0,15.69632 -12.72451,28.42094 -28.42094,28.42094z" fill="url(#color-3)" fill-rule="evenodd"/><path d="M238.88647,182.84209h-17.05256h-17.05256c-6.27864,0 -11.36838,-5.08985 -11.36838,-11.36838v-17.05256v-17.05256c0,-6.27853 5.08985,-11.36838 11.36838,-11.36838h17.05256c15.69632,0 28.42094,12.72451 28.42094,28.42094v17.05256c0,6.27853 -5.08962,11.36838 -11.36838,11.36838zM225.51499,142.37068c1.37444,0 2.72841,0.32457 3.95165,0.9471c5.7217,2.91087 5.92974,10.97401 0.36606,14.17375l-2.22706,1.28122l6.0332,6.57797c0.39448,0.42972 0.08754,1.12092 -0.4968,1.12092h-19.99595c-1.85714,0 -3.36265,-1.49869 -3.36265,-3.3473v-17.00141c0,-2.07234 1.68764,-3.75225 3.76941,-3.75225z" fill="url(#color-4)" fill-rule="evenodd"/><path d="M299.42,196.88204l7.95786,1.98947c-0.51158,4.8884 -4.54735,9.26523 -10.23154,9.26523h-7.95786c-5.68419,0 -10.23154,-4.54735 -10.23154,-10.23154v-24.44201c0,-5.68419 4.54735,-10.23154 10.23154,-10.23154h7.95786c5.68419,0 9.7768,4.37682 10.23154,9.37891l-7.95786,1.98947c0,-1.93262 -1.42105,-3.63788 -3.97893,-3.63788h-4.54735c-2.55788,0 -3.97893,1.42105 -3.97893,3.97893v21.48623c0,2.55788 1.42105,3.97893 3.97893,3.97893h4.54735c2.50104,0 3.97893,-1.36421 3.97893,-3.5242zM320.75617,163.23165v44.90508h-7.38944v-44.90508zM342.66644,198.07572v-13.41468c0,-1.98947 -0.85263,-2.89894 -2.84209,-2.89894h-3.1263c-1.98947,0 -2.84209,0.90947 -2.84209,2.89894v13.41468c0,1.98947 0.85263,2.89894 2.84209,2.89894h3.1263c1.98947,0 2.84209,-0.90947 2.84209,-2.89894zM350.05588,182.61473v17.56414c0,4.60419 -3.41051,7.95786 -7.95786,7.95786h-7.67365c-4.54735,0 -7.95786,-3.35367 -7.95786,-7.95786v-17.62098c0,-4.60419 3.41051,-7.95786 7.95786,-7.95786h7.67365c4.54735,0 7.95786,3.41051 7.95786,8.0147zM372.04687,174.60002h7.55997l-9.37891,33.53671h-7.3326l-9.43575,-33.53671h7.55997l5.00209,18.81466c0.05684,0.22737 0.22737,0.6821 0.51158,0.6821c0.34105,0 0.45474,-0.45474 0.51158,-0.6821zM398.83303,187.95786v-3.35367c0.05684,-1.98947 -0.85263,-2.84209 -2.84209,-2.84209h-2.67157c-2.04631,0 -2.89894,0.85263 -2.89894,2.84209v3.35367zM406.22248,182.61473v12.56205h-15.80204v2.89894c0,1.98947 0.96631,2.89894 2.89894,2.89894h2.78525c1.98947,0 2.72841,-0.90947 2.84209,-2.55788l6.99155,1.7621v0.51158c0,4.60419 -3.35367,7.44629 -7.95786,7.44629h-6.93471c-4.60419,0 -8.0147,-3.35367 -8.0147,-7.95786v-17.62098c0,-4.54735 3.35367,-7.95786 7.90102,-7.95786h7.3326c4.60419,0 7.95786,3.41051 7.95786,8.0147zM429.00584,175.39581l-1.70526,6.93471c-0.73894,-0.45474 -1.19368,-0.56842 -2.78525,-0.56842h-2.38736c-1.98947,0.05684 -2.84209,0.90947 -2.84209,2.89894v23.47569h-7.38944v-33.53671h7.38944v2.95578c0.90947,-2.27368 3.18315,-3.06946 4.71788,-3.06946h1.81894c1.13684,0 2.4442,0.34105 3.18315,0.90947zM456.40589,192.95995h6.02524l-2.4442,-12.67574c-0.05684,-0.28421 -0.17053,-0.90947 -0.56842,-0.90947c-0.34105,0 -0.51158,0.62526 -0.56842,0.90947zM463.28376,163.23165l10.34522,44.90508h-8.24207l-1.47789,-7.44629h-8.98102l-1.47789,7.44629h-8.24207l10.34522,-44.90508zM495.16182,198.07572v-13.41468c0,-1.98947 -0.85263,-2.89894 -2.84209,-2.89894h-3.58104c-1.98947,0 -2.84209,0.90947 -2.84209,2.89894v13.41468c0,1.98947 0.85263,2.89894 2.84209,2.89894h3.58104c1.98947,0 2.84209,-0.90947 2.84209,-2.89894zM502.55127,163.23165v44.90508h-5.91156l-0.85263,-1.98947c-1.02315,1.30736 -2.61473,1.98947 -4.77472,1.98947h-4.60419c-4.54735,0 -7.90102,-3.35367 -7.90102,-7.95786v-17.62098c0,-4.60419 3.35367,-7.95786 7.90102,-7.95786h3.92209c1.98947,0 3.69472,0.62526 4.83156,2.04631v-13.41468zM531.84984,197.96203v2.21683c0,4.60419 -3.35367,7.95786 -7.90102,7.95786h-7.7305c-4.54735,0 -7.90102,-3.29683 -7.95786,-7.84418l7.38944,-1.87578c0.11368,1.7621 0.96631,2.55788 2.89894,2.55788h3.06946c1.98947,0 2.84209,-0.90947 2.84209,-2.61473v-0.22737c0,-0.85263 -0.45474,-1.47789 -1.81894,-1.98947l-8.35576,-3.06946c-2.78525,-1.02315 -6.02524,-3.80841 -6.02524,-8.24207v-2.27368c0,-4.54735 3.35367,-7.95786 7.90102,-7.95786h7.78734c4.54735,0 7.84418,3.29683 7.90102,7.84418l-7.38944,1.87578c-0.11368,-1.7621 -0.96631,-2.55788 -2.84209,-2.55788h-3.1263c-1.98947,0 -2.84209,0.90947 -2.84209,2.33052v0.34105c0,1.02315 0.34105,1.64841 1.59157,2.10315l8.81049,3.23999c3.01262,1.08 5.79787,3.63788 5.79787,8.18523z" fill="url(#color-5)" fill-rule="nonzero"/></g></g></svg>